<?xml version="1.0" standalone="no"?>
<!DOCTYPE svg PUBLIC "-//W3C//DTD SVG 20010904//EN"
 "http://www.w3.org/TR/2001/REC-SVG-20010904/DTD/svg10.dtd">
<svg version="1.0" xmlns="http://www.w3.org/2000/svg"
 width="297.000000pt" height="553.000000pt" viewBox="0 0 297.000000 553.000000"
 preserveAspectRatio="xMidYMid meet">

<g transform="translate(0.000000,553.000000) scale(0.100000,-0.100000)"
fill="#000000" stroke="none">
<path d="M0 5440 l0 -90 1485 0 1485 0 0 90 0 90 -1485 0 -1485 0 0 -90z
m1690 41 c0 -6 -4 -13 -10 -16 -5 -3 -10 1 -10 9 0 9 5 16 10 16 6 0 10 -4 10
-9z m17 -13 c-3 -8 -6 -5 -6 6 -1 11 2 17 5 13 3 -3 4 -12 1 -19z m223 13 c0
-6 -4 -13 -10 -16 -5 -3 -10 1 -10 9 0 9 5 16 10 16 6 0 10 -4 10 -9z m17 -13
c-3 -8 -6 -5 -6 6 -1 11 2 17 5 13 3 -3 4 -12 1 -19z m-1697 -28 c0 -33 -3
-40 -20 -40 -26 0 -27 36 -2 61 9 10 18 18 20 18 1 1 2 -17 2 -39z m1520 21
c0 -11 -5 -23 -12 -27 -8 -5 -6 -10 8 -15 16 -6 15 -8 -8 -8 -30 -1 -38 13
-13 23 8 3 15 13 15 22 0 10 -5 14 -16 10 -8 -3 -12 -2 -9 4 11 17 35 11 35
-9z m65 0 c8 -26 -5 -53 -24 -49 -29 6 -27 68 3 68 8 0 17 -8 21 -19z m60 0
c8 -26 -5 -53 -24 -49 -29 6 -27 68 3 68 8 0 17 -8 21 -19z m-1777 -8 c-10 -2
-18 -13 -18 -23 0 -10 8 -21 18 -23 16 -4 16 -5 -1 -6 -10 0 -20 6 -23 14 -9
23 3 45 23 44 17 -1 17 -2 1 -6z m76 -8 c8 -21 -3 -45 -20 -45 -18 0 -28 24
-20 45 3 8 12 15 20 15 7 0 16 -7 20 -15z m106 5 c0 -5 -4 -10 -10 -10 -5 0
-10 5 -10 10 0 6 5 10 10 10 6 0 10 -4 10 -10z m0 -40 c0 -5 -4 -10 -10 -10
-5 0 -10 5 -10 10 0 6 5 10 10 10 6 0 10 -4 10 -10z"/>
<path d="M220 5430 c0 -11 5 -20 10 -20 6 0 10 9 10 20 0 11 -4 20 -10 20 -5
0 -10 -9 -10 -20z"/>
<path d="M1800 5460 c0 -5 6 -10 13 -10 8 0 7 -3 -3 -10 -8 -5 -11 -12 -7 -16
12 -12 28 11 21 29 -7 18 -24 23 -24 7z"/>
<path d="M1860 5460 c0 -5 6 -10 13 -10 8 0 7 -3 -3 -10 -8 -5 -11 -12 -7 -16
12 -12 28 11 21 29 -7 18 -24 23 -24 7z"/>
<path d="M160 5430 c0 -13 5 -20 13 -17 6 2 12 10 12 17 0 7 -6 15 -12 18 -8
2 -13 -5 -13 -18z"/>
<path d="M1674 5276 c-9 -23 0 -51 17 -54 19 -4 32 23 24 49 -7 22 -33 25 -41
5z m30 -13 c7 -18 -9 -41 -21 -29 -4 4 -1 11 7 16 10 7 11 10 3 10 -7 0 -13 5
-13 10 0 16 17 11 24 -7z"/>
<path d="M1794 5276 c-9 -23 0 -51 17 -54 19 -4 32 23 24 49 -7 22 -33 25 -41
5z m30 -13 c7 -18 -9 -41 -21 -29 -4 4 -1 11 7 16 10 7 11 10 3 10 -7 0 -13 5
-13 10 0 16 17 11 24 -7z"/>
<path d="M1854 5276 c-9 -23 0 -51 17 -54 19 -4 32 23 24 49 -7 22 -33 25 -41
5z m30 -13 c7 -18 -9 -41 -21 -29 -4 4 -1 11 7 16 10 7 11 10 3 10 -7 0 -13 5
-13 10 0 16 17 11 24 -7z"/>
<path d="M1910 5270 c0 -11 7 -20 15 -20 18 0 20 -17 3 -23 -8 -2 -7 -3 2 -3
20 2 26 36 6 36 -22 0 -20 17 2 23 13 4 11 5 -5 6 -17 1 -23 -5 -23 -19z"/>
<path d="M1975 5280 c-3 -6 1 -7 9 -4 11 4 16 0 16 -10 0 -9 -7 -19 -15 -22
-25 -10 -17 -24 13 -23 23 0 24 2 8 8 -14 5 -16 10 -8 15 17 10 15 46 -2 46
-8 0 -18 -4 -21 -10z"/>
<path d="M91 5238 l1 -33 8 30 8 30 2 -30 2 -30 8 30 7 30 5 -30 5 -30 2 33
c1 28 -2 32 -24 32 -22 0 -25 -4 -24 -32z"/>
<path d="M154 5255 c-9 -23 3 -45 23 -44 17 1 17 2 1 6 -22 5 -24 23 -3 23 8
0 15 7 15 15 0 8 -7 15 -15 15 -9 0 -18 -7 -21 -15z"/>
<path d="M214 5259 c-4 -7 1 -16 12 -22 17 -10 17 -11 -1 -18 -19 -7 -18 -8 3
-8 26 -1 30 24 5 34 -17 7 -16 8 2 15 16 7 17 9 3 9 -9 1 -20 -4 -24 -10z"/>
<path d="M274 5259 c-4 -7 1 -16 12 -22 17 -10 17 -11 -1 -18 -19 -7 -18 -8 3
-8 26 -1 30 24 5 34 -17 7 -16 8 2 15 16 7 17 9 3 9 -9 1 -20 -4 -24 -10z"/>
<path d="M345 5260 c17 -7 17 -9 3 -9 -26 -1 -24 -41 2 -41 16 0 20 7 20 30 0
25 -4 30 -22 29 -22 0 -22 -1 -3 -9z m15 -30 c0 -5 -4 -10 -10 -10 -5 0 -10 5
-10 10 0 6 5 10 10 10 6 0 10 -4 10 -10z"/>
<path d="M397 5263 c-4 -3 -7 -21 -7 -40 0 -26 4 -33 19 -33 30 0 35 19 9 29
-13 6 -18 10 -11 10 7 1 17 10 23 21 9 17 8 20 -8 20 -10 0 -22 -3 -25 -7z
m23 -13 c0 -5 -4 -10 -10 -10 -5 0 -10 5 -10 10 0 6 5 10 10 10 6 0 10 -4 10
-10z m7 -46 c-3 -3 -12 -4 -19 -1 -8 3 -5 6 6 6 11 1 17 -2 13 -5z"/>
<path d="M454 5255 c-9 -23 3 -45 23 -44 17 1 17 2 1 6 -22 5 -24 23 -3 23 8
0 15 7 15 15 0 8 -7 15 -15 15 -9 0 -18 -7 -21 -15z"/>
<path d="M520 5260 c0 -5 5 -10 10 -10 6 0 10 5 10 10 0 6 -4 10 -10 10 -5 0
-10 -4 -10 -10z"/>
<path d="M1740 5230 c0 -5 5 -10 10 -10 6 0 10 5 10 10 0 6 -4 10 -10 10 -5 0
-10 -4 -10 -10z"/>
<path d="M520 5220 c0 -5 5 -10 10 -10 6 0 10 5 10 10 0 6 -4 10 -10 10 -5 0
-10 -4 -10 -10z"/>
<path d="M212 5083 c-8 -8 -9 -13 -2 -13 5 0 10 -11 10 -25 0 -17 5 -25 18
-24 10 0 12 3 5 6 -15 5 -17 40 -4 45 5 2 4 8 -3 14 -8 8 -15 7 -24 -3z"/>
<path d="M1675 5078 c-15 -22 -14 -23 5 -26 11 -2 20 -9 20 -15 0 -7 4 -6 10
3 7 12 12 12 22 2 27 -27 55 -1 43 39 -8 25 -36 24 -42 -1 -3 -11 -9 -20 -14
-20 -5 0 -9 9 -9 20 0 26 -15 25 -35 -2z m89 -5 c7 -18 -9 -41 -21 -29 -4 4
-1 11 7 16 10 7 11 10 3 10 -7 0 -13 5 -13 10 0 16 17 11 24 -7z m-64 -3 c0
-5 -4 -10 -10 -10 -5 0 -10 5 -10 10 0 6 5 10 10 10 6 0 10 -4 10 -10z"/>
<path d="M94 5065 c-9 -23 3 -45 23 -44 17 1 17 2 1 6 -10 2 -18 13 -18 23 0
10 8 21 18 23 16 4 16 5 -1 6 -10 0 -20 -6 -23 -14z"/>
<path d="M151 5048 c2 -31 2 -31 6 -5 2 15 8 27 13 27 5 0 11 -12 13 -27 4
-26 4 -26 6 5 1 26 -3 32 -19 32 -16 0 -20 -6 -19 -32z"/>
<path d="M280 5070 c0 -5 5 -10 10 -10 6 0 10 5 10 10 0 6 -4 10 -10 10 -5 0
-10 -4 -10 -10z"/>
<path d="M280 5030 c0 -5 5 -10 10 -10 6 0 10 5 10 10 0 6 -4 10 -10 10 -5 0
-10 -4 -10 -10z"/>
<path d="M98 4903 c6 -2 12 -17 12 -33 0 -16 -6 -31 -12 -33 -7 -3 -4 -6 7 -6
18 -1 20 4 17 39 -3 29 -8 40 -21 39 -10 0 -11 -2 -3 -6z"/>
<path d="M272 4893 c-8 -8 -9 -13 -2 -13 5 0 10 -11 10 -25 0 -17 5 -25 18
-24 10 0 12 3 5 6 -15 5 -17 40 -4 45 5 2 4 8 -3 14 -8 8 -15 7 -24 -3z"/>
<path d="M0 4865 c0 -14 4 -25 9 -25 5 0 16 11 25 25 16 24 16 25 -9 25 -20 0
-25 -5 -25 -25z"/>
<path d="M158 4883 c6 -2 12 -13 12 -23 0 -10 -6 -21 -12 -23 -7 -3 -4 -6 8
-6 17 -1 20 4 16 29 -3 20 -10 30 -21 29 -10 0 -11 -2 -3 -6z"/>
<path d="M214 4879 c-4 -7 1 -16 12 -22 17 -10 17 -11 -1 -18 -19 -7 -18 -8 3
-8 26 -1 30 24 5 34 -17 7 -16 8 2 15 16 7 17 9 3 9 -9 1 -20 -4 -24 -10z"/>
<path d="M340 4880 c0 -5 5 -10 10 -10 6 0 10 5 10 10 0 6 -4 10 -10 10 -5 0
-10 -4 -10 -10z"/>
<path d="M340 4840 c0 -5 5 -10 10 -10 6 0 10 5 10 10 0 6 -4 10 -10 10 -5 0
-10 -4 -10 -10z"/>
<path d="M254 4696 c-9 -23 0 -51 17 -54 19 -4 32 23 24 49 -7 22 -33 25 -41
5z m30 -13 c7 -18 -9 -41 -21 -29 -4 4 -1 11 7 16 10 7 11 10 3 10 -7 0 -13 5
-13 10 0 16 17 11 24 -7z"/>
<path d="M142 4678 c21 -31 33 -32 52 -3 l16 25 -41 0 c-40 0 -41 -1 -27 -22z"/>
<path d="M320 4690 c0 -5 5 -10 10 -10 6 0 10 5 10 10 0 6 -4 10 -10 10 -5 0
-10 -4 -10 -10z"/>
<path d="M320 4650 c0 -5 5 -10 10 -10 6 0 10 5 10 10 0 6 -4 10 -10 10 -5 0
-10 -4 -10 -10z"/>
<path d="M428 4511 c-25 -25 -24 -61 2 -61 17 0 20 7 20 40 0 22 -1 40 -2 39
-2 0 -11 -8 -20 -18z m12 -31 c0 -11 -4 -20 -10 -20 -5 0 -10 9 -10 20 0 11 5
20 10 20 6 0 10 -9 10 -20z"/>
<path d="M472 4513 c-8 -8 -9 -13 -2 -13 5 0 10 -11 10 -25 0 -17 5 -25 18
-24 10 0 12 3 5 6 -15 5 -17 40 -4 45 5 2 4 8 -3 14 -8 8 -15 7 -24 -3z"/>
<path d="M1674 4518 c-4 -7 -3 -8 4 -4 8 5 12 -1 12 -18 0 -13 -6 -27 -12 -29
-7 -3 -4 -6 7 -6 18 -1 20 4 17 34 -4 35 -15 44 -28 23z"/>
<path d="M1730 4510 c0 -11 7 -20 15 -20 18 0 20 -17 3 -23 -8 -2 -7 -3 2 -3
20 2 26 36 6 36 -22 0 -20 17 2 23 13 4 11 5 -5 6 -17 1 -23 -5 -23 -19z"/>
<path d="M1790 4510 c0 -11 7 -20 15 -20 18 0 20 -17 3 -23 -8 -2 -7 -3 2 -3
20 2 26 36 6 36 -22 0 -20 17 2 23 13 4 11 5 -5 6 -17 1 -23 -5 -23 -19z"/>
<path d="M1850 4510 c0 -11 7 -20 15 -20 18 0 20 -17 3 -23 -8 -2 -7 -3 2 -3
9 1 16 13 18 34 3 27 0 32 -17 32 -14 0 -21 -6 -21 -20z m30 0 c0 -5 -4 -10
-10 -10 -5 0 -10 5 -10 10 0 6 5 10 10 10 6 0 10 -4 10 -10z"/>
<path d="M1923 4524 c20 -6 22 -20 5 -27 -10 -4 -10 -6 0 -6 6 -1 12 -5 12
-10 0 -5 -6 -11 -12 -14 -8 -2 -7 -3 2 -3 10 1 15 12 15 31 0 22 -5 30 -20 32
-16 1 -16 1 -2 -3z"/>
<path d="M1970 4510 c0 -11 7 -20 15 -20 18 0 20 -17 3 -23 -8 -2 -7 -3 2 -3
9 1 16 13 18 34 3 27 0 32 -17 32 -14 0 -21 -6 -21 -20z m30 0 c0 -5 -4 -10
-10 -10 -5 0 -10 5 -10 10 0 6 5 10 10 10 6 0 10 -4 10 -10z"/>
<path d="M2037 4523 c-4 -3 -7 -17 -7 -30 0 -25 31 -45 38 -25 5 16 52 15 52
0 0 -9 3 -8 10 2 7 12 12 12 22 2 27 -27 57 3 42 42 -9 22 -35 20 -41 -4 -3
-11 -9 -20 -14 -20 -5 0 -9 9 -9 20 0 26 -15 26 -33 -1 l-15 -21 -7 21 c-6 21
-25 28 -38 14z m27 -20 c7 -18 -9 -41 -21 -29 -4 4 -1 11 7 16 10 7 11 10 3
10 -7 0 -13 5 -13 10 0 16 17 11 24 -7z m120 0 c7 -18 -9 -41 -21 -29 -4 4 -1
11 7 16 10 7 11 10 3 10 -7 0 -13 5 -13 10 0 16 17 11 24 -7z m-64 -3 c0 -5
-4 -10 -10 -10 -5 0 -10 5 -10 10 0 6 5 10 10 10 6 0 10 -4 10 -10z"/>
<path d="M2214 4516 c-9 -23 0 -51 17 -54 19 -4 32 23 24 49 -7 22 -33 25 -41
5z m30 -13 c7 -18 -9 -41 -21 -29 -4 4 -1 11 7 16 10 7 11 10 3 10 -7 0 -13 5
-13 10 0 16 17 11 24 -7z"/>
<path d="M540 4500 c0 -5 5 -10 10 -10 6 0 10 5 10 10 0 6 -4 10 -10 10 -5 0
-10 -4 -10 -10z"/>
<path d="M540 4460 c0 -5 5 -10 10 -10 6 0 10 5 10 10 0 6 -4 10 -10 10 -5 0
-10 -4 -10 -10z"/>
<path d="M302 4298 c21 -31 33 -32 52 -3 l16 25 -41 0 c-40 0 -41 -1 -27 -22z"/>
<path d="M411 4288 l1 -33 8 30 8 30 2 -30 2 -30 8 30 7 30 5 -30 5 -30 2 33
c1 28 -2 32 -24 32 -22 0 -25 -4 -24 -32z"/>
<path d="M485 4310 c17 -7 17 -9 3 -9 -26 -1 -24 -41 2 -41 16 0 20 7 20 30 0
25 -4 30 -22 29 -22 0 -22 -1 -3 -9z m15 -30 c0 -5 -4 -10 -10 -10 -5 0 -10 5
-10 10 0 6 5 10 10 10 6 0 10 -4 10 -10z"/>
<path d="M538 4313 c6 -2 12 -13 12 -23 0 -10 -6 -21 -12 -23 -7 -3 -4 -6 8
-6 17 -1 20 4 16 29 -3 20 -10 30 -21 29 -10 0 -11 -2 -3 -6z"/>
<path d="M591 4288 c2 -31 2 -31 6 -5 2 15 8 27 13 27 5 0 11 -12 13 -27 4
-26 4 -26 6 5 1 26 -3 32 -19 32 -16 0 -20 -6 -19 -32z"/>
<path d="M660 4310 c0 -5 5 -10 10 -10 6 0 10 5 10 10 0 6 -4 10 -10 10 -5 0
-10 -4 -10 -10z"/>
<path d="M660 4270 c0 -5 5 -10 10 -10 6 0 10 5 10 10 0 6 -4 10 -10 10 -5 0
-10 -4 -10 -10z"/>
<path d="M572 4133 c-8 -8 -9 -13 -2 -13 5 0 10 -11 10 -25 0 -17 5 -25 18
-24 10 0 12 3 5 6 -15 5 -17 40 -4 45 5 2 4 8 -3 14 -8 8 -15 7 -24 -3z"/>
<path d="M1674 4138 c-4 -7 -3 -8 4 -4 8 5 12 -1 12 -18 0 -13 -6 -27 -12 -29
-7 -3 -4 -6 7 -6 18 -1 20 4 17 34 -4 35 -15 44 -28 23z"/>
<path d="M1730 4130 c0 -11 7 -20 15 -20 18 0 20 -17 3 -23 -8 -2 -7 -3 2 -3
9 1 16 13 18 34 3 27 0 32 -17 32 -14 0 -21 -6 -21 -20z m30 0 c0 -5 -4 -10
-10 -10 -5 0 -10 5 -10 10 0 6 5 10 10 10 6 0 10 -4 10 -10z"/>
<path d="M1850 4130 c0 -11 7 -20 15 -20 18 0 20 -17 3 -23 -8 -2 -7 -3 2 -3
20 2 26 36 6 36 -22 0 -20 17 2 23 13 4 11 5 -5 6 -17 1 -23 -5 -23 -19z"/>
<path d="M1910 4130 c0 -11 7 -20 15 -20 18 0 20 -17 3 -23 -8 -2 -7 -3 2 -3
9 1 16 13 18 34 3 27 0 32 -17 32 -14 0 -21 -6 -21 -20z m30 0 c0 -5 -4 -10
-10 -10 -5 0 -10 5 -10 10 0 6 5 10 10 10 6 0 10 -4 10 -10z"/>
<path d="M634 4115 c-9 -23 3 -45 23 -44 17 1 17 2 1 6 -22 5 -24 23 -3 23 8
0 15 7 15 15 0 8 -7 15 -15 15 -9 0 -18 -7 -21 -15z"/>
<path d="M691 4098 l1 -33 8 30 8 30 2 -30 2 -30 8 30 7 30 5 -30 5 -30 2 33
c1 28 -2 32 -24 32 -22 0 -25 -4 -24 -32z"/>
<path d="M750 4090 c0 -39 0 -39 20 -23 24 21 25 24 5 17 -11 -4 -15 0 -15 16
0 16 4 20 15 16 8 -3 15 -1 15 4 0 6 -9 10 -20 10 -17 0 -20 -7 -20 -40z"/>
<path d="M820 4120 c0 -5 5 -10 10 -10 6 0 10 5 10 10 0 6 -4 10 -10 10 -5 0
-10 -4 -10 -10z"/>
<path d="M1800 4090 c0 -5 5 -10 10 -10 6 0 10 5 10 10 0 6 -4 10 -10 10 -5 0
-10 -4 -10 -10z"/>
<path d="M820 4080 c0 -5 5 -10 10 -10 6 0 10 5 10 10 0 6 -4 10 -10 10 -5 0
-10 -4 -10 -10z"/>
<path d="M572 3943 c-8 -8 -9 -13 -2 -13 5 0 10 -11 10 -25 0 -17 5 -25 18
-24 10 0 12 3 5 6 -15 5 -17 40 -4 45 5 2 4 8 -3 14 -8 8 -15 7 -24 -3z"/>
<path d="M1674 3948 c-4 -7 -3 -8 4 -4 8 5 12 -1 12 -18 0 -13 -6 -27 -12 -29
-7 -3 -4 -6 7 -6 18 -1 20 4 17 34 -4 35 -15 44 -28 23z"/>
<path d="M1735 3938 c-15 -22 -14 -23 5 -26 11 -2 20 -9 20 -15 0 -8 3 -8 9 1
9 16 2 62 -10 62 -4 0 -15 -10 -24 -22z m25 -8 c0 -5 -4 -10 -10 -10 -5 0 -10
5 -10 10 0 6 5 10 10 10 6 0 10 -4 10 -10z"/>
<path d="M1863 3954 c20 -6 22 -20 5 -27 -10 -4 -10 -6 0 -6 6 -1 12 -5 12
-10 0 -5 -6 -11 -12 -14 -8 -2 -7 -3 2 -3 10 1 15 12 15 31 0 22 -5 30 -20 32
-16 1 -16 1 -2 -3z"/>
<path d="M1910 3940 c0 -11 7 -20 15 -20 18 0 20 -17 3 -23 -8 -2 -7 -3 2 -3
20 2 26 36 6 36 -22 0 -20 17 2 23 13 4 11 5 -5 6 -17 1 -23 -5 -23 -19z"/>
<path d="M634 3925 c-9 -23 3 -45 23 -44 17 1 17 2 1 6 -22 5 -24 23 -3 23 8
0 15 7 15 15 0 8 -7 15 -15 15 -9 0 -18 -7 -21 -15z"/>
<path d="M691 3908 l1 -33 8 30 8 30 2 -30 2 -30 8 30 7 30 5 -30 5 -30 2 33
c1 28 -2 32 -24 32 -22 0 -25 -4 -24 -32z"/>
<path d="M750 3900 c0 -39 0 -39 20 -23 24 21 25 24 5 17 -11 -4 -15 0 -15 16
0 16 4 20 15 16 8 -3 15 -1 15 4 0 6 -9 10 -20 10 -17 0 -20 -7 -20 -40z"/>
<path d="M871 3908 l1 -33 8 30 8 30 2 -30 2 -30 8 30 7 30 5 -30 5 -30 2 33
c1 28 -2 32 -24 32 -22 0 -25 -4 -24 -32z"/>
<path d="M938 3933 c6 -2 12 -13 12 -23 0 -10 -6 -21 -12 -23 -7 -3 -4 -6 8
-6 17 -1 20 4 16 29 -3 20 -10 30 -21 29 -10 0 -11 -2 -3 -6z"/>
<path d="M991 3908 c2 -31 2 -31 6 -5 2 15 8 27 13 27 5 0 11 -12 13 -27 4
-26 4 -26 6 5 1 26 -3 32 -19 32 -16 0 -20 -6 -19 -32z"/>
<path d="M1060 3930 c0 -5 5 -10 10 -10 6 0 10 5 10 10 0 6 -4 10 -10 10 -5 0
-10 -4 -10 -10z"/>
<path d="M1800 3900 c0 -5 5 -10 10 -10 6 0 10 5 10 10 0 6 -4 10 -10 10 -5 0
-10 -4 -10 -10z"/>
<path d="M1060 3890 c0 -5 5 -10 10 -10 6 0 10 5 10 10 0 6 -4 10 -10 10 -5 0
-10 -4 -10 -10z"/>
<path d="M813 3863 c9 -2 25 -2 35 0 9 3 1 5 -18 5 -19 0 -27 -2 -17 -5z"/>
<path d="M572 3753 c-8 -8 -9 -13 -2 -13 5 0 10 -11 10 -25 0 -17 5 -25 18
-24 10 0 12 3 5 6 -15 5 -17 40 -4 45 5 2 4 8 -3 14 -8 8 -15 7 -24 -3z"/>
<path d="M1674 3758 c-4 -7 -3 -8 4 -4 8 5 12 -1 12 -18 0 -13 -6 -27 -12 -29
-7 -3 -4 -6 7 -6 18 -1 20 4 17 34 -4 35 -15 44 -28 23z"/>
<path d="M1730 3750 c0 -11 7 -20 15 -20 18 0 20 -17 3 -23 -8 -2 -7 -3 2 -3
9 1 16 13 18 34 3 27 0 32 -17 32 -14 0 -21 -6 -21 -20z m30 0 c0 -5 -4 -10
-10 -10 -5 0 -10 5 -10 10 0 6 5 10 10 10 6 0 10 -4 10 -10z"/>
<path d="M1850 3750 c0 -11 7 -20 15 -20 18 0 20 -17 3 -23 -8 -2 -7 -3 2 -3
20 2 26 36 6 36 -22 0 -20 17 2 23 13 4 11 5 -5 6 -17 1 -23 -5 -23 -19z"/>
<path d="M1910 3750 c0 -11 7 -20 15 -20 18 0 20 -17 3 -23 -8 -2 -7 -3 2 -3
9 1 16 13 18 34 3 27 0 32 -17 32 -14 0 -21 -6 -21 -20z m30 0 c0 -5 -4 -10
-10 -10 -5 0 -10 5 -10 10 0 6 5 10 10 10 6 0 10 -4 10 -10z"/>
<path d="M634 3735 c-9 -23 3 -45 23 -44 17 1 17 2 1 6 -22 5 -24 23 -3 23 8
0 15 7 15 15 0 8 -7 15 -15 15 -9 0 -18 -7 -21 -15z"/>
<path d="M691 3718 l1 -33 8 30 8 30 2 -30 2 -30 8 30 7 30 5 -30 5 -30 2 33
c1 28 -2 32 -24 32 -22 0 -25 -4 -24 -32z"/>
<path d="M750 3710 c0 -39 0 -39 20 -23 24 21 25 24 5 17 -11 -4 -15 0 -15 16
0 16 4 20 15 16 8 -3 15 -1 15 4 0 6 -9 10 -20 10 -17 0 -20 -7 -20 -40z"/>
<path d="M871 3718 l1 -33 8 30 8 30 2 -30 2 -30 8 30 7 30 5 -30 5 -30 2 33
c1 28 -2 32 -24 32 -22 0 -25 -4 -24 -32z"/>
<path d="M945 3740 c17 -7 17 -9 3 -9 -26 -1 -24 -41 2 -41 16 0 20 7 20 30 0
25 -4 30 -22 29 -22 0 -22 -1 -3 -9z m15 -30 c0 -5 -4 -10 -10 -10 -5 0 -10 5
-10 10 0 6 5 10 10 10 6 0 10 -4 10 -10z"/>
<path d="M994 3718 c-1 -21 2 -26 8 -16 7 10 11 10 15 1 2 -7 9 -13 15 -13 6
0 6 6 -2 15 -10 12 -10 18 0 30 9 10 9 15 1 15 -6 0 -11 -5 -11 -11 0 -8 -4
-8 -12 -1 -10 8 -13 3 -14 -20z"/>
<path d="M1060 3740 c0 -5 5 -10 10 -10 6 0 10 5 10 10 0 6 -4 10 -10 10 -5 0
-10 -4 -10 -10z"/>
<path d="M1800 3710 c0 -5 5 -10 10 -10 6 0 10 5 10 10 0 6 -4 10 -10 10 -5 0
-10 -4 -10 -10z"/>
<path d="M1060 3700 c0 -5 5 -10 10 -10 6 0 10 5 10 10 0 6 -4 10 -10 10 -5 0
-10 -4 -10 -10z"/>
<path d="M813 3673 c9 -2 25 -2 35 0 9 3 1 5 -18 5 -19 0 -27 -2 -17 -5z"/>
<path d="M1674 3568 c-4 -7 -3 -8 4 -4 8 5 12 -1 12 -18 0 -13 -6 -27 -12 -29
-7 -3 -4 -6 7 -6 18 -1 20 4 17 34 -4 35 -15 44 -28 23z"/>
<path d="M1734 3566 c-9 -23 0 -51 17 -54 19 -4 32 23 24 49 -7 22 -33 25 -41
5z m30 -13 c7 -18 -9 -41 -21 -29 -4 4 -1 11 7 16 10 7 11 10 3 10 -7 0 -13 5
-13 10 0 16 17 11 24 -7z"/>
<path d="M1794 3568 c-4 -7 -3 -8 4 -4 8 5 12 -1 12 -18 0 -13 -6 -27 -12 -29
-7 -3 -4 -6 7 -6 18 -1 20 4 17 34 -4 35 -15 44 -28 23z"/>
<path d="M1850 3560 c0 -11 7 -20 15 -20 18 0 20 -17 3 -23 -8 -2 -7 -3 2 -3
9 1 16 13 18 34 3 27 0 32 -17 32 -14 0 -21 -6 -21 -20z m30 0 c0 -5 -4 -10
-10 -10 -5 0 -10 5 -10 10 0 6 5 10 10 10 6 0 10 -4 10 -10z"/>
<path d="M1983 3573 c11 -3 16 -10 13 -19 -15 -37 -16 -47 -2 -24 22 35 20 50
-6 49 -19 -1 -19 -2 -5 -6z"/>
<path d="M2034 3568 c-4 -7 -3 -8 4 -4 8 5 12 -1 12 -18 0 -13 -6 -27 -12 -29
-7 -3 -4 -6 7 -6 18 -1 20 4 17 34 -4 35 -15 44 -28 23z"/>
<path d="M570 3520 c0 -39 0 -39 20 -23 24 21 25 24 5 17 -11 -4 -15 0 -15 16
0 16 4 20 15 16 8 -3 15 -1 15 4 0 6 -9 10 -20 10 -17 0 -20 -7 -20 -40z"/>
<path d="M631 3525 c1 -29 1 -29 8 -5 4 15 14 24 24 24 9 -1 14 2 12 6 -3 5
-14 8 -25 7 -16 -1 -20 -8 -19 -32z"/>
<path d="M694 3545 c-9 -23 3 -45 23 -44 17 1 17 2 1 6 -22 5 -24 23 -3 23 8
0 15 7 15 15 0 8 -7 15 -15 15 -9 0 -18 -7 -21 -15z"/>
<path d="M754 3549 c-4 -7 1 -16 12 -22 17 -10 17 -11 -1 -18 -19 -7 -18 -8 3
-8 26 -1 30 24 5 34 -17 7 -16 8 2 15 16 7 17 9 3 9 -9 1 -20 -4 -24 -10z"/>
<path d="M814 3549 c-4 -7 1 -16 12 -22 17 -10 17 -11 -1 -18 -19 -7 -18 -8 3
-8 26 -1 30 24 5 34 -17 7 -16 8 2 15 16 7 17 9 3 9 -9 1 -20 -4 -24 -10z"/>
<path d="M871 3533 c-1 -27 3 -33 19 -33 16 0 20 6 19 33 -2 30 -2 30 -6 5 -2
-16 -8 -28 -13 -28 -5 0 -11 12 -13 28 -4 25 -4 25 -6 -5z"/>
<path d="M931 3525 c1 -29 1 -29 8 -5 4 15 14 24 24 24 9 -1 14 2 12 6 -3 5
-14 8 -25 7 -16 -1 -20 -8 -19 -32z"/>
<path d="M994 3545 c-9 -23 3 -45 23 -44 17 1 17 2 1 6 -22 5 -24 23 -3 23 8
0 15 7 15 15 0 8 -7 15 -15 15 -9 0 -18 -7 -21 -15z"/>
<path d="M1060 3550 c0 -5 5 -10 10 -10 6 0 10 5 10 10 0 6 -4 10 -10 10 -5 0
-10 -4 -10 -10z"/>
<path d="M1920 3520 c0 -5 5 -10 10 -10 6 0 10 5 10 10 0 6 -4 10 -10 10 -5 0
-10 -4 -10 -10z"/>
<path d="M1060 3510 c0 -5 5 -10 10 -10 6 0 10 5 10 10 0 6 -4 10 -10 10 -5 0
-10 -4 -10 -10z"/>
<path d="M818 3383 c6 -2 12 -17 12 -33 0 -16 -6 -31 -12 -33 -7 -3 -4 -6 7
-6 18 -1 20 4 17 39 -3 29 -8 40 -21 39 -10 0 -11 -2 -3 -6z"/>
<path d="M1058 3383 c6 -2 12 -17 12 -33 0 -16 -6 -31 -12 -33 -7 -3 -4 -6 7
-6 18 -1 20 4 17 39 -3 29 -8 40 -21 39 -10 0 -11 -2 -3 -6z"/>
<path d="M1674 3378 c-4 -7 -3 -8 4 -4 8 5 12 -1 12 -18 0 -13 -6 -27 -12 -29
-7 -3 -4 -6 7 -6 18 -1 20 4 17 34 -4 35 -15 44 -28 23z"/>
<path d="M1734 3376 c-9 -23 0 -51 17 -54 19 -4 32 23 24 49 -7 22 -33 25 -41
5z m30 -13 c7 -18 -9 -41 -21 -29 -4 4 -1 11 7 16 10 7 11 10 3 10 -7 0 -13 5
-13 10 0 16 17 11 24 -7z"/>
<path d="M1794 3378 c-4 -7 -3 -8 4 -4 8 5 12 -1 12 -18 0 -13 -6 -27 -12 -29
-7 -3 -4 -6 7 -6 18 -1 20 4 17 34 -4 35 -15 44 -28 23z"/>
<path d="M1850 3370 c0 -11 7 -20 15 -20 18 0 20 -17 3 -23 -8 -2 -7 -3 2 -3
9 1 16 13 18 34 3 27 0 32 -17 32 -14 0 -21 -6 -21 -20z m30 0 c0 -5 -4 -10
-10 -10 -5 0 -10 5 -10 10 0 6 5 10 10 10 6 0 10 -4 10 -10z"/>
<path d="M1983 3383 c11 -3 16 -10 13 -19 -15 -37 -16 -47 -2 -24 22 35 20 50
-6 49 -19 -1 -19 -2 -5 -6z"/>
<path d="M2034 3378 c-4 -7 -3 -8 4 -4 8 5 12 -1 12 -18 0 -13 -6 -27 -12 -29
-7 -3 -4 -6 7 -6 18 -1 20 4 17 34 -4 35 -15 44 -28 23z"/>
<path d="M574 3359 c-4 -7 1 -16 12 -22 17 -10 17 -11 -1 -18 -19 -7 -18 -8 3
-8 26 -1 30 24 5 34 -17 7 -16 8 2 15 16 7 17 9 3 9 -9 1 -20 -4 -24 -10z"/>
<path d="M634 3355 c-9 -23 3 -45 23 -44 17 1 17 2 1 6 -22 5 -24 23 -3 23 8
0 15 7 15 15 0 8 -7 15 -15 15 -9 0 -18 -7 -21 -15z"/>
<path d="M705 3360 c17 -7 17 -9 3 -9 -26 -1 -24 -41 2 -41 16 0 20 7 20 30 0
25 -4 30 -22 29 -22 0 -22 -1 -3 -9z m15 -30 c0 -5 -4 -10 -10 -10 -5 0 -10 5
-10 10 0 6 5 10 10 10 6 0 10 -4 10 -10z"/>
<path d="M874 3355 c-9 -23 3 -45 23 -44 17 1 17 2 1 6 -22 5 -24 23 -3 23 8
0 15 7 15 15 0 8 -7 15 -15 15 -9 0 -18 -7 -21 -15z"/>
<path d="M935 3345 c7 -33 12 -41 20 -33 3 3 -2 18 -11 34 l-16 29 7 -30z"/>
<path d="M965 3359 c-4 -6 -5 -12 -2 -15 2 -3 7 2 10 11 7 17 1 20 -8 4z"/>
<path d="M994 3355 c-9 -23 3 -45 23 -44 17 1 17 2 1 6 -22 5 -24 23 -3 23 8
0 15 7 15 15 0 8 -7 15 -15 15 -9 0 -18 -7 -21 -15z"/>
<path d="M1120 3360 c0 -5 5 -10 10 -10 6 0 10 5 10 10 0 6 -4 10 -10 10 -5 0
-10 -4 -10 -10z"/>
<path d="M1920 3330 c0 -5 5 -10 10 -10 6 0 10 5 10 10 0 6 -4 10 -10 10 -5 0
-10 -4 -10 -10z"/>
<path d="M1120 3320 c0 -5 5 -10 10 -10 6 0 10 5 10 10 0 6 -4 10 -10 10 -5 0
-10 -4 -10 -10z"/>
<path d="M753 3293 c9 -2 25 -2 35 0 9 3 1 5 -18 5 -19 0 -27 -2 -17 -5z"/>
<path d="M768 3181 c-25 -25 -24 -61 2 -61 17 0 20 7 20 40 0 22 -1 40 -2 39
-2 0 -11 -8 -20 -18z m12 -31 c0 -11 -4 -20 -10 -20 -5 0 -10 9 -10 20 0 11 5
20 10 20 6 0 10 -9 10 -20z"/>
<path d="M878 3193 c6 -2 12 -17 12 -33 0 -16 -6 -31 -12 -33 -7 -3 -4 -6 7
-6 18 -1 20 4 17 39 -3 29 -8 40 -21 39 -10 0 -11 -2 -3 -6z"/>
<path d="M1118 3193 c6 -2 12 -17 12 -33 0 -16 -6 -31 -12 -33 -7 -3 -4 -6 7
-6 18 -1 20 4 17 39 -3 29 -8 40 -21 39 -10 0 -11 -2 -3 -6z"/>
<path d="M1674 3188 c-4 -7 -3 -8 4 -4 8 5 12 -1 12 -18 0 -13 -6 -27 -12 -29
-7 -3 -4 -6 7 -6 18 -1 20 4 17 34 -4 35 -15 44 -28 23z"/>
<path d="M1734 3186 c-9 -23 0 -51 17 -54 19 -4 32 23 24 49 -7 22 -33 25 -41
5z m30 -13 c7 -18 -9 -41 -21 -29 -4 4 -1 11 7 16 10 7 11 10 3 10 -7 0 -13 5
-13 10 0 16 17 11 24 -7z"/>
<path d="M1795 3190 c-3 -6 1 -7 9 -4 11 4 16 0 16 -10 0 -9 -7 -19 -15 -22
-25 -10 -17 -24 13 -23 23 0 24 2 8 8 -14 5 -16 10 -8 15 17 10 15 46 -2 46
-8 0 -18 -4 -21 -10z"/>
<path d="M1854 3186 c-9 -23 0 -51 17 -54 19 -4 32 23 24 49 -7 22 -33 25 -41
5z m30 -13 c7 -18 -9 -41 -21 -29 -4 4 -1 11 7 16 10 7 11 10 3 10 -7 0 -13 5
-13 10 0 16 17 11 24 -7z"/>
<path d="M1975 3190 c-3 -6 1 -7 9 -4 11 4 16 0 16 -10 0 -9 -7 -19 -15 -22
-25 -10 -17 -24 13 -23 23 0 24 2 8 8 -14 5 -16 10 -8 15 17 10 15 46 -2 46
-8 0 -18 -4 -21 -10z"/>
<path d="M2030 3180 c0 -11 7 -20 15 -20 18 0 20 -17 3 -23 -8 -2 -7 -3 2 -3
9 1 16 13 18 34 3 27 0 32 -17 32 -14 0 -21 -6 -21 -20z m30 0 c0 -5 -4 -10
-10 -10 -5 0 -10 5 -10 10 0 6 5 10 10 10 6 0 10 -4 10 -10z"/>
<path d="M577 3173 c-4 -3 -7 -21 -7 -40 0 -26 4 -33 19 -33 30 0 35 19 9 29
-13 6 -18 10 -11 10 7 1 17 10 23 21 9 17 8 20 -8 20 -10 0 -22 -3 -25 -7z
m23 -13 c0 -5 -4 -10 -10 -10 -5 0 -10 5 -10 10 0 6 5 10 10 10 6 0 10 -4 10
-10z m7 -46 c-3 -3 -12 -4 -19 -1 -8 3 -5 6 6 6 11 1 17 -2 13 -5z"/>
<path d="M631 3145 c1 -29 1 -29 8 -5 4 15 14 24 24 24 9 -1 14 2 12 6 -3 5
-14 8 -25 7 -16 -1 -20 -8 -19 -32z"/>
<path d="M691 3148 c2 -31 2 -31 6 -5 2 15 8 27 13 27 5 0 11 -12 13 -27 4
-26 4 -26 6 5 1 26 -3 32 -19 32 -16 0 -20 -6 -19 -32z"/>
<path d="M934 3165 c-9 -23 3 -45 23 -44 17 1 17 2 1 6 -22 5 -24 23 -3 23 8
0 15 7 15 15 0 8 -7 15 -15 15 -9 0 -18 -7 -21 -15z"/>
<path d="M995 3155 c7 -33 12 -41 20 -33 3 3 -2 18 -11 34 l-16 29 7 -30z"/>
<path d="M1025 3169 c-4 -6 -5 -12 -2 -15 2 -3 7 2 10 11 7 17 1 20 -8 4z"/>
<path d="M1054 3165 c-9 -23 3 -45 23 -44 17 1 17 2 1 6 -22 5 -24 23 -3 23 8
0 15 7 15 15 0 8 -7 15 -15 15 -9 0 -18 -7 -21 -15z"/>
<path d="M1180 3170 c0 -5 5 -10 10 -10 6 0 10 5 10 10 0 6 -4 10 -10 10 -5 0
-10 -4 -10 -10z"/>
<path d="M1920 3140 c0 -5 5 -10 10 -10 6 0 10 5 10 10 0 6 -4 10 -10 10 -5 0
-10 -4 -10 -10z"/>
<path d="M1180 3130 c0 -5 5 -10 10 -10 6 0 10 5 10 10 0 6 -4 10 -10 10 -5 0
-10 -4 -10 -10z"/>
<path d="M813 3103 c9 -2 25 -2 35 0 9 3 1 5 -18 5 -19 0 -27 -2 -17 -5z"/>
<path d="M572 2970 c1 -28 3 -34 5 -17 2 15 8 27 13 27 5 0 11 -12 13 -27 4
-26 4 -26 6 5 1 22 -4 32 -13 32 -8 0 -17 6 -19 13 -3 6 -5 -8 -5 -33z"/>
<path d="M828 2991 c-25 -25 -24 -61 2 -61 17 0 20 7 20 40 0 22 -1 40 -2 39
-2 0 -11 -8 -20 -18z m12 -31 c0 -11 -4 -20 -10 -20 -5 0 -10 9 -10 20 0 11 5
20 10 20 6 0 10 -9 10 -20z"/>
<path d="M932 2993 c-8 -8 -9 -13 -2 -13 5 0 10 -11 10 -25 0 -17 5 -25 18
-24 10 0 12 3 5 6 -15 5 -17 40 -4 45 5 2 4 8 -3 14 -8 8 -15 7 -24 -3z"/>
<path d="M1672 2975 c0 -27 4 -35 18 -35 14 0 18 8 18 35 0 27 -4 35 -18 35
-14 0 -18 -8 -18 -35z m28 15 c0 -5 -4 -10 -10 -10 -5 0 -10 5 -10 10 0 6 5
10 10 10 6 0 10 -4 10 -10z m0 -30 c0 -5 -4 -10 -10 -10 -5 0 -10 5 -10 10 0
6 5 10 10 10 6 0 10 -4 10 -10z"/>
<path d="M1735 3000 c-3 -6 1 -7 9 -4 11 4 16 0 16 -10 0 -9 -7 -19 -15 -22
-25 -10 -17 -24 13 -23 23 0 24 2 8 8 -14 5 -16 10 -8 15 17 10 15 46 -2 46
-8 0 -18 -4 -21 -10z"/>
<path d="M631 2963 c-1 -27 3 -33 19 -33 16 0 20 6 19 33 -2 30 -2 30 -6 5 -2
-16 -8 -28 -13 -28 -5 0 -11 12 -13 28 -4 25 -4 25 -6 -5z"/>
<path d="M691 2958 l1 -33 8 30 8 30 2 -30 2 -30 8 30 7 30 5 -30 5 -30 2 33
c1 28 -2 32 -24 32 -22 0 -25 -4 -24 -32z"/>
<path d="M758 2983 c6 -2 12 -13 12 -23 0 -10 -6 -21 -12 -23 -7 -3 -4 -6 8
-6 17 -1 20 4 16 29 -3 20 -10 30 -21 29 -10 0 -11 -2 -3 -6z"/>
<path d="M878 2983 c6 -2 12 -13 12 -23 0 -10 -6 -21 -12 -23 -7 -3 -4 -6 8
-6 17 -1 20 4 16 29 -3 20 -10 30 -21 29 -10 0 -11 -2 -3 -6z"/>
<path d="M995 2961 c5 -23 3 -36 -6 -42 -8 -5 -9 -9 -3 -9 26 0 35 27 18 56
l-15 29 6 -34z"/>
<path d="M1025 2979 c-4 -6 -5 -12 -2 -15 2 -3 7 2 10 11 7 17 1 20 -8 4z"/>
<path d="M1060 2980 c0 -5 5 -10 10 -10 6 0 10 5 10 10 0 6 -4 10 -10 10 -5 0
-10 -4 -10 -10z"/>
<path d="M1060 2940 c0 -5 5 -10 10 -10 6 0 10 5 10 10 0 6 -4 10 -10 10 -5 0
-10 -4 -10 -10z"/>
<path d="M572 2803 c-8 -8 -9 -13 -2 -13 5 0 10 -11 10 -25 0 -17 5 -25 18
-24 10 0 12 3 5 6 -15 5 -17 40 -4 45 5 2 4 8 -3 14 -8 8 -15 7 -24 -3z"/>
<path d="M871 2780 c0 -29 2 -40 8 -31 6 9 11 10 15 2 4 -6 11 -11 16 -11 6 0
2 9 -8 20 -9 11 -20 30 -24 43 -4 15 -6 8 -7 -23z"/>
<path d="M942 2803 c-5 -10 -6 -29 -1 -43 6 -23 7 -23 8 -3 1 12 7 24 14 26
10 4 10 6 0 6 -19 1 -16 19 5 24 16 4 16 5 0 6 -10 0 -21 -7 -26 -16z"/>
<path d="M1670 2800 c0 -11 7 -20 15 -20 18 0 20 -17 3 -23 -8 -2 -7 -3 2 -3
20 2 26 36 6 36 -22 0 -20 17 2 23 13 4 11 5 -5 6 -17 1 -23 -5 -23 -19z"/>
<path d="M1795 2810 c-3 -6 1 -7 9 -4 11 4 16 0 16 -10 0 -9 -7 -19 -15 -22
-25 -10 -17 -24 13 -23 23 0 24 2 8 8 -14 5 -16 10 -8 15 17 10 15 46 -2 46
-8 0 -18 -4 -21 -10z"/>
<path d="M1855 2798 c-15 -22 -14 -23 5 -26 11 -2 20 -9 20 -15 0 -8 3 -8 9 1
9 16 2 62 -10 62 -4 0 -15 -10 -24 -22z m25 -8 c0 -5 -4 -10 -10 -10 -5 0 -10
5 -10 10 0 6 5 10 10 10 6 0 10 -4 10 -10z"/>
<path d="M634 2785 c-9 -23 3 -45 23 -44 17 1 17 2 1 6 -22 5 -24 23 -3 23 8
0 15 7 15 15 0 8 -7 15 -15 15 -9 0 -18 -7 -21 -15z"/>
<path d="M691 2768 l1 -33 8 30 8 30 2 -30 2 -30 8 30 7 30 5 -30 5 -30 2 33
c1 28 -2 32 -24 32 -22 0 -25 -4 -24 -32z"/>
<path d="M750 2760 c0 -39 0 -39 20 -23 24 21 25 24 5 17 -11 -4 -15 0 -15 16
0 16 4 20 15 16 8 -3 15 -1 15 4 0 6 -9 10 -20 10 -17 0 -20 -7 -20 -40z"/>
<path d="M895 2790 c-3 -6 1 -7 9 -4 18 7 21 14 7 14 -6 0 -13 -4 -16 -10z"/>
<path d="M1000 2790 c0 -5 5 -10 10 -10 6 0 10 5 10 10 0 6 -4 10 -10 10 -5 0
-10 -4 -10 -10z"/>
<path d="M1740 2760 c0 -5 5 -10 10 -10 6 0 10 5 10 10 0 6 -4 10 -10 10 -5 0
-10 -4 -10 -10z"/>
<path d="M1000 2750 c0 -5 5 -10 10 -10 6 0 10 5 10 10 0 6 -4 10 -10 10 -5 0
-10 -4 -10 -10z"/>
<path d="M813 2723 c9 -2 25 -2 35 0 9 3 1 5 -18 5 -19 0 -27 -2 -17 -5z"/>
<path d="M592 2613 c-8 -8 -9 -13 -2 -13 5 0 10 -11 10 -25 0 -17 5 -25 18
-24 10 0 12 3 5 6 -15 5 -17 40 -4 45 5 2 4 8 -3 14 -8 8 -15 7 -24 -3z"/>
<path d="M652 2590 c1 -28 3 -34 5 -17 2 15 8 27 13 27 5 0 11 -12 13 -27 4
-26 4 -26 6 5 1 22 -4 32 -13 32 -8 0 -17 6 -19 13 -3 6 -5 -8 -5 -33z"/>
<path d="M302 2588 c21 -31 33 -32 52 -3 l16 25 -41 0 c-40 0 -41 -1 -27 -22z"/>
<path d="M451 2598 c0 -9 -4 -25 -7 -35 -5 -17 -5 -17 6 0 6 10 9 25 7 35 -4
15 -5 15 -6 0z"/>
<path d="M474 2595 c-9 -23 3 -45 23 -44 17 1 17 2 1 6 -22 5 -24 23 -3 23 8
0 15 7 15 15 0 8 -7 15 -15 15 -9 0 -18 -7 -21 -15z"/>
<path d="M545 2600 c17 -7 17 -9 3 -9 -26 -1 -24 -41 2 -41 16 0 20 7 20 30 0
25 -4 30 -22 29 -22 0 -22 -1 -3 -9z m15 -30 c0 -5 -4 -10 -10 -10 -5 0 -10 5
-10 10 0 6 5 10 10 10 6 0 10 -4 10 -10z"/>
<path d="M714 2595 c-9 -23 3 -45 23 -44 17 1 17 2 1 6 -22 5 -24 23 -3 23 8
0 15 7 15 15 0 8 -7 15 -15 15 -9 0 -18 -7 -21 -15z"/>
<path d="M771 2575 c1 -29 1 -29 8 -5 4 15 14 24 24 24 9 -1 14 2 12 6 -3 5
-14 8 -25 7 -16 -1 -20 -8 -19 -32z"/>
<path d="M840 2600 c0 -5 5 -10 10 -10 6 0 10 5 10 10 0 6 -4 10 -10 10 -5 0
-10 -4 -10 -10z"/>
<path d="M422 2588 c-6 -6 -12 -19 -12 -27 0 -13 2 -13 16 1 9 9 15 21 13 27
-3 9 -8 8 -17 -1z"/>
<path d="M840 2560 c0 -5 5 -10 10 -10 6 0 10 5 10 10 0 6 -4 10 -10 10 -5 0
-10 -4 -10 -10z"/>
<path d="M574 2416 c-9 -23 0 -51 17 -54 19 -4 32 23 24 49 -7 22 -33 25 -41
5z m30 -13 c7 -18 -9 -41 -21 -29 -4 4 -1 11 7 16 10 7 11 10 3 10 -7 0 -13 5
-13 10 0 16 17 11 24 -7z"/>
<path d="M462 2398 c21 -31 33 -32 52 -3 l16 25 -41 0 c-40 0 -41 -1 -27 -22z"/>
<path d="M640 2410 c0 -5 5 -10 10 -10 6 0 10 5 10 10 0 6 -4 10 -10 10 -5 0
-10 -4 -10 -10z"/>
<path d="M640 2370 c0 -5 5 -10 10 -10 6 0 10 5 10 10 0 6 -4 10 -10 10 -5 0
-10 -4 -10 -10z"/>
<path d="M808 2231 c-25 -25 -24 -61 2 -61 17 0 20 7 20 40 0 22 -1 40 -2 39
-2 0 -11 -8 -20 -18z m12 -31 c0 -11 -4 -20 -10 -20 -5 0 -10 9 -10 20 0 11 5
20 10 20 6 0 10 -9 10 -20z"/>
<path d="M1672 2215 c0 -27 4 -35 18 -35 14 0 18 8 18 35 0 27 -4 35 -18 35
-14 0 -18 -8 -18 -35z m28 15 c0 -5 -4 -10 -10 -10 -5 0 -10 5 -10 10 0 6 5
10 10 10 6 0 10 -4 10 -10z m0 -30 c0 -5 -4 -10 -10 -10 -5 0 -10 5 -10 10 0
6 5 10 10 10 6 0 10 -4 10 -10z"/>
<path d="M1734 2236 c-9 -23 0 -51 17 -54 19 -4 32 23 24 49 -7 22 -33 25 -41
5z m30 -13 c7 -18 -9 -41 -21 -29 -4 4 -1 11 7 16 10 7 11 10 3 10 -7 0 -13 5
-13 10 0 16 17 11 24 -7z"/>
<path d="M1795 2240 c-3 -6 1 -7 9 -4 11 4 16 0 16 -10 0 -9 -7 -19 -15 -22
-25 -10 -17 -24 13 -23 23 0 24 2 8 8 -14 5 -16 10 -8 15 17 10 15 46 -2 46
-8 0 -18 -4 -21 -10z"/>
<path d="M738 2223 c6 -2 12 -13 12 -23 0 -10 -6 -21 -12 -23 -7 -3 -4 -6 8
-6 17 -1 20 4 16 29 -3 20 -10 30 -21 29 -10 0 -11 -2 -3 -6z"/>
<path d="M860 2220 c0 -5 5 -10 10 -10 6 0 10 5 10 10 0 6 -4 10 -10 10 -5 0
-10 -4 -10 -10z"/>
<path d="M860 2180 c0 -5 5 -10 10 -10 6 0 10 5 10 10 0 6 -4 10 -10 10 -5 0
-10 -4 -10 -10z"/>
<path d="M1670 2057 c0 -7 9 -13 20 -13 11 0 20 6 20 13 0 7 -9 13 -20 13 -11
0 -20 -6 -20 -13z"/>
<path d="M1798 2063 c6 -2 12 -17 12 -33 0 -16 -6 -31 -12 -33 -7 -3 -4 -6 7
-6 18 -1 20 4 17 39 -3 29 -8 40 -21 39 -10 0 -11 -2 -3 -6z"/>
<path d="M2000 2060 c0 -5 -6 -10 -14 -10 -8 0 -16 -7 -20 -15 -8 -23 4 -45
25 -45 15 0 19 7 19 40 0 22 -2 40 -5 40 -3 0 -5 -4 -5 -10z m0 -34 c0 -8 -4
-18 -10 -21 -5 -3 -10 3 -10 14 0 12 5 21 10 21 6 0 10 -6 10 -14z"/>
<path d="M2090 2057 c0 -7 9 -13 20 -13 11 0 20 6 20 13 0 7 -9 13 -20 13 -11
0 -20 -6 -20 -13z"/>
<path d="M1730 2039 c-13 -24 2 -50 29 -48 13 1 13 2 -1 6 -11 3 -18 14 -18
28 0 14 7 25 18 28 16 4 16 5 0 6 -10 0 -22 -8 -28 -20z"/>
<path d="M1846 2035 c-8 -22 4 -45 24 -45 10 0 20 7 24 15 8 22 -4 45 -24 45
-10 0 -20 -7 -24 -15z m34 -15 c0 -11 -4 -20 -10 -20 -5 0 -10 9 -10 20 0 11
5 20 10 20 6 0 10 -9 10 -20z"/>
<path d="M1911 2023 c-1 -27 3 -33 19 -33 16 0 20 6 19 33 -2 30 -2 30 -6 5
-2 -16 -8 -28 -13 -28 -5 0 -11 12 -13 28 -4 25 -4 25 -6 -5z"/>
<path d="M2034 2039 c-4 -7 1 -16 12 -22 17 -10 17 -11 -1 -18 -19 -7 -18 -8
3 -8 26 -1 30 24 5 34 -17 7 -16 8 2 15 16 7 17 9 3 9 -9 1 -20 -4 -24 -10z"/>
<path d="M731 2008 l1 -33 8 30 8 30 2 -30 2 -30 8 30 7 30 5 -30 5 -30 2 33
c1 28 -2 32 -24 32 -22 0 -25 -4 -24 -32z"/>
<path d="M805 2030 c17 -7 17 -9 3 -9 -26 -1 -24 -41 2 -41 16 0 20 7 20 30 0
25 -4 30 -22 29 -22 0 -22 -1 -3 -9z m15 -30 c0 -5 -4 -10 -10 -10 -5 0 -10 5
-10 10 0 6 5 10 10 10 6 0 10 -4 10 -10z"/>
<path d="M858 2033 c6 -2 12 -13 12 -23 0 -10 -6 -21 -12 -23 -7 -3 -4 -6 8
-6 17 -1 20 4 16 29 -3 20 -10 30 -21 29 -10 0 -11 -2 -3 -6z"/>
<path d="M911 2008 c2 -31 2 -31 6 -5 2 15 8 27 13 27 5 0 11 -12 13 -27 4
-26 4 -26 6 5 1 26 -3 32 -19 32 -16 0 -20 -6 -19 -32z"/>
<path d="M980 2030 c0 -5 5 -10 10 -10 6 0 10 5 10 10 0 6 -4 10 -10 10 -5 0
-10 -4 -10 -10z"/>
<path d="M980 1990 c0 -5 5 -10 10 -10 6 0 10 5 10 10 0 6 -4 10 -10 10 -5 0
-10 -4 -10 -10z"/>
<path d="M1670 1867 c0 -7 9 -13 20 -13 11 0 20 6 20 13 0 7 -9 13 -20 13 -11
0 -20 -6 -20 -13z"/>
<path d="M1912 1863 c-8 -8 -9 -13 -2 -13 5 0 10 -11 10 -25 0 -17 5 -25 18
-24 10 0 12 3 5 6 -15 5 -17 40 -4 45 5 2 4 8 -3 14 -8 8 -15 7 -24 -3z"/>
<path d="M1972 1863 c-8 -8 -9 -13 -2 -13 5 0 10 -11 10 -25 0 -17 5 -25 18
-24 10 0 12 3 5 6 -15 5 -17 40 -4 45 5 2 4 8 -3 14 -8 8 -15 7 -24 -3z"/>
<path d="M2240 1870 c0 -5 -6 -10 -14 -10 -8 0 -16 -7 -20 -15 -8 -23 4 -45
25 -45 15 0 19 7 19 40 0 22 -2 40 -5 40 -3 0 -5 -4 -5 -10z m0 -34 c0 -8 -4
-18 -10 -21 -5 -3 -10 3 -10 14 0 12 5 21 10 21 6 0 10 -6 10 -14z"/>
<path d="M2398 1873 c6 -2 12 -17 12 -33 0 -16 -6 -31 -12 -33 -7 -3 -4 -6 7
-6 18 -1 20 4 17 39 -3 29 -8 40 -21 39 -10 0 -11 -2 -3 -6z"/>
<path d="M2600 1870 c0 -5 -6 -10 -14 -10 -8 0 -16 -7 -20 -15 -8 -23 4 -45
25 -45 15 0 19 7 19 40 0 22 -2 40 -5 40 -3 0 -5 -4 -5 -10z m0 -34 c0 -8 -4
-18 -10 -21 -5 -3 -10 3 -10 14 0 12 5 21 10 21 6 0 10 -6 10 -14z"/>
<path d="M2690 1867 c0 -7 9 -13 20 -13 11 0 20 6 20 13 0 7 -9 13 -20 13 -11
0 -20 -6 -20 -13z"/>
<path d="M748 1851 c-25 -25 -24 -61 2 -61 17 0 20 7 20 40 0 22 -1 40 -2 39
-2 0 -11 -8 -20 -18z m12 -31 c0 -11 -4 -20 -10 -20 -5 0 -10 9 -10 20 0 11 5
20 10 20 6 0 10 -9 10 -20z"/>
<path d="M1152 1853 c-8 -8 -9 -13 -2 -13 5 0 10 -11 10 -25 0 -17 5 -25 18
-24 10 0 12 3 5 6 -15 5 -17 40 -4 45 5 2 4 8 -3 14 -8 8 -15 7 -24 -3z"/>
<path d="M1734 1849 c-4 -7 1 -16 12 -22 17 -10 17 -11 -1 -18 -19 -7 -18 -8
3 -8 26 -1 30 24 5 34 -17 7 -16 8 2 15 16 7 17 9 3 9 -9 1 -20 -4 -24 -10z"/>
<path d="M1794 1845 c-9 -23 3 -45 23 -44 17 1 17 2 1 6 -10 2 -18 13 -18 23
0 10 8 21 18 23 16 4 16 5 -1 6 -10 0 -20 -6 -23 -14z"/>
<path d="M1865 1850 c17 -7 17 -9 3 -9 -26 -1 -24 -41 2 -41 16 0 20 7 20 30
0 25 -4 30 -22 29 -22 0 -22 -1 -3 -9z m15 -30 c0 -5 -4 -10 -10 -10 -5 0 -10
5 -10 10 0 6 5 10 10 10 6 0 10 -4 10 -10z"/>
<path d="M2037 1853 c-4 -3 -7 -17 -7 -30 0 -18 5 -23 23 -22 16 1 18 2 5 6
-22 5 -24 23 -3 23 8 0 15 7 15 15 0 15 -21 21 -33 8z"/>
<path d="M2091 1828 c1 -31 2 -31 8 -8 5 17 13 24 25 22 11 -2 15 1 11 7 -3 6
-15 11 -26 11 -15 0 -19 -7 -18 -32z"/>
<path d="M2157 1853 c-4 -3 -7 -17 -7 -30 0 -18 5 -23 23 -22 16 1 18 2 5 6
-22 5 -24 23 -3 23 8 0 15 7 15 15 0 15 -21 21 -33 8z"/>
<path d="M2334 1845 c-9 -23 3 -45 23 -44 17 1 17 2 1 6 -10 2 -18 13 -18 23
0 10 8 21 18 23 16 4 16 5 -1 6 -10 0 -20 -6 -23 -14z"/>
<path d="M2446 1845 c-8 -22 4 -45 24 -45 10 0 20 7 24 15 8 22 -4 45 -24 45
-10 0 -20 -7 -24 -15z m34 -15 c0 -11 -4 -20 -10 -20 -5 0 -10 9 -10 20 0 11
5 20 10 20 6 0 10 -9 10 -20z"/>
<path d="M2511 1833 c-1 -27 3 -33 19 -33 16 0 20 6 19 33 -2 30 -2 30 -6 5
-2 -16 -8 -28 -13 -28 -5 0 -11 12 -13 28 -4 25 -4 25 -6 -5z"/>
<path d="M2634 1849 c-4 -7 1 -16 12 -22 17 -10 17 -11 -1 -18 -19 -7 -18 -8
3 -8 26 -1 30 24 5 34 -17 7 -16 8 2 15 16 7 17 9 3 9 -9 1 -20 -4 -24 -10z"/>
<path d="M794 1835 c-9 -23 3 -45 23 -44 17 1 17 2 1 6 -22 5 -24 23 -3 23 8
0 15 7 15 15 0 8 -7 15 -15 15 -9 0 -18 -7 -21 -15z"/>
<path d="M854 1839 c-4 -7 1 -16 12 -22 17 -10 17 -11 -1 -18 -19 -7 -18 -8 3
-8 26 -1 30 24 5 34 -17 7 -16 8 2 15 16 7 17 9 3 9 -9 1 -20 -4 -24 -10z"/>
<path d="M914 1835 c-9 -23 3 -45 23 -44 17 1 17 2 1 6 -10 2 -18 13 -18 23 0
10 8 21 18 23 16 4 16 5 -1 6 -10 0 -20 -6 -23 -14z"/>
<path d="M971 1815 c1 -29 1 -29 8 -5 4 15 14 24 24 24 9 -1 14 2 12 6 -3 5
-14 8 -25 7 -16 -1 -20 -8 -19 -32z"/>
<path d="M1038 1843 c6 -2 12 -13 12 -23 0 -10 -6 -21 -12 -23 -7 -3 -4 -6 8
-6 17 -1 20 4 16 29 -3 20 -10 30 -21 29 -10 0 -11 -2 -3 -6z"/>
<path d="M1090 1810 c0 -39 0 -39 20 -23 24 21 25 24 5 17 -11 -4 -15 0 -15
16 0 16 4 20 15 16 8 -3 15 -1 15 4 0 6 -9 10 -20 10 -17 0 -20 -7 -20 -40z"/>
<path d="M1218 1843 c6 -2 12 -13 12 -23 0 -10 -6 -21 -12 -23 -7 -3 -4 -6 8
-6 17 -1 20 4 16 29 -3 20 -10 30 -21 29 -10 0 -11 -2 -3 -6z"/>
<path d="M1274 1835 c-8 -21 2 -45 20 -45 7 0 16 7 20 15 8 21 -3 45 -20 45
-8 0 -17 -7 -20 -15z m31 -15 c0 -7 -6 -15 -12 -17 -8 -3 -13 4 -13 17 0 13 5
20 13 18 6 -3 12 -11 12 -18z"/>
<path d="M1331 1818 c2 -31 2 -31 6 -5 2 15 8 27 13 27 5 0 11 -12 13 -27 4
-26 4 -26 6 5 1 26 -3 32 -19 32 -16 0 -20 -6 -19 -32z"/>
<path d="M1400 1840 c0 -5 5 -10 10 -10 6 0 10 5 10 10 0 6 -4 10 -10 10 -5 0
-10 -4 -10 -10z"/>
<path d="M1400 1800 c0 -5 5 -10 10 -10 6 0 10 5 10 10 0 6 -4 10 -10 10 -5 0
-10 -4 -10 -10z"/>
<path d="M1670 1677 c0 -7 9 -13 20 -13 11 0 20 6 20 13 0 7 -9 13 -20 13 -11
0 -20 -6 -20 -13z"/>
<path d="M1880 1680 c0 -5 -6 -10 -14 -10 -8 0 -16 -7 -20 -15 -8 -23 4 -45
25 -45 15 0 19 7 19 40 0 22 -2 40 -5 40 -3 0 -5 -4 -5 -10z m0 -34 c0 -8 -4
-18 -10 -21 -5 -3 -10 3 -10 14 0 12 5 21 10 21 6 0 10 -6 10 -14z"/>
<path d="M1910 1677 c0 -7 9 -13 20 -13 11 0 20 6 20 13 0 7 -9 13 -20 13 -11
0 -20 -6 -20 -13z"/>
<path d="M1725 1661 c-8 -26 4 -51 25 -51 10 0 21 7 24 16 10 25 -3 54 -24 54
-10 0 -21 -8 -25 -19z m38 -4 c7 -17 -9 -44 -20 -34 -4 5 -1 12 7 17 10 7 11
10 3 10 -7 0 -13 5 -13 10 0 15 17 12 23 -3z"/>
<path d="M1803 1674 c20 -6 22 -20 5 -27 -10 -4 -10 -6 0 -6 6 -1 12 -5 12
-10 0 -5 -6 -11 -12 -14 -8 -2 -7 -3 2 -3 10 1 15 12 15 31 0 22 -5 30 -20 32
-16 1 -16 1 -2 -3z"/>
<path d="M738 1653 c6 -2 12 -13 12 -23 0 -10 -6 -21 -12 -23 -7 -3 -4 -6 8
-6 17 -1 20 4 16 29 -3 20 -10 30 -21 29 -10 0 -11 -2 -3 -6z"/>
<path d="M794 1645 c-9 -23 3 -45 23 -44 17 1 17 2 1 6 -10 2 -18 13 -18 23 0
10 8 21 18 23 16 4 16 5 -1 6 -10 0 -20 -6 -23 -14z"/>
<path d="M854 1645 c-8 -21 2 -45 20 -45 17 0 28 24 20 45 -4 8 -13 15 -20 15
-8 0 -17 -7 -20 -15z m31 -15 c0 -7 -6 -15 -12 -17 -8 -3 -13 4 -13 17 0 13 5
20 13 18 6 -3 12 -11 12 -18z"/>
<path d="M911 1628 c2 -31 2 -31 6 -5 2 15 8 27 13 27 5 0 11 -12 13 -27 4
-26 4 -26 6 5 1 26 -3 32 -19 32 -16 0 -20 -6 -19 -32z"/>
<path d="M980 1650 c0 -5 5 -10 10 -10 6 0 10 5 10 10 0 6 -4 10 -10 10 -5 0
-10 -4 -10 -10z"/>
<path d="M980 1610 c0 -5 5 -10 10 -10 6 0 10 5 10 10 0 6 -4 10 -10 10 -5 0
-10 -4 -10 -10z"/>
<path d="M478 1483 c6 -2 12 -17 12 -33 0 -16 -6 -31 -12 -33 -7 -3 -4 -6 7
-6 18 -1 20 4 17 39 -3 29 -8 40 -21 39 -10 0 -11 -2 -3 -6z"/>
<path d="M668 1471 c-25 -25 -24 -61 2 -61 17 0 20 7 20 40 0 22 -1 40 -2 39
-2 0 -11 -8 -20 -18z m12 -31 c0 -11 -4 -20 -10 -20 -5 0 -10 9 -10 20 0 11 5
20 10 20 6 0 10 -9 10 -20z"/>
<path d="M302 1448 c21 -31 33 -32 52 -3 l16 25 -41 0 c-40 0 -41 -1 -27 -22z"/>
<path d="M414 1455 c-9 -23 3 -45 23 -44 17 1 17 2 1 6 -10 2 -18 13 -18 23 0
10 8 21 18 23 16 4 16 5 -1 6 -10 0 -20 -6 -23 -14z"/>
<path d="M534 1455 c-8 -21 2 -45 20 -45 7 0 16 7 20 15 8 21 -3 45 -20 45 -8
0 -17 -7 -20 -15z m31 -15 c0 -7 -6 -15 -12 -17 -8 -3 -13 4 -13 17 0 13 5 20
13 18 6 -3 12 -11 12 -18z"/>
<path d="M591 1443 c-1 -27 3 -33 19 -33 16 0 20 6 19 33 -2 30 -2 30 -6 5 -2
-16 -8 -28 -13 -28 -5 0 -11 12 -13 28 -4 25 -4 25 -6 -5z"/>
<path d="M714 1459 c-4 -7 1 -16 12 -22 17 -10 17 -11 -1 -18 -19 -7 -18 -8 3
-8 26 -1 30 24 5 34 -17 7 -16 8 2 15 16 7 17 9 3 9 -9 1 -20 -4 -24 -10z"/>
<path d="M780 1460 c0 -5 5 -10 10 -10 6 0 10 5 10 10 0 6 -4 10 -10 10 -5 0
-10 -4 -10 -10z"/>
<path d="M780 1420 c0 -5 5 -10 10 -10 6 0 10 5 10 10 0 6 -4 10 -10 10 -5 0
-10 -4 -10 -10z"/>
<path d="M638 1293 c6 -2 12 -17 12 -33 0 -16 -6 -31 -12 -33 -7 -3 -4 -6 7
-6 18 -1 20 4 17 39 -3 29 -8 40 -21 39 -10 0 -11 -2 -3 -6z"/>
<path d="M698 1293 c6 -2 12 -17 12 -33 0 -16 -6 -31 -12 -33 -7 -3 -4 -6 7
-6 18 -1 20 4 17 39 -3 29 -8 40 -21 39 -10 0 -11 -2 -3 -6z"/>
<path d="M1675 1290 c-3 -6 1 -7 9 -4 11 4 16 0 16 -10 0 -9 -7 -19 -15 -22
-25 -10 -17 -24 13 -23 23 0 24 2 8 8 -14 5 -16 10 -8 15 17 10 15 46 -2 46
-8 0 -18 -4 -21 -10z"/>
<path d="M1730 1280 c0 -11 7 -20 15 -20 18 0 20 -17 3 -23 -8 -2 -7 -3 2 -3
20 2 26 36 6 36 -22 0 -20 17 2 23 13 4 11 5 -5 6 -17 1 -23 -5 -23 -19z"/>
<path d="M585 1270 c17 -7 17 -9 3 -9 -26 -1 -24 -41 2 -41 16 0 20 7 20 30 0
25 -4 30 -22 29 -22 0 -22 -1 -3 -9z m15 -30 c0 -5 -4 -10 -10 -10 -5 0 -10 5
-10 10 0 6 5 10 10 10 6 0 10 -4 10 -10z"/>
<path d="M760 1270 c0 -5 5 -10 10 -10 6 0 10 5 10 10 0 6 -4 10 -10 10 -5 0
-10 -4 -10 -10z"/>
<path d="M760 1230 c0 -5 5 -10 10 -10 6 0 10 5 10 10 0 6 -4 10 -10 10 -5 0
-10 -4 -10 -10z"/>
<path d="M608 1091 c-25 -25 -24 -61 2 -61 17 0 20 7 20 40 0 22 -1 40 -2 39
-2 0 -11 -8 -20 -18z m12 -31 c0 -11 -4 -20 -10 -20 -5 0 -10 9 -10 20 0 11 5
20 10 20 6 0 10 -9 10 -20z"/>
<path d="M302 1068 c21 -31 33 -32 52 -3 l16 25 -41 0 c-40 0 -41 -1 -27 -22z"/>
<path d="M451 1078 c0 -9 -4 -25 -7 -35 -5 -17 -5 -17 6 0 6 10 9 25 7 35 -4
15 -5 15 -6 0z"/>
<path d="M478 1083 c6 -2 12 -13 12 -23 0 -10 -6 -21 -12 -23 -7 -3 -4 -6 8
-6 17 -1 20 4 16 29 -3 20 -10 30 -21 29 -10 0 -11 -2 -3 -6z"/>
<path d="M531 1058 c2 -31 2 -31 6 -5 2 15 8 27 13 27 5 0 11 -12 13 -27 4
-26 4 -26 6 5 1 26 -3 32 -19 32 -16 0 -20 -6 -19 -32z"/>
<path d="M660 1080 c0 -5 5 -10 10 -10 6 0 10 5 10 10 0 6 -4 10 -10 10 -5 0
-10 -4 -10 -10z"/>
<path d="M422 1068 c-6 -6 -12 -19 -12 -27 0 -13 2 -13 16 1 9 9 15 21 13 27
-3 9 -8 8 -17 -1z"/>
<path d="M660 1040 c0 -5 5 -10 10 -10 6 0 10 5 10 10 0 6 -4 10 -10 10 -5 0
-10 -4 -10 -10z"/>
<path d="M828 901 c-25 -25 -24 -61 2 -61 17 0 20 7 20 40 0 22 -1 40 -2 39
-2 0 -11 -8 -20 -18z m12 -31 c0 -11 -4 -20 -10 -20 -5 0 -10 9 -10 20 0 11 5
20 10 20 6 0 10 -9 10 -20z"/>
<path d="M1674 906 c-9 -23 0 -51 17 -54 25 -5 33 29 9 35 -25 7 -26 20 -2 26
16 4 16 5 -1 6 -10 0 -20 -5 -23 -13z m31 -36 c-3 -5 -10 -10 -16 -10 -5 0 -9
5 -9 10 0 6 7 10 16 10 8 0 12 -4 9 -10z"/>
<path d="M1790 900 c0 -11 7 -20 15 -20 18 0 20 -17 3 -23 -8 -2 -7 -3 2 -3
20 2 26 36 6 36 -22 0 -20 17 2 23 13 4 11 5 -5 6 -17 1 -23 -5 -23 -19z"/>
<path d="M1854 906 c-9 -23 0 -51 17 -54 25 -5 33 29 9 35 -25 7 -26 20 -2 26
16 4 16 5 -1 6 -10 0 -20 -5 -23 -13z m31 -36 c-3 -5 -10 -10 -16 -10 -5 0 -9
5 -9 10 0 6 7 10 16 10 8 0 12 -4 9 -10z"/>
<path d="M574 889 c-4 -7 1 -16 12 -22 17 -10 17 -11 -1 -18 -19 -7 -18 -8 3
-8 26 -1 30 24 5 34 -17 7 -16 8 2 15 16 7 17 9 3 9 -9 1 -20 -4 -24 -10z"/>
<path d="M630 860 c0 -39 0 -39 20 -23 24 21 25 24 5 17 -11 -4 -15 0 -15 16
0 16 4 20 15 16 8 -3 15 -1 15 4 0 6 -9 10 -20 10 -17 0 -20 -7 -20 -40z"/>
<path d="M694 885 c-9 -23 3 -45 23 -44 17 1 17 2 1 6 -22 5 -24 23 -3 23 8 0
15 7 15 15 0 8 -7 15 -15 15 -9 0 -18 -7 -21 -15z"/>
<path d="M754 885 c-9 -23 3 -45 23 -44 17 1 17 2 1 6 -22 5 -24 23 -3 23 8 0
15 7 15 15 0 8 -7 15 -15 15 -9 0 -18 -7 -21 -15z"/>
<path d="M880 890 c0 -5 5 -10 10 -10 6 0 10 5 10 10 0 6 -4 10 -10 10 -5 0
-10 -4 -10 -10z"/>
<path d="M1740 860 c0 -5 5 -10 10 -10 6 0 10 5 10 10 0 6 -4 10 -10 10 -5 0
-10 -4 -10 -10z"/>
<path d="M880 850 c0 -5 5 -10 10 -10 6 0 10 5 10 10 0 6 -4 10 -10 10 -5 0
-10 -4 -10 -10z"/>
<path d="M588 711 c-25 -25 -24 -61 2 -61 17 0 20 7 20 40 0 22 -1 40 -2 39
-2 0 -11 -8 -20 -18z m12 -31 c0 -11 -4 -20 -10 -20 -5 0 -10 9 -10 20 0 11 5
20 10 20 6 0 10 -9 10 -20z"/>
<path d="M1675 720 c-3 -6 1 -7 9 -4 11 4 16 0 16 -10 0 -9 -7 -19 -15 -22
-25 -10 -17 -24 13 -23 23 0 24 2 8 8 -14 5 -16 10 -8 15 17 10 15 46 -2 46
-8 0 -18 -4 -21 -10z"/>
<path d="M1730 710 c0 -11 7 -20 15 -20 18 0 20 -17 3 -23 -8 -2 -7 -3 2 -3
20 2 26 36 6 36 -22 0 -20 17 2 23 13 4 11 5 -5 6 -17 1 -23 -5 -23 -19z"/>
<path d="M1795 708 c-15 -22 -14 -23 5 -26 11 -2 20 -9 20 -15 0 -8 3 -8 9 1
9 16 2 62 -10 62 -4 0 -15 -10 -24 -22z m25 -8 c0 -5 -4 -10 -10 -10 -5 0 -10
5 -10 10 0 6 5 10 10 10 6 0 10 -4 10 -10z"/>
<path d="M1914 716 c-9 -23 0 -51 17 -54 25 -5 33 29 9 35 -25 7 -26 20 -2 26
16 4 16 5 -1 6 -10 0 -20 -5 -23 -13z m31 -36 c-3 -5 -10 -10 -16 -10 -5 0 -9
5 -9 10 0 6 7 10 16 10 8 0 12 -4 9 -10z"/>
<path d="M1970 710 c0 -11 7 -20 15 -20 18 0 20 -17 3 -23 -8 -2 -7 -3 2 -3 9
1 16 13 18 34 3 27 0 32 -17 32 -14 0 -21 -6 -21 -20z m30 0 c0 -5 -4 -10 -10
-10 -5 0 -10 5 -10 10 0 6 5 10 10 10 6 0 10 -4 10 -10z"/>
<path d="M634 695 c-9 -23 3 -45 23 -44 17 1 17 2 1 6 -22 5 -24 23 -3 23 8 0
15 7 15 15 0 8 -7 15 -15 15 -9 0 -18 -7 -21 -15z"/>
<path d="M697 703 c-4 -3 -7 -21 -7 -40 0 -26 4 -33 19 -33 30 0 35 19 9 29
-13 6 -18 10 -11 10 7 1 17 10 23 21 9 17 8 20 -8 20 -10 0 -22 -3 -25 -7z
m23 -13 c0 -5 -4 -10 -10 -10 -5 0 -10 5 -10 10 0 6 5 10 10 10 6 0 10 -4 10
-10z m7 -46 c-3 -3 -12 -4 -19 -1 -8 3 -5 6 6 6 11 1 17 -2 13 -5z"/>
<path d="M760 700 c0 -5 5 -10 10 -10 6 0 10 5 10 10 0 6 -4 10 -10 10 -5 0
-10 -4 -10 -10z"/>
<path d="M1860 670 c0 -5 5 -10 10 -10 6 0 10 5 10 10 0 6 -4 10 -10 10 -5 0
-10 -4 -10 -10z"/>
<path d="M760 660 c0 -5 5 -10 10 -10 6 0 10 5 10 10 0 6 -4 10 -10 10 -5 0
-10 -4 -10 -10z"/>
<path d="M302 498 c21 -31 33 -32 52 -3 l16 25 -41 0 c-40 0 -41 -1 -27 -22z"/>
<path d="M414 509 c-4 -7 1 -16 12 -22 17 -10 17 -11 -1 -18 -19 -7 -18 -8 3
-8 26 -1 30 24 5 34 -17 7 -16 8 2 15 16 7 17 9 3 9 -9 1 -20 -4 -24 -10z"/>
<path d="M475 491 c5 -23 3 -36 -6 -42 -8 -5 -9 -9 -3 -9 26 0 35 27 18 56
l-15 29 6 -34z"/>
<path d="M505 509 c-4 -6 -5 -12 -2 -15 2 -3 7 2 10 11 7 17 1 20 -8 4z"/>
<path d="M534 509 c-4 -7 1 -16 12 -22 17 -10 17 -11 -1 -18 -19 -7 -18 -8 3
-8 26 -1 30 24 5 34 -17 7 -16 8 2 15 16 7 17 9 3 9 -9 1 -20 -4 -24 -10z"/>
<path d="M600 510 c0 -5 5 -10 10 -10 6 0 10 5 10 10 0 6 -4 10 -10 10 -5 0
-10 -4 -10 -10z"/>
<path d="M600 470 c0 -5 5 -10 10 -10 6 0 10 5 10 10 0 6 -4 10 -10 10 -5 0
-10 -4 -10 -10z"/>
<path d="M1670 347 c0 -7 9 -13 20 -13 11 0 20 6 20 13 0 7 -9 13 -20 13 -11
0 -20 -6 -20 -13z"/>
<path d="M1760 350 c0 -5 -6 -10 -14 -10 -8 0 -16 -7 -20 -15 -8 -23 4 -45 25
-45 15 0 19 7 19 40 0 22 -2 40 -5 40 -3 0 -5 -4 -5 -10z m0 -34 c0 -8 -4 -18
-10 -21 -5 -3 -10 3 -10 14 0 12 5 21 10 21 6 0 10 -6 10 -14z"/>
<path d="M1790 347 c0 -7 9 -13 20 -13 11 0 20 6 20 13 0 7 -9 13 -20 13 -11
0 -20 -6 -20 -13z"/>
<path d="M708 331 c-25 -25 -24 -61 2 -61 17 0 20 7 20 40 0 22 -1 40 -2 39
-2 0 -11 -8 -20 -18z m12 -31 c0 -11 -4 -20 -10 -20 -5 0 -10 9 -10 20 0 11 5
20 10 20 6 0 10 -9 10 -20z"/>
<path d="M570 290 c0 -39 0 -39 20 -23 24 21 25 24 5 17 -11 -4 -15 0 -15 16
0 16 4 20 15 16 8 -3 15 -1 15 4 0 6 -9 10 -20 10 -17 0 -20 -7 -20 -40z"/>
<path d="M634 315 c-8 -21 2 -45 20 -45 17 0 28 24 20 45 -4 8 -13 15 -20 15
-8 0 -17 -7 -20 -15z m31 -15 c0 -7 -6 -15 -12 -17 -8 -3 -13 4 -13 17 0 13 5
20 13 18 6 -3 12 -11 12 -18z"/>
<path d="M760 320 c0 -5 5 -10 10 -10 6 0 10 5 10 10 0 6 -4 10 -10 10 -5 0
-10 -4 -10 -10z"/>
<path d="M760 280 c0 -5 5 -10 10 -10 6 0 10 5 10 10 0 6 -4 10 -10 10 -5 0
-10 -4 -10 -10z"/>
<path d="M1670 157 c0 -7 9 -13 20 -13 11 0 20 6 20 13 0 7 -9 13 -20 13 -11
0 -20 -6 -20 -13z"/>
<path d="M2870 157 c0 -7 9 -13 20 -13 11 0 20 6 20 13 0 7 -9 13 -20 13 -11
0 -20 -6 -20 -13z"/>
<path d="M428 141 c-25 -25 -24 -61 2 -61 17 0 20 7 20 40 0 22 -1 40 -2 39
-2 0 -11 -8 -20 -18z m12 -31 c0 -11 -4 -20 -10 -20 -5 0 -10 9 -10 20 0 11 5
20 10 20 6 0 10 -9 10 -20z"/>
<path d="M472 143 c-8 -8 -9 -13 -2 -13 5 0 10 -11 10 -25 0 -17 5 -25 18 -24
10 0 12 3 5 6 -15 5 -17 40 -4 45 5 2 4 8 -3 14 -8 8 -15 7 -24 -3z"/>
<path d="M592 143 c-8 -8 -9 -13 -2 -13 5 0 10 -11 10 -25 0 -17 5 -25 18 -24
10 0 12 3 5 6 -15 5 -17 40 -4 45 5 2 4 8 -3 14 -8 8 -15 7 -24 -3z"/>
<path d="M720 150 c0 -5 -9 -10 -20 -10 -11 0 -20 -5 -20 -11 0 -8 -4 -8 -12
-1 -10 8 -13 3 -14 -20 -1 -21 2 -26 8 -16 7 10 11 10 15 1 2 -7 9 -13 15 -13
6 0 6 6 -2 15 -14 16 -6 35 16 35 8 0 14 -10 14 -25 0 -17 5 -25 18 -24 10 0
12 3 5 6 -15 5 -17 40 -4 45 5 2 3 9 -5 16 -8 7 -14 8 -14 2z"/>
<path d="M1730 150 c0 -5 7 -7 15 -4 8 4 15 2 15 -4 0 -5 -7 -15 -15 -22 -23
-19 -18 -30 13 -29 23 0 24 2 8 8 -14 5 -16 10 -8 15 20 12 14 46 -8 46 -11 0
-20 -4 -20 -10z"/>
<path d="M1785 141 c-8 -26 4 -51 25 -51 10 0 21 7 24 16 10 25 -3 54 -24 54
-10 0 -21 -8 -25 -19z m38 -4 c7 -17 -9 -44 -20 -34 -4 5 -1 12 7 17 10 7 11
10 3 10 -7 0 -13 5 -13 10 0 15 17 12 23 -3z"/>
<path d="M1854 148 c-4 -7 -3 -8 4 -4 8 5 12 -1 12 -18 0 -13 -6 -27 -12 -29
-7 -3 -4 -6 7 -6 18 -1 20 4 17 34 -4 35 -15 44 -28 23z"/>
<path d="M1906 144 c-4 -11 1 -18 15 -21 21 -6 21 -7 3 -20 -19 -14 -18 -15 1
-11 29 5 35 68 7 68 -11 0 -23 -7 -26 -16z m34 -4 c0 -5 -4 -10 -10 -10 -5 0
-10 5 -10 10 0 6 5 10 10 10 6 0 10 -4 10 -10z"/>
<path d="M2025 141 c-8 -26 4 -51 25 -51 10 0 21 7 24 16 10 25 -3 54 -24 54
-10 0 -21 -8 -25 -19z m38 -4 c7 -17 -9 -44 -20 -34 -4 5 -1 12 7 17 10 7 11
10 3 10 -7 0 -13 5 -13 10 0 15 17 12 23 -3z"/>
<path d="M2097 153 c-4 -3 -7 -19 -7 -35 0 -21 5 -28 19 -28 27 0 36 30 11 37
-25 7 -26 20 -2 26 14 4 14 5 1 6 -9 0 -19 -2 -22 -6z m23 -43 c0 -5 -4 -10
-10 -10 -5 0 -10 5 -10 10 0 6 5 10 10 10 6 0 10 -4 10 -10z"/>
<path d="M2205 141 c-8 -26 4 -51 25 -51 10 0 21 7 24 16 10 25 -3 54 -24 54
-10 0 -21 -8 -25 -19z m38 -4 c7 -17 -9 -44 -20 -34 -4 5 -1 12 7 17 10 7 11
10 3 10 -7 0 -13 5 -13 10 0 15 17 12 23 -3z"/>
<path d="M2274 148 c-4 -7 -3 -8 4 -4 8 5 12 -1 12 -18 0 -13 -6 -27 -12 -29
-7 -3 -4 -6 7 -6 18 -1 20 4 17 34 -4 35 -15 44 -28 23z"/>
<path d="M2394 148 c-4 -7 -3 -8 4 -4 8 5 12 -1 12 -18 0 -13 -6 -27 -12 -29
-7 -3 -4 -6 7 -6 18 -1 20 4 17 34 -4 35 -15 44 -28 23z"/>
<path d="M2450 150 c0 -5 7 -7 15 -4 8 4 15 2 15 -4 0 -5 -7 -15 -15 -22 -23
-19 -18 -30 13 -29 23 0 24 2 8 8 -14 5 -16 10 -8 15 20 12 14 46 -8 46 -11 0
-20 -4 -20 -10z"/>
<path d="M2565 141 c-3 -10 -3 -26 1 -35 7 -19 40 -22 48 -3 5 10 7 10 12 0 8
-19 41 -16 48 3 15 39 -31 78 -48 42 -5 -10 -7 -10 -12 0 -9 19 -42 14 -49 -7z
m38 -4 c7 -17 -9 -44 -20 -34 -4 5 -1 12 7 17 10 7 11 10 3 10 -7 0 -13 5 -13
10 0 15 17 12 23 -3z m60 0 c7 -17 -9 -44 -20 -34 -4 5 -1 12 7 17 10 7 11 10
3 10 -7 0 -13 5 -13 10 0 15 17 12 23 -3z"/>
<path d="M2745 141 c-3 -10 -3 -26 1 -35 7 -19 40 -22 48 -3 5 10 7 10 12 0 8
-19 41 -16 48 3 15 39 -31 78 -48 42 -5 -10 -7 -10 -12 0 -9 19 -42 14 -49 -7z
m38 -4 c7 -17 -9 -44 -20 -34 -4 5 -1 12 7 17 10 7 11 10 3 10 -7 0 -13 5 -13
10 0 15 17 12 23 -3z m60 0 c7 -17 -9 -44 -20 -34 -4 5 -1 12 7 17 10 7 11 10
3 10 -7 0 -13 5 -13 10 0 15 17 12 23 -3z"/>
<path d="M2520 140 c0 -5 5 -10 10 -10 6 0 10 5 10 10 0 6 -4 10 -10 10 -5 0
-10 -4 -10 -10z"/>
<path d="M2700 140 c0 -5 5 -10 10 -10 6 0 10 5 10 10 0 6 -4 10 -10 10 -5 0
-10 -4 -10 -10z"/>
<path d="M780 130 c0 -5 5 -10 10 -10 6 0 10 5 10 10 0 6 -4 10 -10 10 -5 0
-10 -4 -10 -10z"/>
<path d="M1978 113 c6 -2 18 -2 25 0 6 3 1 5 -13 5 -14 0 -19 -2 -12 -5z"/>
<path d="M2158 113 c6 -2 18 -2 25 0 6 3 1 5 -13 5 -14 0 -19 -2 -12 -5z"/>
<path d="M2520 100 c0 -5 5 -10 10 -10 6 0 10 5 10 10 0 6 -4 10 -10 10 -5 0
-10 -4 -10 -10z"/>
<path d="M2700 100 c0 -5 5 -10 10 -10 6 0 10 5 10 10 0 6 -4 10 -10 10 -5 0
-10 -4 -10 -10z"/>
<path d="M780 90 c0 -5 5 -10 10 -10 6 0 10 5 10 10 0 6 -4 10 -10 10 -5 0
-10 -4 -10 -10z"/>
<path d="M533 63 c9 -2 25 -2 35 0 9 3 1 5 -18 5 -19 0 -27 -2 -17 -5z"/>
</g>
</svg>
