<?xml version="1.0" standalone="no"?>
<!DOCTYPE svg PUBLIC "-//W3C//DTD SVG 20010904//EN"
 "http://www.w3.org/TR/2001/REC-SVG-20010904/DTD/svg10.dtd">
<svg version="1.0" xmlns="http://www.w3.org/2000/svg"
 width="1301.000000pt" height="331.000000pt" viewBox="0 0 1301.000000 331.000000"
 preserveAspectRatio="xMidYMid meet">

<g transform="translate(0.000000,331.000000) scale(0.100000,-0.100000)"
fill="#000000" stroke="none">
<path d="M8148 3063 c7 -3 16 -2 19 1 4 3 -2 6 -13 5 -11 0 -14 -3 -6 -6z"/>
<path d="M8298 3063 c7 -3 16 -2 19 1 4 3 -2 6 -13 5 -11 0 -14 -3 -6 -6z"/>
<path d="M8378 3063 c7 -3 16 -2 19 1 4 3 -2 6 -13 5 -11 0 -14 -3 -6 -6z"/>
<path d="M8448 3063 c7 -3 16 -2 19 1 4 3 -2 6 -13 5 -11 0 -14 -3 -6 -6z"/>
<path d="M8708 3063 c6 -2 18 -2 25 0 6 3 1 5 -13 5 -14 0 -19 -2 -12 -5z"/>
<path d="M8878 3063 c7 -3 16 -2 19 1 4 3 -2 6 -13 5 -11 0 -14 -3 -6 -6z"/>
<path d="M9038 3063 c7 -3 16 -2 19 1 4 3 -2 6 -13 5 -11 0 -14 -3 -6 -6z"/>
<path d="M9108 3063 c7 -3 16 -2 19 1 4 3 -2 6 -13 5 -11 0 -14 -3 -6 -6z"/>
<path d="M9228 3063 c7 -3 16 -2 19 1 4 3 -2 6 -13 5 -11 0 -14 -3 -6 -6z"/>
<path d="M9608 3063 c6 -2 18 -2 25 0 6 3 1 5 -13 5 -14 0 -19 -2 -12 -5z"/>
<path d="M9758 3063 c7 -3 16 -2 19 1 4 3 -2 6 -13 5 -11 0 -14 -3 -6 -6z"/>
<path d="M9828 3063 c7 -3 16 -2 19 1 4 3 -2 6 -13 5 -11 0 -14 -3 -6 -6z"/>
<path d="M9958 3063 c7 -3 16 -2 19 1 4 3 -2 6 -13 5 -11 0 -14 -3 -6 -6z"/>
<path d="M10108 3063 c7 -3 16 -2 19 1 4 3 -2 6 -13 5 -11 0 -14 -3 -6 -6z"/>
<path d="M10188 3063 c7 -3 16 -2 19 1 4 3 -2 6 -13 5 -11 0 -14 -3 -6 -6z"/>
<path d="M10638 3063 c6 -2 18 -2 25 0 6 3 1 5 -13 5 -14 0 -19 -2 -12 -5z"/>
<path d="M10758 3063 c7 -3 16 -2 19 1 4 3 -2 6 -13 5 -11 0 -14 -3 -6 -6z"/>
<path d="M2230 2806 c-23 -29 -8 -59 40 -77 53 -20 64 -45 24 -55 -21 -5 -31
-2 -45 14 -20 25 -39 29 -39 8 0 -41 93 -61 123 -28 33 37 19 62 -48 84 -47
16 -56 35 -20 44 17 4 32 1 44 -10 22 -20 31 -20 31 -1 0 32 -86 49 -110 21z"/>
<path d="M2385 2805 c-5 -11 -13 -23 -19 -27 -8 -6 -7 -10 1 -16 6 -4 13 -30
15 -57 3 -45 6 -50 28 -53 23 -2 24 -1 8 11 -21 17 -25 92 -5 100 9 4 9 8 1
14 -7 4 -14 17 -16 28 l-5 20 -8 -20z"/>
<path d="M2665 2803 c-6 -19 -15 -23 -51 -23 l-44 0 0 -65 c0 -50 3 -65 14
-65 11 0 16 15 18 53 3 48 5 52 30 55 26 3 27 1 30 -50 3 -48 5 -53 28 -56 23
-2 24 -1 8 11 -21 17 -25 92 -5 100 9 4 9 8 1 14 -7 4 -14 17 -17 28 -5 19 -5
19 -12 -2z"/>
<path d="M2450 2765 c-17 -21 -7 -29 18 -14 20 13 52 7 52 -10 0 -6 -16 -13
-35 -17 -40 -7 -58 -30 -44 -56 7 -13 21 -17 59 -17 l50 2 0 44 c0 62 -14 83
-54 83 -19 0 -39 -7 -46 -15z m68 -72 c-4 -20 -49 -25 -55 -6 -4 10 7 15 50
22 5 0 7 -7 5 -16z"/>
<path d="M2790 2688 c0 -52 4 -88 10 -88 6 0 10 13 10 28 0 26 3 28 29 24 21
-3 33 2 45 19 38 54 8 110 -57 107 l-37 -1 0 -89z m78 29 c2 -27 -1 -39 -13
-43 -35 -14 -61 46 -33 74 23 23 43 9 46 -31z"/>
<path d="M2920 2713 c0 -49 3 -63 15 -63 12 0 15 13 15 55 0 48 2 55 20 55 11
0 20 4 20 10 0 5 -16 9 -35 8 l-35 -1 0 -64z"/>
<path d="M3009 2764 c-7 -9 -13 -31 -13 -49 0 -42 19 -65 55 -65 37 0 59 24
59 65 0 18 -7 41 -16 49 -20 21 -68 20 -85 0z m69 -16 c30 -30 -2 -93 -36 -71
-21 13 -27 50 -12 69 15 17 32 18 48 2z"/>
<path d="M3147 2762 c-36 -40 -10 -112 41 -112 21 0 52 24 52 41 0 15 -27 10
-34 -6 -8 -22 -33 -18 -47 6 -20 38 24 95 46 59 3 -5 13 -10 21 -10 12 0 12 4
4 20 -14 26 -61 27 -83 2z"/>
<path d="M3267 2762 c-22 -25 -21 -75 1 -95 23 -21 66 -22 82 -2 16 19 5 34
-12 17 -18 -18 -46 -14 -58 8 -10 19 -8 20 40 20 49 0 51 1 44 23 -3 12 -11
28 -16 35 -15 18 -63 15 -81 -6z m71 -19 c2 -9 -7 -13 -27 -13 -30 0 -39 9
-24 24 11 10 46 3 51 -11z"/>
<path d="M3389 2764 c-18 -22 -1 -46 40 -58 17 -5 30 -14 28 -20 -5 -14 -47
-20 -47 -7 0 6 -7 11 -15 11 -18 0 -19 -12 -3 -28 17 -17 64 -15 83 4 22 22
15 36 -28 57 -20 10 -37 23 -37 28 0 13 34 11 48 -3 17 -17 28 -2 12 17 -16
20 -64 19 -81 -1z"/>
<path d="M3509 2764 c-18 -22 -1 -46 40 -58 17 -5 30 -14 28 -20 -5 -14 -47
-20 -47 -7 0 6 -7 11 -15 11 -18 0 -19 -12 -3 -28 17 -17 64 -15 83 4 22 22
15 36 -28 57 -20 10 -37 23 -37 28 0 13 34 11 48 -3 17 -17 28 -2 12 17 -16
20 -64 19 -81 -1z"/>
<path d="M1980 2730 c0 -5 5 -10 10 -10 6 0 10 5 10 10 0 6 -4 10 -10 10 -5 0
-10 -4 -10 -10z"/>
<path d="M1978 2250 c-19 -26 -23 -50 -9 -50 16 0 33 29 29 52 l-3 23 -17 -25z"/>
<path d="M2226 2219 c-34 -27 -34 -62 1 -89 64 -50 141 32 83 90 -26 26 -51
25 -84 -1z m44 -48 c0 -11 6 -22 13 -24 6 -3 3 -6 -8 -6 -15 -1 -20 5 -20 24
0 14 3 25 8 25 4 0 7 -9 7 -19z"/>
<path d="M2395 2203 c4 -10 10 -32 14 -50 l6 -32 27 50 c16 27 24 49 20 49 -5
0 -15 -11 -22 -26 l-14 -25 -13 25 c-15 29 -29 36 -18 9z"/>
<path d="M3045 2209 c-11 -16 -17 -89 -8 -89 5 0 9 8 9 18 1 9 4 32 8 50 6 32
3 41 -9 21z"/>
<path d="M3390 2208 c0 -7 -3 -30 -6 -50 -6 -36 -5 -38 19 -38 29 0 51 29 41
54 -3 9 -15 16 -26 16 -14 0 -18 5 -14 15 3 8 1 15 -4 15 -6 0 -10 -6 -10 -12z
m40 -47 c0 -24 -18 -37 -31 -24 -13 13 -1 43 17 43 8 0 14 -9 14 -19z"/>
<path d="M3463 2170 c-6 -27 -7 -50 -3 -50 9 0 24 89 17 96 -2 3 -9 -18 -14
-46z"/>
<path d="M4645 2209 c-4 -5 -8 -29 -10 -52 -4 -40 -3 -40 6 -12 6 17 11 35 12
40 2 6 6 16 10 23 5 6 4 12 -2 12 -5 0 -13 -5 -16 -11z"/>
<path d="M4980 2208 c0 -7 -3 -30 -6 -50 -6 -36 -5 -38 19 -38 29 0 51 29 41
54 -3 9 -15 16 -26 16 -14 0 -18 5 -14 15 3 8 1 15 -4 15 -6 0 -10 -6 -10 -12z
m40 -47 c0 -24 -18 -37 -31 -24 -13 13 -1 43 17 43 8 0 14 -9 14 -19z"/>
<path d="M5223 2170 c-6 -27 -7 -50 -3 -50 9 0 24 89 17 96 -2 3 -9 -18 -14
-46z"/>
<path d="M5354 2175 c-3 -25 -4 -49 0 -52 3 -4 6 1 6 10 0 22 19 22 36 0 15
-20 19 -6 5 16 -7 10 -4 19 7 28 10 7 12 12 5 13 -6 0 -15 -4 -18 -10 -12 -20
-27 -10 -23 15 3 14 2 25 -3 25 -4 0 -11 -20 -15 -45z"/>
<path d="M5655 2209 c-11 -16 -17 -89 -8 -89 5 0 9 8 9 18 1 9 4 32 8 50 6 32
3 41 -9 21z"/>
<path d="M5684 2173 c-6 -29 -8 -53 -3 -53 4 0 9 12 11 27 2 14 9 29 17 31 10
3 12 -3 9 -27 -2 -17 -1 -31 4 -31 4 0 8 6 8 14 0 8 3 22 6 31 5 11 0 18 -14
22 -12 3 -22 12 -24 22 -2 9 -9 -8 -14 -36z"/>
<path d="M5870 2203 c0 -15 2 -16 10 -3 7 11 10 11 10 2 0 -7 5 -10 10 -7 17
10 11 25 -10 25 -12 0 -20 -7 -20 -17z"/>
<path d="M5925 2174 c-15 -25 -24 -48 -21 -51 3 -3 8 2 12 11 8 22 54 21 54
-1 0 -9 3 -14 6 -11 8 9 -7 98 -16 98 -5 0 -20 -21 -35 -46z m31 -11 c-11 -11
-17 4 -9 23 7 18 8 18 11 1 2 -10 1 -21 -2 -24z"/>
<path d="M6050 2206 c0 -8 -10 -16 -22 -18 -18 -2 -24 -11 -26 -35 -3 -30 -1
-33 22 -33 14 0 26 3 26 8 1 4 5 26 9 50 5 23 4 42 0 42 -5 0 -9 -6 -9 -14z
m-12 -48 c-4 -27 -28 -36 -28 -10 0 20 8 32 22 32 5 0 8 -10 6 -22z"/>
<path d="M6120 2206 c0 -8 -10 -16 -22 -18 -18 -2 -24 -11 -26 -35 -3 -30 -1
-33 22 -33 14 0 26 3 26 8 1 4 5 26 9 50 5 23 4 42 0 42 -5 0 -9 -6 -9 -14z
m-12 -48 c-4 -27 -28 -36 -28 -10 0 20 8 32 22 32 5 0 8 -10 6 -22z"/>
<path d="M6570 2208 c0 -7 -3 -30 -6 -50 -6 -36 -5 -38 19 -38 29 0 51 29 41
54 -3 9 -15 16 -26 16 -14 0 -18 5 -14 15 3 8 1 15 -4 15 -6 0 -10 -6 -10 -12z
m40 -47 c0 -24 -18 -37 -31 -24 -13 13 -1 43 17 43 8 0 14 -9 14 -19z"/>
<path d="M6643 2170 c-6 -27 -7 -50 -3 -50 9 0 24 89 17 96 -2 3 -9 -18 -14
-46z"/>
<path d="M6750 2203 c0 -15 2 -16 10 -3 7 11 10 11 10 2 0 -7 5 -10 10 -7 17
10 11 25 -10 25 -12 0 -20 -7 -20 -17z"/>
<path d="M6833 2170 c-6 -27 -7 -50 -3 -50 9 0 24 89 17 96 -2 3 -9 -18 -14
-46z"/>
<path d="M6964 2175 c-3 -25 -4 -49 0 -52 3 -4 6 1 6 10 0 22 19 22 36 0 15
-20 19 -6 5 16 -7 10 -4 19 7 28 10 7 12 12 5 13 -6 0 -15 -4 -18 -10 -12 -20
-27 -10 -23 15 3 14 2 25 -3 25 -4 0 -11 -20 -15 -45z"/>
<path d="M7090 2208 c0 -7 -3 -30 -6 -50 -6 -36 -5 -38 19 -38 29 0 51 29 41
54 -3 9 -15 16 -26 16 -14 0 -18 5 -14 15 3 8 1 15 -4 15 -6 0 -10 -6 -10 -12z
m40 -47 c0 -24 -18 -37 -31 -24 -13 13 -1 43 17 43 8 0 14 -9 14 -19z"/>
<path d="M7233 2170 c-6 -27 -7 -50 -3 -50 9 0 24 89 17 96 -2 3 -9 -18 -14
-46z"/>
<path d="M2467 2184 c-13 -13 -7 -55 8 -60 21 -9 47 15 43 40 -3 21 -37 34
-51 20z m37 -13 c9 -14 -4 -41 -20 -41 -8 0 -14 8 -14 18 0 29 22 43 34 23z"/>
<path d="M2537 2183 c-4 -3 -7 -19 -7 -35 0 -23 4 -28 25 -28 18 0 25 5 25 19
0 11 3 28 6 38 5 12 4 15 -4 8 -5 -5 -12 -19 -14 -29 -1 -11 -9 -21 -17 -24
-11 -4 -13 2 -8 27 7 32 5 36 -6 24z"/>
<path d="M2653 2183 c-18 -7 -16 -52 3 -60 8 -3 23 2 32 11 10 10 12 16 4 16
-7 0 -12 -4 -12 -10 0 -5 -7 -10 -16 -10 -10 0 -14 7 -12 23 2 15 10 22 25 21
12 0 20 3 17 8 -6 9 -22 9 -41 1z"/>
<path d="M2714 2179 c-4 -8 0 -9 15 -4 12 4 21 2 21 -4 0 -6 -9 -11 -20 -11
-13 0 -20 -7 -20 -20 0 -14 7 -20 24 -20 18 0 25 7 29 27 3 16 3 31 0 35 -7
12 -41 9 -49 -3z m31 -39 c-3 -5 -10 -10 -16 -10 -5 0 -9 5 -9 10 0 6 7 10 16
10 8 0 12 -4 9 -10z"/>
<path d="M2786 2178 c-11 -36 -13 -58 -5 -58 5 0 9 8 9 19 0 10 7 25 16 32 15
13 17 11 12 -19 -2 -17 -1 -32 4 -32 4 0 8 11 8 25 0 14 1 28 3 33 1 4 -8 8
-21 10 -12 2 -24 -3 -26 -10z"/>
<path d="M2900 2176 c0 -8 7 -16 15 -20 8 -3 15 -10 15 -16 0 -13 -27 -13 -33
0 -3 6 -4 5 -3 -2 1 -7 12 -14 24 -16 27 -4 30 24 5 45 -17 13 -16 14 5 10 12
-3 20 -1 16 4 -8 14 -44 10 -44 -5z"/>
<path d="M2967 2184 c-4 -4 -7 -18 -7 -31 0 -26 26 -41 42 -25 8 8 5 9 -11 5
-12 -3 -21 -1 -21 6 0 6 12 11 26 11 19 0 25 5 22 18 -3 17 -38 29 -51 16z
m38 -14 c3 -5 -3 -10 -15 -10 -12 0 -18 5 -15 10 3 6 10 10 15 10 5 0 12 -4
15 -10z"/>
<path d="M3112 2170 c-1 -14 2 -31 7 -39 7 -11 13 -6 26 18 9 18 14 35 12 38
-3 2 -8 -5 -12 -16 -8 -28 -23 -27 -28 2 -4 21 -4 20 -5 -3z"/>
<path d="M3174 2179 c-4 -8 0 -9 15 -4 12 4 21 2 21 -4 0 -6 -9 -11 -20 -11
-13 0 -20 -7 -20 -20 0 -14 7 -20 24 -20 18 0 25 7 29 27 3 16 3 31 0 35 -7
12 -41 9 -49 -3z m31 -39 c-3 -5 -10 -10 -16 -10 -5 0 -9 5 -9 10 0 6 7 10 16
10 8 0 12 -4 9 -10z"/>
<path d="M3246 2178 c-11 -35 -13 -58 -6 -58 4 0 10 14 14 30 3 17 11 30 17
30 7 0 10 -12 7 -30 -3 -16 -1 -30 4 -30 4 0 8 9 8 19 0 11 3 26 6 35 5 12 0
16 -20 16 -15 0 -28 -6 -30 -12z"/>
<path d="M3314 2179 c-4 -8 0 -9 15 -4 12 4 21 2 21 -4 0 -6 -9 -11 -20 -11
-13 0 -20 -7 -20 -20 0 -14 7 -20 24 -20 18 0 25 7 29 27 3 16 3 31 0 35 -7
12 -41 9 -49 -3z m31 -39 c-3 -5 -10 -10 -16 -10 -5 0 -9 5 -9 10 0 6 7 10 16
10 8 0 12 -4 9 -10z"/>
<path d="M3497 2184 c-4 -4 -7 -18 -7 -31 0 -26 26 -41 42 -25 8 8 5 9 -11 5
-12 -3 -21 -1 -21 6 0 6 12 11 26 11 19 0 25 5 22 18 -3 17 -38 29 -51 16z
m38 -14 c3 -5 -3 -10 -15 -10 -12 0 -18 5 -15 10 3 6 10 10 15 10 5 0 12 -4
15 -10z"/>
<path d="M3570 2176 c0 -8 7 -16 15 -20 8 -3 15 -10 15 -16 0 -13 -27 -13 -33
0 -3 6 -4 5 -3 -2 1 -7 12 -14 24 -16 27 -4 30 24 5 45 -17 13 -16 14 5 10 12
-3 20 -1 16 4 -8 14 -44 10 -44 -5z"/>
<path d="M3717 2183 c-4 -3 -7 -19 -7 -35 0 -23 4 -28 25 -28 18 0 25 5 25 19
0 11 3 28 6 38 5 12 4 15 -4 8 -5 -5 -12 -19 -14 -29 -1 -11 -9 -21 -17 -24
-11 -4 -13 2 -8 27 7 32 5 36 -6 24z"/>
<path d="M3790 2176 c0 -8 7 -16 15 -20 8 -3 15 -10 15 -16 0 -13 -27 -13 -33
0 -3 6 -4 5 -3 -2 1 -7 12 -14 24 -16 27 -4 30 24 5 45 -17 13 -16 14 5 10 12
-3 20 -1 16 4 -8 14 -44 10 -44 -5z"/>
<path d="M3856 2179 c-11 -35 -13 -59 -6 -59 4 0 10 15 13 33 5 33 1 50 -7 26z"/>
<path d="M3886 2178 c-11 -36 -13 -58 -5 -58 5 0 9 8 9 19 0 10 7 25 16 32 15
13 17 11 12 -19 -2 -17 -1 -32 4 -32 4 0 8 11 8 25 0 14 1 28 3 33 1 4 -8 8
-21 10 -12 2 -24 -3 -26 -10z"/>
<path d="M3956 2183 c-13 -13 -6 -63 9 -63 8 0 15 -5 15 -11 0 -6 -9 -8 -21
-4 -15 5 -19 4 -15 -4 19 -31 48 -4 59 54 5 27 3 31 -17 33 -13 1 -26 -1 -30
-5z m32 -25 c-4 -27 -28 -36 -28 -10 0 20 8 32 22 32 5 0 8 -10 6 -22z"/>
<path d="M4064 2179 c-4 -8 0 -9 15 -4 12 4 21 2 21 -4 0 -6 -9 -11 -20 -11
-13 0 -20 -7 -20 -20 0 -14 7 -20 24 -20 18 0 25 7 29 27 3 16 3 31 0 35 -7
12 -41 9 -49 -3z m31 -39 c-3 -5 -10 -10 -16 -10 -5 0 -9 5 -9 10 0 6 7 10 16
10 8 0 12 -4 9 -10z"/>
<path d="M4176 2183 c-13 -13 -6 -63 9 -63 8 0 15 -5 15 -11 0 -6 -9 -8 -21
-4 -15 5 -19 4 -15 -4 19 -31 48 -4 59 54 5 27 3 31 -17 33 -13 1 -26 -1 -30
-5z m32 -25 c-4 -27 -28 -36 -28 -10 0 20 8 32 22 32 5 0 8 -10 6 -22z"/>
<path d="M4247 2184 c-4 -4 -7 -18 -7 -31 0 -26 26 -41 42 -25 8 8 5 9 -11 5
-12 -3 -21 -1 -21 6 0 6 12 11 26 11 19 0 25 5 22 18 -3 17 -38 29 -51 16z
m38 -14 c3 -5 -3 -10 -15 -10 -12 0 -18 5 -15 10 3 6 10 10 15 10 5 0 12 -4
15 -10z"/>
<path d="M4316 2178 c-11 -36 -13 -58 -5 -58 5 0 9 8 9 19 0 10 7 25 16 32 15
13 17 11 12 -19 -2 -17 -1 -32 4 -32 4 0 8 11 8 25 0 14 1 28 3 33 1 4 -8 8
-21 10 -12 2 -24 -3 -26 -10z"/>
<path d="M4387 2184 c-4 -4 -7 -18 -7 -31 0 -26 26 -41 42 -25 8 8 5 9 -11 5
-12 -3 -21 -1 -21 6 0 6 12 11 26 11 19 0 25 5 22 18 -3 17 -38 29 -51 16z
m38 -14 c3 -5 -3 -10 -15 -10 -12 0 -18 5 -15 10 3 6 10 10 15 10 5 0 12 -4
15 -10z"/>
<path d="M4456 2178 c-11 -35 -13 -58 -6 -58 4 0 10 14 14 30 3 17 11 30 17
30 7 0 10 -12 7 -30 -3 -16 -1 -30 4 -30 4 0 8 9 8 19 0 11 3 26 6 35 5 12 0
16 -20 16 -15 0 -28 -6 -30 -12z"/>
<path d="M4533 2183 c-18 -7 -16 -52 3 -60 8 -3 23 2 32 11 10 10 12 16 4 16
-7 0 -12 -4 -12 -10 0 -5 -7 -10 -16 -10 -10 0 -14 7 -12 23 2 15 10 22 25 21
12 0 20 3 17 8 -6 9 -22 9 -41 1z"/>
<path d="M4677 2184 c-13 -13 -7 -55 8 -60 21 -9 47 15 43 40 -3 21 -37 34
-51 20z m37 -13 c9 -14 -4 -41 -20 -41 -8 0 -14 8 -14 18 0 29 22 43 34 23z"/>
<path d="M4746 2178 c-11 -35 -13 -58 -6 -58 4 0 10 14 14 30 3 17 11 30 17
30 7 0 10 -12 7 -30 -3 -16 -1 -30 2 -30 4 0 10 14 14 30 3 17 11 30 17 30 7
0 10 -12 7 -30 -3 -16 -1 -30 3 -30 4 0 9 12 11 27 2 14 9 29 17 31 10 3 12
-3 9 -27 -2 -17 -1 -31 4 -31 4 0 8 15 8 34 l0 33 -60 2 c-41 1 -62 -3 -64
-11z"/>
<path d="M5056 2157 c4 -23 2 -43 -6 -52 -9 -11 -9 -15 -1 -15 13 0 56 88 48
97 -3 2 -8 -6 -12 -18 l-7 -22 -14 24 c-14 23 -14 22 -8 -14z"/>
<path d="M5163 2183 c-18 -7 -16 -52 3 -60 8 -3 23 2 32 11 10 10 12 16 4 16
-7 0 -12 -4 -12 -10 0 -5 -7 -10 -16 -10 -10 0 -14 7 -12 23 2 15 10 22 25 21
12 0 20 3 17 8 -6 9 -22 9 -41 1z"/>
<path d="M5256 2179 c-11 -35 -13 -59 -6 -59 4 0 10 15 13 33 5 33 1 50 -7 26z"/>
<path d="M5293 2183 c-18 -7 -16 -52 3 -60 8 -3 23 2 32 11 10 10 12 16 4 16
-7 0 -12 -4 -12 -10 0 -5 -7 -10 -16 -10 -10 0 -14 7 -12 23 2 15 10 22 25 21
12 0 20 3 17 8 -6 9 -22 9 -41 1z"/>
<path d="M5436 2179 c-11 -35 -13 -59 -6 -59 4 0 10 15 13 33 5 33 1 50 -7 26z"/>
<path d="M5466 2178 c-11 -36 -13 -58 -5 -58 5 0 9 8 9 19 0 10 7 25 16 32 15
13 17 11 12 -19 -2 -17 -1 -32 4 -32 4 0 8 11 8 25 0 14 1 28 3 33 1 4 -8 8
-21 10 -12 2 -24 -3 -26 -10z"/>
<path d="M5536 2183 c-13 -13 -6 -63 9 -63 8 0 15 -5 15 -11 0 -6 -9 -8 -21
-4 -15 5 -19 4 -15 -4 19 -31 48 -4 59 54 5 27 3 31 -17 33 -13 1 -26 -1 -30
-5z m32 -25 c-4 -27 -28 -36 -28 -10 0 20 8 32 22 32 5 0 8 -10 6 -22z"/>
<path d="M5757 2184 c-4 -4 -7 -18 -7 -31 0 -26 26 -41 42 -25 8 8 5 9 -11 5
-12 -3 -21 -1 -21 6 0 6 12 11 26 11 19 0 25 5 22 18 -3 17 -38 29 -51 16z
m38 -14 c3 -5 -3 -10 -15 -10 -12 0 -18 5 -15 10 3 6 10 10 15 10 5 0 12 -4
15 -10z"/>
<path d="M6184 2179 c-4 -8 0 -9 15 -4 12 4 21 2 21 -4 0 -6 -9 -11 -20 -11
-13 0 -20 -7 -20 -20 0 -14 7 -20 24 -20 18 0 25 7 29 27 3 16 3 31 0 35 -7
12 -41 9 -49 -3z m31 -39 c-3 -5 -10 -10 -16 -10 -5 0 -9 5 -9 10 0 6 7 10 16
10 8 0 12 -4 9 -10z"/>
<path d="M6292 2170 c-1 -14 2 -31 7 -39 7 -11 13 -6 26 18 9 18 14 35 12 38
-3 2 -8 -5 -12 -16 -8 -28 -23 -27 -28 2 -4 21 -4 20 -5 -3z"/>
<path d="M6354 2179 c-4 -8 0 -9 15 -4 12 4 21 2 21 -4 0 -6 -9 -11 -20 -11
-13 0 -20 -7 -20 -20 0 -14 7 -20 24 -20 18 0 25 7 29 27 3 16 3 31 0 35 -7
12 -41 9 -49 -3z m31 -39 c-3 -5 -10 -10 -16 -10 -5 0 -9 5 -9 10 0 6 7 10 16
10 8 0 12 -4 9 -10z"/>
<path d="M6426 2178 c-11 -35 -13 -58 -6 -58 4 0 10 14 14 30 3 17 11 30 17
30 7 0 10 -12 7 -30 -3 -16 -1 -30 4 -30 4 0 8 9 8 19 0 11 3 26 6 35 5 12 0
16 -20 16 -15 0 -28 -6 -30 -12z"/>
<path d="M6494 2179 c-4 -8 0 -9 15 -4 12 4 21 2 21 -4 0 -6 -9 -11 -20 -11
-13 0 -20 -7 -20 -20 0 -14 7 -20 24 -20 18 0 25 7 29 27 3 16 3 31 0 35 -7
12 -41 9 -49 -3z m31 -39 c-3 -5 -10 -10 -16 -10 -5 0 -9 5 -9 10 0 6 7 10 16
10 8 0 12 -4 9 -10z"/>
<path d="M6677 2184 c-4 -4 -7 -18 -7 -31 0 -26 26 -41 42 -25 8 8 5 9 -11 5
-12 -3 -21 -1 -21 6 0 6 12 11 26 11 19 0 25 5 22 18 -3 17 -38 29 -51 16z
m38 -14 c3 -5 -3 -10 -15 -10 -12 0 -18 5 -15 10 3 6 10 10 15 10 5 0 12 -4
15 -10z"/>
<path d="M6866 2179 c-11 -35 -13 -59 -6 -59 4 0 10 15 13 33 5 33 1 50 -7 26z"/>
<path d="M6896 2178 c-11 -36 -13 -58 -5 -58 5 0 9 8 9 19 0 10 7 25 16 32 15
13 17 11 12 -19 -2 -17 -1 -32 4 -32 4 0 8 11 8 25 0 14 1 28 3 33 1 4 -8 8
-21 10 -12 2 -24 -3 -26 -10z"/>
<path d="M7167 2184 c-4 -4 -7 -18 -7 -31 0 -26 26 -41 42 -25 8 8 5 9 -11 5
-12 -3 -21 -1 -21 6 0 6 12 11 26 11 19 0 25 5 22 18 -3 17 -38 29 -51 16z
m38 -14 c3 -5 -3 -10 -15 -10 -12 0 -18 5 -15 10 3 6 10 10 15 10 5 0 12 -4
15 -10z"/>
<path d="M7267 2184 c-13 -13 -7 -55 8 -60 21 -9 47 15 43 40 -3 21 -37 34
-51 20z m37 -13 c9 -14 -4 -41 -20 -41 -8 0 -14 8 -14 18 0 29 22 43 34 23z"/>
<path d="M7331 2158 c-1 -21 4 -38 9 -38 11 0 11 14 0 50 -7 22 -8 21 -9 -12z"/>
<path d="M7357 2175 c-5 -12 -4 -21 2 -23 6 -2 11 -11 11 -20 0 -20 12 -7 28
31 7 16 8 27 2 27 -6 0 -10 -7 -10 -15 0 -21 -18 -19 -22 3 -3 15 -4 15 -11
-3z"/>
<path d="M3626 2113 c-6 -14 -5 -15 5 -6 7 7 10 15 7 18 -3 3 -9 -2 -12 -12z"/>
<path d="M4886 2113 c-6 -14 -5 -15 5 -6 7 7 10 15 7 18 -3 3 -9 -2 -12 -12z"/>
<path d="M3684 1907 c-2 -7 -3 -82 -2 -167 l3 -155 3548 -3 3547 -2 -2 167 -3
168 -3543 3 c-2890 2 -3544 0 -3548 -11z m7086 -157 l0 -160 -3540 0 -3540 0
0 160 0 160 3540 0 3540 0 0 -160z"/>
<path d="M3813 1750 c0 -47 2 -66 4 -42 2 23 2 61 0 85 -2 23 -4 4 -4 -43z"/>
<path d="M2440 1750 l0 -51 38 3 c37 3 37 3 37 48 0 45 0 45 -37 48 l-38 3 0
-51z m60 20 c0 -5 -9 -10 -20 -10 -11 0 -20 5 -20 10 0 6 9 10 20 10 11 0 20
-4 20 -10z m0 -40 c0 -5 -9 -10 -20 -10 -11 0 -20 5 -20 10 0 6 9 10 20 10 11
0 20 -4 20 -10z"/>
<path d="M3130 1750 c0 -27 5 -50 10 -50 6 0 10 9 10 19 0 30 16 33 30 6 7
-14 20 -25 28 -25 10 0 9 8 -7 34 -19 30 -19 35 -6 46 9 7 13 15 10 18 -3 3
-16 -5 -30 -18 l-25 -23 0 21 c0 12 -4 22 -10 22 -5 0 -10 -22 -10 -50z"/>
<path d="M2542 1743 c3 -35 6 -38 36 -41 31 -3 32 -2 32 37 0 46 -17 56 -22
14 -4 -39 -28 -42 -28 -4 0 17 -5 31 -11 31 -6 0 -9 -16 -7 -37z"/>
<path d="M2634 1765 c-8 -19 3 -35 24 -36 10 -1 7 -4 -8 -9 -22 -6 -23 -8 -7
-15 9 -4 24 -5 32 -1 22 8 18 35 -7 46 l-23 9 23 0 c13 1 20 5 17 11 -9 15
-45 12 -51 -5z"/>
<path d="M2710 1740 c0 -22 5 -40 10 -40 6 0 10 18 10 40 0 22 -4 40 -10 40
-5 0 -10 -18 -10 -40z"/>
<path d="M2750 1739 c0 -44 17 -54 22 -12 4 39 28 42 28 4 0 -17 5 -31 11 -31
6 0 9 16 7 38 -3 34 -6 37 -35 39 -32 1 -33 0 -33 -38z"/>
<path d="M2844 1766 c-17 -44 14 -78 54 -60 14 6 11 9 -13 14 l-30 8 28 1 c19
1 27 6 27 20 0 30 -56 44 -66 17z m43 -12 c-3 -3 -12 -4 -19 -1 -8 3 -5 6 6 6
11 1 17 -2 13 -5z"/>
<path d="M2934 1765 c-8 -19 3 -35 24 -36 10 -1 7 -4 -8 -9 -22 -6 -23 -8 -7
-15 9 -4 24 -5 32 -1 22 8 18 35 -7 46 l-23 9 23 0 c13 1 20 5 17 11 -9 15
-45 12 -51 -5z"/>
<path d="M3014 1765 c-8 -19 3 -35 24 -36 10 -1 7 -4 -8 -9 -22 -6 -23 -8 -7
-15 9 -4 24 -5 32 -1 22 8 18 35 -7 46 l-23 9 23 0 c13 1 20 5 17 11 -9 15
-45 12 -51 -5z"/>
<path d="M3234 1766 c-17 -44 14 -78 54 -60 14 6 11 9 -13 14 l-30 8 28 1 c19
1 27 6 27 20 0 30 -56 44 -66 17z m43 -12 c-3 -3 -12 -4 -19 -1 -8 3 -5 6 6 6
11 1 17 -2 13 -5z"/>
<path d="M3315 1763 c16 -42 18 -75 4 -84 -11 -7 -11 -9 3 -9 20 0 31 18 46
73 8 29 8 37 -1 34 -6 -2 -14 -14 -17 -28 l-6 -24 -7 28 c-4 15 -12 27 -18 27
-7 0 -8 -7 -4 -17z"/>
<path d="M3300 1301 c0 -12 -8 -21 -22 -24 l-23 -4 23 -8 c12 -4 22 -16 22
-26 0 -11 5 -19 10 -19 6 0 10 9 10 20 0 13 7 20 20 20 11 0 20 5 20 10 0 6
-9 10 -20 10 -13 0 -20 7 -20 20 0 11 -4 20 -10 20 -5 0 -10 -9 -10 -19z"/>
<path d="M2329 1264 c-11 -26 -17 -49 -14 -52 2 -3 7 3 11 12 8 21 50 21 58 0
4 -9 9 -15 11 -12 6 6 -32 98 -40 98 -3 0 -15 -21 -26 -46z m41 -6 c0 -5 -7
-8 -15 -8 -17 0 -18 2 -9 25 5 13 8 14 15 3 5 -7 9 -16 9 -20z"/>
<path d="M2460 1301 c0 -5 -10 -11 -22 -13 -19 -2 -23 -9 -23 -38 0 -31 3 -35
28 -38 26 -3 27 -2 27 47 0 28 -2 51 -5 51 -3 0 -5 -4 -5 -9z m-5 -51 c0 -13
-6 -25 -12 -27 -16 -6 -27 21 -19 43 9 23 31 11 31 -16z"/>
<path d="M2540 1301 c0 -5 -10 -11 -22 -13 -19 -2 -23 -9 -23 -38 0 -31 3 -35
28 -38 26 -3 27 -2 27 47 0 28 -2 51 -5 51 -3 0 -5 -4 -5 -9z m-5 -51 c0 -13
-6 -25 -12 -27 -16 -6 -27 21 -19 43 9 23 31 11 31 -16z"/>
<path d="M2616 1282 c-3 -6 2 -8 13 -5 10 3 21 0 25 -5 3 -5 -5 -13 -19 -16
-16 -4 -25 -13 -25 -26 0 -16 6 -20 30 -18 29 2 31 5 28 38 -2 27 -8 36 -25
38 -11 2 -24 -1 -27 -6z m44 -42 c0 -13 -28 -25 -38 -16 -3 4 0 11 8 16 20 13
30 12 30 0z"/>
<path d="M2735 1253 c19 -45 23 -50 29 -32 3 8 10 26 15 42 6 15 7 27 2 27 -5
0 -12 -12 -16 -27 l-8 -28 -10 28 c-6 15 -15 27 -19 27 -5 0 -1 -17 7 -37z"/>
<path d="M2806 1282 c-3 -6 2 -8 13 -5 10 3 21 0 25 -5 3 -5 -5 -13 -19 -16
-16 -4 -25 -13 -25 -26 0 -16 6 -20 30 -18 29 2 31 5 28 38 -2 27 -8 36 -25
38 -11 2 -24 -1 -27 -6z m44 -42 c0 -13 -28 -25 -38 -16 -3 4 0 11 8 16 20 13
30 12 30 0z"/>
<path d="M2881 1248 l1 -43 8 34 c4 18 14 37 22 42 9 6 7 9 -9 9 -20 0 -23 -5
-22 -42z"/>
<path d="M2933 1250 c0 -25 2 -35 4 -22 2 12 2 32 0 45 -2 12 -4 2 -4 -23z"/>
<path d="M2966 1282 c-3 -6 2 -8 13 -5 10 3 21 0 25 -5 3 -5 -5 -13 -19 -16
-16 -4 -25 -13 -25 -26 0 -16 6 -20 30 -18 29 2 31 5 28 38 -2 27 -8 36 -25
38 -11 2 -24 -1 -27 -6z m44 -42 c0 -13 -28 -25 -38 -16 -3 4 0 11 8 16 20 13
30 12 30 0z"/>
<path d="M10220 470 l0 -170 280 0 280 0 0 170 0 170 -280 0 -280 0 0 -170z
m208 32 c3 -11 1 -11 -17 -1 -16 11 -23 11 -33 1 -9 -9 -5 -14 21 -23 24 -9
31 -16 29 -33 -2 -16 -10 -21 -32 -21 -17 0 -31 6 -34 15 -4 12 -2 13 9 3 18
-17 49 -16 49 1 0 8 -13 19 -30 25 -28 9 -38 29 -23 45 11 11 56 2 61 -12z
m41 -10 c-12 -5 -11 -59 1 -65 6 -3 5 -4 -2 -3 -13 3 -27 61 -20 83 3 9 7 9
17 0 7 -7 9 -13 4 -15z m170 0 c-12 -5 -11 -59 1 -65 6 -3 5 -4 -2 -3 -7 1
-14 17 -16 35 -5 45 -35 38 -43 -9 l-6 -35 -2 40 c-1 35 2 41 21 42 13 1 24 7
26 12 2 7 8 6 17 -2 7 -7 9 -13 4 -15z m-91 -32 c3 -33 1 -36 -28 -38 -24 -2
-30 2 -30 18 0 13 9 22 25 26 14 3 22 11 19 16 -4 5 -15 8 -25 5 -11 -3 -16
-1 -13 5 3 5 16 8 27 6 17 -2 23 -11 25 -38z"/>
<path d="M10505 449 c-4 -6 -4 -13 -1 -16 8 -8 36 5 36 17 0 13 -27 13 -35 -1z"/>
<path d="M2340 471 c0 -49 1 -51 29 -51 39 0 51 18 42 60 -6 30 -11 35 -39 38
l-32 3 0 -50z m53 24 c1 -5 -6 -11 -15 -13 -11 -2 -18 3 -18 13 0 17 30 18 33
0z m2 -45 c0 -8 -8 -16 -17 -18 -13 -2 -18 3 -18 18 0 15 5 20 18 18 9 -2 17
-10 17 -18z"/>
<path d="M2580 470 c0 -27 5 -50 10 -50 6 0 10 8 10 17 0 9 10 27 22 40 22 23
12 33 -10 11 -9 -9 -12 -7 -12 10 0 12 -4 22 -10 22 -5 0 -10 -22 -10 -50z"/>
<path d="M9662 508 c-15 -15 -16 -60 0 -76 17 -17 53 -15 68 3 15 18 7 19 -19
3 -23 -14 -51 3 -51 32 0 10 7 23 16 31 13 10 19 10 36 0 16 -10 19 -10 16 1
-6 17 -50 22 -66 6z"/>
<path d="M9753 470 c0 -30 2 -43 4 -27 2 15 2 39 0 55 -2 15 -4 2 -4 -28z"/>
<path d="M2434 489 c-4 -7 0 -9 14 -5 11 4 23 3 26 -3 3 -5 -5 -12 -19 -15
-16 -4 -25 -13 -25 -26 0 -15 7 -19 33 -18 31 1 32 2 29 40 -4 32 -8 38 -27
38 -13 0 -27 -5 -31 -11z m46 -39 c0 -13 -28 -25 -38 -16 -3 4 0 11 8 16 20
13 30 12 30 0z"/>
<path d="M2510 480 c-19 -36 25 -83 45 -49 4 6 0 9 -11 7 -14 -2 -19 3 -19 22
0 19 5 24 19 22 11 -2 15 1 11 7 -10 17 -33 13 -45 -9z"/>
<path d="M9784 486 c-12 -31 0 -61 25 -61 31 0 50 28 35 53 -14 22 -52 28 -60
8z m41 -26 c0 -13 -6 -25 -12 -27 -16 -6 -27 21 -19 43 9 23 31 11 31 -16z"/>
<path d="M9860 481 c0 -11 9 -23 20 -26 11 -3 20 -11 20 -17 0 -6 -9 -8 -20
-5 -11 3 -20 1 -20 -4 0 -15 47 -10 53 5 6 16 -11 36 -30 36 -7 0 -13 5 -13
11 0 6 9 9 20 6 11 -3 18 -1 14 4 -10 17 -44 10 -44 -10z"/>
<path d="M9930 480 c-8 -14 -8 -26 0 -40 11 -20 44 -27 54 -12 3 5 -4 8 -16 8
-12 -1 -23 5 -25 12 -3 8 6 12 26 12 33 0 39 8 19 28 -18 18 -46 14 -58 -8z
m45 0 c3 -5 -3 -10 -15 -10 -12 0 -18 5 -15 10 3 6 10 10 15 10 5 0 12 -4 15
-10z"/>
<path d="M2610 455 c0 -15 18 -40 24 -34 3 3 -1 14 -9 25 -8 10 -14 15 -15 9z"/>
<path d="M2045 129 c4 -5 18 -15 32 -20 34 -13 8793 -12 8827 0 13 6 27 15 31
20 4 8 -1308 11 -4445 11 -3137 0 -4449 -3 -4445 -11z"/>
</g>
</svg>
