<?xml version="1.0" standalone="no"?>
<!DOCTYPE svg PUBLIC "-//W3C//DTD SVG 20010904//EN"
 "http://www.w3.org/TR/2001/REC-SVG-20010904/DTD/svg10.dtd">
<svg version="1.0" xmlns="http://www.w3.org/2000/svg"
 width="1304.000000pt" height="385.000000pt" viewBox="0 0 1304.000000 385.000000"
 preserveAspectRatio="xMidYMid meet">

<g transform="translate(0.000000,385.000000) scale(0.100000,-0.100000)"
fill="#000000" stroke="none">
<path d="M87 3783 c-4 -3 -7 -26 -7 -50 0 -30 4 -43 14 -43 8 0 17 6 20 13 5
10 7 10 12 0 3 -7 14 -13 25 -13 12 0 19 -7 19 -19 0 -11 6 -22 13 -25 10 -5
10 -7 0 -12 -7 -3 -13 -12 -13 -20 0 -10 13 -14 45 -14 l45 0 0 53 c0 28 -4
48 -8 42 -11 -15 -62 -16 -62 -1 0 8 -10 17 -22 21 -14 4 -18 8 -10 12 6 2 12
11 12 19 0 8 -6 14 -12 14 -8 0 -5 7 6 15 18 14 17 15 -25 15 -25 0 -49 -3
-52 -7z"/>
<path d="M186 3762 c-9 -26 2 -49 24 -55 28 -7 52 15 48 44 -4 32 -63 41 -72
11z"/>
<path d="M361 3744 c-27 -34 -27 -64 0 -98 25 -32 77 -36 102 -8 21 23 21 32
3 32 -8 0 -16 -7 -20 -15 -7 -18 -47 -20 -64 -3 -7 7 -12 26 -12 43 0 17 5 36
12 43 18 18 56 15 67 -5 5 -10 13 -14 17 -10 16 15 -13 42 -48 45 -29 2 -40
-2 -57 -24z"/>
<path d="M1090 3750 c0 -14 -7 -20 -23 -20 -31 0 -47 -18 -47 -55 0 -40 16
-55 57 -55 l33 0 0 75 c0 43 -4 75 -10 75 -5 0 -10 -9 -10 -20z m-5 -75 c0
-23 -4 -30 -20 -30 -21 0 -31 25 -21 51 11 28 41 12 41 -21z"/>
<path d="M1310 3760 c0 -5 11 -10 25 -10 24 0 25 -2 25 -65 0 -37 4 -65 10
-65 6 0 10 28 10 65 0 63 1 65 25 65 14 0 25 5 25 10 0 6 -27 10 -60 10 -33 0
-60 -4 -60 -10z"/>
<path d="M1640 3695 c0 -43 4 -75 10 -75 6 0 10 8 10 18 0 32 13 34 36 5 29
-36 43 -23 16 15 l-21 29 22 21 c29 30 1 30 -30 0 l-23 -21 0 41 c0 23 -4 42
-10 42 -6 0 -10 -32 -10 -75z"/>
<path d="M1750 3695 c0 -43 4 -75 10 -75 6 0 10 32 10 75 0 43 -4 75 -10 75
-6 0 -10 -32 -10 -75z"/>
<path d="M1790 3760 c0 -5 7 -10 15 -10 8 0 15 5 15 10 0 6 -7 10 -15 10 -8 0
-15 -4 -15 -10z"/>
<path d="M1953 3750 c-15 -38 -2 -124 20 -128 9 -2 17 1 17 7 0 6 -4 11 -10
11 -15 0 -12 67 3 73 9 4 9 8 1 14 -7 4 -14 17 -16 28 -4 18 -6 18 -15 -5z"/>
<path d="M9451 3716 c-52 -53 -53 -81 -1 -82 57 -1 121 67 100 106 -17 32 -52
24 -99 -24z m87 9 c2 -13 -11 -33 -35 -55 l-38 -35 33 35 c55 61 34 99 -23 40
-33 -34 -23 -41 12 -8 13 12 25 19 28 16 3 -3 -13 -22 -36 -43 -30 -27 -44
-34 -52 -26 -8 8 1 23 33 56 47 47 73 54 78 20z"/>
<path d="M10450 3690 l0 -70 65 0 65 0 0 70 0 70 -65 0 -65 0 0 -70z m120 -5
l0 -55 -52 1 c-29 0 -47 3 -40 6 6 2 12 9 12 14 0 6 -4 7 -10 4 -5 -3 -10 -1
-10 4 0 6 6 11 13 11 8 0 7 4 -3 10 -13 9 -13 10 0 10 13 0 13 1 0 10 -10 6
-11 10 -2 10 6 0 12 5 12 11 0 5 -4 7 -10 4 -5 -3 -10 -1 -10 4 0 6 21 11 50
11 l50 0 0 -55z"/>
<path d="M10500 3720 c0 -5 14 -10 30 -10 17 0 30 5 30 10 0 6 -13 10 -30 10
-16 0 -30 -4 -30 -10z"/>
<path d="M10513 3693 c9 -2 25 -2 35 0 9 3 1 5 -18 5 -19 0 -27 -2 -17 -5z"/>
<path d="M10513 3673 c9 -2 25 -2 35 0 9 3 1 5 -18 5 -19 0 -27 -2 -17 -5z"/>
<path d="M10500 3650 c0 -5 14 -10 30 -10 17 0 30 5 30 10 0 6 -13 10 -30 10
-16 0 -30 -4 -30 -10z"/>
<path d="M11628 3734 c-9 -19 -9 -30 0 -45 10 -16 8 -21 -13 -35 -40 -26 -30
-34 45 -34 71 0 87 10 50 30 -17 9 -20 17 -14 46 11 60 -44 91 -68 38z"/>
<path d="M12748 3729 c-34 -27 -54 -60 -28 -44 6 4 10 -8 10 -29 0 -29 4 -36
20 -36 15 0 20 7 20 25 0 16 6 25 15 25 9 0 15 -9 15 -25 0 -18 5 -25 20 -25
16 0 20 7 20 35 0 20 5 35 12 35 7 0 -3 16 -22 35 -19 19 -36 35 -39 35 -4 -1
-23 -14 -43 -31z"/>
<path d="M513 3724 c-15 -7 -17 -34 -3 -34 6 0 10 5 10 10 0 13 37 13 45 1 3
-6 -10 -13 -29 -16 -36 -7 -50 -24 -40 -50 4 -11 19 -15 51 -13 l44 1 -3 51
c-3 49 -4 51 -33 53 -16 1 -36 0 -42 -3z m55 -66 c-5 -15 -48 -24 -48 -10 0
14 12 22 33 22 10 0 17 -5 15 -12z"/>
<path d="M610 3674 c0 -41 4 -54 15 -54 11 0 15 12 15 45 0 38 3 45 20 45 17
0 20 -7 20 -45 0 -57 18 -59 22 -3 2 31 8 44 21 46 14 3 17 -4 17 -42 0 -34 4
-46 15 -46 11 0 15 11 15 36 0 63 -11 72 -90 71 l-70 0 0 -53z"/>
<path d="M792 3678 l3 -53 43 -1 42 -2 0 54 c0 64 -17 73 -22 12 -2 -36 -7
-44 -25 -46 -21 -3 -23 1 -23 42 0 26 -5 46 -11 46 -6 0 -9 -21 -7 -52z"/>
<path d="M910 3673 c0 -63 17 -72 22 -10 2 34 7 42 23 42 16 0 21 -8 23 -42 4
-56 22 -55 22 1 0 51 -13 65 -58 64 -32 -1 -32 -1 -32 -55z"/>
<path d="M1150 3715 c-7 -8 -9 -19 -5 -23 4 -4 10 -1 12 6 5 14 53 17 53 3 0
-5 -13 -12 -29 -16 -69 -15 -61 -66 11 -63 l39 1 -3 51 c-3 49 -4 51 -34 54
-19 2 -36 -3 -44 -13z m58 -57 c-5 -15 -48 -24 -48 -10 0 14 12 22 33 22 10 0
17 -5 15 -12z"/>
<path d="M1430 3715 c-15 -19 -5 -34 12 -17 14 14 48 16 48 3 0 -4 -15 -12
-32 -17 -26 -8 -33 -15 -33 -34 0 -23 4 -25 45 -27 l45 -1 -5 51 c-5 49 -7 52
-36 55 -19 2 -36 -3 -44 -13z m58 -57 c-5 -15 -48 -24 -48 -10 0 14 12 22 33
22 10 0 17 -5 15 -12z"/>
<path d="M1540 3716 c-16 -20 -1 -41 35 -50 14 -4 25 -11 25 -16 0 -14 -34
-12 -48 2 -17 17 -27 2 -12 -17 21 -25 74 -16 78 13 3 18 -3 26 -27 35 -40 15
-40 31 0 23 22 -4 29 -2 27 7 -7 18 -63 21 -78 3z"/>
<path d="M1790 3675 c0 -42 3 -55 15 -55 12 0 15 13 15 55 0 42 -3 55 -15 55
-12 0 -15 -13 -15 -55z"/>
<path d="M1847 3724 c-17 -18 -6 -45 23 -55 34 -12 40 -29 10 -29 -11 0 -20 5
-20 10 0 6 -7 10 -15 10 -13 0 -14 -4 -5 -20 20 -38 102 -16 87 24 -3 8 -19
17 -36 21 -41 9 -41 29 0 21 22 -4 29 -2 27 7 -5 13 -60 22 -71 11z"/>
<path d="M8052 3680 c-1 -39 2 -49 8 -34 4 11 5 36 0 55 -7 31 -8 29 -8 -21z"/>
<path d="M8093 3709 l-21 -22 21 -28 c29 -40 44 -37 16 2 l-22 32 22 18 c13
11 19 19 14 19 -5 0 -18 -10 -30 -21z"/>
<path d="M8291 3685 c-1 -47 1 -51 24 -53 31 -2 51 29 35 58 -6 11 -19 20 -30
20 -10 0 -21 6 -23 13 -3 6 -6 -11 -6 -38z m44 -15 c0 -27 -22 -39 -31 -16 -8
22 3 49 19 43 6 -2 12 -14 12 -27z"/>
<path d="M8630 3720 c0 -5 -9 -10 -20 -10 -10 0 -24 -9 -30 -20 -15 -28 4 -60
35 -60 23 0 25 4 25 50 0 28 -2 50 -5 50 -3 0 -5 -4 -5 -10z m-5 -50 c0 -27
-22 -39 -31 -16 -8 22 3 49 19 43 6 -2 12 -14 12 -27z"/>
<path d="M8707 3724 c-15 -16 -5 -36 23 -45 17 -6 30 -15 30 -20 0 -17 -30
-22 -47 -8 -14 12 -16 12 -11 -1 3 -9 17 -15 34 -15 22 0 30 5 32 21 2 17 -5
24 -29 33 -26 9 -30 14 -21 23 10 10 17 10 33 -1 18 -10 20 -10 17 1 -5 14
-50 23 -61 12z"/>
<path d="M8791 3680 c1 -47 3 -50 8 -20 4 22 12 35 21 35 9 0 18 -13 22 -35
l6 -35 -1 40 c-2 31 -6 41 -22 44 -11 2 -23 8 -27 15 -4 6 -7 -14 -7 -44z"/>
<path d="M9000 3720 c0 -5 -11 -10 -25 -10 -23 0 -25 -4 -24 -42 1 -44 3 -43
13 5 9 41 36 35 36 -8 0 -21 5 -35 13 -35 10 0 13 32 8 93 -1 11 -21 8 -21 -3z"/>
<path d="M9188 3719 c-7 -21 5 -89 16 -89 9 0 12 35 7 93 -1 11 -19 8 -23 -4z"/>
<path d="M9612 3718 c-16 -16 -15 -63 2 -78 18 -14 58 -10 64 8 3 11 1 11 -17
0 -17 -11 -23 -10 -37 4 -36 36 8 90 45 56 11 -11 13 -10 9 2 -6 19 -49 25
-66 8z"/>
<path d="M9908 3719 c-7 -21 5 -89 16 -89 9 0 12 35 7 93 -1 11 -19 8 -23 -4z"/>
<path d="M10068 3719 c-7 -21 5 -89 16 -89 9 0 12 35 7 93 -1 11 -19 8 -23 -4z"/>
<path d="M10263 3680 c0 -30 2 -45 4 -32 5 27 20 29 28 2 3 -11 11 -20 17 -20
6 0 3 11 -6 24 -14 23 -14 26 0 40 8 9 11 16 5 16 -5 0 -13 -4 -16 -10 -10
-17 -23 -11 -28 13 -2 12 -4 -3 -4 -33z"/>
<path d="M10637 3724 c-15 -16 -5 -36 23 -45 17 -6 30 -15 30 -20 0 -17 -30
-22 -47 -8 -14 12 -16 12 -11 -1 3 -9 17 -15 34 -15 22 0 30 5 32 21 2 17 -5
24 -29 33 -26 9 -30 14 -21 23 10 10 17 10 33 -1 18 -10 20 -10 17 1 -5 14
-50 23 -61 12z"/>
<path d="M10718 3719 c-7 -21 5 -89 16 -89 9 0 12 35 7 93 -1 11 -19 8 -23 -4z"/>
<path d="M10890 3720 c0 -5 -11 -10 -25 -10 -23 0 -25 -4 -24 -42 1 -44 3 -43
13 5 9 41 36 35 36 -8 0 -21 5 -35 13 -35 10 0 13 32 8 93 -1 11 -21 8 -21 -3z"/>
<path d="M11780 3680 c0 -48 1 -50 28 -50 35 0 52 16 52 50 0 34 -17 50 -52
50 -27 0 -28 -2 -28 -50z m65 20 c10 -33 -4 -60 -31 -60 -21 0 -24 4 -24 40 0
36 3 40 24 40 16 0 27 -7 31 -20z"/>
<path d="M12190 3680 c0 -48 1 -50 28 -50 35 0 52 16 52 50 0 34 -17 50 -52
50 -27 0 -28 -2 -28 -50z m65 20 c10 -33 -4 -60 -31 -60 -21 0 -24 4 -24 40 0
36 3 40 24 40 16 0 27 -7 31 -20z"/>
<path d="M8140 3690 c-8 -14 -8 -26 0 -40 11 -20 44 -27 54 -12 3 5 -4 8 -16
8 -12 -1 -23 5 -25 12 -3 8 6 12 27 12 28 0 30 2 20 20 -6 11 -19 20 -30 20
-11 0 -24 -9 -30 -20z m45 0 c3 -5 -3 -10 -15 -10 -12 0 -18 5 -15 10 3 6 10
10 15 10 5 0 12 -4 15 -10z"/>
<path d="M8225 3669 c12 -34 13 -45 3 -57 -11 -12 -10 -14 1 -11 16 6 55 109
41 109 -4 0 -11 -12 -15 -27 l-8 -28 -10 28 c-17 44 -28 31 -12 -14z"/>
<path d="M8374 3696 c-11 -29 1 -61 23 -64 29 -4 48 30 33 58 -12 23 -48 27
-56 6z m41 -26 c0 -27 -22 -39 -31 -16 -8 22 3 49 19 43 6 -2 12 -14 12 -27z"/>
<path d="M8456 3702 c-3 -6 2 -8 13 -5 10 3 21 0 25 -5 3 -5 -5 -13 -19 -16
-16 -4 -25 -13 -25 -26 0 -16 6 -20 30 -18 29 2 31 5 28 38 -2 27 -8 36 -25
38 -11 2 -24 -1 -27 -6z m44 -42 c0 -13 -28 -25 -38 -16 -3 4 0 11 8 16 20 13
30 12 30 0z"/>
<path d="M8531 3668 l1 -43 8 34 c4 18 14 37 22 42 9 6 7 9 -9 9 -20 0 -23 -5
-22 -42z"/>
<path d="M8874 3696 c-11 -29 1 -61 23 -64 29 -4 48 30 33 58 -12 23 -48 27
-56 6z m41 -26 c0 -13 -6 -25 -12 -27 -16 -6 -27 21 -19 43 9 23 31 11 31 -16z"/>
<path d="M9040 3690 c-19 -36 25 -83 46 -49 4 8 0 9 -15 4 -18 -6 -21 -2 -21
25 0 27 3 31 21 25 15 -5 19 -4 15 4 -11 17 -34 13 -46 -9z"/>
<path d="M9113 3675 c2 -36 5 -40 30 -41 25 -1 27 1 26 40 l-2 41 -6 -35 c-4
-22 -12 -35 -21 -35 -9 0 -18 13 -22 35 l-6 35 1 -40z"/>
<path d="M9230 3691 c0 -11 9 -23 20 -26 11 -3 20 -11 20 -17 0 -6 -9 -8 -20
-5 -11 3 -20 1 -20 -4 0 -15 36 -10 50 6 10 12 7 17 -14 26 -31 14 -35 34 -6
26 11 -3 18 -1 14 4 -10 17 -44 10 -44 -10z"/>
<path d="M9701 3668 l1 -43 8 34 c4 18 14 37 22 42 9 6 7 9 -9 9 -20 0 -23 -5
-22 -42z"/>
<path d="M9750 3690 c-8 -14 -8 -26 0 -40 11 -20 44 -27 54 -12 3 5 -4 8 -16
8 -12 -1 -23 5 -25 12 -3 8 6 12 27 12 28 0 30 2 20 20 -6 11 -19 20 -30 20
-11 0 -24 -9 -30 -20z m45 0 c3 -5 -3 -10 -15 -10 -12 0 -18 5 -15 10 3 6 10
10 15 10 5 0 12 -4 15 -10z"/>
<path d="M9836 3702 c-3 -6 2 -8 13 -5 10 3 21 0 25 -5 3 -5 -5 -13 -19 -16
-16 -4 -25 -13 -25 -26 0 -16 6 -20 30 -18 29 2 31 5 28 38 -2 27 -8 36 -25
38 -11 2 -24 -1 -27 -6z m44 -42 c0 -13 -28 -25 -38 -16 -3 4 0 11 8 16 20 13
30 12 30 0z"/>
<path d="M9950 3690 c-8 -14 -8 -26 0 -40 11 -20 44 -27 54 -12 3 5 -4 8 -16
8 -12 -1 -23 5 -25 12 -3 8 6 12 27 12 28 0 30 2 20 20 -6 11 -19 20 -30 20
-11 0 -24 -9 -30 -20z m45 0 c3 -5 -3 -10 -15 -10 -12 0 -18 5 -15 10 3 6 10
10 15 10 5 0 12 -4 15 -10z"/>
<path d="M10116 3702 c-3 -6 2 -8 13 -5 10 3 21 0 25 -5 3 -5 -5 -13 -19 -16
-16 -4 -25 -13 -25 -26 0 -16 6 -20 30 -18 29 2 31 5 28 38 -2 27 -8 36 -25
38 -11 2 -24 -1 -27 -6z m44 -42 c0 -13 -28 -25 -38 -16 -3 4 0 11 8 16 20 13
30 12 30 0z"/>
<path d="M10190 3691 c0 -11 9 -23 20 -26 11 -3 20 -11 20 -17 0 -6 -9 -8 -20
-5 -11 3 -20 1 -20 -4 0 -15 36 -10 50 6 10 12 7 17 -14 26 -31 14 -35 34 -6
26 11 -3 18 -1 14 4 -10 17 -44 10 -44 -10z"/>
<path d="M10766 3702 c-3 -6 2 -8 13 -5 10 3 21 0 25 -5 3 -5 -5 -13 -19 -16
-16 -4 -25 -13 -25 -26 0 -16 6 -20 30 -18 29 2 31 5 28 38 -2 27 -8 36 -25
38 -11 2 -24 -1 -27 -6z m44 -42 c0 -13 -28 -25 -38 -16 -3 4 0 11 8 16 20 13
30 12 30 0z"/>
<path d="M10971 3650 c1 -30 3 -47 6 -37 2 9 13 17 23 17 11 0 24 9 30 20 16
29 -4 60 -35 58 -24 -2 -25 -6 -24 -58z m44 20 c0 -27 -22 -39 -31 -16 -8 22
3 49 19 43 6 -2 12 -14 12 -27z"/>
<path d="M11051 3668 l1 -43 8 34 c4 18 14 37 22 42 9 6 7 9 -9 9 -20 0 -23
-5 -22 -42z"/>
<path d="M11104 3696 c-18 -48 25 -88 53 -50 13 18 15 18 24 2 11 -20 34 -24
45 -7 4 8 0 9 -15 4 -18 -6 -21 -2 -21 25 0 27 3 31 21 25 15 -5 19 -4 15 4
-11 17 -34 13 -46 -6 -10 -17 -10 -17 -20 0 -13 21 -48 23 -56 3z m41 -26 c0
-27 -22 -39 -31 -16 -8 22 3 49 19 43 6 -2 12 -14 12 -27z"/>
<path d="M11250 3690 c-8 -14 -8 -26 0 -40 11 -20 44 -27 54 -12 3 5 -4 8 -16
8 -12 -1 -23 5 -25 12 -3 8 6 12 27 12 28 0 30 2 20 20 -6 11 -19 20 -30 20
-11 0 -24 -9 -30 -20z m45 0 c3 -5 -3 -10 -15 -10 -12 0 -18 5 -15 10 3 6 10
10 15 10 5 0 12 -4 15 -10z"/>
<path d="M11330 3691 c0 -11 9 -23 20 -26 11 -3 20 -11 20 -17 0 -6 -9 -8 -20
-5 -11 3 -20 1 -20 -4 0 -15 36 -10 50 6 10 12 7 17 -14 26 -31 14 -35 34 -6
26 11 -3 18 -1 14 4 -10 17 -44 10 -44 -10z"/>
<path d="M11400 3691 c0 -11 9 -23 20 -26 11 -3 20 -11 20 -17 0 -6 -9 -8 -20
-5 -11 3 -20 1 -20 -4 0 -15 36 -10 50 6 10 12 7 17 -14 26 -31 14 -35 34 -6
26 11 -3 18 -1 14 4 -10 17 -44 10 -44 -10z"/>
<path d="M11880 3690 c-8 -14 -8 -26 0 -40 11 -20 44 -27 54 -12 3 5 -4 8 -16
8 -12 -1 -23 5 -25 12 -3 8 6 12 27 12 28 0 30 2 20 20 -6 11 -19 20 -30 20
-11 0 -24 -9 -30 -20z m45 0 c3 -5 -3 -10 -15 -10 -12 0 -18 5 -15 10 3 6 10
10 15 10 5 0 12 -4 15 -10z"/>
<path d="M11961 3667 c2 -42 2 -42 8 -8 9 49 31 52 32 4 l2 -38 6 34 c9 49 29
51 34 4 l4 -38 1 41 2 41 -45 1 -45 1 1 -42z"/>
<path d="M12074 3696 c-11 -29 1 -61 23 -64 29 -4 48 30 33 58 -12 23 -48 27
-56 6z m41 -26 c0 -27 -22 -39 -31 -16 -8 22 3 49 19 43 6 -2 12 -14 12 -27z"/>
<path d="M12290 3690 c-8 -14 -8 -26 0 -40 11 -20 44 -27 54 -12 3 5 -4 8 -16
8 -12 -1 -23 5 -25 12 -3 8 6 12 27 12 28 0 30 2 20 20 -6 11 -19 20 -30 20
-11 0 -24 -9 -30 -20z m45 0 c3 -5 -3 -10 -15 -10 -12 0 -18 5 -15 10 3 6 10
10 15 10 5 0 12 -4 15 -10z"/>
<path d="M12371 3667 c2 -42 2 -42 8 -8 9 49 31 52 32 4 l2 -38 6 34 c9 49 29
51 34 4 l4 -38 1 41 2 41 -45 1 -45 1 1 -42z"/>
<path d="M12484 3696 c-11 -29 1 -61 23 -64 29 -4 48 30 33 58 -12 23 -48 27
-56 6z m41 -26 c0 -27 -22 -39 -31 -16 -8 22 3 49 19 43 6 -2 12 -14 12 -27z"/>
<path d="M12928 3668 l22 -22 22 22 22 22 -44 0 -44 0 22 -22z"/>
<path d="M92 3668 c-18 -18 -14 -46 7 -58 25 -13 48 -4 56 21 12 38 -35 65
-63 37z"/>
<path d="M6164 3361 c3 -5 -1 -14 -9 -21 -22 -18 -9 -30 20 -17 31 15 34 47 4
47 -11 0 -18 -4 -15 -9z"/>
<path d="M2033 3329 l-31 -31 33 -29 c43 -38 67 -37 30 1 l-29 30 29 30 c39
41 10 40 -32 -1z"/>
<path d="M3140 3341 c0 -12 -8 -21 -22 -24 l-23 -4 23 -8 c12 -4 22 -16 22
-26 0 -11 5 -19 10 -19 6 0 10 9 10 20 0 13 7 20 20 20 11 0 20 5 20 10 0 6
-9 10 -20 10 -13 0 -20 7 -20 20 0 11 -4 20 -10 20 -5 0 -10 -9 -10 -19z"/>
<path d="M5633 3329 l-31 -31 33 -29 c43 -38 67 -37 30 1 l-29 30 29 30 c39
41 10 40 -32 -1z"/>
<path d="M5865 3330 l29 -30 -29 -30 c-20 -21 -24 -30 -14 -30 9 0 28 14 44
30 l29 30 -29 30 c-16 17 -35 30 -44 30 -10 0 -6 -9 14 -30z"/>
<path d="M12820 3341 c0 -12 -8 -21 -22 -24 l-23 -4 23 -8 c12 -4 22 -16 22
-26 0 -11 5 -19 10 -19 6 0 10 9 10 20 0 13 7 20 20 20 11 0 20 5 20 10 0 6
-9 10 -20 10 -13 0 -20 7 -20 20 0 11 -4 20 -10 20 -5 0 -10 -9 -10 -19z"/>
<path d="M1080 3331 c0 -12 -8 -21 -22 -24 l-23 -4 23 -8 c12 -4 22 -16 22
-26 0 -11 5 -19 10 -19 6 0 10 9 10 20 0 13 7 20 20 20 11 0 20 5 20 10 0 6
-9 10 -20 10 -13 0 -20 7 -20 20 0 11 -4 20 -10 20 -5 0 -10 -9 -10 -19z"/>
<path d="M2332 3338 c-16 -16 -15 -63 2 -78 18 -14 58 -10 64 8 3 11 1 11 -17
0 -17 -11 -23 -10 -37 4 -36 36 8 90 45 56 11 -11 13 -10 9 2 -6 19 -49 25
-66 8z"/>
<path d="M2628 3339 c-7 -21 5 -89 16 -89 9 0 12 35 7 93 -1 11 -19 8 -23 -4z"/>
<path d="M2800 3340 c0 -5 -9 -10 -20 -10 -10 0 -24 -8 -30 -17 -10 -17 -10
-17 -20 0 -25 41 -83 0 -60 -43 11 -20 44 -27 54 -12 3 5 -4 8 -16 8 -12 -1
-23 5 -25 12 -8 22 55 15 67 -8 6 -12 21 -20 35 -20 23 0 25 4 25 50 0 28 -2
50 -5 50 -3 0 -5 -4 -5 -10z m-85 -30 c3 -5 -3 -10 -15 -10 -12 0 -18 5 -15
10 3 6 10 10 15 10 5 0 12 -4 15 -10z m80 -20 c0 -13 -6 -25 -12 -27 -16 -6
-27 21 -19 43 9 23 31 11 31 -16z"/>
<path d="M11847 3303 c-9 -25 -15 -48 -12 -51 2 -3 7 3 11 12 8 20 54 22 54 1
0 -8 5 -15 10 -15 13 0 13 1 -10 54 -10 25 -23 46 -27 46 -5 0 -16 -21 -26
-47z m31 -12 c-15 -5 -19 4 -11 24 6 18 7 18 13 -1 4 -10 3 -21 -2 -23z"/>
<path d="M11980 3340 c0 -5 -9 -10 -20 -10 -10 0 -24 -9 -30 -20 -15 -28 4
-60 35 -60 23 0 25 4 25 50 0 28 -2 50 -5 50 -3 0 -5 -4 -5 -10z m-5 -50 c0
-27 -22 -39 -31 -16 -8 22 3 49 19 43 6 -2 12 -14 12 -27z"/>
<path d="M12060 3340 c0 -5 -9 -10 -20 -10 -10 0 -24 -9 -30 -20 -15 -28 4
-60 35 -60 23 0 25 4 25 50 0 28 -2 50 -5 50 -3 0 -5 -4 -5 -10z m-5 -50 c0
-27 -22 -39 -31 -16 -8 22 3 49 19 43 6 -2 12 -14 12 -27z"/>
<path d="M12142 3338 c-16 -16 -15 -63 2 -78 18 -14 58 -10 64 8 3 11 1 11
-17 0 -17 -11 -23 -10 -37 4 -36 36 8 90 45 56 11 -11 13 -10 9 2 -6 19 -49
25 -66 8z"/>
<path d="M12688 3339 c-7 -21 5 -89 16 -89 9 0 12 35 7 93 -1 11 -19 8 -23 -4z"/>
<path d="M142 3328 c-16 -16 -15 -63 2 -78 18 -14 58 -10 64 8 3 11 1 11 -17
0 -17 -11 -23 -10 -37 4 -36 36 8 90 45 56 11 -11 13 -10 9 2 -6 19 -49 25
-66 8z"/>
<path d="M438 3329 c-7 -21 5 -89 16 -89 9 0 12 35 7 93 -1 11 -19 8 -23 -4z"/>
<path d="M724 3330 c-12 -12 -6 -90 7 -90 7 0 12 43 8 77 0 4 8 10 18 14 16 7
16 8 -2 8 -12 1 -25 -3 -31 -9z"/>
<path d="M793 3290 c0 -30 2 -43 4 -27 2 15 2 39 0 55 -2 15 -4 2 -4 -28z"/>
<path d="M818 3329 c-7 -21 5 -89 16 -89 9 0 12 35 7 93 -1 11 -19 8 -23 -4z"/>
<path d="M2421 3288 l1 -43 8 34 c4 18 14 37 22 42 9 6 7 9 -9 9 -20 0 -23 -5
-22 -42z"/>
<path d="M2470 3310 c-8 -14 -8 -26 0 -40 11 -20 44 -27 54 -12 3 5 -4 8 -16
8 -12 -1 -23 5 -25 12 -3 8 6 12 27 12 28 0 30 2 20 20 -6 11 -19 20 -30 20
-11 0 -24 -9 -30 -20z m45 0 c3 -5 -3 -10 -15 -10 -12 0 -18 5 -15 10 3 6 10
10 15 10 5 0 12 -4 15 -10z"/>
<path d="M2556 3322 c-3 -6 2 -8 13 -5 10 3 21 0 25 -5 3 -5 -5 -13 -19 -16
-16 -4 -25 -13 -25 -26 0 -16 6 -20 30 -18 29 2 31 5 28 38 -2 27 -8 36 -25
38 -11 2 -24 -1 -27 -6z m44 -42 c0 -13 -28 -25 -38 -16 -3 4 0 11 8 16 20 13
30 12 30 0z"/>
<path d="M2850 3323 c0 -4 14 -22 32 -40 l32 -33 28 27 c15 15 28 33 28 42 0
10 -8 7 -28 -12 l-28 -27 -24 25 c-23 24 -40 32 -40 18z"/>
<path d="M12234 3316 c-11 -29 1 -61 23 -64 29 -4 48 30 33 58 -12 23 -48 27
-56 6z m41 -26 c0 -27 -22 -39 -31 -16 -8 22 3 49 19 43 6 -2 12 -14 12 -27z"/>
<path d="M12311 3287 c2 -42 2 -42 8 -8 9 49 31 52 32 4 l2 -38 6 34 c9 49 29
51 34 4 l4 -38 1 41 2 41 -45 1 -45 1 1 -42z"/>
<path d="M12421 3287 c2 -42 2 -42 8 -8 9 49 31 52 32 4 l2 -38 6 34 c9 49 29
51 34 4 l4 -38 1 41 2 41 -45 1 -45 1 1 -42z"/>
<path d="M12530 3310 c-8 -14 -8 -26 0 -40 11 -20 44 -27 54 -12 3 5 -4 8 -16
8 -12 -1 -23 5 -25 12 -3 8 6 12 27 12 28 0 30 2 20 20 -6 11 -19 20 -30 20
-11 0 -24 -9 -30 -20z m45 0 c3 -5 -3 -10 -15 -10 -12 0 -18 5 -15 10 3 6 10
10 15 10 5 0 12 -4 15 -10z"/>
<path d="M12611 3288 c2 -43 2 -43 8 -8 4 22 12 35 21 35 9 0 18 -13 22 -35
l6 -35 -1 40 c-2 36 -5 40 -29 43 -27 3 -28 2 -27 -40z"/>
<path d="M231 3278 l1 -43 8 34 c4 18 14 37 22 42 9 6 7 9 -9 9 -20 0 -23 -5
-22 -42z"/>
<path d="M280 3300 c-8 -14 -8 -26 0 -40 11 -20 44 -27 54 -12 3 5 -4 8 -16 8
-12 -1 -23 5 -25 12 -3 8 6 12 27 12 28 0 30 2 20 20 -6 11 -19 20 -30 20 -11
0 -24 -9 -30 -20z m45 0 c3 -5 -3 -10 -15 -10 -12 0 -18 5 -15 10 3 6 10 10
15 10 5 0 12 -4 15 -10z"/>
<path d="M366 3312 c-3 -6 2 -8 13 -5 10 3 21 0 25 -5 3 -5 -5 -13 -19 -16
-16 -4 -25 -13 -25 -26 0 -16 6 -20 30 -18 29 2 31 5 28 38 -2 27 -8 36 -25
38 -11 2 -24 -1 -27 -6z m44 -42 c0 -13 -28 -25 -38 -16 -3 4 0 11 8 16 20 13
30 12 30 0z"/>
<path d="M480 3300 c-8 -14 -8 -26 0 -40 11 -20 44 -27 54 -12 3 5 -4 8 -16 8
-12 -1 -23 5 -25 12 -3 8 6 12 27 12 28 0 30 2 20 20 -6 11 -19 20 -30 20 -11
0 -24 -9 -30 -20z m45 0 c3 -5 -3 -10 -15 -10 -12 0 -18 5 -15 10 3 6 10 10
15 10 5 0 12 -4 15 -10z"/>
<path d="M606 3312 c-3 -6 2 -8 13 -5 10 3 21 0 25 -5 3 -5 -5 -13 -19 -16
-16 -4 -25 -13 -25 -26 0 -16 6 -20 30 -18 29 2 31 5 28 38 -2 27 -8 36 -25
38 -11 2 -24 -1 -27 -6z m44 -42 c0 -13 -28 -25 -38 -16 -3 4 0 11 8 16 20 13
30 12 30 0z"/>
<path d="M763 3280 c0 -25 2 -35 4 -22 2 12 2 32 0 45 -2 12 -4 2 -4 -23z"/>
<path d="M860 3300 c-8 -14 -8 -26 0 -40 11 -20 44 -27 54 -12 3 5 -4 8 -16 8
-12 -1 -23 5 -25 12 -3 8 6 12 27 12 28 0 30 2 20 20 -6 11 -19 20 -30 20 -11
0 -24 -9 -30 -20z m45 0 c3 -5 -3 -10 -15 -10 -12 0 -18 5 -15 10 3 6 10 10
15 10 5 0 12 -4 15 -10z"/>
<path d="M941 3278 l1 -43 8 34 c4 18 14 37 22 42 9 6 7 9 -9 9 -20 0 -23 -5
-22 -42z"/>
<path d="M6083 3276 c-33 -16 -30 -46 5 -46 18 0 23 3 14 9 -10 6 -10 10 3 21
16 13 21 31 8 29 -5 -1 -18 -6 -30 -13z"/>
<path d="M4 2810 c0 -96 2 -136 3 -87 2 48 2 126 0 175 -1 48 -3 8 -3 -88z"/>
<path d="M3138 2973 c453 -2 1191 -2 1640 0 449 1 79 2 -823 2 -902 0 -1270
-1 -817 -2z"/>
<path d="M5604 2805 c0 -93 2 -133 3 -88 2 45 2 122 0 170 -1 48 -3 12 -3 -82z"/>
<path d="M2315 2795 l0 -160 1638 0 1637 0 -1635 2 -1635 3 -3 158 -3 157 1
-160z"/>
<path d="M5930 2820 c0 -91 3 -110 15 -110 11 0 15 11 15 38 0 25 7 45 18 56
18 16 21 14 56 -39 24 -37 43 -55 57 -55 18 0 15 8 -26 66 l-47 66 43 44 c34
35 39 44 24 44 -11 0 -43 -23 -72 -52 l-53 -52 0 52 c0 40 -4 52 -15 52 -12 0
-15 -19 -15 -110z"/>
<path d="M6560 2897 c0 -32 -1 -33 -34 -29 -66 8 -99 -85 -50 -139 12 -14 30
-18 65 -17 l49 1 0 108 c0 90 -3 109 -15 109 -10 0 -15 -10 -15 -33z m-19 -57
c28 -16 27 -85 -3 -101 -18 -10 -24 -8 -40 11 -22 27 -23 49 -2 78 17 25 19
26 45 12z"/>
<path d="M7060 2822 l0 -109 51 -1 c64 -1 89 21 89 78 0 55 -29 84 -76 77 -33
-6 -34 -5 -34 29 0 24 -5 34 -15 34 -12 0 -15 -19 -15 -108z m94 12 c29 -28
11 -104 -24 -104 -18 0 -40 32 -40 57 0 25 25 63 41 63 4 0 15 -7 23 -16z"/>
<path d="M8710 2915 c0 -8 7 -15 15 -15 8 0 15 7 15 15 0 8 -7 15 -15 15 -8 0
-15 -7 -15 -15z"/>
<path d="M9260 2820 c0 -91 3 -110 15 -110 11 0 15 11 15 43 0 76 18 105 55
91 11 -5 15 -22 15 -70 0 -50 3 -64 15 -64 12 0 15 14 15 69 0 80 -12 97 -65
88 -34 -6 -35 -5 -35 29 0 24 -5 34 -15 34 -12 0 -15 -19 -15 -110z"/>
<path d="M7898 2914 c-5 -4 -8 -16 -8 -26 0 -14 -8 -18 -37 -19 -21 -1 -46 -1
-55 0 -16 2 -18 -8 -18 -78 0 -65 3 -81 15 -81 12 0 15 13 15 59 0 64 10 80
50 77 23 -1 25 -5 30 -66 4 -58 7 -65 28 -68 26 -4 28 3 7 24 -9 9 -15 34 -15
60 0 30 5 46 15 50 19 8 20 24 1 24 -8 0 -16 12 -18 26 -2 14 -6 22 -10 18z"/>
<path d="M4972 2867 c-26 -27 -27 -40 -7 -57 19 -16 32 -5 16 13 -8 11 -7 18
8 31 21 19 41 14 41 -10 0 -16 16 -19 25 -3 9 14 -23 49 -45 49 -9 0 -26 -10
-38 -23z"/>
<path d="M5220 2825 c0 -37 4 -65 10 -65 6 0 10 11 10 25 0 23 4 25 45 25 41
0 45 -2 45 -25 0 -14 5 -25 10 -25 14 0 12 104 -2 118 -16 16 -28 15 -28 -3 0
-9 -9 -15 -25 -15 -16 0 -25 6 -25 15 0 8 -9 15 -20 15 -18 0 -20 -7 -20 -65z"/>
<path d="M2007 2832 c-35 -35 -44 -51 -36 -59 8 -8 7 -11 -6 -10 -10 1 -20 -4
-22 -11 -10 -27 31 -6 73 38 34 36 40 48 31 59 -10 11 -8 13 12 6 17 -5 22 -4
19 6 -8 25 -24 19 -71 -29z"/>
<path d="M4697 2874 c-14 -14 -7 -26 8 -14 12 10 19 10 27 2 9 -9 4 -20 -22
-47 l-34 -35 45 1 c43 2 43 2 9 8 l-34 6 27 18 c19 13 27 25 25 40 -3 22 -36
35 -51 21z"/>
<path d="M120 2810 c0 -67 20 -84 21 -17 l1 42 11 -38 c15 -49 27 -51 43 -7
l12 35 1 -37 c2 -63 21 -42 21 22 0 33 -4 60 -9 60 -5 0 -17 -21 -27 -47 l-18
-47 -9 35 c-20 78 -47 78 -47 -1z"/>
<path d="M388 2863 c20 -4 22 -10 22 -59 0 -30 5 -54 10 -54 6 0 10 24 10 54
0 49 2 55 23 59 12 2 -3 4 -33 4 -30 0 -45 -2 -32 -4z"/>
<path d="M633 2810 c0 -36 2 -55 4 -42 5 27 20 29 28 3 8 -27 98 -25 103 1 2
12 -6 21 -22 28 -36 13 -34 34 2 25 20 -5 24 -4 16 5 -16 16 -59 9 -59 -10 0
-8 12 -21 28 -28 15 -7 25 -17 22 -22 -10 -16 -64 -5 -79 16 -13 16 -12 21 1
37 9 9 11 17 6 17 -6 0 -17 -7 -24 -17 -13 -15 -15 -13 -20 18 -5 24 -6 16 -6
-31z"/>
<path d="M849 2853 c-20 -23 -18 -98 2 -119 16 -15 16 -13 6 24 -8 29 -8 51 0
76 12 40 11 43 -8 19z"/>
<path d="M890 2855 c-14 -17 0 -21 17 -4 13 13 33 4 33 -15 0 -7 -13 -25 -30
-41 -16 -16 -30 -32 -30 -37 0 -4 19 -7 43 -7 41 2 41 2 8 8 l-33 6 22 20 c12
11 26 28 32 38 19 37 -35 65 -62 32z"/>
<path d="M980 2854 c8 -8 13 -35 13 -59 0 -24 -5 -51 -13 -59 -8 -10 -9 -16
-2 -16 17 0 32 35 32 75 0 40 -15 75 -32 75 -7 0 -6 -6 2 -16z"/>
<path d="M6130 2801 c0 -44 5 -72 13 -79 7 -6 36 -10 65 -10 l52 1 0 79 c0 63
-3 78 -15 78 -11 0 -15 -13 -15 -54 0 -36 -5 -60 -16 -70 -18 -18 -17 -18 -38
-10 -12 5 -16 21 -16 70 0 50 -3 64 -15 64 -12 0 -15 -14 -15 -69z"/>
<path d="M6300 2790 c0 -64 3 -80 15 -80 12 0 15 13 15 58 0 74 21 100 54 66
11 -10 16 -34 16 -70 0 -41 4 -54 15 -54 19 0 21 93 2 130 -14 28 -59 39 -83
19 -10 -8 -14 -8 -14 0 0 6 -4 11 -10 11 -6 0 -10 -33 -10 -80z"/>
<path d="M6641 2844 c-42 -53 -11 -134 50 -134 17 0 39 5 50 10 23 13 26 40 4
40 -8 0 -15 -4 -15 -9 0 -20 -41 -23 -61 -5 -31 28 -23 34 42 34 l61 0 -7 28
c-16 65 -85 85 -124 36z m77 -6 c24 -24 13 -38 -28 -38 -44 0 -48 5 -23 32 19
21 34 23 51 6z"/>
<path d="M6800 2788 c0 -63 3 -78 15 -78 12 0 15 13 15 60 0 50 3 61 21 70 34
19 49 -4 49 -71 0 -46 3 -59 15 -59 21 0 21 107 -1 138 -12 18 -23 22 -65 20
l-49 -2 0 -78z"/>
<path d="M7241 2844 c-43 -55 -11 -134 55 -134 40 0 93 42 61 48 -9 2 -24 -4
-33 -12 -19 -20 -24 -20 -52 0 -36 25 -26 34 38 34 52 0 60 3 60 19 0 34 -38
71 -75 71 -24 0 -39 -7 -54 -26z m87 -21 c14 -23 14 -23 -27 -23 -42 0 -53 14
-29 38 17 17 38 11 56 -15z"/>
<path d="M7382 2858 c3 -7 13 -43 23 -80 23 -89 45 -92 66 -10 l16 57 13 -57
c19 -84 41 -79 69 15 25 84 25 87 8 87 -7 0 -20 -25 -28 -57 l-16 -58 -12 45
c-18 68 -19 70 -35 70 -9 0 -19 -21 -29 -57 -15 -60 -18 -59 -37 15 -7 27 -16
42 -26 42 -9 0 -14 -6 -12 -12z"/>
<path d="M7630 2850 c-29 -29 -28 -103 2 -124 30 -21 71 -20 99 3 32 26 16 39
-21 18 -33 -20 -70 -10 -70 18 0 11 13 15 55 15 51 0 55 2 55 23 0 57 -79 88
-120 47z m74 -16 c25 -25 19 -34 -24 -34 -43 0 -55 20 -22 39 23 14 28 14 46
-5z"/>
<path d="M7960 2812 c0 -82 17 -103 81 -100 l49 2 0 78 c0 63 -3 78 -15 78
-12 0 -15 -13 -15 -60 0 -50 -3 -61 -21 -70 -34 -19 -49 4 -49 71 0 46 -3 59
-15 59 -12 0 -15 -13 -15 -58z"/>
<path d="M8130 2788 c0 -63 3 -78 15 -78 12 0 15 13 15 60 0 50 3 61 21 70 34
19 49 -4 49 -71 0 -46 3 -59 15 -59 12 0 15 14 15 64 0 81 -12 95 -80 94 l-50
-1 0 -79z"/>
<path d="M8309 2849 c-27 -27 -26 -92 2 -120 16 -16 29 -20 55 -16 37 6 43 -3
18 -27 -19 -20 -38 -20 -54 -1 -13 16 -40 20 -40 7 0 -18 38 -42 66 -42 58 0
69 18 72 122 l4 95 -52 1 c-38 1 -56 -4 -71 -19z m73 -16 c22 -20 24 -66 2
-87 -18 -19 -20 -19 -45 -6 -26 14 -27 84 -1 99 23 14 23 14 44 -6z"/>
<path d="M8560 2848 c-27 -29 -27 -91 0 -118 26 -26 81 -26 103 -2 10 10 17
22 17 25 0 13 -27 7 -40 -8 -16 -19 -35 -19 -54 1 -27 27 -18 34 45 34 52 0
60 2 55 16 -3 9 -6 20 -6 25 0 5 -9 18 -20 29 -27 27 -74 26 -100 -2z m71 -8
c34 -19 23 -40 -21 -40 -43 0 -49 9 -24 34 18 19 20 19 45 6z"/>
<path d="M8710 2790 c0 -64 3 -80 15 -80 12 0 15 16 15 80 0 64 -3 80 -15 80
-12 0 -15 -16 -15 -80z"/>
<path d="M8780 2788 c0 -63 3 -78 15 -78 12 0 15 13 15 60 0 50 3 61 21 70 34
19 49 -4 49 -71 0 -46 3 -59 15 -59 12 0 15 14 15 64 0 81 -12 95 -80 94 l-50
-1 0 -79z"/>
<path d="M8956 2854 c-9 -8 -16 -21 -16 -28 0 -17 33 -46 51 -46 9 0 23 -6 33
-13 16 -12 16 -14 2 -26 -16 -13 -56 -6 -56 10 0 5 -7 9 -15 9 -22 0 -19 -27
4 -40 31 -16 76 -12 95 9 27 30 16 54 -34 72 -47 18 -60 33 -35 42 18 7 45 -1
45 -14 0 -5 7 -9 15 -9 22 0 19 27 -4 40 -29 15 -67 12 -85 -6z"/>
<path d="M9110 2848 c-27 -29 -27 -91 0 -118 26 -26 81 -26 103 -2 10 10 17
22 17 25 0 13 -27 7 -40 -8 -16 -19 -35 -19 -54 1 -27 27 -18 34 45 34 52 0
60 2 55 16 -3 9 -6 20 -6 25 0 5 -9 18 -20 29 -27 27 -74 26 -100 -2z m71 -8
c34 -19 23 -40 -21 -40 -43 0 -49 9 -24 34 18 19 20 19 45 6z"/>
<path d="M9441 2844 c-43 -55 -11 -134 55 -134 40 0 93 42 61 48 -9 2 -24 -4
-33 -12 -19 -20 -24 -20 -52 0 -36 25 -26 34 38 34 52 0 60 3 60 19 0 34 -38
71 -75 71 -24 0 -39 -7 -54 -26z m87 -21 c14 -23 14 -23 -27 -23 -42 0 -53 14
-29 38 17 17 38 11 56 -15z"/>
<path d="M9600 2789 c0 -64 3 -79 15 -79 12 0 15 13 15 60 0 50 3 61 21 70 34
19 49 -4 49 -71 0 -46 3 -59 15 -59 12 0 15 14 15 64 0 81 -13 96 -81 95 l-49
-2 0 -78z"/>
<path d="M2483 2843 c9 -2 25 -2 35 0 9 3 1 5 -18 5 -19 0 -27 -2 -17 -5z"/>
<path d="M2838 2843 c12 -2 32 -2 45 0 12 2 2 4 -23 4 -25 0 -35 -2 -22 -4z"/>
<path d="M250 2831 c0 -5 7 -25 15 -44 13 -32 13 -37 -1 -51 -14 -15 -14 -16
1 -16 16 0 37 39 50 93 10 39 -10 34 -22 -5 l-10 -33 -7 33 c-7 28 -26 46 -26
23z"/>
<path d="M467 2834 c-4 -4 -7 -12 -7 -18 0 -6 5 -5 12 2 14 14 38 16 38 3 0
-5 -10 -13 -22 -17 -50 -15 -43 -54 9 -54 34 0 34 0 31 43 -3 37 -6 42 -28 45
-14 2 -29 0 -33 -4z m35 -66 c-11 -11 -32 -3 -32 12 0 12 34 18 39 7 2 -5 -1
-13 -7 -19z"/>
<path d="M545 2830 c-9 -14 3 -30 32 -41 32 -12 19 -33 -16 -24 -19 5 -23 4
-15 -5 17 -17 58 -8 62 12 2 12 -6 21 -22 28 -35 13 -34 34 0 26 17 -5 23 -3
19 4 -8 13 -52 13 -60 0z"/>
<path d="M4990 2832 c0 -6 6 -12 13 -15 8 -3 6 -11 -9 -27 -22 -23 -44 -20
-44 6 0 8 -4 14 -10 14 -14 0 -13 -33 2 -48 19 -19 42 -14 68 13 19 20 22 30
14 42 -12 20 -34 29 -34 15z"/>
<path d="M2610 2815 c0 -8 2 -15 4 -15 2 0 6 7 10 15 3 8 1 15 -4 15 -6 0 -10
-7 -10 -15z"/>
<path d="M2657 2823 c-3 -5 5 -8 18 -8 13 0 21 3 18 8 -2 4 -10 7 -18 7 -8 0
-16 -3 -18 -7z"/>
<path d="M2851 2814 c0 -11 3 -14 6 -6 3 7 2 16 -1 19 -3 4 -6 -2 -5 -13z"/>
<path d="M2907 2823 c-3 -5 5 -8 18 -8 13 0 21 3 18 8 -2 4 -10 7 -18 7 -8 0
-16 -3 -18 -7z"/>
<path d="M2987 2823 c-12 -12 -7 -22 16 -33 20 -10 20 -10 5 3 -24 19 -23 31
2 24 11 -3 18 -1 14 4 -6 11 -28 12 -37 2z"/>
<path d="M3055 2808 c2 -10 -1 -21 -6 -24 -5 -3 -9 -13 -8 -22 0 -12 3 -11 9
6 12 28 27 28 35 1 4 -11 9 -18 12 -16 3 3 0 14 -5 24 -8 13 -6 23 6 37 17 19
16 19 -10 2 -20 -13 -27 -14 -31 -4 -2 7 -3 5 -2 -4z"/>
<path d="M3137 2823 c-12 -12 -7 -22 16 -33 20 -10 20 -10 5 3 -24 19 -23 31
2 24 11 -3 18 -1 14 4 -6 11 -28 12 -37 2z"/>
<path d="M2460 2796 c0 -13 3 -17 8 -10 4 7 18 14 32 16 23 3 22 4 -7 9 -28 5
-33 3 -33 -15z"/>
<path d="M5418 2798 l22 -22 22 22 22 22 -44 0 -44 0 22 -22z"/>
<path d="M2640 2783 c0 -12 3 -14 8 -7 4 7 18 14 32 17 21 4 20 4 -7 6 -25 1
-33 -3 -33 -16z"/>
<path d="M2901 2791 c-22 -14 -5 -41 24 -39 19 2 25 8 25 25 0 24 -23 31 -49
14z m39 -11 c0 -12 -28 -25 -36 -17 -9 9 6 27 22 27 8 0 14 -5 14 -10z"/>
<path d="M6950 2785 c0 -11 12 -15 45 -15 33 0 45 4 45 15 0 11 -12 15 -45 15
-33 0 -45 -4 -45 -15z"/>
<path d="M2600 2771 c0 -6 4 -13 10 -16 6 -3 7 1 4 9 -7 18 -14 21 -14 7z"/>
<path d="M2841 2764 c0 -11 3 -14 6 -6 3 7 2 16 -1 19 -3 4 -6 -2 -5 -13z"/>
<path d="M2970 2772 c0 -18 29 -27 43 -13 9 9 8 11 -7 5 -11 -4 -21 -2 -27 7
-6 10 -9 11 -9 1z"/>
<path d="M3120 2772 c0 -18 29 -27 43 -13 9 9 8 11 -7 5 -11 -4 -21 -2 -27 7
-6 10 -9 11 -9 1z"/>
<path d="M2658 2753 c7 -3 16 -2 19 1 4 3 -2 6 -13 5 -11 0 -14 -3 -6 -6z"/>
<path d="M5920 2454 l0 -65 32 3 c60 6 72 89 14 96 -14 2 -26 10 -26 18 0 8
-4 14 -10 14 -6 0 -10 -29 -10 -66z m64 1 c8 -23 -4 -45 -25 -45 -14 0 -19 7
-19 30 0 23 5 30 19 30 10 0 21 -7 25 -15z"/>
<path d="M6220 2455 c0 -37 4 -65 10 -65 6 0 10 9 10 20 0 11 3 20 8 20 4 0
13 -9 20 -20 7 -11 17 -20 23 -20 6 0 1 15 -10 34 -19 30 -19 35 -6 46 9 7 13
15 10 18 -3 3 -14 -3 -25 -13 -20 -18 -20 -17 -20 13 0 18 -4 32 -10 32 -6 0
-10 -28 -10 -65z"/>
<path d="M6310 2455 c0 -37 4 -65 10 -65 6 0 10 9 10 20 0 11 3 20 8 20 4 0
13 -9 20 -20 7 -11 17 -20 23 -20 6 0 1 15 -10 34 -19 30 -19 35 -6 46 9 7 13
15 10 18 -3 3 -14 -3 -25 -13 -20 -18 -20 -17 -20 13 0 18 -4 32 -10 32 -6 0
-10 -28 -10 -65z"/>
<path d="M6660 2505 c0 -8 -8 -15 -18 -15 -25 0 -42 -20 -42 -50 0 -34 17 -50
52 -50 28 0 28 0 28 65 0 37 -4 65 -10 65 -5 0 -10 -7 -10 -15z m0 -65 c0 -23
-4 -30 -20 -30 -16 0 -20 7 -20 30 0 23 4 30 20 30 16 0 20 -7 20 -30z"/>
<path d="M7060 2455 c0 -37 4 -65 10 -65 6 0 10 28 10 65 0 37 -4 65 -10 65
-6 0 -10 -28 -10 -65z"/>
<path d="M7300 2455 l0 -65 35 0 c28 0 38 5 47 25 16 36 -3 75 -37 75 -16 0
-25 6 -25 15 0 8 -4 15 -10 15 -6 0 -10 -28 -10 -65z m65 -15 c0 -29 -32 -41
-41 -16 -9 24 4 48 23 44 12 -2 18 -12 18 -28z"/>
<path d="M7490 2455 c0 -37 4 -65 10 -65 6 0 10 9 10 20 0 11 3 20 8 20 4 0
13 -9 20 -20 20 -32 34 -23 17 11 -15 29 -15 32 1 50 22 24 -1 27 -28 2 -17
-15 -18 -14 -18 15 0 18 -4 32 -10 32 -6 0 -10 -28 -10 -65z"/>
<path d="M7800 2505 c0 -8 -8 -15 -18 -15 -25 0 -42 -20 -42 -50 0 -34 17 -50
52 -50 28 0 28 0 28 65 0 37 -4 65 -10 65 -5 0 -10 -7 -10 -15z m0 -65 c0 -23
-4 -30 -20 -30 -16 0 -20 7 -20 30 0 23 4 30 20 30 16 0 20 -7 20 -30z"/>
<path d="M7840 2510 c0 -5 5 -10 10 -10 6 0 10 5 10 10 0 6 -4 10 -10 10 -5 0
-10 -4 -10 -10z"/>
<path d="M7891 2508 c0 -10 -6 -18 -13 -18 -9 0 -9 -3 0 -12 7 -7 12 -29 12
-50 0 -27 4 -38 15 -38 8 0 15 5 15 10 0 6 -4 10 -10 10 -15 0 -12 58 3 63 7
2 16 -11 22 -36 13 -51 32 -58 43 -15 l9 33 7 -32 c12 -54 32 -37 52 42 9 37
-12 30 -23 -7 l-10 -33 -7 33 c-9 36 -29 38 -34 4 -4 -29 -20 -28 -24 1 -2 14
-11 23 -25 25 -12 2 -24 11 -26 20 -4 15 -5 15 -6 0z"/>
<path d="M8220 2505 c0 -10 -10 -15 -30 -15 -29 0 -30 -1 -30 -50 0 -27 5 -50
10 -50 6 0 10 16 10 35 0 24 6 37 20 45 19 10 20 8 20 -33 0 -43 0 -44 35 -45
29 -1 38 3 47 23 16 36 -3 75 -37 75 -16 0 -25 6 -25 15 0 8 -4 15 -10 15 -5
0 -10 -7 -10 -15z m65 -65 c0 -29 -32 -41 -41 -16 -9 24 4 48 23 44 12 -2 18
-12 18 -28z"/>
<path d="M8620 2510 c0 -5 9 -10 20 -10 18 0 20 -7 20 -55 0 -30 5 -55 10 -55
6 0 10 25 10 55 0 48 2 55 20 55 11 0 20 5 20 10 0 6 -22 10 -50 10 -27 0 -50
-4 -50 -10z"/>
<path d="M8763 2503 c-26 -17 -31 -38 -8 -29 12 4 15 -4 15 -39 0 -25 5 -45
10 -45 6 0 10 28 10 65 0 36 -1 65 -2 64 -2 0 -13 -7 -25 -16z"/>
<path d="M6027 2484 c-15 -16 -6 -23 23 -17 40 8 40 -13 -1 -22 -24 -5 -29
-11 -27 -28 2 -18 10 -22 41 -24 l38 -1 -3 46 c-3 44 -5 47 -33 50 -17 2 -34
0 -38 -4z m53 -64 c0 -5 -9 -10 -20 -10 -11 0 -20 5 -20 10 0 6 9 10 20 10 11
0 20 -4 20 -10z"/>
<path d="M6120 2441 c0 -28 5 -51 10 -51 6 0 10 18 10 40 0 33 3 40 20 40 17
0 20 -7 20 -40 0 -22 5 -40 11 -40 6 0 9 19 7 48 -3 47 -3 47 -40 50 l-38 3 0
-50z"/>
<path d="M6402 2443 c3 -48 3 -48 41 -51 l37 -3 0 50 c0 59 -17 69 -22 14 -2
-27 -8 -39 -20 -41 -15 -3 -18 4 -18 37 0 23 -5 41 -11 41 -6 0 -9 -19 -7 -47z"/>
<path d="M6500 2441 c0 -28 5 -51 10 -51 6 0 10 18 10 40 0 33 3 40 20 40 17
0 20 -7 20 -40 0 -22 5 -40 11 -40 6 0 9 19 7 48 -3 47 -3 47 -40 50 l-38 3 0
-50z"/>
<path d="M6712 2478 c-17 -17 -15 -63 2 -78 18 -14 58 -10 64 7 2 9 -5 11 -27
7 -24 -5 -31 -3 -31 10 0 12 9 16 35 16 38 0 40 2 25 31 -12 21 -50 25 -68 7z
m41 -15 c-7 -2 -19 -2 -25 0 -7 3 -2 5 12 5 14 0 19 -2 13 -5z"/>
<path d="M6800 2439 c0 -57 17 -66 22 -12 2 27 8 39 21 41 14 3 17 -4 17 -37
0 -23 5 -41 11 -41 6 0 9 19 7 48 -3 47 -3 47 -40 49 l-38 1 0 -49z"/>
<path d="M6900 2456 c0 -54 8 -66 46 -66 l34 0 0 50 c0 28 -4 50 -10 50 -5 0
-10 -18 -10 -40 0 -33 -3 -40 -20 -40 -17 0 -20 7 -20 40 0 22 -4 40 -10 40
-5 0 -10 -15 -10 -34z"/>
<path d="M7000 2440 c0 -27 5 -50 10 -50 6 0 10 16 10 35 0 22 6 38 15 41 24
9 17 24 -10 24 -23 0 -25 -3 -25 -50z"/>
<path d="M7107 2484 c-15 -16 -6 -23 23 -17 39 7 39 -9 -1 -24 -44 -17 -36
-47 14 -51 l38 -3 -3 48 c-3 45 -5 48 -33 51 -17 2 -34 0 -38 -4z m53 -64 c0
-5 -9 -10 -20 -10 -11 0 -20 5 -20 10 0 6 9 10 20 10 11 0 20 -4 20 -10z"/>
<path d="M7200 2456 c0 -54 8 -66 46 -66 l34 0 0 50 c0 28 -4 50 -10 50 -5 0
-10 -18 -10 -40 0 -33 -3 -40 -20 -40 -17 0 -20 7 -20 40 0 22 -4 40 -10 40
-5 0 -10 -15 -10 -34z"/>
<path d="M7403 2474 c-4 -12 0 -21 11 -28 10 -6 25 -17 34 -24 15 -12 13 -13
-16 -8 -24 4 -32 2 -30 -7 7 -18 53 -20 68 -3 10 13 10 19 0 31 -7 8 -18 15
-26 15 -7 0 -16 5 -20 11 -5 9 1 10 20 5 21 -5 27 -3 24 6 -7 21 -57 22 -65 2z"/>
<path d="M7580 2440 c0 -27 5 -50 10 -50 6 0 10 16 10 35 0 22 6 38 15 41 24
9 17 24 -10 24 -23 0 -25 -3 -25 -50z"/>
<path d="M7652 2478 c-17 -17 -15 -63 2 -78 18 -14 58 -10 64 7 2 9 -5 11 -27
7 -24 -5 -31 -3 -31 10 0 12 9 16 35 16 38 0 40 2 25 31 -12 21 -50 25 -68 7z
m41 -15 c-7 -2 -19 -2 -25 0 -7 3 -2 5 12 5 14 0 19 -2 13 -5z"/>
<path d="M7840 2440 c0 -27 5 -50 10 -50 6 0 10 23 10 50 0 28 -4 50 -10 50
-5 0 -10 -22 -10 -50z"/>
<path d="M8072 2478 c-17 -17 -15 -63 2 -78 18 -14 58 -10 64 7 2 9 -5 11 -27
7 -24 -5 -31 -3 -31 10 0 12 9 16 35 16 38 0 40 2 25 31 -12 21 -50 25 -68 7z
m41 -15 c-7 -2 -19 -2 -25 0 -7 3 -2 5 12 5 14 0 19 -2 13 -5z"/>
<path d="M8320 2451 c0 -44 16 -62 54 -59 24 2 26 6 26 50 0 26 -4 48 -10 48
-5 0 -10 -18 -10 -41 0 -33 -3 -40 -17 -37 -13 2 -19 14 -21 41 -4 49 -22 48
-22 -2z"/>
<path d="M8420 2439 c0 -57 17 -66 22 -12 2 27 8 39 21 41 14 3 17 -4 17 -37
0 -23 5 -41 11 -41 6 0 9 19 7 48 -3 47 -3 47 -40 49 l-38 1 0 -49z"/>
<path d="M8532 2478 c-7 -7 -12 -24 -12 -38 0 -30 17 -50 42 -50 10 0 18 -5
18 -11 0 -7 -11 -9 -31 -5 -22 4 -29 2 -26 -7 2 -6 19 -12 38 -12 l34 0 3 68
3 67 -29 0 c-15 0 -33 -5 -40 -12z m52 -23 c8 -23 -4 -45 -25 -45 -14 0 -19 7
-19 30 0 23 5 30 19 30 10 0 21 -7 25 -15z"/>
<path d="M2180 1995 c0 -424 2 -485 15 -485 13 0 15 61 15 485 0 424 -2 485
-15 485 -13 0 -15 -61 -15 -485z"/>
<path d="M120 2410 c0 -67 20 -84 21 -17 l1 42 11 -38 c15 -49 27 -51 43 -7
l12 35 1 -37 c2 -63 21 -42 21 22 0 33 -4 60 -9 60 -5 0 -17 -21 -27 -47 l-18
-47 -9 35 c-20 78 -47 78 -47 -1z"/>
<path d="M396 2454 c-20 -20 -20 -68 0 -88 29 -30 94 -13 94 24 0 16 -6 20
-32 19 -24 -1 -27 -3 -10 -6 26 -5 29 -28 6 -37 -34 -13 -54 3 -54 44 0 47 29
63 61 34 16 -15 19 -15 19 -2 0 30 -59 38 -84 12z"/>
<path d="M878 2463 c20 -4 22 -10 22 -59 0 -30 5 -54 10 -54 6 0 10 24 10 54
0 44 4 55 18 59 9 3 -5 5 -33 4 -27 0 -40 -2 -27 -4z"/>
<path d="M1123 2410 c0 -36 2 -55 4 -42 5 27 20 29 28 3 8 -27 98 -25 103 1 2
12 -6 21 -22 28 -36 13 -34 34 2 25 20 -5 24 -4 16 5 -16 16 -59 9 -59 -10 0
-8 12 -21 28 -28 15 -7 25 -17 22 -22 -10 -16 -64 -5 -79 16 -13 16 -12 21 1
37 9 9 11 17 6 17 -6 0 -17 -7 -24 -17 -13 -15 -15 -13 -20 18 -5 24 -6 16 -6
-31z"/>
<path d="M250 2431 c0 -5 7 -25 15 -44 13 -32 13 -37 -1 -51 -14 -15 -14 -16
1 -16 16 0 37 39 50 93 10 39 -10 34 -22 -5 l-10 -33 -7 33 c-7 28 -26 46 -26
23z"/>
<path d="M500 2395 c0 -25 5 -45 10 -45 6 0 10 16 10 35 0 22 6 38 18 44 14 9
13 10 -10 11 -26 0 -28 -3 -28 -45z"/>
<path d="M560 2426 c-28 -35 11 -93 48 -70 35 22 22 84 -18 84 -10 0 -23 -7
-30 -14z m45 -32 c0 -19 -5 -29 -15 -29 -16 0 -25 28 -16 51 10 25 31 10 31
-22z"/>
<path d="M654 2400 c1 -43 2 -45 34 -47 32 -1 32 -1 32 43 0 54 -18 59 -22 7
-4 -53 -31 -51 -39 2 l-7 40 2 -45z"/>
<path d="M730 2380 c0 -33 4 -60 10 -60 6 0 10 6 10 14 0 8 10 16 22 18 29 4
47 50 28 72 -7 9 -25 16 -41 16 -29 0 -29 -1 -29 -60z m55 14 c0 -19 -5 -29
-15 -29 -16 0 -25 28 -16 51 10 25 31 10 31 -22z"/>
<path d="M957 2434 c-4 -4 -7 -12 -7 -18 0 -6 5 -5 12 2 14 14 38 16 38 3 0
-5 -14 -14 -31 -20 -44 -15 -36 -45 14 -49 l38 -3 -3 43 c-3 38 -6 43 -28 46
-14 2 -29 0 -33 -4z m40 -59 c-4 -8 -13 -15 -22 -15 -21 0 -19 28 3 32 22 5
26 2 19 -17z"/>
<path d="M1035 2430 c-9 -14 3 -30 32 -41 32 -12 19 -33 -16 -24 -19 5 -23 4
-15 -5 17 -17 58 -8 62 12 2 12 -6 21 -22 28 -35 13 -34 34 0 26 17 -5 23 -3
19 4 -8 13 -52 13 -60 0z"/>
<path d="M2320 2265 c0 -64 16 -91 22 -38 4 38 23 39 44 4 10 -17 24 -31 31
-31 9 0 4 14 -13 40 l-27 41 23 24 c31 33 18 32 -26 -1 l-34 -26 0 26 c0 14
-4 26 -10 26 -6 0 -10 -28 -10 -65z"/>
<path d="M2700 2312 c0 -13 -8 -18 -27 -17 -24 0 -28 -4 -31 -33 -4 -42 12
-62 49 -62 29 0 29 0 29 65 0 37 -4 65 -10 65 -5 0 -10 -8 -10 -18z m-2 -65
c3 -21 -1 -27 -16 -27 -22 0 -34 22 -25 45 9 25 38 13 41 -18z"/>
<path d="M3000 2265 l0 -65 35 0 c28 0 38 5 47 25 16 36 -3 75 -37 75 -16 0
-25 6 -25 15 0 8 -4 15 -10 15 -6 0 -10 -28 -10 -65z m65 -15 c0 -16 -6 -26
-18 -28 -19 -4 -32 20 -23 44 9 25 41 13 41 -16z"/>
<path d="M3501 2318 c-1 -14 -10 -18 -36 -18 l-35 0 0 -50 c0 -27 5 -50 10
-50 6 0 10 16 10 35 0 23 6 37 19 44 25 14 31 5 31 -41 0 -27 4 -38 15 -38 8
0 15 5 15 10 0 6 -4 10 -10 10 -15 0 -12 57 3 63 8 4 9 8 1 14 -6 4 -14 15
-17 23 -4 12 -6 11 -6 -2z"/>
<path d="M3990 2320 c0 -5 5 -10 10 -10 6 0 10 5 10 10 0 6 -4 10 -10 10 -5 0
-10 -4 -10 -10z"/>
<path d="M4320 2265 c0 -69 17 -90 22 -28 2 27 8 39 21 41 14 3 17 -4 17 -37
0 -23 5 -41 11 -41 6 0 9 19 7 48 -3 44 -5 47 -30 47 -20 -1 -28 4 -28 17 0
10 -4 18 -10 18 -6 0 -10 -28 -10 -65z"/>
<path d="M2442 2253 c3 -48 3 -48 41 -51 l37 -3 0 50 c0 59 -17 69 -22 14 -2
-27 -8 -39 -20 -41 -15 -3 -18 4 -18 37 0 23 -5 41 -11 41 -6 0 -9 -19 -7 -47z"/>
<path d="M2540 2251 c0 -28 5 -51 10 -51 6 0 10 18 10 40 0 33 3 40 20 40 17
0 20 -7 20 -40 0 -22 5 -40 11 -40 6 0 9 19 7 48 -3 47 -3 47 -40 50 l-38 3 0
-50z"/>
<path d="M2752 2288 c-17 -17 -15 -63 2 -78 18 -14 58 -10 64 7 2 9 -5 11 -27
7 -24 -5 -31 -3 -31 10 0 12 9 16 35 16 29 0 33 3 28 18 -12 32 -48 43 -71 20z
m41 -15 c-7 -2 -19 -2 -25 0 -7 3 -2 5 12 5 14 0 19 -2 13 -5z"/>
<path d="M2840 2251 c0 -28 5 -51 10 -51 6 0 10 18 10 40 0 33 3 40 20 40 17
0 20 -7 20 -40 0 -22 5 -40 11 -40 6 0 9 19 7 48 -3 47 -3 47 -40 50 l-38 3 0
-50z"/>
<path d="M3112 2288 c-17 -17 -15 -63 2 -78 18 -14 58 -10 64 7 2 9 -5 11 -27
7 -24 -5 -31 -3 -31 10 0 12 9 16 35 16 38 0 40 2 25 31 -12 21 -50 25 -68 7z
m41 -15 c-7 -2 -19 -2 -25 0 -7 3 -2 5 12 5 14 0 19 -2 13 -5z"/>
<path d="M3204 2254 c15 -58 32 -67 44 -22 l9 33 7 -32 c9 -40 23 -42 36 -8
18 47 22 75 12 75 -6 0 -14 -15 -18 -32 l-7 -33 -10 33 c-11 36 -30 38 -35 4
-2 -12 -7 -22 -12 -22 -5 0 -10 10 -12 22 -2 12 -8 23 -15 25 -8 3 -8 -8 1
-43z"/>
<path d="M3342 2288 c-17 -17 -15 -63 2 -78 18 -14 58 -10 64 7 2 9 -5 11 -27
7 -24 -5 -31 -3 -31 10 0 12 9 16 35 16 38 0 40 2 25 31 -12 21 -50 25 -68 7z
m41 -15 c-7 -2 -19 -2 -25 0 -7 3 -2 5 12 5 14 0 19 -2 13 -5z"/>
<path d="M3540 2266 c0 -54 8 -66 46 -66 l34 0 0 50 c0 28 -4 50 -10 50 -5 0
-10 -18 -10 -40 0 -33 -3 -40 -20 -40 -17 0 -20 7 -20 40 0 22 -4 40 -10 40
-5 0 -10 -15 -10 -34z"/>
<path d="M3640 2249 c0 -57 17 -66 22 -12 2 27 8 39 21 41 14 3 17 -4 17 -37
0 -23 5 -41 11 -41 6 0 9 19 7 48 -3 47 -3 47 -40 49 l-38 1 0 -49z"/>
<path d="M3752 2288 c-7 -7 -12 -24 -12 -38 0 -30 17 -50 42 -50 10 0 18 -5
18 -11 0 -7 -11 -9 -31 -5 -22 4 -29 2 -27 -7 6 -17 46 -21 64 -7 9 8 14 32
14 71 0 58 -1 59 -28 59 -15 0 -33 -5 -40 -12z m48 -38 c0 -23 -4 -30 -20 -30
-16 0 -20 7 -20 30 0 23 4 30 20 30 16 0 20 -7 20 -30z"/>
<path d="M3902 2288 c-17 -17 -15 -63 2 -78 18 -14 58 -10 64 7 2 9 -5 11 -27
7 -24 -5 -31 -3 -31 10 0 12 9 16 35 16 38 0 40 2 25 31 -12 21 -50 25 -68 7z
m41 -15 c-7 -2 -19 -2 -25 0 -7 3 -2 5 12 5 14 0 19 -2 13 -5z"/>
<path d="M3990 2250 c0 -27 5 -50 10 -50 6 0 10 23 10 50 0 28 -4 50 -10 50
-5 0 -10 -22 -10 -50z"/>
<path d="M4030 2249 c0 -57 17 -66 22 -12 2 27 8 39 21 41 14 3 17 -4 17 -37
0 -23 5 -41 11 -41 6 0 9 19 7 48 -3 47 -3 47 -40 49 l-38 1 0 -49z"/>
<path d="M4133 2284 c-4 -12 0 -21 11 -28 10 -6 25 -17 34 -24 15 -12 13 -13
-16 -8 -24 4 -32 2 -30 -7 7 -18 53 -20 68 -3 10 13 10 19 0 31 -7 8 -18 15
-26 15 -7 0 -16 5 -20 11 -5 9 1 10 20 5 21 -5 27 -3 24 6 -7 21 -57 22 -65 2z"/>
<path d="M4232 2288 c-17 -17 -15 -63 2 -78 18 -14 58 -10 64 7 2 9 -5 11 -27
7 -24 -5 -31 -3 -31 10 0 12 9 16 35 16 38 0 40 2 25 31 -12 21 -50 25 -68 7z
m41 -15 c-7 -2 -19 -2 -25 0 -7 3 -2 5 12 5 14 0 19 -2 13 -5z"/>
<path d="M4432 2288 c-7 -7 -12 -24 -12 -38 0 -14 5 -31 12 -38 17 -17 53 -15
68 3 11 13 8 15 -20 13 -19 -2 -35 2 -37 10 -3 8 7 12 31 12 39 0 41 2 26 31
-12 21 -50 25 -68 7z m41 -15 c-7 -2 -19 -2 -25 0 -7 3 -2 5 12 5 14 0 19 -2
13 -5z"/>
<path d="M4520 2249 c0 -57 17 -66 22 -12 2 27 8 39 21 41 14 3 17 -4 17 -37
0 -23 5 -41 11 -41 6 0 9 19 7 48 -3 47 -3 47 -40 49 l-38 1 0 -49z"/>
<path d="M2940 2240 c0 -5 11 -10 25 -10 14 0 25 5 25 10 0 6 -11 10 -25 10
-14 0 -25 -4 -25 -10z"/>
<path d="M5915 2221 c-3 -2 -5 -10 -5 -18 0 -9 18 -13 66 -13 57 0 65 2 62 17
-2 14 -15 18 -61 18 -31 1 -60 -1 -62 -4z"/>
<path d="M7707 2212 c-9 -10 -17 -27 -17 -38 0 -11 -5 -25 -12 -32 -18 -18 -1
-27 53 -26 56 1 64 5 51 31 -5 10 -15 31 -23 47 -18 37 -31 41 -52 18z"/>
<path d="M10240 2210 c0 -13 7 -20 20 -20 13 0 20 7 20 20 0 13 -7 20 -20 20
-13 0 -20 -7 -20 -20z"/>
<path d="M10290 2210 c0 -13 7 -20 20 -20 13 0 20 7 20 20 0 13 -7 20 -20 20
-13 0 -20 -7 -20 -20z"/>
<path d="M10340 2210 c0 -11 7 -20 15 -20 8 0 15 9 15 20 0 11 -7 20 -15 20
-8 0 -15 -9 -15 -20z"/>
<path d="M11768 2204 c-9 -19 -9 -30 0 -45 10 -16 8 -21 -13 -35 -40 -26 -30
-34 45 -34 71 0 87 10 50 30 -17 9 -20 17 -14 46 11 60 -44 91 -68 38z"/>
<path d="M6107 2194 c-15 -16 -5 -36 23 -45 17 -6 30 -17 30 -25 0 -17 -31
-18 -49 -1 -11 10 -13 9 -9 -3 3 -9 17 -15 34 -15 22 0 30 5 32 21 2 17 -5 24
-29 33 -26 9 -30 14 -21 23 10 10 17 10 33 -1 18 -10 20 -10 17 1 -5 14 -50
23 -61 12z"/>
<path d="M6268 2188 c-6 -20 6 -81 17 -85 8 -2 11 35 6 90 -1 12 -19 8 -23 -5z"/>
<path d="M6354 2190 c-12 -12 -6 -90 7 -90 7 0 12 46 8 76 0 4 5 11 13 15 10
7 10 9 -2 9 -9 0 -20 -4 -26 -10z"/>
<path d="M6473 2150 c0 -30 2 -43 4 -27 2 15 2 39 0 55 -2 15 -4 2 -4 -28z"/>
<path d="M6503 2150 c0 -30 2 -43 4 -27 2 15 2 39 0 55 -2 15 -4 2 -4 -28z"/>
<path d="M7000 2191 c0 -5 -10 -11 -22 -13 -19 -2 -23 -9 -23 -38 0 -31 3 -35
28 -38 26 -3 27 -2 27 47 0 28 -2 51 -5 51 -3 0 -5 -4 -5 -9z m-5 -51 c0 -13
-6 -25 -12 -27 -16 -6 -27 21 -19 43 9 23 31 11 31 -16z"/>
<path d="M7108 2188 c-6 -20 6 -81 17 -85 8 -2 11 35 6 90 -1 12 -19 8 -23 -5z"/>
<path d="M7857 2194 c-15 -16 -5 -36 23 -45 17 -6 30 -17 30 -25 0 -17 -31
-18 -49 -1 -11 10 -13 9 -9 -3 3 -9 17 -15 34 -15 22 0 30 5 32 21 2 17 -5 24
-29 33 -26 9 -30 14 -21 23 10 10 17 10 33 -1 18 -10 20 -10 17 1 -5 14 -50
23 -61 12z"/>
<path d="M8018 2188 c-6 -20 6 -81 17 -85 8 -2 11 35 6 90 -1 12 -19 8 -23 -5z"/>
<path d="M8150 2191 c0 -5 -10 -11 -22 -13 -19 -2 -23 -9 -23 -38 0 -31 3 -35
28 -38 26 -3 27 -2 27 47 0 28 -2 51 -5 51 -3 0 -5 -4 -5 -9z m-5 -51 c0 -13
-6 -25 -12 -27 -16 -6 -27 21 -19 43 9 23 31 11 31 -16z"/>
<path d="M8430 2191 c0 -5 -10 -11 -22 -13 -19 -2 -23 -9 -23 -38 0 -31 3 -35
28 -38 26 -3 27 -2 27 47 0 28 -2 51 -5 51 -3 0 -5 -4 -5 -9z m-5 -51 c0 -27
-22 -39 -31 -16 -8 22 3 49 19 43 6 -2 12 -14 12 -27z"/>
<path d="M8538 2188 c-6 -20 6 -81 17 -85 8 -2 11 35 6 90 -1 12 -19 8 -23 -5z"/>
<path d="M10439 2154 c-11 -26 -17 -49 -14 -52 2 -3 7 3 11 12 3 9 16 16 29
16 13 0 26 -7 29 -16 4 -9 9 -15 11 -12 6 6 -32 98 -40 98 -3 0 -15 -21 -26
-46z m41 -6 c0 -5 -7 -8 -15 -8 -17 0 -18 2 -9 25 5 13 8 14 15 3 5 -7 9 -16
9 -20z"/>
<path d="M10570 2191 c0 -5 -10 -11 -22 -13 -19 -2 -23 -9 -23 -38 0 -31 3
-35 28 -38 26 -3 27 -2 27 47 0 28 -2 51 -5 51 -3 0 -5 -4 -5 -9z m-5 -51 c0
-27 -22 -39 -31 -16 -8 22 3 49 19 43 6 -2 12 -14 12 -27z"/>
<path d="M10650 2191 c0 -5 -10 -11 -22 -13 -19 -2 -23 -9 -23 -38 0 -31 3
-35 28 -38 26 -3 27 -2 27 47 0 28 -2 51 -5 51 -3 0 -5 -4 -5 -9z m-5 -51 c0
-13 -6 -25 -12 -27 -16 -6 -27 21 -19 43 9 23 31 11 31 -16z"/>
<path d="M11920 2150 c0 -48 1 -50 28 -50 35 0 52 16 52 50 0 34 -17 50 -52
50 -27 0 -28 -2 -28 -50z m65 0 c0 -31 -3 -35 -27 -38 -27 -3 -28 -1 -28 38 0
39 1 41 28 38 24 -3 27 -7 27 -38z"/>
<path d="M12330 2150 c0 -48 1 -50 28 -50 35 0 52 16 52 50 0 34 -17 50 -52
50 -27 0 -28 -2 -28 -50z m65 0 c0 -31 -3 -35 -27 -38 -27 -3 -28 -1 -28 38 0
39 1 41 28 38 24 -3 27 -7 27 -38z"/>
<path d="M5910 2135 l0 -45 65 0 65 0 0 45 0 45 -65 0 -65 0 0 -45z"/>
<path d="M6194 2166 c-16 -41 20 -86 47 -59 6 6 1 9 -12 9 -12 -1 -24 5 -26
12 -3 8 6 12 27 12 28 0 30 2 20 20 -12 23 -48 27 -56 6z m46 -6 c0 -5 -9 -10
-21 -10 -11 0 -17 5 -14 10 3 6 13 10 21 10 8 0 14 -4 14 -10z"/>
<path d="M6394 2166 c-11 -29 1 -61 23 -64 29 -4 48 30 33 58 -12 23 -48 27
-56 6z m41 -26 c0 -27 -22 -39 -31 -16 -8 22 3 49 19 43 6 -2 12 -14 12 -27z"/>
<path d="M6534 2166 c-11 -29 1 -61 23 -64 29 -4 48 30 33 58 -12 23 -48 27
-56 6z m41 -26 c0 -27 -22 -39 -31 -16 -8 22 3 49 19 43 6 -2 12 -14 12 -27z"/>
<path d="M6612 2140 c11 -41 27 -45 29 -7 1 21 2 20 15 -23 5 -13 6 -13 13 0
15 27 23 72 11 65 -5 -3 -10 -16 -11 -28 0 -14 -2 -17 -6 -7 -2 8 -7 22 -10
30 -3 10 -9 6 -18 -15 -12 -26 -13 -27 -14 -8 -1 12 -5 24 -10 27 -5 3 -4 -12
1 -34z"/>
<path d="M6753 2145 c2 -36 5 -40 30 -41 25 -1 27 1 26 40 l-2 41 -6 -35 c-4
-22 -12 -35 -21 -35 -9 0 -18 13 -22 35 l-6 35 1 -40z"/>
<path d="M6831 2120 c1 -30 3 -47 6 -37 2 9 13 17 23 17 11 0 24 9 30 20 16
29 -4 60 -35 58 -24 -2 -25 -6 -24 -58z m47 23 c-3 -30 -25 -42 -34 -19 -9 22
2 46 21 46 12 0 15 -8 13 -27z"/>
<path d="M7036 2172 c-3 -6 2 -8 13 -5 10 3 21 0 25 -5 3 -5 -5 -13 -19 -16
-16 -4 -25 -13 -25 -26 0 -16 6 -20 30 -18 29 2 31 5 28 38 -2 27 -8 36 -25
38 -11 2 -24 -1 -27 -6z m44 -42 c0 -13 -28 -25 -38 -16 -3 4 0 11 8 16 20 13
30 12 30 0z"/>
<path d="M7154 2166 c-16 -41 20 -86 47 -59 6 6 1 9 -12 9 -12 -1 -24 5 -26
12 -3 8 6 12 27 12 28 0 30 2 20 20 -12 23 -48 27 -56 6z m46 -6 c0 -5 -9 -10
-21 -10 -11 0 -17 5 -14 10 3 6 13 10 21 10 8 0 14 -4 14 -10z"/>
<path d="M7944 2166 c-16 -41 20 -86 47 -59 6 6 1 9 -12 9 -12 -1 -24 5 -26
12 -3 8 6 12 27 12 28 0 30 2 20 20 -12 23 -48 27 -56 6z m46 -6 c0 -5 -9 -10
-21 -10 -11 0 -17 5 -14 10 3 6 13 10 21 10 8 0 14 -4 14 -10z"/>
<path d="M8183 2145 c2 -36 5 -40 30 -41 25 -1 27 1 26 40 l-2 41 -6 -35 c-4
-22 -12 -35 -21 -35 -9 0 -18 13 -22 35 l-6 35 1 -40z"/>
<path d="M8264 2166 c-16 -41 20 -86 47 -59 6 6 1 9 -12 9 -12 -1 -24 5 -26
12 -3 8 6 12 27 12 28 0 30 2 20 20 -12 23 -48 27 -56 6z m46 -6 c0 -5 -9 -10
-21 -10 -11 0 -17 5 -14 10 3 6 13 10 21 10 8 0 14 -4 14 -10z"/>
<path d="M8466 2172 c-3 -6 2 -8 13 -5 10 3 21 0 25 -5 3 -5 -5 -13 -19 -16
-16 -4 -25 -13 -25 -26 0 -16 6 -20 30 -18 29 2 31 5 28 38 -2 27 -8 36 -25
38 -11 2 -24 -1 -27 -6z m44 -42 c0 -13 -28 -25 -38 -16 -3 4 0 11 8 16 20 13
30 12 30 0z"/>
<path d="M8584 2166 c-16 -41 20 -86 47 -59 6 6 1 9 -12 9 -12 -1 -24 5 -26
12 -3 8 6 12 27 12 28 0 30 2 20 20 -12 23 -48 27 -56 6z m46 -6 c0 -5 -9 -10
-21 -10 -11 0 -17 5 -14 10 3 6 13 10 21 10 8 0 14 -4 14 -10z"/>
<path d="M10240 2165 c0 -8 9 -15 20 -15 11 0 20 7 20 15 0 8 -9 15 -20 15
-11 0 -20 -7 -20 -15z"/>
<path d="M10290 2165 c0 -8 9 -15 20 -15 11 0 20 7 20 15 0 8 -9 15 -20 15
-11 0 -20 -7 -20 -15z"/>
<path d="M10340 2165 c0 -8 7 -15 15 -15 8 0 15 7 15 15 0 8 -7 15 -15 15 -8
0 -15 -7 -15 -15z"/>
<path d="M10724 2166 c-11 -29 1 -60 26 -67 21 -5 22 -7 8 -14 -9 -4 -23 -3
-30 1 -10 5 -10 4 -2 -5 7 -7 20 -11 30 -9 15 2 20 14 22 56 3 50 2 52 -23 52
-14 0 -28 -6 -31 -14z m41 -26 c0 -27 -22 -39 -31 -16 -8 22 3 49 19 43 6 -2
12 -14 12 -27z"/>
<path d="M10801 2138 l1 -43 8 34 c4 18 14 37 22 42 9 6 7 9 -9 9 -20 0 -23
-5 -22 -42z"/>
<path d="M10854 2166 c-11 -29 1 -61 23 -64 29 -4 48 30 33 58 -12 23 -48 27
-56 6z m41 -26 c0 -27 -22 -39 -31 -16 -8 22 3 49 19 43 6 -2 12 -14 12 -27z"/>
<path d="M10933 2145 c2 -36 5 -40 30 -41 25 -1 27 1 26 40 l-2 41 -6 -35 c-4
-22 -12 -35 -21 -35 -9 0 -18 13 -22 35 l-6 35 1 -40z"/>
<path d="M11011 2120 c1 -30 3 -47 6 -37 2 9 13 17 23 17 11 0 24 9 30 20 16
29 -4 60 -35 58 -24 -2 -25 -6 -24 -58z m47 23 c-3 -30 -25 -42 -34 -19 -9 22
2 46 21 46 12 0 15 -8 13 -27z"/>
<path d="M11097 2173 c-13 -13 -7 -32 13 -38 11 -3 20 -11 20 -17 0 -6 -9 -8
-20 -5 -11 3 -20 1 -20 -4 0 -15 36 -10 50 6 10 12 7 17 -14 26 -31 14 -35 34
-6 26 11 -3 18 -1 14 4 -6 11 -28 12 -37 2z"/>
<path d="M12024 2166 c-16 -41 20 -86 47 -59 6 6 1 9 -12 9 -12 -1 -24 5 -26
12 -3 8 6 12 27 12 28 0 30 2 20 20 -12 23 -48 27 -56 6z m46 -6 c0 -5 -9 -10
-21 -10 -11 0 -17 5 -14 10 3 6 13 10 21 10 8 0 14 -4 14 -10z"/>
<path d="M12101 2137 c2 -42 2 -42 8 -8 9 49 31 52 32 4 l2 -38 6 34 c9 49 29
51 34 4 l4 -38 1 41 2 41 -45 1 -45 1 1 -42z"/>
<path d="M12214 2166 c-11 -29 1 -61 23 -64 29 -4 48 30 33 58 -12 23 -48 27
-56 6z m41 -26 c0 -27 -22 -39 -31 -16 -8 22 3 49 19 43 6 -2 12 -14 12 -27z"/>
<path d="M12434 2166 c-16 -41 20 -86 47 -59 6 6 1 9 -12 9 -12 -1 -24 5 -26
12 -3 8 6 12 27 12 28 0 30 2 20 20 -12 23 -48 27 -56 6z m46 -6 c0 -5 -9 -10
-21 -10 -11 0 -17 5 -14 10 3 6 13 10 21 10 8 0 14 -4 14 -10z"/>
<path d="M12511 2137 c2 -42 2 -42 8 -8 9 49 31 52 32 4 l2 -38 6 34 c9 49 29
51 34 4 l4 -38 1 41 2 41 -45 1 -45 1 1 -42z"/>
<path d="M12624 2166 c-11 -29 1 -61 23 -64 29 -4 48 30 33 58 -12 23 -48 27
-56 6z m41 -26 c0 -13 -6 -25 -12 -27 -16 -6 -27 21 -19 43 9 23 31 11 31 -16z"/>
<path d="M12803 2150 c0 -30 10 -39 22 -20 5 8 11 7 21 -1 18 -15 31 -4 16 14
-9 10 -8 17 0 25 7 7 8 12 2 12 -5 0 -15 -5 -21 -11 -8 -8 -13 -8 -17 0 -13
20 -23 11 -23 -19z"/>
<path d="M6708 2133 c6 -2 18 -2 25 0 6 3 1 5 -13 5 -14 0 -19 -2 -12 -5z"/>
<path d="M10247 2133 c-14 -13 -6 -33 13 -33 13 0 20 7 20 20 0 19 -20 27 -33
13z"/>
<path d="M10290 2121 c0 -15 6 -21 21 -21 25 0 22 33 -4 38 -12 2 -17 -3 -17
-17z"/>
<path d="M10340 2120 c0 -11 7 -20 15 -20 8 0 15 9 15 20 0 11 -7 20 -15 20
-8 0 -15 -9 -15 -20z"/>
<path d="M131 2014 c-24 -64 -24 -64 -12 -64 5 0 13 9 16 20 4 12 15 20 30 20
14 0 25 -7 28 -20 3 -11 10 -20 16 -20 6 0 1 25 -11 60 -12 33 -27 60 -34 60
-6 0 -21 -25 -33 -56z m49 -6 c0 -5 -7 -8 -15 -8 -15 0 -20 21 -8 33 7 7 23
-11 23 -25z"/>
<path d="M661 2058 c-1 -9 -7 -19 -13 -21 -10 -4 -10 -6 0 -6 7 -1 12 -16 12
-41 0 -32 4 -40 18 -39 10 0 12 3 5 6 -7 2 -13 20 -13 39 0 20 5 34 13 34 8 0
9 3 1 8 -6 4 -14 14 -17 22 -4 12 -6 12 -6 -2z"/>
<path d="M228 2014 c-8 -18 -9 -30 -1 -42 12 -21 49 -27 68 -12 9 7 15 8 20 0
8 -13 52 -13 60 0 4 6 13 5 25 -3 28 -17 55 2 55 38 0 57 -66 59 -73 2 -3 -28
-37 -46 -54 -29 -5 5 -8 20 -6 33 2 18 9 24 26 23 14 0 19 3 13 9 -17 17 -46
2 -56 -31 -15 -53 -71 -54 -63 -1 2 17 9 24 25 23 12 0 20 3 17 8 -11 18 -45
7 -56 -18z m207 -20 c0 -19 -5 -29 -15 -29 -16 0 -25 28 -16 51 10 25 31 10
31 -22z"/>
<path d="M484 2000 c1 -43 2 -45 34 -47 32 -1 32 -1 32 43 0 54 -18 59 -22 7
-4 -53 -31 -51 -39 2 l-7 40 2 -45z"/>
<path d="M571 1993 l2 -48 6 40 c8 53 35 55 39 3 4 -45 22 -51 22 -9 0 47 -10
61 -41 61 -28 0 -29 -1 -28 -47z"/>
<path d="M700 1995 c0 -25 5 -45 10 -45 6 0 10 20 10 45 0 25 -4 45 -10 45 -5
0 -10 -20 -10 -45z"/>
<path d="M730 1996 c0 -55 17 -62 22 -8 4 52 31 50 39 -3 l7 -40 -2 45 c-1 43
-2 45 -33 48 -33 3 -33 3 -33 -42z"/>
<path d="M830 2026 c-17 -22 -8 -60 18 -71 31 -14 28 -29 -5 -20 -21 5 -25 4
-17 -5 7 -6 22 -10 35 -8 22 3 24 9 27 61 3 55 2 57 -21 57 -14 0 -30 -7 -37
-14z m45 -15 c7 -24 -4 -51 -21 -51 -9 0 -14 12 -14 35 0 38 24 50 35 16z"/>
<path d="M2320 1960 c0 -46 2 -50 24 -50 48 0 62 56 18 75 -12 5 -22 13 -22
17 0 5 -4 8 -10 8 -5 0 -10 -22 -10 -50z m45 -10 c0 -13 -5 -25 -11 -27 -14
-5 -25 22 -17 42 8 23 28 12 28 -15z"/>
<path d="M2560 1960 c0 -27 5 -50 10 -50 6 0 10 8 10 17 0 9 10 27 22 40 22
23 12 33 -10 11 -9 -9 -12 -7 -12 10 0 12 -4 22 -10 22 -5 0 -10 -22 -10 -50z"/>
<path d="M2630 1960 c0 -27 5 -50 10 -50 6 0 10 8 10 17 0 9 10 27 22 40 22
23 12 33 -10 11 -9 -9 -12 -7 -12 10 0 12 -4 22 -10 22 -5 0 -10 -22 -10 -50z"/>
<path d="M2910 2000 c0 -5 -9 -10 -20 -10 -10 0 -24 -9 -30 -20 -15 -28 4 -60
35 -60 23 0 25 4 25 50 0 28 -2 50 -5 50 -3 0 -5 -4 -5 -10z m-5 -50 c0 -27
-22 -39 -31 -16 -8 22 3 49 19 43 6 -2 12 -14 12 -27z"/>
<path d="M3233 1960 c0 -30 2 -43 4 -27 2 15 2 39 0 55 -2 15 -4 2 -4 -28z"/>
<path d="M3420 1960 c0 -46 2 -50 24 -50 48 0 62 56 18 75 -12 5 -22 13 -22
17 0 5 -4 8 -10 8 -5 0 -10 -22 -10 -50z m45 -10 c0 -13 -5 -25 -11 -27 -14
-5 -25 22 -17 42 8 23 28 12 28 -15z"/>
<path d="M3570 1960 c0 -27 5 -50 10 -50 6 0 10 8 10 17 0 9 10 27 22 40 22
23 12 33 -10 11 -9 -9 -12 -7 -12 10 0 12 -4 22 -10 22 -5 0 -10 -22 -10 -50z"/>
<path d="M3820 2000 c0 -5 -9 -10 -20 -10 -10 0 -23 -7 -28 -16 -8 -14 -10
-14 -21 0 -31 37 -84 -1 -61 -44 11 -20 44 -27 54 -12 3 5 -4 8 -16 8 -12 -1
-23 5 -25 12 -8 22 55 15 67 -8 6 -12 21 -20 35 -20 23 0 25 4 25 50 0 28 -2
50 -5 50 -3 0 -5 -4 -5 -10z m-85 -30 c3 -5 -3 -10 -15 -10 -12 0 -18 5 -15
10 3 6 10 10 15 10 5 0 12 -4 15 -10z m80 -20 c0 -27 -22 -39 -31 -16 -8 22 3
49 19 43 6 -2 12 -14 12 -27z"/>
<path d="M3878 1999 c-7 -22 5 -89 16 -89 8 0 11 12 8 36 -5 44 12 39 21 -6 8
-35 24 -40 30 -7 l4 22 2 -22 c1 -22 15 -31 24 -15 12 19 18 72 8 72 -5 0 -12
-12 -14 -27 l-4 -28 -2 28 c0 15 -5 27 -10 27 -5 0 -14 -12 -19 -27 l-10 -28
-1 28 c-1 17 -6 27 -16 27 -8 0 -15 5 -15 10 0 13 -17 13 -22 -1z"/>
<path d="M4140 1960 c0 -46 2 -50 24 -50 48 0 62 56 18 75 -12 5 -22 13 -22
17 0 5 -4 8 -10 8 -5 0 -10 -22 -10 -50z m45 -10 c0 -13 -5 -25 -11 -27 -14
-5 -25 22 -17 42 8 23 28 12 28 -15z"/>
<path d="M4467 2003 c18 -4 23 -12 26 -51 l3 -47 2 47 c2 40 5 47 25 51 12 2
0 4 -28 4 -27 0 -40 -2 -28 -4z"/>
<path d="M4568 1996 c-22 -16 -23 -27 -3 -20 12 5 15 -2 15 -30 0 -20 5 -36
10 -36 6 0 10 23 10 50 0 53 -4 58 -32 36z"/>
<path d="M4840 1960 c0 -46 2 -50 24 -50 36 0 56 10 57 29 0 12 3 11 16 -6 15
-23 47 -31 57 -15 3 5 -4 8 -16 8 -12 -1 -23 5 -25 12 -3 8 6 12 26 12 33 0
39 8 19 28 -17 17 -45 15 -57 -5 -9 -17 -10 -17 -17 2 -10 26 -23 35 -56 35
-27 0 -28 -2 -28 -50z m65 20 c9 -30 -4 -60 -26 -60 -16 0 -19 7 -19 40 0 33
3 40 19 40 11 0 23 -9 26 -20z m80 -10 c3 -5 -3 -10 -15 -10 -12 0 -18 5 -15
10 3 6 10 10 15 10 5 0 12 -4 15 -10z"/>
<path d="M5250 1960 c0 -46 2 -50 24 -50 36 0 56 10 57 29 0 12 3 11 16 -6 15
-23 47 -31 57 -15 3 5 -4 8 -16 8 -12 -1 -23 5 -25 12 -3 8 6 12 26 12 33 0
39 8 19 28 -17 17 -45 15 -57 -5 -9 -17 -10 -17 -17 2 -10 26 -23 35 -56 35
-27 0 -28 -2 -28 -50z m65 20 c9 -30 -4 -60 -26 -60 -16 0 -19 7 -19 40 0 33
3 40 19 40 11 0 23 -9 26 -20z m80 -10 c3 -5 -3 -10 -15 -10 -12 0 -18 5 -15
10 3 6 10 10 15 10 5 0 12 -4 15 -10z"/>
<path d="M2404 1979 c-4 -7 0 -9 14 -5 11 4 23 3 26 -3 3 -5 -5 -12 -19 -15
-16 -4 -25 -13 -25 -26 0 -15 7 -19 33 -18 31 1 32 2 29 40 -4 32 -8 38 -27
38 -13 0 -27 -5 -31 -11z m46 -39 c0 -13 -28 -25 -38 -16 -3 4 0 11 8 16 20
13 30 12 30 0z"/>
<path d="M2480 1951 c0 -23 5 -41 10 -41 6 0 10 16 10 36 0 46 22 41 32 -7 6
-34 6 -34 5 6 -2 36 -5 40 -29 43 -27 3 -28 1 -28 -37z"/>
<path d="M2702 1953 c3 -33 7 -38 31 -41 26 -3 27 -2 26 40 -2 42 -2 42 -8 9
-8 -48 -31 -53 -31 -7 0 20 -5 36 -11 36 -6 0 -9 -16 -7 -37z"/>
<path d="M2780 1951 c0 -23 5 -41 10 -41 6 0 10 16 10 36 0 46 22 41 32 -7 6
-34 6 -34 5 6 -2 36 -5 40 -29 43 -27 3 -28 1 -28 -37z"/>
<path d="M2940 1970 c-8 -14 -8 -26 0 -40 11 -20 44 -27 54 -12 3 5 -4 8 -16
8 -12 -1 -23 5 -25 12 -3 8 6 12 26 12 33 0 39 8 19 28 -18 18 -46 14 -58 -8z
m45 0 c3 -5 -3 -10 -15 -10 -12 0 -18 5 -15 10 3 6 10 10 15 10 5 0 12 -4 15
-10z"/>
<path d="M3020 1951 c0 -23 5 -41 10 -41 6 0 10 16 10 36 0 46 22 41 32 -7 6
-34 6 -34 5 6 -2 36 -5 40 -29 43 -27 3 -28 1 -28 -37z"/>
<path d="M3102 1953 c3 -33 7 -38 31 -41 26 -3 27 -2 26 40 -2 42 -2 42 -8 9
-8 -48 -31 -53 -31 -7 0 20 -5 36 -11 36 -6 0 -9 -16 -7 -37z"/>
<path d="M3180 1950 c0 -22 5 -40 10 -40 6 0 10 15 10 34 0 19 6 37 13 39 6 3
2 6 -10 6 -20 1 -23 -4 -23 -39z"/>
<path d="M3264 1979 c-4 -7 0 -9 14 -5 11 4 23 3 26 -3 3 -5 -5 -12 -19 -15
-16 -4 -25 -13 -25 -26 0 -15 7 -19 33 -18 31 1 32 2 29 40 -4 32 -8 38 -27
38 -13 0 -27 -5 -31 -11z m46 -39 c0 -13 -28 -25 -38 -16 -3 4 0 11 8 16 20
13 30 12 30 0z"/>
<path d="M3342 1953 c3 -33 7 -38 31 -41 26 -3 27 -2 26 40 -2 42 -2 42 -8 9
-8 -48 -31 -53 -31 -7 0 20 -5 36 -11 36 -6 0 -9 -16 -7 -37z"/>
<path d="M3500 1971 c0 -11 9 -23 20 -26 11 -3 20 -11 20 -17 0 -6 -9 -8 -20
-5 -11 3 -20 1 -20 -4 0 -15 47 -10 53 5 6 16 -11 36 -30 36 -7 0 -13 5 -13
11 0 6 9 9 20 6 11 -3 18 -1 14 4 -10 17 -44 10 -44 -10z"/>
<path d="M3640 1950 c0 -22 5 -40 10 -40 6 0 10 15 10 34 0 19 6 37 13 39 6 3
2 6 -10 6 -20 1 -23 -4 -23 -39z"/>
<path d="M3853 1950 c0 -25 2 -35 4 -22 2 12 2 32 0 45 -2 12 -4 2 -4 -23z"/>
<path d="M4010 1970 c-8 -14 -8 -26 0 -40 11 -20 44 -27 54 -12 3 5 -4 8 -16
8 -12 -1 -23 5 -25 12 -3 8 6 12 26 12 33 0 39 8 19 28 -18 18 -46 14 -58 -8z
m45 0 c3 -5 -3 -10 -15 -10 -12 0 -18 5 -15 10 3 6 10 10 15 10 5 0 12 -4 15
-10z"/>
<path d="M4090 1950 c0 -22 5 -40 10 -40 6 0 10 15 10 34 0 19 6 37 13 39 6 3
2 6 -10 6 -20 1 -23 -4 -23 -39z"/>
<path d="M4222 1953 c3 -33 7 -38 31 -41 26 -3 27 -2 26 40 -2 42 -2 42 -8 9
-8 -48 -31 -53 -31 -7 0 20 -5 36 -11 36 -6 0 -9 -16 -7 -37z"/>
<path d="M4300 1951 c0 -23 5 -41 10 -41 6 0 10 16 10 36 0 46 22 41 32 -7 6
-34 6 -34 5 6 -2 36 -5 40 -29 43 -27 3 -28 1 -28 -37z"/>
<path d="M4380 1970 c-14 -26 3 -60 31 -60 12 0 17 -4 13 -11 -3 -6 -15 -9
-25 -6 -11 3 -19 1 -19 -5 0 -5 12 -8 28 -6 25 3 27 7 30 56 3 50 2 52 -22 52
-15 0 -30 -8 -36 -20z m44 -5 c7 -18 -2 -45 -15 -45 -13 0 -22 27 -15 45 3 8
10 15 15 15 5 0 11 -7 15 -15z"/>
<path d="M5021 1947 c1 -43 3 -42 13 6 9 39 26 33 27 -10 1 -39 3 -38 13 10 9
39 26 34 26 -8 0 -19 5 -35 10 -35 12 0 13 50 2 66 -4 6 -26 12 -49 12 l-43 2
1 -43z"/>
<path d="M5134 1976 c-12 -31 0 -61 25 -61 31 0 50 28 35 53 -14 22 -52 28
-60 8z m41 -26 c0 -13 -6 -25 -12 -27 -16 -6 -27 21 -19 43 9 23 31 11 31 -16z"/>
<path d="M5431 1947 c1 -43 3 -42 13 6 9 39 26 33 27 -10 1 -39 3 -38 13 10 9
39 26 34 26 -8 0 -19 5 -35 10 -35 12 0 13 50 2 66 -4 6 -26 12 -49 12 l-43 2
1 -43z"/>
<path d="M5544 1976 c-12 -31 0 -61 25 -61 31 0 50 28 35 53 -14 22 -52 28
-60 8z m41 -26 c0 -27 -22 -39 -31 -16 -8 22 3 49 19 43 6 -2 12 -14 12 -27z"/>
<path d="M2590 1945 c0 -15 18 -40 24 -34 3 3 -1 14 -9 25 -8 10 -14 15 -15 9z"/>
<path d="M2660 1945 c0 -15 18 -40 24 -34 3 3 -1 14 -9 25 -8 10 -14 15 -15 9z"/>
<path d="M3600 1945 c0 -15 18 -40 24 -34 3 3 -1 14 -9 25 -8 10 -14 15 -15 9z"/>
<path d="M2333 1763 c-7 -2 -13 -20 -13 -39 0 -28 4 -35 25 -40 24 -6 62 12
50 24 -2 3 -11 -1 -20 -8 -21 -18 -45 -5 -45 25 0 28 25 44 43 26 17 -17 31
-13 17 4 -12 15 -34 18 -57 8z"/>
<path d="M2588 1760 c-5 -17 3 -80 11 -80 7 0 6 79 -2 86 -3 3 -7 0 -9 -6z"/>
<path d="M2730 1761 c0 -5 -9 -11 -21 -14 -16 -4 -20 -12 -17 -34 2 -22 9 -29
31 -31 26 -3 27 -2 27 42 0 25 -4 46 -10 46 -5 0 -10 -4 -10 -9z m0 -46 c0
-26 -14 -33 -25 -15 -9 14 1 40 15 40 5 0 10 -11 10 -25z"/>
<path d="M2888 1758 c-2 -7 -1 -29 3 -48 l6 -35 2 33 c0 17 1 35 0 38 0 4 5
11 13 15 10 7 9 9 -3 9 -9 0 -19 -6 -21 -12z"/>
<path d="M3490 1761 c0 -5 -9 -11 -21 -14 -16 -4 -20 -12 -17 -34 2 -22 9 -29
31 -31 26 -3 27 -2 27 42 0 25 -4 46 -10 46 -5 0 -10 -4 -10 -9z m0 -46 c0
-26 -14 -33 -25 -15 -9 14 1 40 15 40 5 0 10 -11 10 -25z"/>
<path d="M5480 1746 c0 -19 4 -23 20 -19 16 4 20 0 20 -17 0 -17 -4 -21 -20
-17 -11 3 -20 1 -20 -4 0 -14 36 -11 49 5 16 19 4 44 -22 49 -21 3 -21 4 3 15
l25 11 -27 0 c-23 1 -28 -3 -28 -23z"/>
<path d="M5554 1757 c-3 -9 -4 -28 -2 -44 2 -20 8 -28 23 -28 17 0 20 7 20 40
0 30 -4 41 -18 43 -9 2 -20 -3 -23 -11z m34 -38 c-1 -13 -7 -23 -13 -22 -13 3
-18 30 -11 50 10 24 29 1 24 -28z"/>
<path d="M2411 1713 c1 -28 3 -31 6 -13 3 14 10 31 15 38 8 9 6 12 -6 12 -12
0 -16 -9 -15 -37z"/>
<path d="M2457 1744 c-4 -4 -7 -18 -7 -31 0 -27 26 -41 43 -24 9 9 8 11 -4 6
-10 -4 -20 -2 -24 4 -3 7 3 11 15 11 15 0 20 5 18 17 -3 19 -29 29 -41 17z
m28 -14 c3 -5 -1 -10 -10 -10 -9 0 -13 5 -10 10 3 6 8 10 10 10 2 0 7 -4 10
-10z"/>
<path d="M2526 1741 c-4 -5 3 -7 14 -4 11 3 20 1 20 -5 0 -5 -9 -12 -20 -15
-31 -8 -25 -37 8 -37 26 0 28 2 24 35 -3 26 -9 35 -23 35 -10 0 -20 -4 -23 -9z
m34 -41 c0 -5 -7 -10 -16 -10 -8 0 -12 5 -9 10 3 6 10 10 16 10 5 0 9 -4 9
-10z"/>
<path d="M2627 1744 c-4 -4 -7 -18 -7 -31 0 -27 26 -41 43 -24 9 9 8 11 -4 6
-10 -4 -20 -2 -24 4 -3 7 3 11 15 11 15 0 20 5 18 17 -3 19 -29 29 -41 17z
m28 -14 c3 -5 -1 -10 -10 -10 -9 0 -13 5 -10 10 3 6 8 10 10 10 2 0 7 -4 10
-10z"/>
<path d="M2796 1741 c-4 -5 3 -7 14 -4 11 3 20 1 20 -5 0 -5 -9 -12 -20 -15
-31 -8 -25 -37 8 -37 26 0 28 2 24 35 -3 26 -9 35 -23 35 -10 0 -20 -4 -23 -9z
m34 -41 c0 -5 -7 -10 -16 -10 -8 0 -12 5 -9 10 3 6 10 10 16 10 5 0 9 -4 9
-10z"/>
<path d="M2927 1744 c-4 -4 -7 -18 -7 -31 0 -27 26 -41 43 -24 9 9 8 11 -4 6
-10 -4 -20 -2 -24 4 -3 7 3 11 15 11 15 0 20 5 18 17 -3 19 -29 29 -41 17z
m28 -14 c3 -5 -1 -10 -10 -10 -9 0 -13 5 -10 10 3 6 8 10 10 10 2 0 7 -4 10
-10z"/>
<path d="M2986 1728 c3 -13 10 -30 15 -38 7 -12 10 -10 15 9 l7 25 9 -24 c10
-27 22 -18 32 23 4 19 3 26 -4 22 -5 -3 -10 -14 -11 -23 0 -12 -3 -11 -9 6 -5
12 -12 22 -15 22 -3 0 -10 -10 -15 -22 l-9 -23 0 23 c-1 12 -6 22 -12 22 -6 0
-8 -9 -3 -22z"/>
<path d="M3115 1740 c-8 -14 3 -30 21 -30 8 0 14 -5 14 -11 0 -6 -9 -9 -20 -6
-11 3 -20 1 -20 -5 0 -14 43 -5 48 10 2 7 -5 16 -17 19 -12 3 -21 10 -21 15 0
5 10 6 21 3 15 -5 19 -4 15 4 -9 14 -33 14 -41 1z"/>
<path d="M3187 1744 c-4 -4 -7 -18 -7 -31 0 -27 26 -41 43 -24 9 9 8 11 -4 6
-10 -4 -20 -2 -24 4 -3 7 3 11 15 11 15 0 20 5 18 17 -3 19 -29 29 -41 17z
m28 -14 c3 -5 -1 -10 -10 -10 -9 0 -13 5 -10 10 3 6 8 10 10 10 2 0 7 -4 10
-10z"/>
<path d="M3257 1743 c-4 -3 -7 -17 -7 -30 0 -26 25 -42 42 -25 7 7 4 10 -8 9
-13 -1 -19 5 -19 18 0 13 6 20 17 19 10 -1 15 2 12 7 -6 11 -28 12 -37 2z"/>
<path d="M3314 1736 c-10 -26 0 -51 21 -51 16 0 20 7 20 30 0 33 -30 49 -41
21z m36 -21 c0 -26 -14 -33 -25 -15 -9 14 1 40 15 40 5 0 10 -11 10 -25z"/>
<path d="M3381 1713 c1 -36 2 -36 8 -9 9 42 29 44 34 4 l4 -33 1 38 c2 33 0
37 -23 37 -22 0 -25 -4 -24 -37z"/>
<path d="M3525 1740 c-8 -14 3 -30 21 -30 8 0 14 -5 14 -11 0 -6 -9 -9 -20 -6
-11 3 -20 1 -20 -5 0 -14 43 -5 48 10 2 7 -5 16 -17 19 -12 3 -21 10 -21 15 0
5 10 6 21 3 15 -5 19 -4 15 4 -9 14 -33 14 -41 1z"/>
<path d="M3626 1741 c-4 -5 3 -7 14 -4 11 3 20 1 20 -5 0 -5 -9 -12 -20 -15
-31 -8 -25 -37 8 -37 26 0 28 2 24 35 -3 26 -9 35 -23 35 -10 0 -20 -4 -23 -9z
m34 -41 c0 -5 -7 -10 -16 -10 -8 0 -12 5 -9 10 3 6 10 10 16 10 5 0 9 -4 9
-10z"/>
<path d="M3697 1743 c-4 -3 -7 -17 -7 -31 0 -16 7 -26 23 -30 22 -6 22 -6 -3
-13 l-25 -8 25 2 c22 2 25 7 28 45 3 36 0 42 -16 42 -10 0 -22 -3 -25 -7z m33
-28 c0 -26 -14 -33 -25 -15 -9 14 1 40 15 40 5 0 10 -11 10 -25z"/>
<path d="M3764 1736 c-10 -26 0 -51 21 -51 16 0 20 7 20 30 0 33 -30 49 -41
21z m36 -21 c0 -26 -14 -33 -25 -15 -9 14 1 40 15 40 5 0 10 -11 10 -25z"/>
<path d="M6070 1700 c0 -27 5 -50 10 -50 6 0 10 11 10 24 0 19 6 26 28 29 l27
4 -27 2 c-40 2 -36 29 5 34 28 3 26 4 -10 5 l-43 2 0 -50z"/>
<path d="M6743 1700 c0 -30 2 -43 4 -27 3 21 10 27 28 27 18 0 25 -6 28 -27 2
-16 4 -3 4 27 0 30 -2 45 -4 33 -3 -16 -11 -23 -28 -23 -17 0 -25 7 -28 23 -2
12 -4 -3 -4 -33z"/>
<path d="M6928 1739 c-7 -21 5 -89 16 -89 9 0 12 35 7 93 -1 11 -19 8 -23 -4z"/>
<path d="M7510 1700 c0 -48 1 -50 28 -50 35 0 52 16 52 50 0 34 -17 50 -52 50
-27 0 -28 -2 -28 -50z m65 20 c10 -33 -4 -60 -31 -60 -21 0 -24 4 -24 40 0 36
3 40 24 40 16 0 27 -7 31 -20z"/>
<path d="M8380 1700 c0 -48 1 -50 28 -50 35 0 52 16 52 50 0 34 -17 50 -52 50
-27 0 -28 -2 -28 -50z m65 20 c10 -33 -4 -60 -31 -60 -21 0 -24 4 -24 40 0 36
3 40 24 40 16 0 27 -7 31 -20z"/>
<path d="M8858 1739 c-7 -21 5 -89 16 -89 9 0 12 35 7 93 -1 11 -19 8 -23 -4z"/>
<path d="M6164 1716 c-12 -31 0 -61 25 -61 31 0 50 28 35 53 -14 22 -52 28
-60 8z m41 -26 c0 -13 -6 -25 -12 -27 -16 -6 -27 21 -19 43 9 23 31 11 31 -16z"/>
<path d="M6240 1690 c0 -22 5 -40 10 -40 6 0 10 16 10 35 0 24 5 35 15 35 11
0 15 -11 16 -37 1 -39 3 -38 13 10 9 39 26 33 27 -10 1 -39 3 -38 13 10 9 39
26 34 26 -8 0 -19 5 -35 10 -35 12 0 13 50 2 66 -4 6 -37 12 -74 13 l-68 2 0
-41z"/>
<path d="M6833 1690 c0 -25 2 -35 4 -22 2 12 2 32 0 45 -2 12 -4 2 -4 -23z"/>
<path d="M6860 1711 c0 -11 9 -23 20 -26 11 -3 20 -11 20 -17 0 -6 -9 -8 -20
-5 -11 3 -20 1 -20 -4 0 -15 36 -10 50 6 10 12 7 17 -14 26 -31 14 -35 34 -6
26 11 -3 18 -1 14 4 -10 17 -44 10 -44 -10z"/>
<path d="M6974 1716 c-11 -29 1 -61 23 -64 29 -4 48 30 33 58 -12 23 -48 27
-56 6z m41 -26 c0 -27 -22 -39 -31 -16 -8 22 3 49 19 43 6 -2 12 -14 12 -27z"/>
<path d="M7051 1688 c1 -44 3 -43 13 5 9 38 31 34 44 -10 9 -28 8 -40 -1 -52
-10 -11 -9 -13 2 -10 15 5 55 109 42 109 -4 0 -12 -12 -18 -27 l-10 -28 -8 28
c-6 21 -13 27 -36 27 -28 0 -29 -2 -28 -42z"/>
<path d="M7613 1690 c0 -25 2 -35 4 -22 2 12 2 32 0 45 -2 12 -4 2 -4 -23z"/>
<path d="M7646 1722 c-3 -6 2 -8 13 -5 10 3 21 0 25 -5 3 -5 -5 -13 -19 -16
-16 -4 -25 -13 -25 -26 0 -16 6 -20 30 -18 29 2 31 5 28 38 -2 27 -8 36 -25
38 -11 2 -24 -1 -27 -6z m44 -42 c0 -13 -28 -25 -38 -16 -3 4 0 11 8 16 20 13
30 12 30 0z"/>
<path d="M7720 1710 c-14 -26 3 -60 31 -60 12 0 17 -4 13 -11 -3 -6 -15 -9
-25 -6 -11 3 -19 1 -19 -5 0 -5 12 -8 28 -6 25 3 27 7 30 56 3 50 2 52 -22 52
-15 0 -30 -8 -36 -20z m44 -5 c7 -18 -2 -45 -15 -45 -5 0 -12 7 -15 15 -7 18
2 45 15 45 5 0 11 -7 15 -15z"/>
<path d="M7801 1688 l1 -43 8 34 c4 18 14 37 22 42 9 6 7 9 -9 9 -20 0 -23 -5
-22 -42z"/>
<path d="M7856 1722 c-3 -6 2 -8 13 -5 10 3 21 0 25 -5 3 -5 -5 -13 -19 -16
-16 -4 -25 -13 -25 -26 0 -16 6 -20 30 -18 29 2 31 5 28 38 -2 27 -8 36 -25
38 -11 2 -24 -1 -27 -6z m44 -42 c0 -13 -28 -25 -38 -16 -3 4 0 11 8 16 20 13
30 12 30 0z"/>
<path d="M7931 1687 c2 -42 2 -42 8 -8 9 49 31 52 32 4 l2 -38 6 34 c9 49 29
51 34 4 l4 -38 1 41 2 41 -45 1 -45 1 1 -42z"/>
<path d="M8480 1710 c-8 -14 -8 -26 0 -40 11 -20 44 -27 54 -12 3 5 -4 8 -16
8 -12 -1 -23 5 -25 12 -3 8 6 12 27 12 28 0 30 2 20 20 -6 11 -19 20 -30 20
-11 0 -24 -9 -30 -20z m45 0 c3 -5 -3 -10 -15 -10 -12 0 -18 5 -15 10 3 6 10
10 15 10 5 0 12 -4 15 -10z"/>
<path d="M8560 1711 c0 -11 9 -23 20 -26 11 -3 20 -11 20 -17 0 -6 -9 -8 -20
-5 -11 3 -20 1 -20 -4 0 -15 36 -10 50 6 10 12 7 17 -14 26 -31 14 -35 34 -6
26 11 -3 18 -1 14 4 -10 17 -44 10 -44 -10z"/>
<path d="M8630 1710 c-19 -36 25 -83 46 -49 4 8 0 9 -15 4 -18 -6 -21 -2 -21
25 0 27 3 31 21 25 15 -5 19 -4 15 4 -11 17 -34 13 -46 -9z"/>
<path d="M8701 1688 l1 -43 8 34 c4 18 14 37 22 42 9 6 7 9 -9 9 -20 0 -23 -5
-22 -42z"/>
<path d="M8753 1690 c0 -25 2 -35 4 -22 2 12 2 32 0 45 -2 12 -4 2 -4 -23z"/>
<path d="M8781 1670 c1 -30 3 -47 6 -37 2 9 13 17 23 17 11 0 24 9 30 20 16
29 -4 60 -35 58 -24 -2 -25 -6 -24 -58z m44 20 c0 -27 -22 -39 -31 -16 -8 22
3 49 19 43 6 -2 12 -14 12 -27z"/>
<path d="M8903 1690 c0 -25 2 -35 4 -22 2 12 2 32 0 45 -2 12 -4 2 -4 -23z"/>
<path d="M8934 1716 c-11 -29 1 -61 23 -64 29 -4 48 30 33 58 -12 23 -48 27
-56 6z m41 -26 c0 -27 -22 -39 -31 -16 -8 22 3 49 19 43 6 -2 12 -14 12 -27z"/>
<path d="M9011 1686 l2 -41 6 35 c4 22 12 35 21 35 9 0 18 -13 22 -35 l6 -35
-1 40 c-2 36 -5 40 -29 41 -26 1 -28 -1 -27 -40z"/>
<path d="M160 1615 c0 -52 -14 -73 -26 -40 -4 8 -10 15 -15 15 -6 0 -5 -9 1
-21 7 -13 19 -19 33 -17 19 3 22 10 25 61 2 35 -1 57 -8 57 -6 0 -10 -23 -10
-55z"/>
<path d="M290 1610 c0 -33 4 -60 10 -60 6 0 10 18 10 40 0 29 4 40 15 40 11 0
15 -11 15 -40 0 -22 5 -40 11 -40 6 0 9 17 7 43 -2 35 -7 43 -25 45 -13 2 -23
10 -23 18 0 8 -4 14 -10 14 -6 0 -10 -27 -10 -60z"/>
<path d="M460 1656 c0 -8 5 -18 10 -21 6 -3 10 3 10 14 0 12 -4 21 -10 21 -5
0 -10 -6 -10 -14z"/>
<path d="M628 1663 c20 -4 22 -10 22 -59 0 -30 5 -54 10 -54 6 0 10 24 10 54
0 49 2 55 23 59 12 2 -3 4 -33 4 -30 0 -45 -2 -32 -4z"/>
<path d="M870 1610 c0 -33 4 -60 10 -60 6 0 10 10 11 23 l0 22 16 -22 c22 -33
36 -28 19 6 -14 26 -14 30 0 41 8 7 12 15 9 18 -3 3 -14 -3 -25 -13 -20 -18
-20 -17 -20 13 0 18 -4 32 -10 32 -6 0 -10 -27 -10 -60z"/>
<path d="M204 1626 c-3 -8 -4 -27 -2 -43 2 -22 9 -29 30 -31 22 -3 30 2 38 23
13 35 -3 65 -36 65 -13 0 -27 -6 -30 -14z m51 -15 c7 -23 -3 -51 -20 -51 -7 0
-16 7 -19 16 -9 23 2 54 19 54 8 0 16 -8 20 -19z"/>
<path d="M380 1596 c0 -25 5 -46 10 -46 6 0 10 18 10 40 0 29 4 40 15 40 11 0
15 -11 15 -40 0 -22 5 -40 11 -40 6 0 9 17 7 43 -3 39 -5 42 -35 45 -33 3 -33
3 -33 -42z"/>
<path d="M501 1626 c-12 -15 -2 -27 32 -39 28 -10 9 -30 -22 -22 -19 5 -23 4
-15 -5 17 -17 58 -8 62 12 2 11 -6 22 -22 29 -34 16 -34 33 0 25 17 -5 23 -3
19 4 -9 14 -40 12 -54 -4z"/>
<path d="M705 1630 c-4 -6 -4 -14 0 -18 4 -4 10 -1 12 6 5 14 33 16 33 2 0 -5
-11 -13 -26 -16 -18 -5 -24 -12 -22 -28 2 -16 11 -22 39 -24 l35 -3 -5 43 c-5
37 -9 43 -33 46 -14 2 -29 -2 -33 -8z m37 -62 c-6 -6 -16 -7 -23 -3 -9 6 -7
12 7 22 21 15 34 -1 16 -19z"/>
<path d="M797 1633 c-14 -14 -6 -34 18 -43 34 -13 33 -34 -1 -26 -17 5 -23 3
-19 -4 10 -16 52 -12 59 6 9 23 8 24 -19 34 -31 12 -34 34 -4 25 15 -5 19 -4
15 4 -8 12 -39 15 -49 4z"/>
<path d="M957 1633 c-14 -14 -6 -34 18 -43 34 -13 33 -34 -1 -26 -17 5 -23 3
-19 -4 10 -16 52 -12 59 6 9 23 8 24 -19 34 -31 12 -34 34 -4 25 15 -5 19 -4
15 4 -8 12 -39 15 -49 4z"/>
<path d="M5910 1545 c0 -13 42 -15 315 -15 273 0 315 2 315 15 0 13 -42 15
-315 15 -273 0 -315 -2 -315 -15z"/>
<path d="M2351 1278 c-5 -13 -16 -41 -25 -62 -17 -42 -12 -62 8 -33 7 9 23 17
36 17 13 0 29 -8 36 -17 24 -33 24 -6 0 52 -27 66 -42 78 -55 43z m32 -38 c4
-15 0 -20 -14 -20 -21 0 -22 1 -13 24 8 22 21 20 27 -4z"/>
<path d="M2620 1290 c0 -5 5 -10 10 -10 6 0 10 5 10 10 0 6 -4 10 -10 10 -5 0
-10 -4 -10 -10z"/>
<path d="M2910 1235 c0 -37 4 -65 10 -65 6 0 10 11 10 25 0 18 5 25 19 25 11
0 28 -11 39 -25 28 -36 48 -31 22 5 -12 17 -17 30 -11 30 16 0 24 40 11 55 -8
9 -30 15 -56 15 l-44 0 0 -65z m88 28 c-2 -12 -14 -19 -36 -21 -27 -3 -32 0
-32 17 0 17 6 21 36 21 28 0 35 -3 32 -17z"/>
<path d="M3230 1290 c0 -5 5 -10 10 -10 6 0 10 5 10 10 0 6 -4 10 -10 10 -5 0
-10 -4 -10 -10z"/>
<path d="M120 1210 c0 -67 20 -84 21 -17 l1 42 11 -38 c15 -49 27 -51 43 -7
l12 35 1 -37 c2 -63 21 -42 21 22 0 33 -4 60 -9 60 -5 0 -17 -21 -27 -47 l-18
-47 -9 35 c-20 78 -47 78 -47 -1z"/>
<path d="M470 1250 c0 -11 5 -20 10 -20 6 0 10 9 10 20 0 11 -4 20 -10 20 -5
0 -10 -9 -10 -20z"/>
<path d="M638 1263 c20 -4 22 -10 22 -59 0 -30 5 -54 10 -54 6 0 10 24 10 54
0 49 2 55 23 59 12 2 -3 4 -33 4 -30 0 -45 -2 -32 -4z"/>
<path d="M880 1210 c0 -33 4 -60 10 -60 6 0 10 10 11 23 l0 22 16 -22 c22 -32
39 -29 18 3 -16 24 -16 27 1 45 15 17 15 19 1 19 -9 0 -21 -8 -26 -17 -9 -15
-10 -12 -11 15 0 17 -4 32 -10 32 -6 0 -10 -27 -10 -60z"/>
<path d="M2447 1264 c-16 -16 -6 -44 18 -50 14 -3 25 -11 25 -16 0 -6 -11 -7
-26 -4 -19 5 -25 3 -22 -6 7 -19 53 -21 68 -4 16 20 -2 46 -31 46 -11 0 -19 5
-19 11 0 7 10 9 26 5 19 -5 25 -3 22 6 -5 14 -50 23 -61 12z"/>
<path d="M2537 1264 c-16 -16 -6 -44 18 -50 14 -3 25 -11 25 -16 0 -6 -11 -7
-26 -4 -19 5 -25 3 -22 -6 7 -19 53 -21 68 -4 16 20 -2 46 -31 46 -11 0 -19 5
-19 11 0 7 10 9 26 5 19 -5 25 -3 22 6 -5 14 -50 23 -61 12z"/>
<path d="M2620 1220 c0 -27 5 -50 10 -50 6 0 10 23 10 50 0 28 -4 50 -10 50
-5 0 -10 -22 -10 -50z"/>
<path d="M2664 1245 c-11 -42 3 -75 31 -75 14 0 25 -5 25 -11 0 -7 -11 -9 -31
-5 -22 4 -29 2 -27 -7 6 -17 46 -21 64 -7 9 8 14 32 14 71 l0 59 -35 0 c-29 0
-36 -4 -41 -25z m56 -25 c0 -23 -5 -30 -19 -30 -10 0 -21 7 -25 15 -8 23 4 45
25 45 14 0 19 -7 19 -30z"/>
<path d="M2760 1221 c0 -28 5 -51 10 -51 6 0 10 18 10 40 0 33 3 40 20 40 17
0 20 -7 20 -40 0 -22 5 -40 11 -40 6 0 9 19 7 48 -3 47 -3 47 -40 50 l-38 3 0
-50z"/>
<path d="M3052 1258 c-17 -17 -15 -63 2 -78 18 -14 58 -10 64 7 2 9 -5 11 -27
7 -24 -5 -31 -3 -31 10 0 12 9 16 35 16 29 0 33 3 28 18 -12 32 -48 43 -71 20z
m41 -15 c-7 -2 -19 -2 -25 0 -7 3 -2 5 12 5 14 0 19 -2 13 -5z"/>
<path d="M3147 1224 c10 -26 23 -49 29 -51 6 -2 16 13 23 34 7 21 15 44 17 51
3 6 1 12 -4 12 -6 0 -16 -17 -23 -37 l-12 -38 -12 34 c-6 19 -17 37 -23 39 -8
2 -7 -12 5 -44z"/>
<path d="M3230 1220 c0 -27 5 -50 10 -50 6 0 10 23 10 50 0 28 -4 50 -10 50
-5 0 -10 -22 -10 -50z"/>
<path d="M3282 1258 c-17 -17 -15 -63 2 -78 18 -14 58 -10 64 7 2 9 -5 11 -27
7 -24 -5 -31 -3 -31 10 0 12 9 16 35 16 29 0 33 3 28 18 -12 32 -48 43 -71 20z
m41 -15 c-7 -2 -19 -2 -25 0 -7 3 -2 5 12 5 14 0 19 -2 13 -5z"/>
<path d="M3360 1268 c1 -20 29 -93 37 -95 5 -2 14 11 20 29 l10 33 7 -32 c12
-54 31 -39 50 40 9 38 -9 34 -21 -5 l-11 -33 -7 33 c-9 38 -35 44 -35 8 0 -36
-17 -40 -24 -6 -3 17 -10 30 -16 30 -5 0 -10 -1 -10 -2z"/>
<path d="M3512 1258 c-17 -17 -15 -63 2 -78 18 -14 58 -10 64 7 2 9 -5 11 -27
7 -24 -5 -31 -3 -31 10 0 12 9 16 35 16 29 0 33 3 28 18 -12 32 -48 43 -71 20z
m41 -15 c-7 -2 -19 -2 -25 0 -7 3 -2 5 12 5 14 0 19 -2 13 -5z"/>
<path d="M3600 1220 c0 -27 5 -50 10 -50 6 0 10 18 10 40 0 29 4 40 15 40 8 0
15 5 15 10 0 6 -11 10 -25 10 -23 0 -25 -3 -25 -50z"/>
<path d="M260 1225 c-8 -9 -8 -15 -2 -15 6 0 12 5 14 12 3 7 12 9 24 4 17 -7
15 -9 -14 -22 -47 -19 -41 -48 10 -50 36 -2 37 -1 32 30 -3 17 -7 37 -10 44
-5 17 -39 15 -54 -3z m46 -41 c-3 -9 -6 -18 -6 -20 0 -2 -7 -4 -15 -4 -18 0
-20 26 -2 33 23 10 29 7 23 -9z"/>
<path d="M340 1195 c0 -54 18 -60 22 -7 4 50 27 48 45 -3 12 -36 12 -41 -4
-53 -17 -13 -17 -14 2 -10 13 2 26 20 38 52 21 57 17 88 -5 36 l-15 -35 -7 33
c-7 28 -11 32 -42 32 -34 0 -34 0 -34 -45z"/>
<path d="M505 1230 c-9 -14 3 -30 32 -41 32 -12 19 -33 -16 -24 -19 5 -23 4
-15 -5 17 -17 58 -8 62 12 2 12 -6 21 -22 28 -35 13 -34 34 0 26 17 -5 23 -3
19 4 -8 13 -52 13 -60 0z"/>
<path d="M715 1230 c-4 -6 -4 -14 0 -18 4 -4 10 -1 12 6 5 14 33 16 33 2 0 -5
-11 -13 -26 -16 -18 -5 -24 -12 -22 -28 2 -16 11 -22 36 -24 l33 -3 -3 43 c-3
38 -6 43 -30 46 -14 2 -29 -2 -33 -8z m37 -62 c-6 -6 -16 -7 -23 -3 -9 6 -7
12 7 22 21 15 34 -1 16 -19z"/>
<path d="M807 1233 c-15 -14 -6 -34 19 -43 28 -11 23 -35 -7 -27 -11 3 -17 1
-13 -4 8 -13 40 -11 52 4 14 16 4 32 -26 41 -12 4 -20 12 -16 17 3 5 15 7 26
3 14 -4 18 -2 14 5 -8 12 -39 15 -49 4z"/>
<path d="M967 1233 c-15 -14 -6 -34 19 -43 28 -11 23 -35 -7 -27 -11 3 -17 1
-13 -4 8 -13 40 -11 52 4 14 16 4 32 -26 41 -12 4 -20 12 -16 17 3 5 15 7 26
3 14 -4 18 -2 14 5 -8 12 -39 15 -49 4z"/>
<path d="M7260 1100 l0 -130 900 0 900 0 0 130 0 130 -900 0 -900 0 0 -130z
m1790 0 l0 -120 -890 0 -890 0 0 120 0 120 890 0 890 0 0 -120z"/>
<path d="M7312 1138 c-17 -17 -15 -63 2 -77 24 -20 70 -10 74 17 3 18 -1 22
-20 21 -18 -1 -19 -2 -5 -6 25 -7 15 -28 -13 -28 -30 0 -49 29 -34 53 14 22
44 28 55 11 4 -7 11 -10 16 -6 10 10 -16 27 -42 27 -12 0 -26 -5 -33 -12z"/>
<path d="M7488 1139 c-7 -21 5 -89 16 -89 9 0 12 35 7 93 -1 11 -19 8 -23 -4z"/>
<path d="M7700 1100 c0 -27 5 -50 10 -50 6 0 10 9 10 20 0 11 4 20 10 20 5 0
14 -9 20 -20 6 -11 15 -20 21 -20 6 0 2 13 -7 30 -17 28 -17 30 1 50 24 27 7
26 -22 -2 l-23 -21 0 21 c0 12 -4 22 -10 22 -5 0 -10 -22 -10 -50z"/>
<path d="M8000 1140 c0 -5 -9 -10 -20 -10 -10 0 -24 -9 -30 -20 -15 -28 4 -60
35 -60 23 0 25 4 25 50 0 28 -2 50 -5 50 -3 0 -5 -4 -5 -10z m-5 -50 c0 -13
-6 -25 -12 -27 -16 -6 -27 21 -19 43 9 23 31 11 31 -16z"/>
<path d="M7412 1093 c3 -33 7 -38 31 -41 26 -3 27 -2 26 40 -2 42 -2 42 -8 9
-8 -48 -31 -53 -31 -7 0 20 -5 36 -11 36 -6 0 -9 -16 -7 -37z"/>
<path d="M7530 1110 c-8 -14 -8 -26 0 -40 11 -20 44 -27 54 -12 3 5 -4 8 -16
8 -12 -1 -23 5 -25 12 -3 8 6 12 26 12 33 0 39 8 19 28 -18 18 -46 14 -58 -8z
m45 0 c3 -5 -3 -10 -15 -10 -12 0 -18 5 -15 10 3 6 10 10 15 10 5 0 12 -4 15
-10z"/>
<path d="M7610 1090 c0 -22 5 -40 10 -40 6 0 10 15 10 34 0 19 6 37 13 39 6 3
2 6 -10 6 -20 1 -23 -4 -23 -39z"/>
<path d="M7792 1093 c3 -33 7 -38 31 -41 26 -3 27 -2 26 40 -2 42 -2 42 -8 9
-8 -48 -31 -53 -31 -7 0 20 -5 36 -11 36 -6 0 -9 -16 -7 -37z"/>
<path d="M7870 1091 c0 -23 5 -41 10 -41 6 0 10 16 10 36 0 46 22 41 32 -7 6
-34 6 -34 5 6 -2 36 -5 40 -29 43 -27 3 -28 1 -28 -37z"/>
<path d="M8030 1110 c-8 -14 -8 -26 0 -40 11 -20 44 -27 54 -12 3 5 -4 8 -16
8 -12 -1 -23 5 -25 12 -3 8 6 12 26 12 33 0 39 8 19 28 -18 18 -46 14 -58 -8z
m45 0 c3 -5 -3 -10 -15 -10 -12 0 -18 5 -15 10 3 6 10 10 15 10 5 0 12 -4 15
-10z"/>
<path d="M5920 1100 c0 -27 5 -50 10 -50 6 0 10 9 10 19 0 30 16 33 30 6 7
-14 19 -25 27 -25 11 0 10 6 -2 31 -15 29 -15 32 1 50 25 27 -3 25 -33 -3
l-23 -21 0 21 c0 12 -4 22 -10 22 -5 0 -10 -22 -10 -50z"/>
<path d="M6250 1141 c0 -5 -10 -11 -22 -13 -19 -2 -23 -9 -23 -38 0 -32 3 -35
33 -38 l32 -3 0 50 c0 28 -4 51 -10 51 -5 0 -10 -4 -10 -9z m-5 -51 c0 -7 -6
-15 -12 -17 -8 -3 -13 4 -13 17 0 13 5 20 13 18 6 -3 12 -11 12 -18z"/>
<path d="M6470 1100 c0 -49 1 -50 30 -50 36 0 56 30 40 60 -6 11 -20 20 -30
20 -11 0 -20 5 -20 10 0 6 -4 10 -10 10 -5 0 -10 -22 -10 -50z m50 -10 c0 -21
-15 -27 -25 -10 -7 12 2 30 16 30 5 0 9 -9 9 -20z"/>
<path d="M6915 1140 c-3 -5 -19 -10 -36 -10 -27 0 -29 -2 -29 -40 0 -45 17
-55 22 -13 4 39 36 43 40 6 2 -15 10 -29 19 -31 12 -2 15 6 13 40 -1 24 -2 46
-3 51 -1 10 -19 9 -26 -3z"/>
<path d="M6022 1093 c3 -35 6 -38 36 -41 31 -3 32 -2 32 37 0 46 -17 56 -22
14 -4 -34 -22 -33 -26 2 -5 40 -24 29 -20 -12z"/>
<path d="M6110 1091 c0 -46 17 -56 22 -14 4 39 28 42 28 4 0 -17 5 -31 11 -31
6 0 9 16 7 38 -3 34 -6 37 -35 40 -32 3 -33 2 -33 -37z"/>
<path d="M6294 1116 c-17 -44 13 -78 54 -60 14 6 11 9 -13 14 l-30 8 28 1 c23
1 28 5 25 24 -4 27 -55 38 -64 13z m43 -12 c-3 -3 -12 -4 -19 -1 -8 3 -5 6 6
6 11 1 17 -2 13 -5z"/>
<path d="M6380 1091 c0 -46 17 -56 22 -14 4 39 28 42 28 4 0 -17 5 -31 11 -31
6 0 9 16 7 38 -3 34 -6 37 -35 40 -32 3 -33 2 -33 -37z"/>
<path d="M6564 1116 c-17 -44 13 -78 54 -60 14 6 11 9 -13 14 l-30 8 28 1 c23
1 28 5 25 24 -4 27 -55 38 -64 13z m43 -12 c-3 -3 -12 -4 -19 -1 -8 3 -5 6 6
6 11 1 17 -2 13 -5z"/>
<path d="M6644 1114 c3 -9 9 -27 12 -40 8 -30 34 -32 35 -1 l0 22 9 -22 c5
-13 14 -23 19 -23 5 0 13 10 16 23 4 12 9 30 11 40 8 25 -11 21 -24 -5 l-11
-23 0 23 c-1 13 -7 22 -16 22 -9 0 -15 -9 -16 -22 l0 -23 -9 23 c-5 12 -14 22
-21 22 -6 0 -8 -7 -5 -16z"/>
<path d="M6764 1116 c-17 -44 13 -78 54 -60 14 6 11 9 -13 14 l-30 8 28 1 c23
1 28 5 25 24 -4 27 -55 38 -64 13z m43 -12 c-3 -3 -12 -4 -19 -1 -8 3 -5 6 6
6 11 1 17 -2 13 -5z"/>
<path d="M6962 1093 c3 -35 6 -38 36 -41 31 -3 32 -2 32 37 0 46 -17 56 -22
14 -4 -34 -22 -33 -26 2 -5 40 -24 29 -20 -12z"/>
<path d="M7050 1091 c0 -46 17 -56 22 -14 4 39 28 42 28 4 0 -17 5 -31 11 -31
6 0 9 16 7 38 -3 34 -6 37 -35 40 -32 3 -33 2 -33 -37z"/>
<path d="M7144 1115 c-12 -30 0 -60 24 -59 12 0 22 -3 22 -8 0 -4 -12 -8 -27
-8 -19 0 -24 -3 -16 -11 6 -6 21 -9 34 -7 21 3 24 9 27 54 3 51 3 51 -28 52
-18 0 -33 -5 -36 -13z m41 -25 c0 -7 -6 -15 -12 -17 -8 -3 -13 4 -13 17 0 13
5 20 13 18 6 -3 12 -11 12 -18z"/>
<path d="M2321 928 c1 -29 4 -43 6 -30 5 27 24 28 48 2 10 -11 23 -20 29 -20
6 0 3 7 -6 16 -13 13 -14 21 -6 34 18 29 3 50 -37 50 l-35 0 1 -52z m64 22 c0
-9 -11 -16 -27 -18 -23 -3 -28 1 -28 18 0 17 5 21 28 18 16 -2 27 -9 27 -18z"/>
<path d="M2813 930 c0 -30 2 -43 4 -27 2 15 2 39 0 55 -2 15 -4 2 -4 -28z"/>
<path d="M4840 930 c0 -48 1 -50 28 -50 35 0 52 16 52 50 0 34 -17 50 -52 50
-27 0 -28 -2 -28 -50z m65 20 c10 -33 -4 -60 -31 -60 -21 0 -24 4 -24 40 0 36
3 40 24 40 16 0 27 -7 31 -20z"/>
<path d="M5250 930 c0 -48 1 -50 28 -50 35 0 52 16 52 50 0 34 -17 50 -52 50
-27 0 -28 -2 -28 -50z m65 20 c10 -33 -4 -60 -31 -60 -21 0 -24 4 -24 40 0 36
3 40 24 40 16 0 27 -7 31 -20z"/>
<path d="M2420 940 c-8 -14 -8 -26 0 -40 11 -20 44 -27 54 -12 3 5 -4 8 -16 8
-12 -1 -23 5 -25 12 -3 8 6 12 27 12 28 0 30 2 20 20 -6 11 -19 20 -30 20 -11
0 -24 -9 -30 -20z m45 0 c3 -5 -3 -10 -15 -10 -12 0 -18 5 -15 10 3 6 10 10
15 10 5 0 12 -4 15 -10z"/>
<path d="M2503 925 c7 -19 17 -34 22 -34 6 0 15 15 22 34 7 19 8 35 4 35 -5 0
-12 -12 -16 -27 l-8 -28 -10 28 c-16 40 -28 33 -14 -8z"/>
<path d="M2573 920 c0 -25 2 -35 4 -22 2 12 2 32 0 45 -2 12 -4 2 -4 -23z"/>
<path d="M2600 940 c-8 -14 -8 -26 0 -40 11 -20 44 -27 54 -12 3 5 -4 8 -16 8
-12 -1 -23 5 -25 12 -3 8 6 12 27 12 28 0 30 2 20 20 -6 11 -19 20 -30 20 -11
0 -24 -9 -30 -20z m45 0 c3 -5 -3 -10 -15 -10 -12 0 -18 5 -15 10 3 6 10 10
15 10 5 0 12 -4 15 -10z"/>
<path d="M2676 933 c4 -15 10 -35 15 -43 7 -13 8 -13 13 0 2 8 7 22 9 30 3 8
6 3 6 -12 1 -32 17 -37 25 -8 3 11 9 29 12 40 3 11 1 20 -5 20 -6 0 -11 -12
-12 -27 0 -16 -3 -21 -6 -13 -14 44 -15 45 -29 15 -11 -26 -13 -27 -14 -8 0
12 -5 25 -10 28 -7 4 -8 -3 -4 -22z"/>
<path d="M2841 916 l2 -41 6 35 c4 22 12 35 21 35 9 0 18 -13 22 -35 l6 -35
-1 40 c-2 36 -5 40 -29 41 -26 1 -28 -1 -27 -40z"/>
<path d="M2923 925 c7 -19 17 -34 22 -34 6 0 15 15 22 34 7 19 8 35 4 35 -5 0
-12 -12 -16 -27 l-8 -28 -10 28 c-16 40 -28 33 -14 -8z"/>
<path d="M2994 946 c-11 -29 1 -61 23 -64 29 -4 48 30 33 58 -12 23 -48 27
-56 6z m41 -26 c0 -13 -6 -25 -12 -27 -16 -6 -27 21 -19 43 9 23 31 11 31 -16z"/>
<path d="M3073 920 c0 -25 2 -35 4 -22 2 12 2 32 0 45 -2 12 -4 2 -4 -23z"/>
<path d="M3100 940 c-19 -36 25 -83 46 -49 4 8 0 9 -15 4 -18 -6 -21 -2 -21
25 0 27 3 31 21 25 15 -5 19 -4 15 4 -11 17 -34 13 -46 -9z"/>
<path d="M3170 940 c-8 -14 -8 -26 0 -40 11 -20 44 -27 54 -12 3 5 -4 8 -16 8
-12 -1 -23 5 -25 12 -3 8 6 12 27 12 28 0 30 2 20 20 -6 11 -19 20 -30 20 -11
0 -24 -9 -30 -20z m45 0 c3 -5 -3 -10 -15 -10 -12 0 -18 5 -15 10 3 6 10 10
15 10 5 0 12 -4 15 -10z"/>
<path d="M4940 940 c-8 -14 -8 -26 0 -40 11 -20 44 -27 54 -12 3 5 -4 8 -16 8
-12 -1 -23 5 -25 12 -3 8 6 12 27 12 28 0 30 2 20 20 -6 11 -19 20 -30 20 -11
0 -24 -9 -30 -20z m45 0 c3 -5 -3 -10 -15 -10 -12 0 -18 5 -15 10 3 6 10 10
15 10 5 0 12 -4 15 -10z"/>
<path d="M5021 917 c2 -42 2 -42 8 -8 9 49 31 52 32 4 l2 -38 6 34 c9 49 29
51 34 4 l4 -38 1 41 2 41 -45 1 -45 1 1 -42z"/>
<path d="M5134 946 c-11 -29 1 -61 23 -64 29 -4 48 30 33 58 -12 23 -48 27
-56 6z m41 -26 c0 -27 -22 -39 -31 -16 -8 22 3 49 19 43 6 -2 12 -14 12 -27z"/>
<path d="M5350 940 c-8 -14 -8 -26 0 -40 11 -20 44 -27 54 -12 3 5 -4 8 -16 8
-12 -1 -23 5 -25 12 -3 8 6 12 27 12 28 0 30 2 20 20 -6 11 -19 20 -30 20 -11
0 -24 -9 -30 -20z m45 0 c3 -5 -3 -10 -15 -10 -12 0 -18 5 -15 10 3 6 10 10
15 10 5 0 12 -4 15 -10z"/>
<path d="M5431 917 c2 -42 2 -42 8 -8 9 49 31 52 32 4 l2 -38 6 34 c9 49 29
51 34 4 l4 -38 1 41 2 41 -45 1 -45 1 1 -42z"/>
<path d="M5544 946 c-11 -29 1 -61 23 -64 29 -4 48 30 33 58 -12 23 -48 27
-56 6z m41 -26 c0 -13 -6 -25 -12 -27 -16 -6 -27 21 -19 43 9 23 31 11 31 -16z"/>
<path d="M120 811 c0 -34 4 -61 10 -61 6 0 10 11 10 24 0 21 6 25 33 28 28 3
32 6 32 33 0 28 -3 30 -42 33 l-43 3 0 -60z m70 24 c0 -20 -5 -25 -25 -25 -20
0 -25 5 -25 25 0 20 5 25 25 25 20 0 25 -5 25 -25z"/>
<path d="M318 853 c-6 -33 4 -103 16 -103 10 0 11 20 7 108 -1 18 -19 15 -23
-5z"/>
<path d="M500 855 c0 -9 -9 -15 -25 -15 -23 0 -25 -4 -25 -45 0 -25 5 -45 10
-45 6 0 10 18 10 40 0 36 3 40 25 40 18 0 25 5 25 20 0 11 -4 20 -10 20 -5 0
-10 -7 -10 -15z"/>
<path d="M668 863 c20 -4 22 -10 22 -59 0 -30 5 -54 10 -54 6 0 10 24 10 54 0
49 2 55 23 59 12 2 -3 4 -33 4 -30 0 -45 -2 -32 -4z"/>
<path d="M913 810 c0 -36 2 -55 4 -42 5 27 20 29 28 3 8 -27 98 -25 103 1 2
12 -6 21 -22 28 -36 13 -34 34 2 25 20 -5 24 -4 16 5 -16 16 -59 9 -59 -10 0
-8 12 -21 28 -28 15 -7 25 -17 22 -22 -10 -16 -64 -5 -79 16 -13 16 -12 21 1
37 9 9 11 17 6 17 -6 0 -17 -7 -24 -17 -13 -15 -15 -13 -20 18 -5 24 -6 16 -6
-31z"/>
<path d="M228 814 c-21 -45 31 -87 62 -49 7 9 8 15 2 15 -6 0 -12 -5 -14 -12
-5 -14 -38 -4 -38 12 0 5 14 10 30 10 31 0 39 17 18 38 -20 20 -48 14 -60 -14z
m50 -2 c2 -7 -6 -12 -17 -12 -21 0 -27 11 -14 24 9 9 26 2 31 -12z"/>
<path d="M364 827 c-3 -9 -4 -28 -2 -44 2 -24 8 -28 32 -28 16 0 31 6 34 13 3
11 1 11 -17 0 -18 -11 -23 -11 -31 2 -8 12 -3 16 21 18 25 3 30 7 27 25 -4 27
-55 37 -64 14z m50 -12 c4 -11 -1 -15 -19 -15 -18 0 -23 4 -19 15 4 8 12 15
19 15 7 0 15 -7 19 -15z"/>
<path d="M537 833 c-14 -14 -6 -34 18 -43 35 -13 33 -34 -2 -25 -21 5 -25 4
-17 -5 17 -17 58 -8 62 12 2 12 -6 21 -22 28 -31 11 -35 35 -6 27 11 -3 20 -1
20 4 0 10 -43 12 -53 2z"/>
<path d="M747 834 c-4 -4 -7 -12 -7 -18 0 -6 5 -5 12 2 14 14 38 16 38 3 0 -5
-10 -13 -22 -17 -50 -15 -43 -54 9 -54 34 0 34 0 31 43 -3 37 -6 42 -28 45
-14 2 -29 0 -33 -4z m35 -66 c-11 -11 -32 -3 -32 12 0 12 34 18 39 7 2 -5 -1
-13 -7 -19z"/>
<path d="M825 830 c-9 -14 3 -30 32 -41 32 -12 19 -33 -16 -24 -19 5 -23 4
-15 -5 17 -17 58 -8 62 12 2 12 -6 21 -22 28 -35 13 -34 34 0 26 17 -5 23 -3
19 4 -8 13 -52 13 -60 0z"/>
<path d="M12040 630 l0 -170 430 0 430 0 0 170 0 170 -430 0 -430 0 0 -170z
m204 44 c9 -3 16 -10 16 -15 0 -5 -8 -4 -19 2 -28 18 -51 4 -51 -31 0 -35 23
-49 51 -31 11 6 19 7 19 1 0 -16 -49 -23 -65 -10 -18 15 -20 61 -3 78 13 13
28 15 52 6z m313 -71 c-2 -16 -4 -3 -4 27 0 30 2 43 4 28 2 -16 2 -40 0 -55z
m122 49 c-12 -5 -11 -59 1 -65 6 -3 5 -4 -2 -3 -13 3 -27 61 -20 83 3 9 7 9
17 0 7 -7 9 -13 4 -15z m-344 -32 c0 -31 -3 -35 -25 -35 -19 0 -26 6 -28 23
-5 36 5 54 30 50 19 -2 23 -9 23 -38z m113 -3 l-1 -42 -4 38 c-5 47 -25 45
-34 -4 l-6 -34 -2 38 c-1 48 -23 45 -32 -4 l-6 -34 -2 40 -1 41 45 1 45 2 -2
-42z m77 3 c0 -28 -4 -36 -22 -38 -12 -2 -24 -11 -26 -20 -3 -9 -5 8 -6 39 -1
55 0 56 27 55 24 -1 27 -5 27 -36z m113 18 c3 -14 -3 -18 -23 -18 -17 0 -25
-5 -22 -12 2 -7 14 -13 26 -12 13 0 18 -3 12 -9 -27 -27 -63 18 -47 59 8 21
50 14 54 -8z m120 0 c3 -14 -3 -18 -23 -18 -17 0 -25 -5 -22 -12 2 -7 14 -13
26 -12 13 0 18 -3 12 -9 -27 -27 -63 18 -47 59 8 21 50 14 54 -8z"/>
<path d="M12294 636 c-8 -22 3 -49 19 -43 6 2 12 14 12 27 0 27 -22 39 -31 16z"/>
<path d="M12484 635 c-8 -21 3 -48 19 -43 19 7 22 58 2 58 -8 0 -18 -7 -21
-15z"/>
<path d="M12590 640 c0 -5 9 -10 20 -10 11 0 20 5 20 10 0 6 -9 10 -20 10 -11
0 -20 -4 -20 -10z"/>
<path d="M12710 640 c0 -5 9 -10 20 -10 11 0 20 5 20 10 0 6 -9 10 -20 10 -11
0 -20 -4 -20 -10z"/>
<path d="M2333 734 c-7 -3 -13 -21 -13 -40 0 -27 5 -35 24 -40 27 -6 46 1 46
18 0 7 -5 6 -15 -2 -21 -18 -45 -5 -45 25 0 31 24 43 47 24 14 -12 16 -12 11
1 -5 16 -34 23 -55 14z"/>
<path d="M2588 730 c-5 -17 3 -80 11 -80 7 0 6 79 -2 86 -3 3 -7 0 -9 -6z"/>
<path d="M2730 731 c0 -5 -9 -11 -21 -14 -30 -8 -23 -61 9 -65 20 -3 22 1 22
42 0 25 -2 46 -5 46 -3 0 -5 -4 -5 -9z m0 -46 c0 -26 -14 -33 -25 -15 -9 14 1
40 15 40 5 0 10 -11 10 -25z"/>
<path d="M2795 730 c-4 -6 -4 -14 -1 -17 3 -4 6 -1 6 5 0 7 7 12 15 12 23 0
18 -21 -12 -52 l-27 -28 35 1 c31 1 32 2 9 8 l-25 7 23 13 c15 8 22 20 20 34
-3 24 -32 35 -43 17z"/>
<path d="M5480 716 c0 -19 4 -23 20 -19 16 4 20 0 20 -17 0 -17 -4 -21 -20
-17 -11 3 -20 1 -20 -5 0 -5 10 -8 23 -6 30 4 37 47 8 55 -28 7 -27 21 2 26
19 4 18 4 -5 6 -23 1 -28 -3 -28 -23z"/>
<path d="M5554 727 c-3 -9 -4 -28 -2 -44 2 -20 8 -28 23 -28 17 0 20 7 20 40
0 30 -4 41 -18 43 -9 2 -20 -3 -23 -11z m31 -30 c0 -39 -19 -38 -23 2 -3 24 0
32 10 29 7 -3 13 -17 13 -31z"/>
<path d="M2411 683 c2 -35 2 -35 6 -8 3 16 10 33 16 37 8 5 6 8 -5 8 -14 0
-18 -8 -17 -37z"/>
<path d="M2457 714 c-4 -4 -7 -18 -7 -31 0 -27 26 -41 43 -24 9 9 8 11 -4 6
-10 -4 -20 -2 -24 4 -3 7 3 11 15 11 15 0 20 5 18 17 -3 19 -29 29 -41 17z
m28 -14 c3 -5 -1 -10 -10 -10 -9 0 -13 5 -10 10 3 6 8 10 10 10 2 0 7 -4 10
-10z"/>
<path d="M2526 711 c-3 -5 3 -7 14 -4 11 3 20 1 20 -5 0 -5 -9 -12 -20 -15
-30 -8 -25 -37 6 -37 23 0 25 3 22 32 -3 32 -29 50 -42 29z m34 -41 c0 -5 -7
-10 -15 -10 -8 0 -15 5 -15 10 0 6 7 10 15 10 8 0 15 -4 15 -10z"/>
<path d="M2627 714 c-4 -4 -7 -18 -7 -31 0 -27 26 -41 43 -24 9 9 8 11 -4 6
-10 -4 -20 -2 -24 4 -3 7 3 11 15 11 15 0 20 5 18 17 -3 19 -29 29 -41 17z
m28 -14 c3 -5 -1 -10 -10 -10 -9 0 -13 5 -10 10 3 6 8 10 10 10 2 0 7 -4 10
-10z"/>
<path d="M2892 684 c7 -28 7 -39 -4 -45 -10 -7 -10 -9 0 -9 12 0 23 20 36 70
l7 25 -15 -25 c-11 -18 -15 -21 -16 -8 0 9 -4 19 -9 23 -6 3 -5 -10 1 -31z"/>
<path d="M2947 714 c-4 -4 -7 -18 -7 -31 0 -27 26 -41 43 -24 9 9 8 11 -4 6
-10 -4 -20 -2 -24 4 -3 7 3 11 15 11 15 0 20 5 18 17 -3 19 -29 29 -41 17z
m28 -14 c3 -5 -1 -10 -10 -10 -9 0 -13 5 -10 10 3 6 8 10 10 10 2 0 7 -4 10
-10z"/>
<path d="M3016 711 c-3 -5 3 -7 14 -4 11 3 20 1 20 -5 0 -5 -9 -12 -20 -15
-30 -8 -25 -37 6 -37 23 0 25 3 22 32 -3 32 -29 50 -42 29z m34 -41 c0 -5 -7
-10 -15 -10 -8 0 -15 5 -15 10 0 6 7 10 15 10 8 0 15 -4 15 -10z"/>
<path d="M3081 683 c2 -35 2 -35 6 -8 3 16 10 33 16 37 8 5 6 8 -5 8 -14 0
-18 -8 -17 -37z"/>
<path d="M3125 710 c-8 -14 3 -30 21 -30 8 0 14 -5 14 -11 0 -6 -9 -9 -20 -6
-11 3 -20 1 -20 -5 0 -14 43 -5 48 10 2 7 -5 16 -17 19 -12 3 -21 10 -21 15 0
5 10 6 21 3 15 -5 19 -4 15 4 -9 14 -33 14 -41 1z"/>
<path d="M3226 711 c-3 -5 3 -7 14 -4 11 3 20 1 20 -5 0 -5 -9 -12 -20 -15
-30 -8 -25 -37 6 -37 23 0 25 3 22 32 -3 32 -29 50 -42 29z m34 -41 c0 -5 -7
-10 -15 -10 -8 0 -15 5 -15 10 0 6 7 10 15 10 8 0 15 -4 15 -10z"/>
<path d="M3297 713 c-4 -3 -7 -17 -7 -31 0 -16 7 -26 23 -30 22 -6 22 -6 -3
-13 l-25 -8 25 2 c22 2 25 7 28 45 3 36 0 42 -16 42 -10 0 -22 -3 -25 -7z m33
-28 c0 -26 -14 -33 -25 -15 -9 14 1 40 15 40 5 0 10 -11 10 -25z"/>
<path d="M3364 706 c-10 -26 0 -51 21 -51 16 0 20 7 20 30 0 33 -30 49 -41 21z
m36 -21 c0 -26 -14 -33 -25 -15 -9 14 1 40 15 40 5 0 10 -11 10 -25z"/>
<path d="M11567 674 c-15 -16 -5 -36 23 -45 17 -6 30 -17 30 -25 0 -17 -31
-18 -49 -1 -11 10 -13 9 -9 -3 3 -9 17 -15 34 -15 22 0 30 5 32 21 2 17 -5 24
-29 33 -26 9 -30 14 -21 23 10 10 17 10 33 -1 18 -10 20 -10 17 1 -5 14 -50
23 -61 12z"/>
<path d="M11656 652 c-3 -6 2 -8 13 -5 10 3 21 0 25 -5 3 -5 -5 -13 -19 -16
-16 -4 -25 -13 -25 -26 0 -16 6 -20 30 -18 29 2 31 5 28 38 -2 27 -8 36 -25
38 -11 2 -24 -1 -27 -6z m44 -42 c0 -13 -28 -25 -38 -16 -3 4 0 11 8 16 20 13
30 12 30 0z"/>
<path d="M11735 623 c19 -45 23 -50 29 -32 3 8 10 26 15 42 6 15 7 27 2 27 -5
0 -12 -12 -16 -27 l-8 -28 -10 28 c-6 15 -15 27 -19 27 -5 0 -1 -17 7 -37z"/>
<path d="M11804 646 c-16 -41 20 -86 47 -59 6 6 1 9 -12 9 -12 -1 -24 5 -26
12 -3 8 6 12 27 12 28 0 30 2 20 20 -12 23 -48 27 -56 6z m46 -6 c0 -5 -9 -10
-21 -10 -11 0 -17 5 -14 10 3 6 13 10 21 10 8 0 14 -4 14 -10z"/>
<path d="M2323 485 c0 -27 2 -38 4 -22 2 15 2 37 0 50 -2 12 -4 0 -4 -28z"/>
<path d="M2761 508 c-19 -51 -22 -68 -13 -68 6 0 12 6 15 13 3 10 9 10 26 0
31 -19 31 -17 14 32 -17 50 -29 57 -42 23z m29 -29 c0 -5 -4 -9 -10 -9 -5 0
-10 7 -10 16 0 8 5 12 10 9 6 -3 10 -10 10 -16z"/>
<path d="M3154 520 c-13 -13 -5 -80 10 -80 7 0 10 16 9 41 -1 45 -5 53 -19 39z"/>
<path d="M4123 485 c0 -27 2 -38 4 -22 2 15 2 37 0 50 -2 12 -4 0 -4 -28z"/>
<path d="M4550 485 c0 -45 19 -66 21 -22 l0 22 11 -22 c17 -36 28 -27 28 22 0
45 -19 66 -21 23 l0 -23 -11 23 c-17 35 -28 26 -28 -23z"/>
<path d="M4810 485 c0 -41 2 -45 24 -45 13 0 26 5 28 11 3 8 10 8 26 -2 18
-11 23 -11 34 0 11 12 10 13 -4 8 -10 -3 -20 -2 -23 3 -3 5 6 10 20 12 24 3
25 4 11 23 -13 18 -17 18 -37 6 -17 -10 -24 -10 -27 -2 -2 6 -10 11 -18 11 -8
0 -14 5 -14 10 0 6 -4 10 -10 10 -5 0 -10 -20 -10 -45z m36 -22 c-6 -14 -9
-15 -16 -4 -11 19 -1 46 13 32 5 -5 7 -18 3 -28z m69 27 c3 -5 -1 -10 -10 -10
-9 0 -13 5 -10 10 3 6 8 10 10 10 2 0 7 -4 10 -10z"/>
<path d="M2350 475 c0 -44 17 -46 23 -2 l4 32 1 -32 c3 -44 22 -42 22 2 0 31
-3 35 -25 35 -22 0 -25 -4 -25 -35z"/>
<path d="M2410 506 c0 -15 24 -66 31 -66 5 0 9 1 9 3 0 1 4 17 9 35 6 20 6 32
0 32 -5 0 -9 -7 -9 -15 0 -8 -4 -15 -10 -15 -5 0 -10 7 -10 15 0 8 -4 15 -10
15 -5 0 -10 -2 -10 -4z"/>
<path d="M2480 496 c-27 -33 18 -72 48 -42 13 13 14 20 6 34 -15 23 -38 26
-54 8z m36 -32 c-5 -13 -10 -14 -18 -6 -6 6 -8 18 -4 28 5 13 10 14 18 6 6 -6
8 -18 4 -28z"/>
<path d="M2553 475 c0 -22 2 -30 4 -17 2 12 2 30 0 40 -3 9 -5 -1 -4 -23z"/>
<path d="M2581 492 c-6 -11 -6 -24 0 -35 11 -18 44 -23 54 -7 4 6 13 5 25 -2
16 -10 22 -10 32 1 11 12 10 13 -4 8 -10 -3 -20 -2 -23 3 -4 6 5 10 20 10 23
0 24 2 15 21 -14 25 -42 21 -55 -8 -11 -26 -34 -38 -48 -24 -14 14 0 44 18 37
8 -3 15 -1 15 4 0 17 -39 11 -49 -8z m104 -2 c3 -5 -1 -10 -10 -10 -9 0 -13 5
-10 10 3 6 8 10 10 10 2 0 7 -4 10 -10z"/>
<path d="M2830 475 c0 -19 5 -35 10 -35 6 0 10 14 10 32 0 36 16 28 23 -12 4
-25 4 -25 6 2 2 38 21 46 21 9 0 -17 5 -31 10 -31 6 0 10 16 10 35 0 35 0 35
-45 35 -45 0 -45 0 -45 -35z"/>
<path d="M2940 496 c-27 -33 18 -72 48 -42 13 13 14 20 6 34 -15 23 -38 26
-54 8z m36 -32 c-5 -13 -10 -14 -18 -6 -6 6 -8 18 -4 28 5 13 10 14 18 6 6 -6
8 -18 4 -28z"/>
<path d="M3010 475 c0 -31 3 -35 25 -35 22 0 25 4 25 35 0 44 -17 46 -23 3
l-4 -33 -1 33 c-3 43 -22 41 -22 -3z"/>
<path d="M3080 475 c0 -44 17 -46 23 -2 l4 32 1 -32 c3 -44 22 -42 22 2 0 31
-3 35 -25 35 -22 0 -25 -4 -25 -35z"/>
<path d="M4150 475 c0 -44 17 -46 23 -2 l4 32 1 -32 c3 -44 22 -42 22 2 0 31
-3 35 -25 35 -22 0 -25 -4 -25 -35z"/>
<path d="M4210 506 c0 -15 24 -66 31 -66 5 0 9 1 9 3 0 1 4 17 9 35 6 20 6 32
0 32 -5 0 -9 -7 -9 -15 0 -8 -4 -15 -10 -15 -5 0 -10 7 -10 15 0 8 -4 15 -10
15 -5 0 -10 -2 -10 -4z"/>
<path d="M4280 496 c-27 -33 18 -72 48 -42 13 13 14 20 6 34 -15 23 -38 26
-54 8z m36 -32 c-5 -13 -10 -14 -18 -6 -6 6 -8 18 -4 28 5 13 10 14 18 6 6 -6
8 -18 4 -28z"/>
<path d="M4353 475 c0 -22 2 -30 4 -17 2 12 2 30 0 40 -3 9 -5 -1 -4 -23z"/>
<path d="M4381 492 c-6 -11 -6 -24 0 -35 11 -18 44 -23 54 -7 4 6 13 5 25 -2
16 -10 22 -10 32 1 11 12 10 13 -4 8 -10 -3 -20 -2 -23 3 -4 6 5 10 20 10 23
0 24 2 15 21 -14 25 -42 21 -55 -8 -11 -26 -34 -38 -48 -24 -14 14 0 44 18 37
8 -3 15 -1 15 4 0 17 -39 11 -49 -8z m104 -2 c3 -5 -1 -10 -10 -10 -9 0 -13 5
-10 10 3 6 8 10 10 10 2 0 7 -4 10 -10z"/>
<path d="M4630 475 c0 -31 3 -35 25 -35 22 0 25 4 25 35 0 44 -17 46 -23 3
l-4 -33 -1 33 c-3 43 -22 41 -22 -3z"/>
<path d="M4700 475 c0 -19 5 -35 10 -35 6 0 10 14 10 32 0 36 16 28 23 -12 4
-25 4 -25 6 2 2 38 21 46 21 9 0 -17 5 -31 10 -31 6 0 10 16 10 35 0 35 0 35
-45 35 -45 0 -45 0 -45 -35z"/>
<path d="M4950 475 c0 -19 5 -35 10 -35 6 0 10 14 10 31 0 26 3 31 20 26 11
-3 20 -1 20 4 0 5 -13 9 -30 9 -28 0 -30 -3 -30 -35z"/>
<path d="M131 414 c-24 -64 -24 -64 -12 -64 5 0 13 9 16 20 4 12 15 20 30 20
14 0 25 -7 28 -20 3 -11 10 -20 16 -20 6 0 1 25 -11 60 -12 33 -27 60 -34 60
-6 0 -21 -25 -33 -56z m49 -6 c0 -5 -7 -8 -15 -8 -15 0 -20 21 -8 33 7 7 23
-11 23 -25z"/>
<path d="M233 410 c0 -36 2 -50 4 -32 2 17 2 47 0 65 -2 17 -4 3 -4 -33z"/>
<path d="M260 410 c0 -33 4 -60 10 -60 6 0 10 27 10 60 0 33 -4 60 -10 60 -6
0 -10 -27 -10 -60z"/>
<path d="M348 463 c20 -4 22 -10 22 -59 0 -30 5 -54 10 -54 6 0 10 24 10 54 0
49 2 55 23 59 12 2 -3 4 -33 4 -30 0 -45 -2 -32 -4z"/>
<path d="M590 410 c0 -33 4 -60 10 -60 6 0 10 10 11 23 l0 22 16 -22 c22 -33
36 -28 19 6 -14 26 -14 30 0 41 8 7 12 15 9 18 -3 3 -14 -3 -25 -13 -20 -18
-20 -17 -20 13 0 18 -4 32 -10 32 -6 0 -10 -27 -10 -60z"/>
<path d="M425 430 c-4 -6 -4 -14 0 -18 4 -4 10 -1 12 6 5 14 33 16 33 2 0 -5
-11 -13 -26 -16 -18 -5 -24 -12 -22 -28 2 -16 11 -22 39 -24 l35 -3 -5 43 c-5
37 -9 43 -33 46 -14 2 -29 -2 -33 -8z m37 -62 c-6 -6 -16 -7 -23 -3 -9 6 -7
12 7 22 21 15 34 -1 16 -19z"/>
<path d="M517 433 c-14 -14 -6 -34 18 -43 34 -13 33 -34 -1 -26 -17 5 -23 3
-19 -4 10 -16 52 -12 59 6 9 23 8 24 -19 34 -31 12 -34 34 -4 25 15 -5 19 -4
15 4 -8 12 -39 15 -49 4z"/>
<path d="M677 433 c-14 -14 -6 -34 18 -43 34 -13 33 -34 -1 -26 -17 5 -23 3
-19 -4 10 -16 52 -12 59 6 9 23 8 24 -19 34 -31 12 -34 34 -4 25 15 -5 19 -4
15 4 -8 12 -39 15 -49 4z"/>
<path d="M2339 293 c-8 -9 -9 -14 -2 -10 7 5 13 -1 16 -15 3 -17 5 -14 6 10 1
37 -1 39 -20 15z"/>
<path d="M2394 296 c-3 -8 -4 -21 -1 -28 3 -7 6 -3 6 10 1 12 7 22 15 22 8 0
17 -10 19 -22 5 -20 5 -20 4 2 -2 28 -34 40 -43 16z"/>
<path d="M2494 296 c-8 -21 2 -46 18 -45 10 0 10 2 1 6 -18 7 -16 43 1 43 8 0
17 -10 19 -22 5 -20 5 -20 4 2 -2 28 -34 40 -43 16z"/>
<path d="M2564 296 c-8 -21 2 -46 18 -45 10 0 10 2 1 6 -18 7 -16 43 1 43 8 0
17 -10 19 -22 5 -20 5 -20 4 2 -2 28 -34 40 -43 16z"/>
<path d="M4120 282 c0 -28 2 -30 28 -23 17 5 27 14 27 27 0 13 -8 20 -27 22
-25 3 -28 0 -28 -26z m50 3 c0 -8 -9 -15 -20 -15 -11 0 -20 7 -20 15 0 8 9 15
20 15 11 0 20 -7 20 -15z"/>
<path d="M4205 300 c-9 -14 10 -36 35 -43 28 -7 25 2 -5 13 -14 5 -25 14 -25
20 0 13 37 13 43 0 3 -6 4 -5 3 2 -3 17 -42 23 -51 8z"/>
<path d="M4362 298 c-6 -6 -12 -17 -12 -22 0 -6 5 -3 11 7 11 19 44 23 52 7 3
-6 4 -5 3 2 -3 18 -38 22 -54 6z"/>
<path d="M4440 282 c0 -27 2 -28 33 -23 31 5 31 6 5 9 -16 2 -28 9 -28 17 0 8
12 16 28 18 25 4 25 4 -5 6 -30 1 -33 -2 -33 -27z"/>
<path d="M4578 303 c6 -2 18 -2 25 0 6 3 1 5 -13 5 -14 0 -19 -2 -12 -5z"/>
<path d="M4635 301 c-4 -7 0 -8 10 -4 10 3 21 0 27 -8 8 -12 9 -11 5 1 -5 18
-33 25 -42 11z"/>
<path d="M4726 295 c-3 -8 -1 -15 4 -15 6 0 10 7 10 15 0 8 -2 15 -4 15 -2 0
-6 -7 -10 -15z"/>
<path d="M4777 303 c-3 -5 5 -8 18 -8 13 0 21 3 18 8 -2 4 -10 7 -18 7 -8 0
-16 -3 -18 -7z"/>
<path d="M4560 271 c0 -5 9 -7 20 -4 11 3 20 7 20 9 0 2 -9 4 -20 4 -11 0 -20
-4 -20 -9z"/>
<path d="M4298 253 c6 -2 18 -2 25 0 6 3 1 5 -13 5 -14 0 -19 -2 -12 -5z"/>
<path d="M4713 243 c9 -2 23 -2 30 0 6 3 -1 5 -18 5 -16 0 -22 -2 -12 -5z"/>
<path d="M3910 223 c0 -4 14 -22 32 -40 l32 -33 28 27 c15 15 28 33 28 42 0
10 -8 7 -28 -12 l-28 -27 -24 25 c-23 24 -40 32 -40 18z"/>
</g>
</svg>
