<?xml version="1.0" standalone="no"?>
<!DOCTYPE svg PUBLIC "-//W3C//DTD SVG 20010904//EN"
 "http://www.w3.org/TR/2001/REC-SVG-20010904/DTD/svg10.dtd">
<svg version="1.0" xmlns="http://www.w3.org/2000/svg"
 width="1094.000000pt" height="369.000000pt" viewBox="0 0 1094.000000 369.000000"
 preserveAspectRatio="xMidYMid meet">

<g transform="translate(0.000000,369.000000) scale(0.100000,-0.100000)"
fill="#000000" stroke="none">
<path d="M4054 3601 c3 -5 -1 -14 -9 -21 -22 -18 -9 -30 20 -17 31 15 34 47 4
47 -11 0 -18 -4 -15 -9z"/>
<path d="M1030 3581 c0 -12 -8 -21 -22 -24 l-23 -4 23 -8 c12 -4 22 -16 22
-26 0 -11 5 -19 10 -19 6 0 10 9 10 20 0 13 7 20 20 20 11 0 20 5 20 10 0 6
-9 10 -20 10 -13 0 -20 7 -20 20 0 11 -4 20 -10 20 -5 0 -10 -9 -10 -19z"/>
<path d="M3523 3569 l-31 -31 33 -29 c43 -38 67 -37 30 1 l-29 30 29 30 c39
41 10 40 -32 -1z"/>
<path d="M3755 3570 l29 -30 -29 -30 c-20 -21 -24 -30 -14 -30 9 0 28 14 44
30 l29 30 -29 30 c-16 17 -35 30 -44 30 -10 0 -6 -9 14 -30z"/>
<path d="M10710 3581 c0 -12 -8 -21 -22 -24 l-23 -4 23 -8 c12 -4 22 -16 22
-26 0 -11 5 -19 10 -19 6 0 10 9 10 20 0 13 7 20 20 20 11 0 20 5 20 10 0 6
-9 10 -20 10 -13 0 -20 7 -20 20 0 11 -4 20 -10 20 -5 0 -10 -9 -10 -19z"/>
<path d="M222 3578 c-16 -16 -15 -63 2 -78 18 -14 58 -10 64 8 3 11 1 11 -17
0 -17 -11 -23 -10 -37 4 -36 36 8 90 45 56 11 -11 13 -10 9 2 -6 19 -49 25
-66 8z"/>
<path d="M518 3579 c-7 -21 5 -89 16 -89 9 0 12 35 7 93 -1 11 -19 8 -23 -4z"/>
<path d="M690 3580 c0 -5 -9 -10 -20 -10 -10 0 -24 -8 -30 -17 -10 -17 -10
-17 -20 0 -25 41 -83 0 -60 -43 11 -20 44 -27 54 -12 3 5 -4 8 -16 8 -12 -1
-23 5 -25 12 -8 22 55 15 67 -8 6 -12 21 -20 35 -20 23 0 25 4 25 50 0 28 -2
50 -5 50 -3 0 -5 -4 -5 -10z m-85 -30 c3 -5 -3 -10 -15 -10 -12 0 -18 5 -15
10 3 6 10 10 15 10 5 0 12 -4 15 -10z m80 -20 c0 -27 -22 -39 -31 -16 -8 22 3
49 19 43 6 -2 12 -14 12 -27z"/>
<path d="M9737 3543 c-9 -25 -15 -48 -12 -51 2 -3 7 3 11 12 8 20 54 22 54 1
0 -8 5 -15 10 -15 13 0 13 1 -10 54 -10 25 -23 46 -27 46 -5 0 -16 -21 -26
-47z m31 -12 c-15 -5 -19 4 -11 24 6 18 7 18 13 -1 4 -10 3 -21 -2 -23z"/>
<path d="M9870 3580 c0 -5 -9 -10 -20 -10 -10 0 -24 -9 -30 -20 -15 -28 4 -60
35 -60 23 0 25 4 25 50 0 28 -2 50 -5 50 -3 0 -5 -4 -5 -10z m-5 -50 c0 -27
-22 -39 -31 -16 -8 22 3 49 19 43 6 -2 12 -14 12 -27z"/>
<path d="M9950 3580 c0 -5 -9 -10 -20 -10 -10 0 -24 -9 -30 -20 -15 -28 4 -60
35 -60 23 0 25 4 25 50 0 28 -2 50 -5 50 -3 0 -5 -4 -5 -10z m-5 -50 c0 -27
-22 -39 -31 -16 -8 22 3 49 19 43 6 -2 12 -14 12 -27z"/>
<path d="M10032 3578 c-16 -16 -15 -63 2 -78 18 -14 58 -10 64 8 3 11 1 11
-17 0 -17 -11 -23 -10 -37 4 -36 36 8 90 45 56 11 -11 13 -10 9 2 -6 19 -49
25 -66 8z"/>
<path d="M10578 3579 c-7 -21 5 -89 16 -89 9 0 12 35 7 93 -1 11 -19 8 -23 -4z"/>
<path d="M311 3528 l1 -43 8 34 c4 18 14 37 22 42 9 6 7 9 -9 9 -20 0 -23 -5
-22 -42z"/>
<path d="M360 3550 c-8 -14 -8 -26 0 -40 11 -20 44 -27 54 -12 3 5 -4 8 -16 8
-12 -1 -23 5 -25 12 -3 8 6 12 27 12 28 0 30 2 20 20 -6 11 -19 20 -30 20 -11
0 -24 -9 -30 -20z m45 0 c3 -5 -3 -10 -15 -10 -12 0 -18 5 -15 10 3 6 10 10
15 10 5 0 12 -4 15 -10z"/>
<path d="M446 3562 c-3 -6 2 -8 13 -5 10 3 21 0 25 -5 3 -5 -5 -13 -19 -16
-16 -4 -25 -13 -25 -26 0 -16 6 -20 30 -18 29 2 31 5 28 38 -2 27 -8 36 -25
38 -11 2 -24 -1 -27 -6z m44 -42 c0 -13 -28 -25 -38 -16 -3 4 0 11 8 16 20 13
30 12 30 0z"/>
<path d="M740 3563 c0 -4 14 -22 32 -40 l32 -33 28 27 c15 15 28 33 28 42 0
10 -8 7 -28 -12 l-28 -27 -24 25 c-23 24 -40 32 -40 18z"/>
<path d="M10124 3556 c-11 -29 1 -61 23 -64 29 -4 48 30 33 58 -12 23 -48 27
-56 6z m41 -26 c0 -27 -22 -39 -31 -16 -8 22 3 49 19 43 6 -2 12 -14 12 -27z"/>
<path d="M10201 3527 c2 -42 2 -42 8 -8 9 49 31 52 32 4 l2 -38 6 34 c9 49 29
51 34 4 l4 -38 1 41 2 41 -45 1 -45 1 1 -42z"/>
<path d="M10311 3527 c2 -42 2 -42 8 -8 9 49 31 52 32 4 l2 -38 6 34 c9 49 29
51 34 4 l4 -38 1 41 2 41 -45 1 -45 1 1 -42z"/>
<path d="M10420 3550 c-8 -14 -8 -26 0 -40 11 -20 44 -27 54 -12 3 5 -4 8 -16
8 -12 -1 -23 5 -25 12 -3 8 6 12 27 12 28 0 30 2 20 20 -6 11 -19 20 -30 20
-11 0 -24 -9 -30 -20z m45 0 c3 -5 -3 -10 -15 -10 -12 0 -18 5 -15 10 3 6 10
10 15 10 5 0 12 -4 15 -10z"/>
<path d="M10501 3528 c2 -43 2 -43 8 -8 4 22 12 35 21 35 9 0 18 -13 22 -35
l6 -35 -1 40 c-2 36 -5 40 -29 43 -27 3 -28 2 -27 -40z"/>
<path d="M3973 3516 c-33 -16 -30 -46 5 -46 18 0 23 3 14 9 -10 6 -10 10 3 21
16 13 21 31 8 29 -5 -1 -18 -6 -30 -13z"/>
<path d="M1028 3213 c453 -2 1191 -2 1640 0 449 1 79 2 -823 2 -902 0 -1270
-1 -817 -2z"/>
<path d="M3494 3045 c0 -93 2 -133 3 -88 2 45 2 122 0 170 -1 48 -3 12 -3 -82z"/>
<path d="M205 3035 l0 -160 1638 0 1637 0 -1635 2 -1635 3 -3 158 -3 157 1
-160z"/>
<path d="M3830 3060 c0 -91 3 -110 15 -110 12 0 15 19 15 110 0 91 -3 110 -15
110 -12 0 -15 -19 -15 -110z"/>
<path d="M5350 3062 l0 -109 50 -1 c42 -1 52 3 70 25 46 59 11 141 -56 130
-33 -6 -34 -5 -34 29 0 24 -5 34 -15 34 -12 0 -15 -19 -15 -108z m94 12 c29
-28 11 -104 -24 -104 -18 0 -40 33 -40 60 0 27 22 60 40 60 5 0 16 -7 24 -16z"/>
<path d="M5520 3155 c0 -8 7 -15 15 -15 8 0 15 7 15 15 0 8 -7 15 -15 15 -8 0
-15 -7 -15 -15z"/>
<path d="M5850 3137 c0 -32 -1 -33 -34 -29 -66 8 -99 -85 -50 -139 12 -14 30
-18 65 -17 l49 1 0 108 c0 90 -3 109 -15 109 -10 0 -15 -10 -15 -33z m-19 -57
c28 -16 27 -85 -3 -101 -18 -10 -24 -8 -40 11 -22 27 -23 49 -2 78 17 25 19
26 45 12z"/>
<path d="M6500 3060 c0 -91 3 -110 15 -110 11 0 15 11 15 43 0 76 18 105 55
91 11 -5 15 -22 15 -70 0 -50 3 -64 15 -64 12 0 15 14 15 69 0 80 -12 97 -65
88 -34 -6 -35 -5 -35 29 0 24 -5 34 -15 34 -12 0 -15 -19 -15 -110z"/>
<path d="M7340 3060 c0 -91 3 -110 15 -110 12 0 15 19 15 110 0 91 -3 110 -15
110 -12 0 -15 -19 -15 -110z"/>
<path d="M7400 3060 c0 -91 3 -110 15 -110 12 0 15 19 15 110 0 91 -3 110 -15
110 -12 0 -15 -19 -15 -110z"/>
<path d="M4083 3153 c-7 -3 -13 -13 -13 -23 0 -10 -6 -21 -12 -24 -10 -5 -10
-7 0 -12 7 -4 12 -27 12 -63 0 -59 11 -81 42 -81 22 0 24 16 3 24 -11 4 -15
21 -15 61 0 42 3 55 15 55 8 0 15 5 15 10 0 6 -6 10 -14 10 -8 0 -16 11 -18
23 -2 14 -8 22 -15 20z"/>
<path d="M4767 3153 c-4 -3 -7 -14 -7 -24 0 -9 -6 -20 -12 -22 -10 -4 -10 -7
-1 -14 7 -5 13 -38 15 -73 3 -64 3 -65 33 -68 27 -2 28 -1 13 11 -22 17 -26
122 -5 131 10 5 10 7 0 12 -7 3 -13 17 -13 30 0 23 -10 31 -23 17z"/>
<path d="M7103 3153 c-7 -3 -13 -13 -13 -23 0 -10 -6 -21 -12 -24 -10 -5 -10
-7 0 -12 7 -3 12 -26 12 -59 0 -69 7 -85 36 -85 27 0 32 15 9 24 -11 4 -15 21
-15 61 0 42 3 55 15 55 8 0 15 5 15 10 0 6 -6 10 -14 10 -8 0 -16 11 -18 23
-2 14 -8 22 -15 20z"/>
<path d="M2862 3107 c-26 -27 -27 -40 -7 -57 19 -16 32 -5 16 13 -8 11 -7 18
8 31 21 19 41 14 41 -10 0 -16 16 -19 25 -3 9 14 -23 49 -45 49 -9 0 -26 -10
-38 -23z"/>
<path d="M3110 3065 c0 -37 4 -65 10 -65 6 0 10 11 10 25 0 23 4 25 45 25 41
0 45 -2 45 -25 0 -14 5 -25 10 -25 14 0 12 104 -2 118 -16 16 -28 15 -28 -3 0
-9 -9 -15 -25 -15 -16 0 -25 6 -25 15 0 8 -9 15 -20 15 -18 0 -20 -7 -20 -65z"/>
<path d="M2587 3114 c-14 -14 -7 -26 8 -14 12 10 19 10 27 2 9 -9 4 -20 -22
-47 l-34 -35 45 1 c43 2 43 2 9 8 l-34 6 27 18 c19 13 27 25 25 40 -3 22 -36
35 -51 21z"/>
<path d="M3900 3028 c0 -63 3 -78 15 -78 11 0 15 13 15 54 0 58 20 92 47 82 8
-3 17 -6 19 -6 2 0 4 -29 4 -65 0 -51 3 -65 15 -65 20 0 22 132 2 148 -7 6
-36 10 -65 10 l-52 -1 0 -79z"/>
<path d="M4164 3089 c-11 -13 -19 -35 -19 -59 0 -24 8 -46 19 -59 26 -28 79
-28 108 1 27 27 9 36 -25 13 -27 -18 -53 -12 -68 16 -9 18 -5 19 51 19 52 0
60 3 60 19 0 10 -9 30 -21 45 -26 33 -77 36 -105 5z m80 -15 c25 -25 19 -34
-24 -34 -43 0 -55 20 -22 39 23 14 28 14 46 -5z"/>
<path d="M4320 3029 c0 -64 3 -79 15 -79 12 0 15 13 15 59 0 59 17 91 40 76 5
-3 10 1 10 9 0 11 -11 15 -40 14 l-40 0 0 -79z"/>
<path d="M4420 3029 c0 -64 3 -79 15 -79 12 0 15 13 15 60 0 50 3 61 21 70 34
19 49 -4 49 -71 0 -46 3 -59 15 -59 12 0 15 14 15 64 0 81 -13 96 -81 95 l-49
-2 0 -78z"/>
<path d="M4600 3090 c-13 -13 -20 -33 -20 -60 0 -27 7 -47 20 -60 26 -26 81
-26 105 0 25 28 10 38 -25 17 -33 -20 -70 -10 -70 18 0 11 13 15 55 15 52 0
55 1 55 25 0 34 -33 65 -70 65 -17 0 -39 -9 -50 -20z m71 -10 c34 -19 23 -40
-21 -40 -43 0 -55 20 -22 39 21 13 20 13 43 1z"/>
<path d="M4920 3108 c0 -22 61 -154 72 -156 10 -2 23 20 42 70 30 84 31 88 13
88 -7 0 -21 -25 -31 -56 -10 -31 -21 -53 -24 -49 -4 3 -14 27 -23 53 -9 27
-23 48 -32 50 -10 2 -17 2 -17 0z"/>
<path d="M5100 3090 c-13 -13 -20 -33 -20 -60 0 -27 7 -47 20 -60 26 -26 81
-26 105 0 25 28 10 38 -25 17 -33 -20 -70 -10 -70 18 0 11 13 15 55 15 52 0
55 1 55 25 0 34 -33 65 -70 65 -17 0 -39 -9 -50 -20z m71 -10 c34 -19 23 -40
-21 -40 -43 0 -55 20 -22 39 21 13 20 13 43 1z"/>
<path d="M5250 3029 c0 -64 3 -79 15 -79 11 0 15 13 15 53 0 55 16 91 39 85 7
-2 16 2 18 9 3 9 -9 12 -41 11 l-46 -1 0 -78z"/>
<path d="M5520 3030 c0 -64 3 -80 15 -80 12 0 15 16 15 80 0 64 -3 80 -15 80
-12 0 -15 -16 -15 -80z"/>
<path d="M5590 3030 c0 -64 3 -80 15 -80 12 0 15 13 15 58 0 74 21 100 54 66
11 -10 16 -34 16 -70 0 -41 4 -54 15 -54 19 0 21 93 2 130 -14 28 -59 39 -83
19 -10 -8 -14 -8 -14 0 0 6 -4 11 -10 11 -6 0 -10 -33 -10 -80z"/>
<path d="M5920 3046 c0 -81 12 -95 80 -94 l50 1 0 79 c0 63 -3 78 -15 78 -12
0 -15 -13 -15 -60 0 -50 -3 -61 -21 -70 -34 -19 -49 4 -49 71 0 46 -3 59 -15
59 -12 0 -15 -14 -15 -64z"/>
<path d="M6090 3028 c0 -63 3 -78 15 -78 12 0 15 13 15 60 0 50 3 61 21 70 34
19 49 -4 49 -71 0 -46 3 -59 15 -59 21 0 21 107 -1 138 -12 18 -23 22 -65 20
l-49 -2 0 -78z"/>
<path d="M6264 3089 c-25 -28 -25 -91 1 -119 14 -16 28 -21 52 -18 35 4 44
-11 18 -32 -15 -12 -55 -5 -55 11 0 5 -7 9 -15 9 -22 0 -19 -27 4 -40 30 -16
76 -12 94 8 13 14 17 39 17 108 l0 90 -49 2 c-38 1 -52 -3 -67 -19z m76 -19
c25 -25 25 -51 2 -81 -44 -54 -92 33 -49 89 13 17 24 15 47 -8z"/>
<path d="M6681 3084 c-43 -55 -11 -134 55 -134 40 0 93 42 61 48 -9 2 -24 -4
-33 -12 -19 -20 -24 -20 -52 0 -36 25 -26 34 38 34 52 0 60 3 60 19 0 34 -38
71 -75 71 -24 0 -39 -7 -54 -26z m87 -21 c14 -23 14 -23 -27 -23 -42 0 -53 14
-29 38 17 17 38 11 56 -15z"/>
<path d="M6840 3028 c0 -63 3 -78 15 -78 12 0 15 14 15 65 0 64 3 70 38 66 6
-1 12 5 12 13 0 11 -11 15 -40 13 l-40 -1 0 -78z"/>
<path d="M6946 3094 c-9 -8 -16 -21 -16 -28 0 -17 33 -46 51 -46 9 0 23 -6 33
-13 16 -12 16 -14 2 -26 -16 -13 -56 -6 -56 10 0 5 -7 9 -15 9 -22 0 -19 -27
4 -40 31 -16 76 -12 95 9 27 30 16 54 -34 72 -47 18 -60 33 -35 42 18 7 45 -1
45 -14 0 -5 7 -9 15 -9 22 0 19 27 -4 40 -29 15 -67 12 -85 -6z"/>
<path d="M7181 3084 c-43 -55 -11 -134 55 -134 40 0 93 42 61 48 -9 2 -24 -4
-33 -12 -19 -20 -24 -20 -52 0 -36 25 -26 34 38 34 52 0 60 3 60 19 0 34 -38
71 -75 71 -24 0 -39 -7 -54 -26z m87 -21 c14 -23 14 -23 -27 -23 -42 0 -53 14
-29 38 17 17 38 11 56 -15z"/>
<path d="M7481 3084 c-43 -55 -11 -134 55 -134 40 0 93 42 61 48 -9 2 -24 -4
-33 -12 -19 -20 -24 -20 -52 0 -36 25 -26 34 38 34 52 0 60 3 60 19 0 34 -38
71 -75 71 -24 0 -39 -7 -54 -26z m87 -21 c14 -23 14 -23 -27 -23 -42 0 -53 14
-29 38 17 17 38 11 56 -15z"/>
<path d="M7640 3028 c0 -63 3 -78 15 -78 12 0 15 13 15 60 0 50 3 61 21 70 34
19 49 -4 49 -71 0 -46 3 -59 15 -59 21 0 21 107 -1 138 -12 18 -23 22 -65 20
l-49 -2 0 -78z"/>
<path d="M373 3083 c9 -2 25 -2 35 0 9 3 1 5 -18 5 -19 0 -27 -2 -17 -5z"/>
<path d="M728 3083 c12 -2 32 -2 45 0 12 2 2 4 -23 4 -25 0 -35 -2 -22 -4z"/>
<path d="M2880 3072 c0 -6 6 -12 13 -15 8 -3 6 -11 -9 -27 -22 -23 -44 -20
-44 6 0 8 -4 14 -10 14 -14 0 -13 -33 2 -48 19 -19 42 -14 68 13 19 20 22 30
14 42 -12 20 -34 29 -34 15z"/>
<path d="M500 3055 c0 -8 2 -15 4 -15 2 0 6 7 10 15 3 8 1 15 -4 15 -6 0 -10
-7 -10 -15z"/>
<path d="M547 3063 c-3 -5 5 -8 18 -8 13 0 21 3 18 8 -2 4 -10 7 -18 7 -8 0
-16 -3 -18 -7z"/>
<path d="M741 3054 c0 -11 3 -14 6 -6 3 7 2 16 -1 19 -3 4 -6 -2 -5 -13z"/>
<path d="M797 3063 c-3 -5 5 -8 18 -8 13 0 21 3 18 8 -2 4 -10 7 -18 7 -8 0
-16 -3 -18 -7z"/>
<path d="M877 3063 c-12 -12 -7 -22 16 -33 20 -10 20 -10 5 3 -24 19 -23 31 2
24 11 -3 18 -1 14 4 -6 11 -28 12 -37 2z"/>
<path d="M945 3048 c2 -10 -1 -21 -6 -24 -5 -3 -9 -13 -8 -22 0 -12 3 -11 9 6
12 28 27 28 35 1 4 -11 9 -18 12 -16 3 3 0 14 -5 24 -8 13 -6 23 6 37 17 19
16 19 -10 2 -20 -13 -27 -14 -31 -4 -2 7 -3 5 -2 -4z"/>
<path d="M1027 3063 c-12 -12 -7 -22 16 -33 20 -10 20 -10 5 3 -24 19 -23 31
2 24 11 -3 18 -1 14 4 -6 11 -28 12 -37 2z"/>
<path d="M350 3036 c0 -13 3 -17 8 -10 4 7 18 14 32 16 23 3 22 4 -7 9 -28 5
-33 3 -33 -15z"/>
<path d="M3308 3038 l22 -22 22 22 22 22 -44 0 -44 0 22 -22z"/>
<path d="M530 3023 c0 -12 3 -14 8 -7 4 7 18 14 32 17 21 4 20 4 -7 6 -25 1
-33 -3 -33 -16z"/>
<path d="M791 3031 c-22 -14 -5 -41 24 -39 19 2 25 8 25 25 0 24 -23 31 -49
14z m39 -11 c0 -12 -28 -25 -36 -17 -9 9 6 27 22 27 8 0 14 -5 14 -10z"/>
<path d="M4830 3025 c0 -11 11 -15 40 -15 29 0 40 4 40 15 0 11 -11 15 -40 15
-29 0 -40 -4 -40 -15z"/>
<path d="M490 3011 c0 -6 4 -13 10 -16 6 -3 7 1 4 9 -7 18 -14 21 -14 7z"/>
<path d="M731 3004 c0 -11 3 -14 6 -6 3 7 2 16 -1 19 -3 4 -6 -2 -5 -13z"/>
<path d="M860 3012 c0 -18 29 -27 43 -13 9 9 8 11 -7 5 -11 -4 -21 -2 -27 7
-6 10 -9 11 -9 1z"/>
<path d="M1010 3012 c0 -18 29 -27 43 -13 9 9 8 11 -7 5 -11 -4 -21 -2 -27 7
-6 10 -9 11 -9 1z"/>
<path d="M548 2993 c7 -3 16 -2 19 1 4 3 -2 6 -13 5 -11 0 -14 -3 -6 -6z"/>
<path d="M3810 2694 l0 -65 32 3 c60 6 72 89 14 96 -14 2 -26 10 -26 18 0 8
-4 14 -10 14 -6 0 -10 -29 -10 -66z m64 1 c8 -23 -4 -45 -25 -45 -14 0 -19 7
-19 30 0 23 5 30 19 30 10 0 21 -7 25 -15z"/>
<path d="M4110 2695 c0 -37 4 -65 10 -65 6 0 10 9 10 20 0 11 3 20 8 20 4 0
13 -9 20 -20 7 -11 17 -20 23 -20 6 0 1 15 -10 34 -19 30 -19 35 -6 46 9 7 13
15 10 18 -3 3 -14 -3 -25 -13 -20 -18 -20 -17 -20 13 0 18 -4 32 -10 32 -6 0
-10 -28 -10 -65z"/>
<path d="M4200 2695 c0 -37 4 -65 10 -65 6 0 10 9 10 20 0 11 3 20 8 20 4 0
13 -9 20 -20 7 -11 17 -20 23 -20 6 0 1 15 -10 34 -19 30 -19 35 -6 46 9 7 13
15 10 18 -3 3 -14 -3 -25 -13 -20 -18 -20 -17 -20 13 0 18 -4 32 -10 32 -6 0
-10 -28 -10 -65z"/>
<path d="M4550 2745 c0 -8 -8 -15 -18 -15 -25 0 -42 -20 -42 -50 0 -34 17 -50
52 -50 28 0 28 0 28 65 0 37 -4 65 -10 65 -5 0 -10 -7 -10 -15z m0 -65 c0 -23
-4 -30 -20 -30 -16 0 -20 7 -20 30 0 23 4 30 20 30 16 0 20 -7 20 -30z"/>
<path d="M4950 2695 c0 -37 4 -65 10 -65 6 0 10 28 10 65 0 37 -4 65 -10 65
-6 0 -10 -28 -10 -65z"/>
<path d="M5190 2695 l0 -65 35 0 c28 0 38 5 47 25 16 36 -3 75 -37 75 -16 0
-25 6 -25 15 0 8 -4 15 -10 15 -6 0 -10 -28 -10 -65z m65 -15 c0 -16 -6 -26
-18 -28 -19 -4 -32 20 -23 44 9 25 41 13 41 -16z"/>
<path d="M5380 2695 c0 -37 4 -65 10 -65 6 0 10 9 10 20 0 11 3 20 8 20 4 0
13 -9 20 -20 20 -32 34 -23 17 11 -15 29 -15 32 1 50 22 24 -1 27 -28 2 -17
-15 -18 -14 -18 15 0 18 -4 32 -10 32 -6 0 -10 -28 -10 -65z"/>
<path d="M5690 2745 c0 -8 -8 -15 -18 -15 -25 0 -42 -20 -42 -50 0 -34 17 -50
52 -50 28 0 28 0 28 65 0 37 -4 65 -10 65 -5 0 -10 -7 -10 -15z m0 -65 c0 -23
-4 -30 -20 -30 -16 0 -20 7 -20 30 0 23 4 30 20 30 16 0 20 -7 20 -30z"/>
<path d="M5730 2750 c0 -5 5 -10 10 -10 6 0 10 5 10 10 0 6 -4 10 -10 10 -5 0
-10 -4 -10 -10z"/>
<path d="M5781 2748 c0 -10 -6 -18 -13 -18 -9 0 -9 -3 0 -12 7 -7 12 -29 12
-50 0 -27 4 -38 15 -38 8 0 15 5 15 10 0 6 -4 10 -10 10 -15 0 -12 58 3 63 7
2 16 -11 22 -36 13 -51 32 -58 43 -15 l9 33 7 -32 c12 -54 32 -37 52 42 9 37
-12 30 -23 -7 l-10 -33 -7 33 c-9 36 -29 38 -34 4 -4 -29 -20 -28 -24 1 -2 14
-11 23 -25 25 -12 2 -24 11 -26 20 -4 15 -5 15 -6 0z"/>
<path d="M6110 2745 c0 -10 -10 -15 -30 -15 -29 0 -30 -1 -30 -50 0 -27 5 -50
10 -50 6 0 10 16 10 35 0 24 6 37 20 45 19 10 20 8 20 -33 0 -43 0 -44 35 -45
29 -1 38 3 47 23 16 36 -3 75 -37 75 -16 0 -25 6 -25 15 0 8 -4 15 -10 15 -5
0 -10 -7 -10 -15z m65 -65 c0 -29 -32 -41 -41 -16 -9 24 4 48 23 44 12 -2 18
-12 18 -28z"/>
<path d="M6510 2750 c0 -5 9 -10 20 -10 18 0 20 -7 20 -55 0 -30 5 -55 10 -55
6 0 10 25 10 55 0 48 2 55 20 55 11 0 20 5 20 10 0 6 -22 10 -50 10 -27 0 -50
-4 -50 -10z"/>
<path d="M6630 2745 c-7 -9 -9 -19 -5 -23 4 -4 10 -1 12 6 5 14 39 16 48 2 3
-5 -10 -27 -30 -48 -19 -22 -35 -42 -35 -46 0 -3 21 -6 46 -6 27 0 43 4 39 10
-3 6 -18 10 -33 10 -27 1 -27 1 -7 18 40 34 47 49 35 71 -13 25 -52 28 -70 6z"/>
<path d="M3917 2724 c-15 -16 -6 -23 23 -17 40 8 40 -13 -1 -22 -24 -5 -29
-11 -27 -28 2 -18 10 -22 41 -24 l38 -1 -3 46 c-3 44 -5 47 -33 50 -17 2 -34
0 -38 -4z m53 -64 c0 -5 -9 -10 -20 -10 -11 0 -20 5 -20 10 0 6 9 10 20 10 11
0 20 -4 20 -10z"/>
<path d="M4010 2681 c0 -28 5 -51 10 -51 6 0 10 18 10 40 0 33 3 40 20 40 17
0 20 -7 20 -40 0 -22 5 -40 11 -40 6 0 9 19 7 48 -3 47 -3 47 -40 50 l-38 3 0
-50z"/>
<path d="M4292 2683 c3 -48 3 -48 41 -51 l37 -3 0 50 c0 59 -17 69 -22 14 -2
-27 -8 -39 -20 -41 -15 -3 -18 4 -18 37 0 23 -5 41 -11 41 -6 0 -9 -19 -7 -47z"/>
<path d="M4390 2681 c0 -28 5 -51 10 -51 6 0 10 18 10 40 0 33 3 40 20 40 17
0 20 -7 20 -40 0 -22 5 -40 11 -40 6 0 9 19 7 48 -3 47 -3 47 -40 50 l-38 3 0
-50z"/>
<path d="M4602 2718 c-17 -17 -15 -63 2 -78 18 -14 58 -10 64 7 2 9 -5 11 -27
7 -24 -5 -31 -3 -31 10 0 12 9 16 35 16 38 0 40 2 25 31 -12 21 -50 25 -68 7z
m41 -15 c-7 -2 -19 -2 -25 0 -7 3 -2 5 12 5 14 0 19 -2 13 -5z"/>
<path d="M4690 2679 c0 -57 17 -66 22 -12 2 27 8 39 21 41 14 3 17 -4 17 -37
0 -23 5 -41 11 -41 6 0 9 19 7 48 -3 47 -3 47 -40 49 l-38 1 0 -49z"/>
<path d="M4790 2696 c0 -54 8 -66 46 -66 l34 0 0 50 c0 28 -4 50 -10 50 -5 0
-10 -18 -10 -40 0 -33 -3 -40 -20 -40 -17 0 -20 7 -20 40 0 22 -4 40 -10 40
-5 0 -10 -15 -10 -34z"/>
<path d="M4890 2680 c0 -27 5 -50 10 -50 6 0 10 16 10 35 0 22 6 38 15 41 24
9 17 24 -10 24 -23 0 -25 -3 -25 -50z"/>
<path d="M4997 2724 c-15 -16 -6 -23 23 -17 39 7 39 -9 -1 -24 -44 -17 -36
-47 14 -51 l38 -3 -3 48 c-3 45 -5 48 -33 51 -17 2 -34 0 -38 -4z m53 -64 c0
-5 -9 -10 -20 -10 -11 0 -20 5 -20 10 0 6 9 10 20 10 11 0 20 -4 20 -10z"/>
<path d="M5090 2696 c0 -54 8 -66 46 -66 l34 0 0 50 c0 28 -4 50 -10 50 -5 0
-10 -18 -10 -40 0 -33 -3 -40 -20 -40 -17 0 -20 7 -20 40 0 22 -4 40 -10 40
-5 0 -10 -15 -10 -34z"/>
<path d="M5293 2714 c-4 -12 0 -21 11 -28 10 -6 25 -17 34 -24 15 -12 13 -13
-16 -8 -24 4 -32 2 -30 -7 7 -18 53 -20 68 -3 10 13 10 19 0 31 -7 8 -18 15
-26 15 -7 0 -16 5 -20 11 -5 9 1 10 20 5 21 -5 27 -3 24 6 -7 21 -57 22 -65 2z"/>
<path d="M5470 2680 c0 -27 5 -50 10 -50 6 0 10 16 10 35 0 22 6 38 15 41 24
9 17 24 -10 24 -23 0 -25 -3 -25 -50z"/>
<path d="M5542 2718 c-17 -17 -15 -63 2 -78 18 -14 58 -10 64 7 2 9 -5 11 -27
7 -24 -5 -31 -3 -31 10 0 12 9 16 35 16 38 0 40 2 25 31 -12 21 -50 25 -68 7z
m41 -15 c-7 -2 -19 -2 -25 0 -7 3 -2 5 12 5 14 0 19 -2 13 -5z"/>
<path d="M5730 2680 c0 -27 5 -50 10 -50 6 0 10 23 10 50 0 28 -4 50 -10 50
-5 0 -10 -22 -10 -50z"/>
<path d="M5962 2718 c-17 -17 -15 -63 2 -78 18 -14 58 -10 64 7 2 9 -5 11 -27
7 -24 -5 -31 -3 -31 10 0 12 9 16 35 16 38 0 40 2 25 31 -12 21 -50 25 -68 7z
m41 -15 c-7 -2 -19 -2 -25 0 -7 3 -2 5 12 5 14 0 19 -2 13 -5z"/>
<path d="M6210 2691 c0 -44 16 -62 54 -59 24 2 26 6 26 50 0 26 -4 48 -10 48
-5 0 -10 -18 -10 -41 0 -33 -3 -40 -17 -37 -13 2 -19 14 -21 41 -4 49 -22 48
-22 -2z"/>
<path d="M6310 2679 c0 -57 17 -66 22 -12 2 27 8 39 21 41 14 3 17 -4 17 -37
0 -23 5 -41 11 -41 6 0 9 19 7 48 -3 47 -3 47 -40 49 l-38 1 0 -49z"/>
<path d="M6422 2718 c-7 -7 -12 -24 -12 -38 0 -30 17 -50 42 -50 10 0 18 -5
18 -11 0 -7 -11 -9 -31 -5 -22 4 -29 2 -26 -7 2 -6 19 -12 38 -12 l34 0 3 68
3 67 -29 0 c-15 0 -33 -5 -40 -12z m52 -23 c8 -23 -4 -45 -25 -45 -14 0 -19 7
-19 30 0 23 5 30 19 30 10 0 21 -7 25 -15z"/>
<path d="M70 2235 c0 -424 2 -485 15 -485 13 0 15 61 15 485 0 424 -2 485 -15
485 -13 0 -15 -61 -15 -485z"/>
<path d="M220 2505 c0 -37 4 -65 10 -65 6 0 10 28 10 65 0 37 -4 65 -10 65 -6
0 -10 -28 -10 -65z"/>
<path d="M364 2557 c-5 -9 -7 -38 -4 -64 4 -38 9 -49 25 -51 16 -3 18 -1 8 9
-16 17 -17 61 -1 77 8 8 9 12 1 12 -6 0 -13 8 -15 18 -4 16 -4 16 -14 -1z"/>
<path d="M774 2557 c-5 -9 -7 -38 -4 -64 4 -38 9 -49 25 -51 16 -3 18 -1 8 9
-16 17 -17 61 -1 77 8 8 9 12 1 12 -6 0 -13 8 -15 18 -4 16 -4 16 -14 -1z"/>
<path d="M1130 2505 l0 -65 35 0 c28 0 38 5 47 25 16 36 -3 75 -37 75 -16 0
-25 6 -25 15 0 8 -4 15 -10 15 -6 0 -10 -28 -10 -65z m65 -15 c0 -16 -6 -26
-18 -28 -19 -4 -32 20 -23 44 9 25 41 13 41 -16z"/>
<path d="M1230 2560 c0 -5 5 -10 10 -10 6 0 10 5 10 10 0 6 -4 10 -10 10 -5 0
-10 -4 -10 -10z"/>
<path d="M1430 2555 c0 -8 -8 -15 -18 -15 -25 0 -42 -20 -42 -50 0 -34 17 -50
52 -50 28 0 28 0 28 65 0 37 -4 65 -10 65 -5 0 -10 -7 -10 -15z m0 -65 c0 -23
-4 -30 -20 -30 -16 0 -20 7 -20 30 0 23 4 30 20 30 16 0 20 -7 20 -30z"/>
<path d="M1820 2505 c0 -69 17 -90 22 -28 2 27 8 39 21 41 14 3 17 -4 17 -37
0 -23 5 -41 11 -41 6 0 9 19 7 48 -3 44 -5 47 -30 47 -20 -1 -28 4 -28 17 0
10 -4 18 -10 18 -6 0 -10 -28 -10 -65z"/>
<path d="M2181 2558 c-1 -10 -6 -18 -13 -18 -9 0 -9 -3 0 -12 7 -7 12 -29 12
-50 0 -27 4 -38 15 -38 8 0 15 5 15 10 0 6 -4 10 -10 10 -15 0 -12 57 3 63 8
4 9 8 1 14 -6 4 -14 15 -17 23 -4 12 -6 11 -6 -2z"/>
<path d="M2320 2505 c0 -37 4 -65 10 -65 6 0 10 28 10 65 0 37 -4 65 -10 65
-6 0 -10 -28 -10 -65z"/>
<path d="M2360 2505 c0 -37 4 -65 10 -65 6 0 10 28 10 65 0 37 -4 65 -10 65
-6 0 -10 -28 -10 -65z"/>
<path d="M260 2491 c0 -28 5 -51 10 -51 6 0 10 18 10 40 0 33 3 40 20 40 17 0
20 -7 20 -40 0 -22 5 -40 11 -40 6 0 9 19 7 48 -3 47 -3 47 -40 50 l-38 3 0
-50z"/>
<path d="M422 2528 c-17 -17 -15 -63 2 -78 18 -14 58 -10 64 7 2 9 -5 11 -27
7 -24 -5 -31 -3 -31 10 0 12 9 16 35 16 29 0 33 3 28 18 -12 32 -48 43 -71 20z
m41 -15 c-7 -2 -19 -2 -25 0 -7 3 -2 5 12 5 14 0 19 -2 13 -5z"/>
<path d="M510 2490 c0 -27 5 -50 10 -50 6 0 10 18 10 40 0 29 4 40 15 40 8 0
15 5 15 10 0 6 -11 10 -25 10 -23 0 -25 -3 -25 -50z"/>
<path d="M570 2491 c0 -28 5 -51 10 -51 6 0 10 18 10 40 0 33 3 40 20 40 17 0
20 -7 20 -40 0 -22 5 -40 11 -40 6 0 9 19 7 48 -3 47 -3 47 -40 50 l-38 3 0
-50z"/>
<path d="M682 2528 c-17 -17 -15 -63 2 -78 18 -14 58 -10 64 7 2 9 -5 11 -27
7 -24 -5 -31 -3 -31 10 0 12 9 16 35 16 29 0 33 3 28 18 -12 32 -48 43 -71 20z
m41 -15 c-7 -2 -19 -2 -25 0 -7 3 -2 5 12 5 14 0 19 -2 13 -5z"/>
<path d="M888 2491 c9 -28 21 -51 27 -51 7 0 17 17 24 38 7 20 15 43 17 50 3
6 1 12 -4 12 -6 0 -16 -17 -23 -37 l-12 -38 -12 34 c-6 19 -16 36 -22 38 -8 3
-6 -14 5 -46z"/>
<path d="M982 2528 c-17 -17 -15 -63 2 -78 18 -14 58 -10 64 7 2 9 -5 11 -27
7 -24 -5 -31 -3 -31 10 0 12 9 16 35 16 29 0 33 3 28 18 -12 32 -48 43 -71 20z
m41 -15 c-7 -2 -19 -2 -25 0 -7 3 -2 5 12 5 14 0 19 -2 13 -5z"/>
<path d="M1070 2490 c0 -27 5 -50 10 -50 6 0 10 16 10 35 0 22 6 38 15 41 24
9 17 24 -10 24 -23 0 -25 -3 -25 -50z"/>
<path d="M1230 2490 c0 -27 5 -50 10 -50 6 0 10 23 10 50 0 28 -4 50 -10 50
-5 0 -10 -22 -10 -50z"/>
<path d="M1270 2489 c0 -57 17 -66 22 -12 2 27 8 39 21 41 14 3 17 -4 17 -37
0 -23 5 -41 11 -41 6 0 9 19 7 48 -3 47 -3 47 -40 49 l-38 1 0 -49z"/>
<path d="M1470 2506 c0 -54 8 -66 46 -66 l34 0 0 50 c0 28 -4 50 -10 50 -5 0
-10 -18 -10 -40 0 -33 -3 -40 -20 -40 -17 0 -20 7 -20 40 0 22 -4 40 -10 40
-5 0 -10 -15 -10 -34z"/>
<path d="M1570 2489 c0 -57 17 -66 22 -12 2 27 8 39 21 41 14 3 17 -4 17 -37
0 -23 5 -41 11 -41 6 0 9 19 7 48 -3 47 -3 47 -40 49 l-38 1 0 -49z"/>
<path d="M1682 2528 c-7 -7 -12 -24 -12 -38 0 -30 17 -50 42 -50 10 0 18 -5
18 -11 0 -7 -11 -9 -31 -5 -22 4 -29 2 -27 -7 6 -17 46 -21 64 -7 9 8 14 32
14 71 0 58 -1 59 -28 59 -15 0 -33 -5 -40 -12z m48 -38 c0 -23 -4 -30 -20 -30
-16 0 -20 7 -20 30 0 23 4 30 20 30 16 0 20 -7 20 -30z"/>
<path d="M1932 2528 c-17 -17 -15 -63 2 -78 18 -14 58 -10 64 7 2 9 -5 11 -27
7 -24 -5 -31 -3 -31 10 0 12 9 16 35 16 38 0 40 2 25 31 -12 21 -50 25 -68 7z
m41 -15 c-7 -2 -19 -2 -25 0 -7 3 -2 5 12 5 14 0 19 -2 13 -5z"/>
<path d="M2020 2490 c0 -27 5 -50 10 -50 6 0 10 16 10 35 0 22 6 38 15 41 24
9 17 24 -10 24 -23 0 -25 -3 -25 -50z"/>
<path d="M2083 2524 c-4 -12 0 -21 11 -28 10 -6 25 -17 34 -24 15 -12 13 -13
-16 -8 -24 4 -32 2 -30 -7 7 -18 53 -20 68 -3 10 13 10 19 0 31 -7 8 -18 15
-26 15 -7 0 -16 5 -20 11 -5 9 1 10 20 5 21 -5 27 -3 24 6 -7 21 -57 22 -65 2z"/>
<path d="M2232 2528 c-17 -17 -15 -63 2 -78 18 -14 58 -10 64 7 2 9 -5 11 -27
7 -24 -5 -31 -3 -31 10 0 12 9 16 35 16 38 0 40 2 25 31 -12 21 -50 25 -68 7z
m41 -15 c-7 -2 -19 -2 -25 0 -7 3 -2 5 12 5 14 0 19 -2 13 -5z"/>
<path d="M2412 2528 c-17 -17 -15 -63 2 -78 18 -14 58 -10 64 7 2 9 -5 11 -27
7 -24 -5 -31 -3 -31 10 0 12 9 16 35 16 38 0 40 2 25 31 -12 21 -50 25 -68 7z
m41 -15 c-7 -2 -19 -2 -25 0 -7 3 -2 5 12 5 14 0 19 -2 13 -5z"/>
<path d="M2500 2489 c0 -57 17 -66 22 -12 2 27 8 39 21 41 14 3 17 -4 17 -37
0 -23 5 -41 11 -41 6 0 9 19 7 48 -3 47 -3 47 -40 49 l-38 1 0 -49z"/>
<path d="M810 2480 c0 -5 14 -10 30 -10 17 0 30 5 30 10 0 6 -13 10 -30 10
-16 0 -30 -4 -30 -10z"/>
<path d="M3805 2461 c-3 -2 -5 -10 -5 -18 0 -9 18 -13 66 -13 57 0 65 2 62 17
-2 14 -15 18 -61 18 -31 1 -60 -1 -62 -4z"/>
<path d="M5597 2452 c-9 -10 -17 -27 -17 -38 0 -11 -5 -25 -12 -32 -18 -18 -1
-27 53 -26 56 1 64 5 51 31 -5 10 -15 31 -23 47 -18 37 -31 41 -52 18z"/>
<path d="M8130 2450 c0 -13 7 -20 20 -20 13 0 20 7 20 20 0 13 -7 20 -20 20
-13 0 -20 -7 -20 -20z"/>
<path d="M8180 2450 c0 -13 7 -20 20 -20 13 0 20 7 20 20 0 13 -7 20 -20 20
-13 0 -20 -7 -20 -20z"/>
<path d="M8230 2450 c0 -11 7 -20 15 -20 8 0 15 9 15 20 0 11 -7 20 -15 20 -8
0 -15 -9 -15 -20z"/>
<path d="M9658 2444 c-9 -19 -9 -30 0 -45 10 -16 8 -21 -13 -35 -40 -26 -30
-34 45 -34 71 0 87 10 50 30 -17 9 -20 17 -14 46 11 60 -44 91 -68 38z"/>
<path d="M3997 2434 c-15 -16 -5 -36 23 -45 17 -6 30 -17 30 -25 0 -17 -31
-18 -49 -1 -11 10 -13 9 -9 -3 3 -9 17 -15 34 -15 22 0 30 5 32 21 2 17 -5 24
-29 33 -26 9 -30 14 -21 23 10 10 17 10 33 -1 18 -10 20 -10 17 1 -5 14 -50
23 -61 12z"/>
<path d="M4158 2428 c-6 -20 6 -81 17 -85 8 -2 11 35 6 90 -1 12 -19 8 -23 -5z"/>
<path d="M4244 2430 c-12 -12 -6 -90 7 -90 7 0 12 46 8 76 0 4 5 11 13 15 10
7 10 9 -2 9 -9 0 -20 -4 -26 -10z"/>
<path d="M4363 2390 c0 -30 2 -43 4 -27 2 15 2 39 0 55 -2 15 -4 2 -4 -28z"/>
<path d="M4393 2390 c0 -30 2 -43 4 -27 2 15 2 39 0 55 -2 15 -4 2 -4 -28z"/>
<path d="M4890 2431 c0 -5 -10 -11 -22 -13 -19 -2 -23 -9 -23 -38 0 -31 3 -35
28 -38 26 -3 27 -2 27 47 0 28 -2 51 -5 51 -3 0 -5 -4 -5 -9z m-5 -51 c0 -27
-22 -39 -31 -16 -8 22 3 49 19 43 6 -2 12 -14 12 -27z"/>
<path d="M4998 2428 c-6 -20 6 -81 17 -85 8 -2 11 35 6 90 -1 12 -19 8 -23 -5z"/>
<path d="M5747 2434 c-15 -16 -5 -36 23 -45 17 -6 30 -17 30 -25 0 -17 -31
-18 -49 -1 -11 10 -13 9 -9 -3 3 -9 17 -15 34 -15 22 0 30 5 32 21 2 17 -5 24
-29 33 -26 9 -30 14 -21 23 10 10 17 10 33 -1 18 -10 20 -10 17 1 -5 14 -50
23 -61 12z"/>
<path d="M5908 2428 c-6 -20 6 -81 17 -85 8 -2 11 35 6 90 -1 12 -19 8 -23 -5z"/>
<path d="M6040 2431 c0 -5 -10 -11 -22 -13 -19 -2 -23 -9 -23 -38 0 -31 3 -35
28 -38 26 -3 27 -2 27 47 0 28 -2 51 -5 51 -3 0 -5 -4 -5 -9z m-5 -51 c0 -27
-22 -39 -31 -16 -8 22 3 49 19 43 6 -2 12 -14 12 -27z"/>
<path d="M6320 2431 c0 -5 -10 -11 -22 -13 -19 -2 -23 -9 -23 -38 0 -31 3 -35
28 -38 26 -3 27 -2 27 47 0 28 -2 51 -5 51 -3 0 -5 -4 -5 -9z m-5 -51 c0 -27
-22 -39 -31 -16 -8 22 3 49 19 43 6 -2 12 -14 12 -27z"/>
<path d="M6428 2428 c-6 -20 6 -81 17 -85 8 -2 11 35 6 90 -1 12 -19 8 -23 -5z"/>
<path d="M8329 2394 c-11 -26 -17 -49 -14 -52 2 -3 7 3 11 12 8 21 50 21 58 0
4 -9 9 -15 11 -12 6 6 -32 98 -40 98 -3 0 -15 -21 -26 -46z m41 -6 c0 -5 -7
-8 -15 -8 -17 0 -18 2 -9 25 5 13 8 14 15 3 5 -7 9 -16 9 -20z"/>
<path d="M8460 2431 c0 -5 -10 -11 -22 -13 -19 -2 -23 -9 -23 -38 0 -31 3 -35
28 -38 26 -3 27 -2 27 47 0 28 -2 51 -5 51 -3 0 -5 -4 -5 -9z m-5 -51 c0 -27
-22 -39 -31 -16 -8 22 3 49 19 43 6 -2 12 -14 12 -27z"/>
<path d="M8540 2431 c0 -5 -10 -11 -22 -13 -19 -2 -23 -9 -23 -38 0 -31 3 -35
28 -38 26 -3 27 -2 27 47 0 28 -2 51 -5 51 -3 0 -5 -4 -5 -9z m-5 -51 c0 -27
-22 -39 -31 -16 -8 22 3 49 19 43 6 -2 12 -14 12 -27z"/>
<path d="M9810 2390 c0 -48 1 -50 28 -50 35 0 52 16 52 50 0 34 -17 50 -52 50
-27 0 -28 -2 -28 -50z m65 0 c0 -31 -3 -35 -27 -38 -27 -3 -28 -1 -28 38 0 39
1 41 28 38 24 -3 27 -7 27 -38z"/>
<path d="M10220 2390 c0 -48 1 -50 28 -50 35 0 52 16 52 50 0 34 -17 50 -52
50 -27 0 -28 -2 -28 -50z m65 0 c0 -31 -3 -35 -27 -38 -27 -3 -28 -1 -28 38 0
39 1 41 28 38 24 -3 27 -7 27 -38z"/>
<path d="M3800 2375 l0 -45 65 0 65 0 0 45 0 45 -65 0 -65 0 0 -45z"/>
<path d="M4084 2406 c-16 -41 20 -86 47 -59 6 6 1 9 -12 9 -12 -1 -24 5 -26
12 -3 8 6 12 27 12 28 0 30 2 20 20 -12 23 -48 27 -56 6z m46 -6 c0 -5 -9 -10
-21 -10 -11 0 -17 5 -14 10 3 6 13 10 21 10 8 0 14 -4 14 -10z"/>
<path d="M4284 2406 c-11 -29 1 -61 23 -64 29 -4 48 30 33 58 -12 23 -48 27
-56 6z m41 -26 c0 -13 -6 -25 -12 -27 -16 -6 -27 21 -19 43 9 23 31 11 31 -16z"/>
<path d="M4424 2406 c-11 -29 1 -61 23 -64 29 -4 48 30 33 58 -12 23 -48 27
-56 6z m41 -26 c0 -27 -22 -39 -31 -16 -8 22 3 49 19 43 6 -2 12 -14 12 -27z"/>
<path d="M4502 2380 c11 -41 27 -45 29 -7 1 21 2 20 15 -23 5 -13 6 -13 13 0
15 27 23 72 11 65 -5 -3 -10 -16 -11 -28 0 -14 -2 -17 -6 -7 -2 8 -7 22 -10
30 -3 10 -9 6 -18 -15 -12 -26 -13 -27 -14 -8 -1 12 -5 24 -10 27 -5 3 -4 -12
1 -34z"/>
<path d="M4643 2385 c2 -36 5 -40 30 -41 25 -1 27 1 26 40 l-2 41 -6 -35 c-4
-22 -12 -35 -21 -35 -9 0 -18 13 -22 35 l-6 35 1 -40z"/>
<path d="M4721 2360 c1 -30 3 -47 6 -37 2 9 13 17 23 17 11 0 24 9 30 20 16
29 -4 60 -35 58 -24 -2 -25 -6 -24 -58z m47 23 c-3 -30 -25 -42 -34 -19 -9 22
2 46 21 46 12 0 15 -8 13 -27z"/>
<path d="M4926 2412 c-3 -6 2 -8 13 -5 10 3 21 0 25 -5 3 -5 -5 -13 -19 -16
-16 -4 -25 -13 -25 -26 0 -16 6 -20 30 -18 29 2 31 5 28 38 -2 27 -8 36 -25
38 -11 2 -24 -1 -27 -6z m44 -42 c0 -13 -28 -25 -38 -16 -3 4 0 11 8 16 20 13
30 12 30 0z"/>
<path d="M5044 2406 c-16 -41 20 -86 47 -59 6 6 1 9 -12 9 -12 -1 -24 5 -26
12 -3 8 6 12 27 12 28 0 30 2 20 20 -12 23 -48 27 -56 6z m46 -6 c0 -5 -9 -10
-21 -10 -11 0 -17 5 -14 10 3 6 13 10 21 10 8 0 14 -4 14 -10z"/>
<path d="M5834 2406 c-16 -41 20 -86 47 -59 6 6 1 9 -12 9 -12 -1 -24 5 -26
12 -3 8 6 12 27 12 28 0 30 2 20 20 -12 23 -48 27 -56 6z m46 -6 c0 -5 -9 -10
-21 -10 -11 0 -17 5 -14 10 3 6 13 10 21 10 8 0 14 -4 14 -10z"/>
<path d="M6073 2385 c2 -36 5 -40 30 -41 25 -1 27 1 26 40 l-2 41 -6 -35 c-4
-22 -12 -35 -21 -35 -9 0 -18 13 -22 35 l-6 35 1 -40z"/>
<path d="M6154 2406 c-16 -41 20 -86 47 -59 6 6 1 9 -12 9 -12 -1 -24 5 -26
12 -3 8 6 12 27 12 28 0 30 2 20 20 -12 23 -48 27 -56 6z m46 -6 c0 -5 -9 -10
-21 -10 -11 0 -17 5 -14 10 3 6 13 10 21 10 8 0 14 -4 14 -10z"/>
<path d="M6356 2412 c-3 -6 2 -8 13 -5 10 3 21 0 25 -5 3 -5 -5 -13 -19 -16
-16 -4 -25 -13 -25 -26 0 -16 6 -20 30 -18 29 2 31 5 28 38 -2 27 -8 36 -25
38 -11 2 -24 -1 -27 -6z m44 -42 c0 -13 -28 -25 -38 -16 -3 4 0 11 8 16 20 13
30 12 30 0z"/>
<path d="M6474 2406 c-16 -41 20 -86 47 -59 6 6 1 9 -12 9 -12 -1 -24 5 -26
12 -3 8 6 12 27 12 28 0 30 2 20 20 -12 23 -48 27 -56 6z m46 -6 c0 -5 -9 -10
-21 -10 -11 0 -17 5 -14 10 3 6 13 10 21 10 8 0 14 -4 14 -10z"/>
<path d="M8130 2405 c0 -8 9 -15 20 -15 11 0 20 7 20 15 0 8 -9 15 -20 15 -11
0 -20 -7 -20 -15z"/>
<path d="M8180 2405 c0 -8 9 -15 20 -15 11 0 20 7 20 15 0 8 -9 15 -20 15 -11
0 -20 -7 -20 -15z"/>
<path d="M8230 2405 c0 -8 7 -15 15 -15 8 0 15 7 15 15 0 8 -7 15 -15 15 -8 0
-15 -7 -15 -15z"/>
<path d="M8614 2406 c-11 -29 1 -60 26 -67 21 -5 22 -7 8 -14 -9 -4 -23 -3
-30 1 -10 5 -10 4 -2 -5 7 -7 20 -11 30 -9 15 2 20 14 22 56 3 50 2 52 -23 52
-14 0 -28 -6 -31 -14z m41 -26 c0 -27 -22 -39 -31 -16 -8 22 3 49 19 43 6 -2
12 -14 12 -27z"/>
<path d="M8691 2378 l1 -43 8 34 c4 18 14 37 22 42 9 6 7 9 -9 9 -20 0 -23 -5
-22 -42z"/>
<path d="M8744 2406 c-11 -29 1 -61 23 -64 29 -4 48 30 33 58 -12 23 -48 27
-56 6z m41 -26 c0 -27 -22 -39 -31 -16 -8 22 3 49 19 43 6 -2 12 -14 12 -27z"/>
<path d="M8823 2385 c2 -36 5 -40 30 -41 25 -1 27 1 26 40 l-2 41 -6 -35 c-4
-22 -12 -35 -21 -35 -9 0 -18 13 -22 35 l-6 35 1 -40z"/>
<path d="M8901 2360 c1 -30 3 -47 6 -37 2 9 13 17 23 17 11 0 24 9 30 20 16
29 -4 60 -35 58 -24 -2 -25 -6 -24 -58z m47 23 c-3 -30 -25 -42 -34 -19 -9 22
2 46 21 46 12 0 15 -8 13 -27z"/>
<path d="M8987 2413 c-13 -13 -7 -32 13 -38 11 -3 20 -11 20 -17 0 -6 -9 -8
-20 -5 -11 3 -20 1 -20 -4 0 -15 36 -10 50 6 10 12 7 17 -14 26 -31 14 -35 34
-6 26 11 -3 18 -1 14 4 -6 11 -28 12 -37 2z"/>
<path d="M9914 2406 c-16 -41 20 -86 47 -59 6 6 1 9 -12 9 -12 -1 -24 5 -26
12 -3 8 6 12 27 12 28 0 30 2 20 20 -12 23 -48 27 -56 6z m46 -6 c0 -5 -9 -10
-21 -10 -11 0 -17 5 -14 10 3 6 13 10 21 10 8 0 14 -4 14 -10z"/>
<path d="M9991 2377 c2 -42 2 -42 8 -8 9 49 31 52 32 4 l2 -38 6 34 c9 49 29
51 34 4 l4 -38 1 41 2 41 -45 1 -45 1 1 -42z"/>
<path d="M10104 2406 c-11 -29 1 -61 23 -64 29 -4 48 30 33 58 -12 23 -48 27
-56 6z m41 -26 c0 -27 -22 -39 -31 -16 -8 22 3 49 19 43 6 -2 12 -14 12 -27z"/>
<path d="M10324 2406 c-16 -41 20 -86 47 -59 6 6 1 9 -12 9 -12 -1 -24 5 -26
12 -3 8 6 12 27 12 28 0 30 2 20 20 -12 23 -48 27 -56 6z m46 -6 c0 -5 -9 -10
-21 -10 -11 0 -17 5 -14 10 3 6 13 10 21 10 8 0 14 -4 14 -10z"/>
<path d="M10401 2377 c2 -42 2 -42 8 -8 9 49 31 52 32 4 l2 -38 6 34 c9 49 29
51 34 4 l4 -38 1 41 2 41 -45 1 -45 1 1 -42z"/>
<path d="M10514 2406 c-11 -29 1 -61 23 -64 29 -4 48 30 33 58 -12 23 -48 27
-56 6z m41 -26 c0 -27 -22 -39 -31 -16 -8 22 3 49 19 43 6 -2 12 -14 12 -27z"/>
<path d="M10693 2390 c0 -30 10 -39 22 -20 5 8 11 7 21 -1 18 -15 31 -4 16 14
-9 10 -8 17 0 25 7 7 8 12 2 12 -5 0 -15 -5 -21 -11 -8 -8 -13 -8 -17 0 -13
20 -23 11 -23 -19z"/>
<path d="M4598 2373 c6 -2 18 -2 25 0 6 3 1 5 -13 5 -14 0 -19 -2 -12 -5z"/>
<path d="M8137 2373 c-14 -13 -6 -33 13 -33 13 0 20 7 20 20 0 19 -20 27 -33
13z"/>
<path d="M8180 2361 c0 -15 6 -21 21 -21 14 0 19 5 17 17 -5 26 -38 29 -38 4z"/>
<path d="M8230 2360 c0 -11 7 -20 15 -20 8 0 15 9 15 20 0 11 -7 20 -15 20 -8
0 -15 -9 -15 -20z"/>
<path d="M210 2200 c0 -46 2 -50 24 -50 48 0 62 56 18 75 -12 5 -22 13 -22 17
0 5 -4 8 -10 8 -5 0 -10 -22 -10 -50z m45 -10 c0 -27 -20 -38 -28 -15 -8 20 3
47 17 42 6 -2 11 -14 11 -27z"/>
<path d="M450 2200 c0 -27 5 -50 10 -50 6 0 10 8 10 17 0 9 10 27 22 40 22 23
12 33 -10 11 -9 -9 -12 -7 -12 10 0 12 -4 22 -10 22 -5 0 -10 -22 -10 -50z"/>
<path d="M520 2200 c0 -27 5 -50 10 -50 6 0 10 8 10 17 0 9 10 27 22 40 22 23
12 33 -10 11 -9 -9 -12 -7 -12 10 0 12 -4 22 -10 22 -5 0 -10 -22 -10 -50z"/>
<path d="M800 2240 c0 -5 -9 -10 -20 -10 -10 0 -24 -9 -30 -20 -15 -28 4 -60
35 -60 23 0 25 4 25 50 0 28 -2 50 -5 50 -3 0 -5 -4 -5 -10z m-5 -50 c0 -13
-6 -25 -12 -27 -16 -6 -27 21 -19 43 9 23 31 11 31 -16z"/>
<path d="M1123 2200 c0 -30 2 -43 4 -27 2 15 2 39 0 55 -2 15 -4 2 -4 -28z"/>
<path d="M1310 2200 c0 -46 2 -50 24 -50 48 0 62 56 18 75 -12 5 -22 13 -22
17 0 5 -4 8 -10 8 -5 0 -10 -22 -10 -50z m45 -10 c0 -27 -20 -38 -28 -15 -8
20 3 47 17 42 6 -2 11 -14 11 -27z"/>
<path d="M1460 2200 c0 -27 5 -50 10 -50 6 0 10 8 10 17 0 9 10 27 22 40 22
23 12 33 -10 11 -9 -9 -12 -7 -12 10 0 12 -4 22 -10 22 -5 0 -10 -22 -10 -50z"/>
<path d="M1710 2240 c0 -5 -9 -10 -20 -10 -10 0 -23 -7 -28 -16 -8 -14 -10
-14 -21 0 -31 37 -84 -1 -61 -44 11 -20 44 -27 54 -12 3 5 -4 8 -16 8 -12 -1
-23 5 -25 12 -8 22 55 15 67 -8 6 -12 21 -20 35 -20 23 0 25 4 25 50 0 28 -2
50 -5 50 -3 0 -5 -4 -5 -10z m-85 -30 c3 -5 -3 -10 -15 -10 -12 0 -18 5 -15
10 3 6 10 10 15 10 5 0 12 -4 15 -10z m80 -20 c0 -27 -22 -39 -31 -16 -8 22 3
49 19 43 6 -2 12 -14 12 -27z"/>
<path d="M1768 2239 c-7 -22 5 -89 16 -89 8 0 11 12 8 36 -5 44 12 39 21 -6 8
-35 24 -40 30 -7 l4 22 2 -22 c1 -22 15 -31 24 -15 12 19 18 72 8 72 -5 0 -12
-12 -14 -27 l-4 -28 -2 28 c0 15 -5 27 -10 27 -5 0 -14 -12 -19 -27 l-10 -28
-1 28 c-1 17 -6 27 -16 27 -8 0 -15 5 -15 10 0 13 -17 13 -22 -1z"/>
<path d="M2030 2200 c0 -46 2 -50 24 -50 48 0 62 56 18 75 -12 5 -22 13 -22
17 0 5 -4 8 -10 8 -5 0 -10 -22 -10 -50z m45 -10 c0 -27 -20 -38 -28 -15 -8
20 3 47 17 42 6 -2 11 -14 11 -27z"/>
<path d="M2357 2243 c18 -4 23 -12 26 -51 l3 -47 2 47 c2 40 5 47 25 51 12 2
0 4 -28 4 -27 0 -40 -2 -28 -4z"/>
<path d="M2447 2244 c-14 -14 -7 -26 8 -14 12 10 19 10 27 2 9 -9 4 -20 -22
-47 l-34 -35 45 1 c43 2 43 2 9 8 l-34 6 27 18 c19 13 27 25 25 40 -3 22 -36
35 -51 21z"/>
<path d="M2730 2200 c0 -46 2 -50 24 -50 36 0 56 10 57 29 0 12 3 11 16 -6 15
-23 47 -31 57 -15 3 5 -4 8 -16 8 -12 -1 -23 5 -25 12 -3 8 6 12 26 12 33 0
39 8 19 28 -17 17 -45 15 -57 -5 -9 -17 -10 -17 -17 2 -10 26 -23 35 -56 35
-27 0 -28 -2 -28 -50z m65 20 c9 -30 -4 -60 -26 -60 -16 0 -19 7 -19 40 0 33
3 40 19 40 11 0 23 -9 26 -20z m80 -10 c3 -5 -3 -10 -15 -10 -12 0 -18 5 -15
10 3 6 10 10 15 10 5 0 12 -4 15 -10z"/>
<path d="M3140 2200 c0 -46 2 -50 24 -50 36 0 56 10 57 29 0 12 3 11 16 -6 15
-23 47 -31 57 -15 3 5 -4 8 -16 8 -12 -1 -23 5 -25 12 -3 8 6 12 26 12 33 0
39 8 19 28 -17 17 -45 15 -57 -5 -9 -17 -10 -17 -17 2 -10 26 -23 35 -56 35
-27 0 -28 -2 -28 -50z m65 20 c9 -30 -4 -60 -26 -60 -16 0 -19 7 -19 40 0 33
3 40 19 40 11 0 23 -9 26 -20z m80 -10 c3 -5 -3 -10 -15 -10 -12 0 -18 5 -15
10 3 6 10 10 15 10 5 0 12 -4 15 -10z"/>
<path d="M294 2219 c-4 -7 0 -9 14 -5 11 4 23 3 26 -3 3 -5 -5 -12 -19 -15
-16 -4 -25 -13 -25 -26 0 -15 7 -19 33 -18 31 1 32 2 29 40 -4 32 -8 38 -27
38 -13 0 -27 -5 -31 -11z m46 -39 c0 -13 -28 -25 -38 -16 -3 4 0 11 8 16 20
13 30 12 30 0z"/>
<path d="M370 2191 c0 -23 5 -41 10 -41 6 0 10 16 10 36 0 46 22 41 32 -7 6
-34 6 -34 5 6 -2 36 -5 40 -29 43 -27 3 -28 1 -28 -37z"/>
<path d="M592 2193 c3 -33 7 -38 31 -41 26 -3 27 -2 26 40 -2 42 -2 42 -8 9
-8 -48 -31 -53 -31 -7 0 20 -5 36 -11 36 -6 0 -9 -16 -7 -37z"/>
<path d="M670 2191 c0 -23 5 -41 10 -41 6 0 10 16 10 36 0 46 22 41 32 -7 6
-34 6 -34 5 6 -2 36 -5 40 -29 43 -27 3 -28 1 -28 -37z"/>
<path d="M830 2210 c-8 -14 -8 -26 0 -40 11 -20 44 -27 54 -12 3 5 -4 8 -16 8
-12 -1 -23 5 -25 12 -3 8 6 12 26 12 33 0 39 8 19 28 -18 18 -46 14 -58 -8z
m45 0 c3 -5 -3 -10 -15 -10 -12 0 -18 5 -15 10 3 6 10 10 15 10 5 0 12 -4 15
-10z"/>
<path d="M910 2191 c0 -23 5 -41 10 -41 6 0 10 16 10 36 0 46 22 41 32 -7 6
-34 6 -34 5 6 -2 36 -5 40 -29 43 -27 3 -28 1 -28 -37z"/>
<path d="M992 2193 c3 -33 7 -38 31 -41 26 -3 27 -2 26 40 -2 42 -2 42 -8 9
-8 -48 -31 -53 -31 -7 0 20 -5 36 -11 36 -6 0 -9 -16 -7 -37z"/>
<path d="M1070 2190 c0 -22 5 -40 10 -40 6 0 10 15 10 34 0 19 6 37 13 39 6 3
2 6 -10 6 -20 1 -23 -4 -23 -39z"/>
<path d="M1154 2219 c-4 -7 0 -9 14 -5 11 4 23 3 26 -3 3 -5 -5 -12 -19 -15
-16 -4 -25 -13 -25 -26 0 -15 7 -19 33 -18 31 1 32 2 29 40 -4 32 -8 38 -27
38 -13 0 -27 -5 -31 -11z m46 -39 c0 -13 -28 -25 -38 -16 -3 4 0 11 8 16 20
13 30 12 30 0z"/>
<path d="M1232 2193 c3 -33 7 -38 31 -41 26 -3 27 -2 26 40 -2 42 -2 42 -8 9
-8 -48 -31 -53 -31 -7 0 20 -5 36 -11 36 -6 0 -9 -16 -7 -37z"/>
<path d="M1390 2211 c0 -11 9 -23 20 -26 11 -3 20 -11 20 -17 0 -6 -9 -8 -20
-5 -11 3 -20 1 -20 -4 0 -15 47 -10 53 5 6 16 -11 36 -30 36 -7 0 -13 5 -13
11 0 6 9 9 20 6 11 -3 18 -1 14 4 -10 17 -44 10 -44 -10z"/>
<path d="M1530 2190 c0 -22 5 -40 10 -40 6 0 10 15 10 34 0 19 6 37 13 39 6 3
2 6 -10 6 -20 1 -23 -4 -23 -39z"/>
<path d="M1743 2190 c0 -25 2 -35 4 -22 2 12 2 32 0 45 -2 12 -4 2 -4 -23z"/>
<path d="M1900 2210 c-8 -14 -8 -26 0 -40 11 -20 44 -27 54 -12 3 5 -4 8 -16
8 -12 -1 -23 5 -25 12 -3 8 6 12 26 12 33 0 39 8 19 28 -18 18 -46 14 -58 -8z
m45 0 c3 -5 -3 -10 -15 -10 -12 0 -18 5 -15 10 3 6 10 10 15 10 5 0 12 -4 15
-10z"/>
<path d="M1980 2190 c0 -22 5 -40 10 -40 6 0 10 15 10 34 0 19 6 37 13 39 6 3
2 6 -10 6 -20 1 -23 -4 -23 -39z"/>
<path d="M2112 2193 c3 -33 7 -38 31 -41 26 -3 27 -2 26 40 -2 42 -2 42 -8 9
-8 -48 -31 -53 -31 -7 0 20 -5 36 -11 36 -6 0 -9 -16 -7 -37z"/>
<path d="M2190 2191 c0 -23 5 -41 10 -41 6 0 10 16 10 36 0 46 22 41 32 -7 6
-34 6 -34 5 6 -2 36 -5 40 -29 43 -27 3 -28 1 -28 -37z"/>
<path d="M2270 2210 c-14 -26 3 -60 31 -60 12 0 17 -4 13 -11 -3 -6 -15 -9
-25 -6 -11 3 -19 1 -19 -5 0 -5 12 -8 28 -6 25 3 27 7 30 56 3 50 2 52 -22 52
-15 0 -30 -8 -36 -20z m44 -5 c7 -18 -2 -45 -15 -45 -5 0 -12 7 -15 15 -7 18
2 45 15 45 5 0 11 -7 15 -15z"/>
<path d="M2911 2187 c1 -43 3 -42 13 6 9 39 26 33 27 -10 1 -39 3 -38 13 10 9
39 26 34 26 -8 0 -19 5 -35 10 -35 12 0 13 50 2 66 -4 6 -26 12 -49 12 l-43 2
1 -43z"/>
<path d="M3024 2216 c-12 -31 0 -61 25 -61 31 0 50 28 35 53 -14 22 -52 28
-60 8z m41 -26 c0 -27 -22 -39 -31 -16 -8 22 3 49 19 43 6 -2 12 -14 12 -27z"/>
<path d="M3321 2187 c1 -43 3 -42 13 6 9 39 26 33 27 -10 1 -39 3 -38 13 10 9
39 26 34 26 -8 0 -19 5 -35 10 -35 12 0 13 50 2 66 -4 6 -26 12 -49 12 l-43 2
1 -43z"/>
<path d="M3434 2216 c-12 -31 0 -61 25 -61 31 0 50 28 35 53 -14 22 -52 28
-60 8z m41 -26 c0 -27 -22 -39 -31 -16 -8 22 3 49 19 43 6 -2 12 -14 12 -27z"/>
<path d="M480 2185 c0 -15 18 -40 24 -34 3 3 -1 14 -9 25 -8 10 -14 15 -15 9z"/>
<path d="M550 2185 c0 -15 18 -40 24 -34 3 3 -1 14 -9 25 -8 10 -14 15 -15 9z"/>
<path d="M1490 2185 c0 -15 18 -40 24 -34 3 3 -1 14 -9 25 -8 10 -14 15 -15 9z"/>
<path d="M223 2003 c-7 -2 -13 -20 -13 -39 0 -28 4 -35 25 -40 24 -6 62 12 50
24 -2 3 -11 -1 -20 -8 -21 -18 -45 -5 -45 25 0 28 25 44 43 26 17 -17 31 -13
17 4 -12 15 -34 18 -57 8z"/>
<path d="M478 2000 c-5 -17 3 -80 11 -80 7 0 6 79 -2 86 -3 3 -7 0 -9 -6z"/>
<path d="M620 2001 c0 -5 -9 -11 -21 -14 -16 -4 -20 -12 -17 -34 2 -22 9 -29
31 -31 26 -3 27 -2 27 42 0 25 -4 46 -10 46 -5 0 -10 -4 -10 -9z m0 -46 c0
-26 -14 -33 -25 -15 -9 14 1 40 15 40 5 0 10 -11 10 -25z"/>
<path d="M778 1998 c-2 -7 -1 -29 3 -48 l6 -35 2 33 c0 17 1 35 0 38 0 4 5 11
13 15 10 7 9 9 -3 9 -9 0 -19 -6 -21 -12z"/>
<path d="M1380 2001 c0 -5 -9 -11 -21 -14 -16 -4 -20 -12 -17 -34 2 -22 9 -29
31 -31 26 -3 27 -2 27 42 0 25 -4 46 -10 46 -5 0 -10 -4 -10 -9z m0 -46 c0
-26 -14 -33 -25 -15 -9 14 1 40 15 40 5 0 10 -11 10 -25z"/>
<path d="M3370 1986 c0 -19 4 -23 20 -19 16 4 20 0 20 -17 0 -17 -4 -21 -20
-17 -11 3 -20 1 -20 -4 0 -14 36 -11 49 5 16 19 4 44 -22 49 -21 3 -21 4 3 15
l25 11 -27 0 c-23 1 -28 -3 -28 -23z"/>
<path d="M3444 1997 c-3 -9 -4 -28 -2 -44 2 -20 8 -28 23 -28 17 0 20 7 20 40
0 30 -4 41 -18 43 -9 2 -20 -3 -23 -11z m34 -38 c-1 -13 -7 -23 -13 -22 -13 3
-18 30 -11 50 10 24 29 1 24 -28z"/>
<path d="M301 1953 c1 -28 3 -31 6 -13 3 14 10 31 15 38 8 9 6 12 -6 12 -12 0
-16 -9 -15 -37z"/>
<path d="M347 1984 c-4 -4 -7 -18 -7 -31 0 -27 26 -41 43 -24 9 9 8 11 -4 6
-10 -4 -20 -2 -24 4 -3 7 3 11 15 11 15 0 20 5 18 17 -3 19 -29 29 -41 17z
m28 -14 c3 -5 -1 -10 -10 -10 -9 0 -13 5 -10 10 3 6 8 10 10 10 2 0 7 -4 10
-10z"/>
<path d="M416 1981 c-4 -5 3 -7 14 -4 11 3 20 1 20 -5 0 -5 -9 -12 -20 -15
-31 -8 -25 -37 8 -37 26 0 28 2 24 35 -3 26 -9 35 -23 35 -10 0 -20 -4 -23 -9z
m34 -41 c0 -5 -7 -10 -16 -10 -8 0 -12 5 -9 10 3 6 10 10 16 10 5 0 9 -4 9
-10z"/>
<path d="M517 1984 c-4 -4 -7 -18 -7 -31 0 -27 26 -41 43 -24 9 9 8 11 -4 6
-10 -4 -20 -2 -24 4 -3 7 3 11 15 11 15 0 20 5 18 17 -3 19 -29 29 -41 17z
m28 -14 c3 -5 -1 -10 -10 -10 -9 0 -13 5 -10 10 3 6 8 10 10 10 2 0 7 -4 10
-10z"/>
<path d="M686 1981 c-4 -5 3 -7 14 -4 11 3 20 1 20 -5 0 -5 -9 -12 -20 -15
-31 -8 -25 -37 8 -37 26 0 28 2 24 35 -3 26 -9 35 -23 35 -10 0 -20 -4 -23 -9z
m34 -41 c0 -5 -7 -10 -16 -10 -8 0 -12 5 -9 10 3 6 10 10 16 10 5 0 9 -4 9
-10z"/>
<path d="M817 1984 c-4 -4 -7 -18 -7 -31 0 -27 26 -41 43 -24 9 9 8 11 -4 6
-10 -4 -20 -2 -24 4 -3 7 3 11 15 11 15 0 20 5 18 17 -3 19 -29 29 -41 17z
m28 -14 c3 -5 -1 -10 -10 -10 -9 0 -13 5 -10 10 3 6 8 10 10 10 2 0 7 -4 10
-10z"/>
<path d="M876 1968 c3 -13 10 -30 15 -38 7 -12 10 -10 15 9 l7 25 9 -24 c10
-27 22 -18 32 23 4 19 3 26 -4 22 -5 -3 -10 -14 -11 -23 0 -12 -3 -11 -9 6 -5
12 -12 22 -15 22 -3 0 -10 -10 -15 -22 l-9 -23 0 23 c-1 12 -6 22 -12 22 -6 0
-8 -9 -3 -22z"/>
<path d="M1005 1980 c-8 -14 3 -30 21 -30 8 0 14 -5 14 -11 0 -6 -9 -9 -20 -6
-11 3 -20 1 -20 -5 0 -14 43 -5 48 10 2 7 -5 16 -17 19 -12 3 -21 10 -21 15 0
5 10 6 21 3 15 -5 19 -4 15 4 -9 14 -33 14 -41 1z"/>
<path d="M1077 1984 c-4 -4 -7 -18 -7 -31 0 -27 26 -41 43 -24 9 9 8 11 -4 6
-10 -4 -20 -2 -24 4 -3 7 3 11 15 11 15 0 20 5 18 17 -3 19 -29 29 -41 17z
m28 -14 c3 -5 -1 -10 -10 -10 -9 0 -13 5 -10 10 3 6 8 10 10 10 2 0 7 -4 10
-10z"/>
<path d="M1147 1983 c-4 -3 -7 -17 -7 -30 0 -26 25 -42 42 -25 7 7 4 10 -8 9
-13 -1 -19 5 -19 18 0 13 6 20 17 19 10 -1 15 2 12 7 -6 11 -28 12 -37 2z"/>
<path d="M1204 1976 c-10 -26 0 -51 21 -51 16 0 20 7 20 30 0 33 -30 49 -41
21z m36 -21 c0 -26 -14 -33 -25 -15 -9 14 1 40 15 40 5 0 10 -11 10 -25z"/>
<path d="M1271 1953 c1 -36 2 -36 8 -9 9 42 29 44 34 4 l4 -33 1 38 c2 33 0
37 -23 37 -22 0 -25 -4 -24 -37z"/>
<path d="M1415 1980 c-8 -14 3 -30 21 -30 8 0 14 -5 14 -11 0 -6 -9 -9 -20 -6
-11 3 -20 1 -20 -5 0 -14 43 -5 48 10 2 7 -5 16 -17 19 -12 3 -21 10 -21 15 0
5 10 6 21 3 15 -5 19 -4 15 4 -9 14 -33 14 -41 1z"/>
<path d="M1516 1981 c-4 -5 3 -7 14 -4 11 3 20 1 20 -5 0 -5 -9 -12 -20 -15
-31 -8 -25 -37 8 -37 26 0 28 2 24 35 -3 26 -9 35 -23 35 -10 0 -20 -4 -23 -9z
m34 -41 c0 -5 -7 -10 -16 -10 -8 0 -12 5 -9 10 3 6 10 10 16 10 5 0 9 -4 9
-10z"/>
<path d="M1587 1983 c-4 -3 -7 -17 -7 -31 0 -16 7 -26 23 -30 22 -6 22 -6 -3
-13 l-25 -8 25 2 c22 2 25 7 28 45 3 36 0 42 -16 42 -10 0 -22 -3 -25 -7z m33
-28 c0 -26 -14 -33 -25 -15 -9 14 1 40 15 40 5 0 10 -11 10 -25z"/>
<path d="M1654 1976 c-10 -26 0 -51 21 -51 16 0 20 7 20 30 0 33 -30 49 -41
21z m36 -21 c0 -26 -14 -33 -25 -15 -9 14 1 40 15 40 5 0 10 -11 10 -25z"/>
<path d="M3960 1940 c0 -27 5 -50 10 -50 6 0 10 11 10 24 0 19 6 26 28 29 l27
4 -27 2 c-40 2 -36 29 5 34 28 3 26 4 -10 5 l-43 2 0 -50z"/>
<path d="M4633 1940 c0 -30 2 -43 4 -27 3 21 10 27 28 27 18 0 25 -6 28 -27 2
-16 4 -3 4 27 0 30 -2 45 -4 33 -3 -16 -11 -23 -28 -23 -17 0 -25 7 -28 23 -2
12 -4 -3 -4 -33z"/>
<path d="M4818 1979 c-7 -21 5 -89 16 -89 9 0 12 35 7 93 -1 11 -19 8 -23 -4z"/>
<path d="M5400 1940 c0 -48 1 -50 28 -50 35 0 52 16 52 50 0 34 -17 50 -52 50
-27 0 -28 -2 -28 -50z m65 20 c10 -33 -4 -60 -31 -60 -21 0 -24 4 -24 40 0 36
3 40 24 40 16 0 27 -7 31 -20z"/>
<path d="M6270 1940 c0 -48 1 -50 28 -50 35 0 52 16 52 50 0 34 -17 50 -52 50
-27 0 -28 -2 -28 -50z m65 20 c10 -33 -4 -60 -31 -60 -21 0 -24 4 -24 40 0 36
3 40 24 40 16 0 27 -7 31 -20z"/>
<path d="M6748 1979 c-7 -21 5 -89 16 -89 9 0 12 35 7 93 -1 11 -19 8 -23 -4z"/>
<path d="M4054 1956 c-12 -31 0 -61 25 -61 31 0 50 28 35 53 -14 22 -52 28
-60 8z m41 -26 c0 -13 -6 -25 -12 -27 -16 -6 -27 21 -19 43 9 23 31 11 31 -16z"/>
<path d="M4130 1930 c0 -22 5 -40 10 -40 6 0 10 16 10 35 0 24 5 35 15 35 11
0 15 -11 16 -37 1 -39 3 -38 13 10 9 39 26 33 27 -10 1 -39 3 -38 13 10 9 39
26 34 26 -8 0 -19 5 -35 10 -35 12 0 13 50 2 66 -4 6 -37 12 -74 13 l-68 2 0
-41z"/>
<path d="M4723 1930 c0 -25 2 -35 4 -22 2 12 2 32 0 45 -2 12 -4 2 -4 -23z"/>
<path d="M4750 1951 c0 -11 9 -23 20 -26 11 -3 20 -11 20 -17 0 -6 -9 -8 -20
-5 -11 3 -20 1 -20 -4 0 -15 36 -10 50 6 10 12 7 17 -14 26 -31 14 -35 34 -6
26 11 -3 18 -1 14 4 -10 17 -44 10 -44 -10z"/>
<path d="M4864 1956 c-11 -29 1 -61 23 -64 29 -4 48 30 33 58 -12 23 -48 27
-56 6z m41 -26 c0 -27 -22 -39 -31 -16 -8 22 3 49 19 43 6 -2 12 -14 12 -27z"/>
<path d="M4941 1928 c1 -44 3 -43 13 5 9 38 31 34 44 -10 9 -28 8 -40 -1 -52
-10 -11 -9 -13 2 -10 15 5 55 109 42 109 -4 0 -12 -12 -18 -27 l-10 -28 -8 28
c-6 21 -13 27 -36 27 -28 0 -29 -2 -28 -42z"/>
<path d="M5503 1930 c0 -25 2 -35 4 -22 2 12 2 32 0 45 -2 12 -4 2 -4 -23z"/>
<path d="M5536 1962 c-3 -6 2 -8 13 -5 10 3 21 0 25 -5 3 -5 -5 -13 -19 -16
-16 -4 -25 -13 -25 -26 0 -16 6 -20 30 -18 29 2 31 5 28 38 -2 27 -8 36 -25
38 -11 2 -24 -1 -27 -6z m44 -42 c0 -13 -28 -25 -38 -16 -3 4 0 11 8 16 20 13
30 12 30 0z"/>
<path d="M5610 1950 c-14 -26 3 -60 31 -60 12 0 17 -4 13 -11 -3 -6 -15 -9
-25 -6 -11 3 -19 1 -19 -5 0 -5 12 -8 28 -6 25 3 27 7 30 56 3 50 2 52 -22 52
-15 0 -30 -8 -36 -20z m44 -5 c7 -18 -2 -45 -15 -45 -5 0 -12 7 -15 15 -7 18
2 45 15 45 5 0 11 -7 15 -15z"/>
<path d="M5691 1928 l1 -43 8 34 c4 18 14 37 22 42 9 6 7 9 -9 9 -20 0 -23 -5
-22 -42z"/>
<path d="M5746 1962 c-3 -6 2 -8 13 -5 10 3 21 0 25 -5 3 -5 -5 -13 -19 -16
-16 -4 -25 -13 -25 -26 0 -16 6 -20 30 -18 29 2 31 5 28 38 -2 27 -8 36 -25
38 -11 2 -24 -1 -27 -6z m44 -42 c0 -13 -28 -25 -38 -16 -3 4 0 11 8 16 20 13
30 12 30 0z"/>
<path d="M5821 1927 c2 -42 2 -42 8 -8 9 49 31 52 32 4 l2 -38 6 34 c9 49 29
51 34 4 l4 -38 1 41 2 41 -45 1 -45 1 1 -42z"/>
<path d="M6370 1950 c-8 -14 -8 -26 0 -40 11 -20 44 -27 54 -12 3 5 -4 8 -16
8 -12 -1 -23 5 -25 12 -3 8 6 12 27 12 28 0 30 2 20 20 -6 11 -19 20 -30 20
-11 0 -24 -9 -30 -20z m45 0 c3 -5 -3 -10 -15 -10 -12 0 -18 5 -15 10 3 6 10
10 15 10 5 0 12 -4 15 -10z"/>
<path d="M6450 1951 c0 -11 9 -23 20 -26 11 -3 20 -11 20 -17 0 -6 -9 -8 -20
-5 -11 3 -20 1 -20 -4 0 -15 36 -10 50 6 10 12 7 17 -14 26 -31 14 -35 34 -6
26 11 -3 18 -1 14 4 -10 17 -44 10 -44 -10z"/>
<path d="M6520 1950 c-19 -36 25 -83 46 -49 4 8 0 9 -15 4 -18 -6 -21 -2 -21
25 0 27 3 31 21 25 15 -5 19 -4 15 4 -11 17 -34 13 -46 -9z"/>
<path d="M6591 1928 l1 -43 8 34 c4 18 14 37 22 42 9 6 7 9 -9 9 -20 0 -23 -5
-22 -42z"/>
<path d="M6643 1930 c0 -25 2 -35 4 -22 2 12 2 32 0 45 -2 12 -4 2 -4 -23z"/>
<path d="M6671 1910 c1 -30 3 -47 6 -37 2 9 13 17 23 17 11 0 24 9 30 20 16
29 -4 60 -35 58 -24 -2 -25 -6 -24 -58z m44 20 c0 -13 -6 -25 -12 -27 -16 -6
-27 21 -19 43 9 23 31 11 31 -16z"/>
<path d="M6793 1930 c0 -25 2 -35 4 -22 2 12 2 32 0 45 -2 12 -4 2 -4 -23z"/>
<path d="M6824 1956 c-11 -29 1 -61 23 -64 29 -4 48 30 33 58 -12 23 -48 27
-56 6z m41 -26 c0 -13 -6 -25 -12 -27 -16 -6 -27 21 -19 43 9 23 31 11 31 -16z"/>
<path d="M6901 1926 l2 -41 6 35 c4 22 12 35 21 35 9 0 18 -13 22 -35 l6 -35
-1 40 c-2 36 -5 40 -29 41 -26 1 -28 -1 -27 -40z"/>
<path d="M3800 1785 c0 -13 42 -15 315 -15 273 0 315 2 315 15 0 13 -42 15
-315 15 -273 0 -315 -2 -315 -15z"/>
<path d="M241 1518 c-5 -13 -16 -41 -25 -62 -17 -42 -12 -62 8 -33 7 9 23 17
36 17 13 0 29 -8 36 -17 24 -33 24 -6 0 52 -27 66 -42 78 -55 43z m32 -38 c4
-15 0 -20 -14 -20 -21 0 -22 1 -13 24 8 22 21 20 27 -4z"/>
<path d="M510 1530 c0 -5 5 -10 10 -10 6 0 10 5 10 10 0 6 -4 10 -10 10 -5 0
-10 -4 -10 -10z"/>
<path d="M800 1475 c0 -37 4 -65 10 -65 6 0 10 11 10 25 0 18 5 25 19 25 11 0
28 -11 39 -25 28 -36 48 -31 22 5 -12 17 -17 30 -11 30 16 0 24 40 11 55 -8 9
-30 15 -56 15 l-44 0 0 -65z m88 28 c-2 -12 -14 -19 -36 -21 -27 -3 -32 0 -32
17 0 17 6 21 36 21 28 0 35 -3 32 -17z"/>
<path d="M1120 1530 c0 -5 5 -10 10 -10 6 0 10 5 10 10 0 6 -4 10 -10 10 -5 0
-10 -4 -10 -10z"/>
<path d="M337 1504 c-16 -16 -6 -44 18 -50 14 -3 25 -11 25 -16 0 -6 -11 -7
-26 -4 -19 5 -25 3 -22 -6 7 -19 53 -21 68 -4 16 20 -2 46 -31 46 -11 0 -19 5
-19 11 0 7 10 9 26 5 19 -5 25 -3 22 6 -5 14 -50 23 -61 12z"/>
<path d="M427 1504 c-16 -16 -6 -44 18 -50 14 -3 25 -11 25 -16 0 -6 -11 -7
-26 -4 -19 5 -25 3 -22 -6 7 -19 53 -21 68 -4 16 20 -2 46 -31 46 -11 0 -19 5
-19 11 0 7 10 9 26 5 19 -5 25 -3 22 6 -5 14 -50 23 -61 12z"/>
<path d="M510 1460 c0 -27 5 -50 10 -50 6 0 10 23 10 50 0 28 -4 50 -10 50 -5
0 -10 -22 -10 -50z"/>
<path d="M554 1485 c-11 -42 3 -75 31 -75 14 0 25 -5 25 -11 0 -7 -11 -9 -31
-5 -22 4 -29 2 -27 -7 6 -17 46 -21 64 -7 9 8 14 32 14 71 l0 59 -35 0 c-29 0
-36 -4 -41 -25z m56 -25 c0 -23 -5 -30 -19 -30 -21 0 -33 22 -25 45 4 8 15 15
25 15 14 0 19 -7 19 -30z"/>
<path d="M650 1461 c0 -28 5 -51 10 -51 6 0 10 18 10 40 0 33 3 40 20 40 17 0
20 -7 20 -40 0 -22 5 -40 11 -40 6 0 9 19 7 48 -3 47 -3 47 -40 50 l-38 3 0
-50z"/>
<path d="M942 1498 c-17 -17 -15 -63 2 -78 18 -14 58 -10 64 7 2 9 -5 11 -27
7 -24 -5 -31 -3 -31 10 0 12 9 16 35 16 29 0 33 3 28 18 -12 32 -48 43 -71 20z
m41 -15 c-7 -2 -19 -2 -25 0 -7 3 -2 5 12 5 14 0 19 -2 13 -5z"/>
<path d="M1037 1464 c10 -26 23 -49 29 -51 6 -2 16 13 23 34 7 21 15 44 17 51
3 6 1 12 -4 12 -6 0 -16 -17 -23 -37 l-12 -38 -12 34 c-6 19 -17 37 -23 39 -8
2 -7 -12 5 -44z"/>
<path d="M1120 1460 c0 -27 5 -50 10 -50 6 0 10 23 10 50 0 28 -4 50 -10 50
-5 0 -10 -22 -10 -50z"/>
<path d="M1172 1498 c-17 -17 -15 -63 2 -78 18 -14 58 -10 64 7 2 9 -5 11 -27
7 -24 -5 -31 -3 -31 10 0 12 9 16 35 16 29 0 33 3 28 18 -12 32 -48 43 -71 20z
m41 -15 c-7 -2 -19 -2 -25 0 -7 3 -2 5 12 5 14 0 19 -2 13 -5z"/>
<path d="M1250 1508 c1 -20 29 -93 37 -95 5 -2 14 11 20 29 l10 33 7 -32 c12
-54 31 -39 50 40 9 38 -9 34 -21 -5 l-11 -33 -7 33 c-9 38 -35 44 -35 8 0 -36
-17 -40 -24 -6 -3 17 -10 30 -16 30 -5 0 -10 -1 -10 -2z"/>
<path d="M1402 1498 c-17 -17 -15 -63 2 -78 18 -14 58 -10 64 7 2 9 -5 11 -27
7 -24 -5 -31 -3 -31 10 0 12 9 16 35 16 29 0 33 3 28 18 -12 32 -48 43 -71 20z
m41 -15 c-7 -2 -19 -2 -25 0 -7 3 -2 5 12 5 14 0 19 -2 13 -5z"/>
<path d="M1490 1460 c0 -27 5 -50 10 -50 6 0 10 18 10 40 0 29 4 40 15 40 8 0
15 5 15 10 0 6 -11 10 -25 10 -23 0 -25 -3 -25 -50z"/>
<path d="M3810 1370 c0 -48 1 -50 28 -50 40 0 55 14 55 50 0 36 -15 50 -55 50
-27 0 -28 -2 -28 -50z m65 20 c9 -30 -4 -60 -26 -60 -16 0 -19 7 -19 40 0 33
3 40 19 40 11 0 23 -9 26 -20z"/>
<path d="M4107 1414 c-15 -16 -5 -36 23 -45 17 -6 30 -15 30 -20 0 -17 -30
-22 -47 -8 -14 12 -16 12 -11 -1 6 -19 45 -25 63 -10 20 16 8 37 -28 49 -24 9
-28 14 -19 23 10 10 17 10 33 -1 18 -10 20 -10 17 1 -5 14 -50 23 -61 12z"/>
<path d="M4328 1409 c-7 -21 5 -89 16 -89 9 0 12 35 7 93 -1 11 -19 8 -23 -4z"/>
<path d="M4698 1409 c-7 -21 5 -89 16 -89 9 0 12 35 7 93 -1 11 -19 8 -23 -4z"/>
<path d="M4960 1370 c0 -27 5 -50 10 -50 6 0 10 16 10 36 0 46 23 41 31 -7 l6
-34 2 38 c1 31 -3 40 -19 44 -11 3 -20 9 -20 14 0 5 -4 9 -10 9 -5 0 -10 -22
-10 -50z"/>
<path d="M5038 1409 c-7 -21 5 -89 16 -89 9 0 12 35 7 93 -1 11 -19 8 -23 -4z"/>
<path d="M5258 1409 c-7 -21 5 -89 16 -89 9 0 12 35 7 93 -1 11 -19 8 -23 -4z"/>
<path d="M5390 1410 c0 -5 -9 -10 -20 -10 -10 0 -24 -9 -30 -20 -15 -28 4 -60
35 -60 23 0 25 4 25 50 0 28 -2 50 -5 50 -3 0 -5 -4 -5 -10z m-5 -50 c0 -27
-22 -39 -31 -16 -8 22 3 49 19 43 6 -2 12 -14 12 -27z"/>
<path d="M5653 1370 c0 -30 2 -43 4 -27 2 15 2 39 0 55 -2 15 -4 2 -4 -28z"/>
<path d="M5758 1409 c-7 -21 5 -89 16 -89 9 0 12 35 7 93 -1 11 -19 8 -23 -4z"/>
<path d="M6088 1409 c-7 -21 5 -89 16 -89 9 0 12 35 7 93 -1 11 -19 8 -23 -4z"/>
<path d="M6370 1370 c0 -46 2 -50 24 -50 48 0 62 56 18 75 -12 5 -22 13 -22
17 0 5 -4 8 -10 8 -5 0 -10 -22 -10 -50z m45 -10 c0 -27 -20 -38 -28 -15 -8
20 3 47 17 42 6 -2 11 -14 11 -27z"/>
<path d="M6660 1410 c0 -5 -9 -10 -20 -10 -10 0 -24 -9 -30 -20 -15 -28 4 -60
35 -60 23 0 25 4 25 50 0 28 -2 50 -5 50 -3 0 -5 -4 -5 -10z m-5 -50 c0 -27
-22 -39 -31 -16 -8 22 3 49 19 43 6 -2 12 -14 12 -27z"/>
<path d="M6937 1414 c-15 -16 -5 -36 23 -45 17 -6 30 -15 30 -20 0 -17 -30
-22 -47 -8 -14 12 -16 12 -11 -1 6 -19 45 -25 63 -10 20 16 8 37 -28 49 -24 9
-28 14 -19 23 10 10 17 10 33 -1 18 -10 20 -10 17 1 -5 14 -50 23 -61 12z"/>
<path d="M7018 1409 c-7 -21 5 -89 16 -89 9 0 12 35 7 93 -1 11 -19 8 -23 -4z"/>
<path d="M7143 1370 c0 -30 2 -43 4 -27 2 15 2 39 0 55 -2 15 -4 2 -4 -28z"/>
<path d="M7173 1370 c0 -30 2 -43 4 -27 2 15 2 39 0 55 -2 15 -4 2 -4 -28z"/>
<path d="M7407 1414 c-15 -16 -5 -36 23 -45 17 -6 30 -15 30 -20 0 -17 -30
-22 -47 -8 -14 12 -16 12 -11 -1 6 -19 45 -25 63 -10 20 16 8 37 -28 49 -24 9
-28 14 -19 23 10 10 17 10 33 -1 18 -10 20 -10 17 1 -5 14 -50 23 -61 12z"/>
<path d="M7958 1373 c9 -25 22 -48 28 -50 6 -2 16 13 23 34 7 21 15 44 17 51
3 6 2 12 -4 12 -5 0 -15 -19 -22 -42 l-13 -43 -14 43 c-8 23 -19 42 -24 42 -5
0 -1 -21 9 -47z"/>
<path d="M8160 1370 c0 -46 2 -50 24 -50 48 0 62 56 18 75 -12 5 -22 13 -22
17 0 5 -4 8 -10 8 -5 0 -10 -22 -10 -50z m45 -10 c0 -27 -20 -38 -28 -15 -8
20 3 47 17 42 6 -2 11 -14 11 -27z"/>
<path d="M8400 1410 c0 -5 -9 -10 -20 -10 -10 0 -24 -9 -30 -20 -15 -28 4 -60
35 -60 23 0 25 4 25 50 0 28 -2 50 -5 50 -3 0 -5 -4 -5 -10z m-5 -50 c0 -13
-6 -25 -12 -27 -16 -6 -27 21 -19 43 9 23 31 11 31 -16z"/>
<path d="M9001 1368 c2 -53 2 -53 8 -13 l7 40 19 -37 c10 -21 22 -38 27 -38 4
0 7 24 7 53 -2 50 -2 51 -8 13 l-6 -40 -20 37 c-11 20 -23 37 -27 37 -5 0 -7
-24 -7 -52z"/>
<path d="M9168 1409 c-2 -5 -2 -28 0 -50 l4 -39 52 1 c36 1 44 3 25 8 -26 6
-26 6 -9 34 19 30 23 28 34 -15 8 -34 23 -36 29 -5 l4 22 2 -22 c1 -22 15 -31
24 -15 12 19 18 72 8 72 -5 0 -12 -12 -14 -27 l-4 -28 -2 28 c0 15 -5 27 -10
27 -5 0 -14 -12 -19 -27 l-10 -28 -1 28 c-1 25 -4 27 -46 27 -25 0 -45 5 -45
10 0 13 -17 13 -22 -1z m52 -49 c-12 -16 -23 -30 -26 -30 -2 0 -4 14 -4 30 0
26 4 30 26 30 l25 0 -21 -30z"/>
<path d="M9490 1370 c0 -27 5 -50 10 -50 6 0 10 8 10 17 0 9 10 27 22 40 22
23 12 33 -10 11 -9 -9 -12 -7 -12 10 0 12 -4 22 -10 22 -5 0 -10 -22 -10 -50z"/>
<path d="M9600 1370 c0 -27 5 -50 10 -50 6 0 10 16 10 36 0 46 23 41 31 -7 l6
-34 2 38 c1 31 -3 40 -19 44 -11 3 -20 9 -20 14 0 5 -4 9 -10 9 -5 0 -10 -22
-10 -50z"/>
<path d="M3914 1389 c-4 -7 0 -9 14 -5 11 4 23 3 26 -3 3 -5 -5 -12 -19 -15
-16 -4 -25 -13 -25 -26 0 -15 7 -19 33 -18 31 1 32 2 29 40 -4 32 -8 38 -27
38 -13 0 -27 -5 -31 -11z m46 -39 c0 -13 -28 -25 -38 -16 -3 4 0 11 8 16 20
13 30 12 30 0z"/>
<path d="M3990 1381 c0 -11 9 -23 20 -26 11 -3 20 -11 20 -17 0 -6 -9 -8 -20
-5 -11 3 -20 1 -20 -4 0 -15 47 -10 53 5 6 16 -11 36 -30 36 -7 0 -13 5 -13
11 0 6 9 9 20 6 11 -3 18 -1 14 4 -10 17 -44 10 -44 -10z"/>
<path d="M4195 1359 c11 -31 12 -45 4 -55 -9 -11 -8 -14 0 -14 11 0 30 35 45
88 4 12 3 22 -2 22 -6 0 -13 -12 -17 -27 l-7 -28 -10 28 c-5 15 -14 27 -18 27
-5 0 -3 -19 5 -41z"/>
<path d="M4260 1381 c0 -11 9 -23 20 -26 11 -3 20 -11 20 -17 0 -6 -9 -8 -20
-5 -11 3 -20 1 -20 -4 0 -15 47 -10 53 5 6 16 -11 36 -30 36 -7 0 -13 5 -13
11 0 6 9 9 20 6 11 -3 18 -1 14 4 -10 17 -44 10 -44 -10z"/>
<path d="M4370 1380 c-8 -14 -8 -26 0 -40 11 -20 44 -27 54 -12 3 5 -4 8 -16
8 -12 -1 -23 5 -25 12 -3 8 6 12 26 12 33 0 39 8 19 28 -18 18 -46 14 -58 -8z
m45 0 c3 -5 -3 -10 -15 -10 -12 0 -18 5 -15 10 3 6 10 10 15 10 5 0 12 -4 15
-10z"/>
<path d="M4451 1357 c1 -43 3 -42 13 6 9 39 26 33 27 -10 1 -39 3 -38 13 10 9
39 26 34 26 -8 0 -19 5 -35 10 -35 12 0 13 50 2 66 -4 6 -26 12 -49 12 l-43 2
1 -43z"/>
<path d="M4603 1360 c0 -25 2 -35 4 -22 2 12 2 32 0 45 -2 12 -4 2 -4 -23z"/>
<path d="M4630 1381 c0 -11 9 -23 20 -26 11 -3 20 -11 20 -17 0 -6 -9 -8 -20
-5 -11 3 -20 1 -20 -4 0 -15 47 -10 53 5 6 16 -11 36 -30 36 -7 0 -13 5 -13
11 0 6 9 9 20 6 11 -3 18 -1 14 4 -10 17 -44 10 -44 -10z"/>
<path d="M4780 1361 c0 -23 5 -41 10 -41 6 0 10 16 10 36 0 46 22 41 32 -7 6
-34 6 -34 5 6 -2 36 -5 40 -29 43 -27 3 -28 1 -28 -37z"/>
<path d="M4863 1360 c0 -25 2 -35 4 -22 2 12 2 32 0 45 -2 12 -4 2 -4 -23z"/>
<path d="M4890 1380 c-19 -36 25 -83 45 -49 4 6 0 9 -11 7 -14 -2 -19 3 -19
22 0 19 5 24 19 22 11 -2 15 1 11 7 -10 17 -33 13 -45 -9z"/>
<path d="M5121 1357 c1 -43 3 -42 13 6 9 39 26 33 27 -10 1 -39 3 -38 13 10 9
39 26 34 26 -8 0 -19 5 -35 10 -35 12 0 13 50 2 66 -4 6 -26 12 -49 12 l-43 2
1 -43z"/>
<path d="M5233 1360 c0 -25 2 -35 4 -22 2 12 2 32 0 45 -2 12 -4 2 -4 -23z"/>
<path d="M5420 1380 c-8 -14 -8 -26 0 -40 11 -20 44 -27 54 -12 3 5 -4 8 -16
8 -12 -1 -23 5 -25 12 -3 8 6 12 26 12 33 0 39 8 19 28 -18 18 -46 14 -58 -8z
m45 0 c3 -5 -3 -10 -15 -10 -12 0 -18 5 -15 10 3 6 10 10 15 10 5 0 12 -4 15
-10z"/>
<path d="M5501 1357 c1 -43 3 -42 13 6 9 39 26 33 27 -10 1 -39 3 -38 13 10 9
39 26 34 26 -8 0 -19 5 -35 10 -35 12 0 13 50 2 66 -4 6 -26 12 -49 12 l-43 2
1 -43z"/>
<path d="M5680 1361 c0 -23 5 -41 10 -41 6 0 10 16 10 36 0 46 22 41 32 -7 6
-34 6 -34 5 6 -2 36 -5 40 -29 43 -27 3 -28 1 -28 -37z"/>
<path d="M5800 1380 c-8 -14 -8 -26 0 -40 11 -20 44 -27 54 -12 3 5 -4 8 -16
8 -12 -1 -23 5 -25 12 -3 8 6 12 26 12 33 0 39 8 19 28 -18 18 -46 14 -58 -8z
m45 0 c3 -5 -3 -10 -15 -10 -12 0 -18 5 -15 10 3 6 10 10 15 10 5 0 12 -4 15
-10z"/>
<path d="M5880 1360 c0 -22 5 -40 10 -40 6 0 10 15 10 34 0 19 6 37 13 39 6 3
2 6 -10 6 -20 1 -23 -4 -23 -39z"/>
<path d="M5930 1361 c0 -23 5 -41 10 -41 6 0 10 16 10 36 0 46 22 41 32 -7 6
-34 6 -34 5 6 -2 36 -5 40 -29 43 -27 3 -28 1 -28 -37z"/>
<path d="M6010 1380 c-8 -14 -8 -26 0 -40 11 -20 44 -27 54 -12 3 5 -4 8 -16
8 -12 -1 -23 5 -25 12 -3 8 6 12 26 12 33 0 39 8 19 28 -18 18 -46 14 -58 -8z
m45 0 c3 -5 -3 -10 -15 -10 -12 0 -18 5 -15 10 3 6 10 10 15 10 5 0 12 -4 15
-10z"/>
<path d="M6174 1363 c15 -45 31 -52 40 -19 3 13 9 31 12 40 3 9 2 16 -4 16 -5
0 -13 -12 -17 -27 l-7 -28 -10 28 c-5 15 -14 27 -18 27 -5 0 -3 -17 4 -37z"/>
<path d="M6240 1380 c-8 -14 -8 -26 0 -40 11 -20 44 -27 54 -12 3 5 -4 8 -16
8 -12 -1 -23 5 -25 12 -3 8 6 12 26 12 33 0 39 8 19 28 -18 18 -46 14 -58 -8z
m45 0 c3 -5 -3 -10 -15 -10 -12 0 -18 5 -15 10 3 6 10 10 15 10 5 0 12 -4 15
-10z"/>
<path d="M6320 1360 c0 -22 5 -40 10 -40 6 0 10 15 10 34 0 19 6 37 13 39 6 3
2 6 -10 6 -20 1 -23 -4 -23 -39z"/>
<path d="M6452 1363 c3 -33 7 -38 31 -41 26 -3 27 -2 26 40 -2 42 -2 42 -8 9
-8 -48 -31 -53 -31 -7 0 20 -5 36 -11 36 -6 0 -9 -16 -7 -37z"/>
<path d="M6530 1361 c0 -23 5 -41 10 -41 6 0 10 16 10 36 0 46 22 41 32 -7 6
-34 6 -34 5 6 -2 36 -5 40 -29 43 -27 3 -28 1 -28 -37z"/>
<path d="M6690 1380 c-8 -14 -8 -26 0 -40 11 -20 44 -27 54 -12 3 5 -4 8 -16
8 -12 -1 -23 5 -25 12 -3 8 6 12 26 12 33 0 39 8 19 28 -18 18 -46 14 -58 -8z
m45 0 c3 -5 -3 -10 -15 -10 -12 0 -18 5 -15 10 3 6 10 10 15 10 5 0 12 -4 15
-10z"/>
<path d="M6770 1361 c0 -23 5 -41 10 -41 6 0 10 16 10 36 0 46 22 41 32 -7 6
-34 6 -34 5 6 -2 36 -5 40 -29 43 -27 3 -28 1 -28 -37z"/>
<path d="M7060 1380 c-8 -14 -8 -26 0 -40 11 -20 44 -27 54 -12 3 5 -4 8 -16
8 -12 -1 -23 5 -25 12 -3 8 6 12 26 12 33 0 39 8 19 28 -18 18 -46 14 -58 -8z
m45 0 c3 -5 -3 -10 -15 -10 -12 0 -18 5 -15 10 3 6 10 10 15 10 5 0 12 -4 15
-10z"/>
<path d="M7200 1380 c-8 -14 -8 -26 0 -40 11 -20 44 -27 54 -12 3 5 -4 8 -16
8 -12 -1 -23 5 -25 12 -3 8 6 12 26 12 33 0 39 8 19 28 -18 18 -46 14 -58 -8z
m45 0 c3 -5 -3 -10 -15 -10 -12 0 -18 5 -15 10 3 6 10 10 15 10 5 0 12 -4 15
-10z"/>
<path d="M7280 1361 c0 -23 5 -41 10 -41 6 0 10 16 10 36 0 46 22 41 32 -7 6
-34 6 -34 5 6 -2 36 -5 40 -29 43 -27 3 -28 1 -28 -37z"/>
<path d="M7493 1360 c0 -25 2 -35 4 -22 2 12 2 32 0 45 -2 12 -4 2 -4 -23z"/>
<path d="M7520 1380 c-8 -14 -8 -26 0 -40 11 -20 44 -27 54 -12 3 5 -4 8 -16
8 -12 -1 -23 5 -25 12 -3 8 6 12 26 12 33 0 39 8 19 28 -18 18 -46 14 -58 -8z
m45 0 c3 -5 -3 -10 -15 -10 -12 0 -18 5 -15 10 3 6 10 10 15 10 5 0 12 -4 15
-10z"/>
<path d="M7640 1380 c-8 -14 -8 -26 0 -40 11 -20 44 -27 54 -12 3 5 -4 8 -16
8 -12 -1 -23 5 -25 12 -3 8 6 12 26 12 33 0 39 8 19 28 -18 18 -46 14 -58 -8z
m45 0 c3 -5 -3 -10 -15 -10 -12 0 -18 5 -15 10 3 6 10 10 15 10 5 0 12 -4 15
-10z"/>
<path d="M7723 1360 c0 -25 2 -35 4 -22 2 12 2 32 0 45 -2 12 -4 2 -4 -23z"/>
<path d="M7750 1361 c0 -23 5 -41 10 -41 6 0 10 16 10 36 0 46 22 41 32 -7 6
-34 6 -34 5 6 -2 36 -5 40 -29 43 -27 3 -28 1 -28 -37z"/>
<path d="M7830 1380 c-8 -14 -8 -26 0 -40 11 -20 44 -27 54 -12 3 5 -4 8 -16
8 -12 -1 -23 5 -25 12 -3 8 6 12 26 12 33 0 39 8 19 28 -18 18 -46 14 -58 -8z
m45 0 c3 -5 -3 -10 -15 -10 -12 0 -18 5 -15 10 3 6 10 10 15 10 5 0 12 -4 15
-10z"/>
<path d="M8030 1380 c-8 -14 -8 -26 0 -40 11 -20 44 -27 54 -12 3 5 -4 8 -16
8 -12 -1 -23 5 -25 12 -3 8 6 12 26 12 33 0 39 8 19 28 -18 18 -46 14 -58 -8z
m45 0 c3 -5 -3 -10 -15 -10 -12 0 -18 5 -15 10 3 6 10 10 15 10 5 0 12 -4 15
-10z"/>
<path d="M8110 1360 c0 -22 5 -40 10 -40 6 0 10 15 10 34 0 19 6 37 13 39 6 3
2 6 -10 6 -20 1 -23 -4 -23 -39z"/>
<path d="M8243 1360 c0 -25 2 -35 4 -22 2 12 2 32 0 45 -2 12 -4 2 -4 -23z"/>
<path d="M8270 1361 c0 -23 5 -41 10 -41 6 0 10 16 10 36 0 46 22 41 32 -7 6
-34 6 -34 5 6 -2 36 -5 40 -29 43 -27 3 -28 1 -28 -37z"/>
<path d="M8432 1363 c3 -33 7 -38 31 -41 26 -3 27 -2 26 40 -2 42 -2 42 -8 9
-8 -48 -31 -53 -31 -7 0 20 -5 36 -11 36 -6 0 -9 -16 -7 -37z"/>
<path d="M8510 1361 c0 -23 5 -41 10 -41 6 0 10 16 10 36 0 46 22 41 32 -7 6
-34 6 -34 5 6 -2 36 -5 40 -29 43 -27 3 -28 1 -28 -37z"/>
<path d="M8590 1380 c-14 -26 3 -60 31 -60 12 0 17 -4 13 -11 -3 -6 -15 -9
-25 -6 -11 3 -19 1 -19 -5 0 -5 12 -8 28 -6 25 3 27 7 30 56 3 50 2 52 -22 52
-15 0 -30 -8 -36 -20z m44 -5 c7 -18 -2 -45 -15 -45 -5 0 -12 7 -15 15 -7 18
2 45 15 45 5 0 11 -7 15 -15z"/>
<path d="M8718 1393 l22 -4 -20 -29 c-11 -15 -20 -31 -20 -34 0 -3 29 -5 65
-5 l65 1 -1 41 -2 42 -6 -34 c-8 -48 -31 -53 -31 -7 0 20 -4 36 -10 36 -5 0
-10 -16 -10 -35 0 -31 -3 -35 -25 -35 l-24 0 20 35 21 35 -34 -1 c-23 -1 -26
-3 -10 -6z"/>
<path d="M8851 1357 c1 -43 3 -42 13 6 9 39 26 33 27 -10 1 -39 3 -38 13 10 9
39 26 34 26 -8 0 -19 5 -35 10 -35 12 0 13 50 2 66 -4 6 -26 12 -49 12 l-43 2
1 -43z"/>
<path d="M9090 1380 c-8 -14 -8 -26 0 -40 11 -20 44 -27 54 -12 3 5 -4 8 -16
8 -12 -1 -23 5 -25 12 -3 8 6 12 26 12 33 0 39 8 19 28 -18 18 -46 14 -58 -8z
m45 0 c3 -5 -3 -10 -15 -10 -12 0 -18 5 -15 10 3 6 10 10 15 10 5 0 12 -4 15
-10z"/>
<path d="M9360 1380 c-8 -14 -8 -26 0 -40 11 -20 44 -27 54 -12 3 5 -4 8 -16
8 -12 -1 -23 5 -25 12 -3 8 6 12 26 12 33 0 39 8 19 28 -18 18 -46 14 -58 -8z
m45 0 c3 -5 -3 -10 -15 -10 -12 0 -18 5 -15 10 3 6 10 10 15 10 5 0 12 -4 15
-10z"/>
<path d="M9440 1360 c0 -22 5 -40 10 -40 6 0 10 15 10 34 0 19 6 37 13 39 6 3
2 6 -10 6 -20 1 -23 -4 -23 -39z"/>
<path d="M9680 1380 c-8 -14 -8 -26 0 -40 11 -20 44 -27 54 -12 3 5 -4 8 -16
8 -12 -1 -23 5 -25 12 -3 8 6 12 26 12 33 0 39 8 19 28 -18 18 -46 14 -58 -8z
m45 0 c3 -5 -3 -10 -15 -10 -12 0 -18 5 -15 10 3 6 10 10 15 10 5 0 12 -4 15
-10z"/>
<path d="M9760 1360 c0 -22 5 -40 10 -40 6 0 10 15 10 34 0 19 6 37 13 39 6 3
2 6 -10 6 -20 1 -23 -4 -23 -39z"/>
<path d="M9852 1363 c3 -33 7 -38 31 -41 26 -3 27 -2 26 40 -2 42 -2 42 -8 9
-8 -48 -31 -53 -31 -7 0 20 -5 36 -11 36 -6 0 -9 -16 -7 -37z"/>
<path d="M9931 1357 c1 -43 3 -42 13 6 9 39 26 33 27 -10 1 -39 3 -38 13 10 9
39 26 34 26 -8 0 -19 5 -35 10 -35 12 0 13 50 2 66 -4 6 -26 12 -49 12 l-43 2
1 -43z"/>
<path d="M9520 1355 c0 -15 18 -40 24 -34 3 3 -1 14 -9 25 -8 10 -14 15 -15 9z"/>
<path d="M211 1168 c1 -29 4 -43 6 -30 5 27 24 28 48 2 10 -11 23 -20 29 -20
6 0 3 7 -6 16 -13 13 -14 21 -6 34 18 29 3 50 -37 50 l-35 0 1 -52z m64 22 c0
-9 -11 -16 -27 -18 -23 -3 -28 1 -28 18 0 17 5 21 28 18 16 -2 27 -9 27 -18z"/>
<path d="M703 1170 c0 -30 2 -43 4 -27 2 15 2 39 0 55 -2 15 -4 2 -4 -28z"/>
<path d="M2730 1170 c0 -48 1 -50 28 -50 35 0 52 16 52 50 0 34 -17 50 -52 50
-27 0 -28 -2 -28 -50z m65 20 c10 -33 -4 -60 -31 -60 -21 0 -24 4 -24 40 0 36
3 40 24 40 16 0 27 -7 31 -20z"/>
<path d="M3140 1170 c0 -48 1 -50 28 -50 35 0 52 16 52 50 0 34 -17 50 -52 50
-27 0 -28 -2 -28 -50z m65 20 c10 -33 -4 -60 -31 -60 -21 0 -24 4 -24 40 0 36
3 40 24 40 16 0 27 -7 31 -20z"/>
<path d="M3814 1210 c-12 -12 -6 -90 7 -90 7 0 12 46 8 76 0 4 5 11 13 15 10
7 10 9 -2 9 -9 0 -20 -4 -26 -10z"/>
<path d="M3980 1210 c0 -5 -11 -10 -25 -10 -22 0 -25 -4 -25 -40 0 -22 5 -40
10 -40 6 0 10 16 10 35 0 24 5 35 15 35 10 0 15 -11 15 -35 l0 -35 80 1 80 1
-1 41 -2 42 -6 -34 c-8 -48 -31 -53 -31 -7 0 20 -4 36 -10 36 -5 0 -10 -16
-10 -35 0 -31 -3 -35 -25 -35 l-24 0 20 35 21 35 -36 0 c-20 0 -36 5 -36 10 0
6 -4 10 -10 10 -5 0 -10 -4 -10 -10z m50 -50 c-12 -16 -23 -30 -26 -30 -2 0
-4 14 -4 30 0 26 4 30 26 30 l25 0 -21 -30z"/>
<path d="M4164 1210 c-12 -12 -6 -90 7 -90 7 0 12 46 8 76 0 4 5 11 13 15 10
7 10 9 -2 9 -9 0 -20 -4 -26 -10z"/>
<path d="M4280 1170 c0 -27 5 -50 10 -50 6 0 10 16 10 36 0 46 23 41 31 -7 l6
-34 2 38 c1 31 -3 40 -19 44 -11 3 -20 9 -20 14 0 5 -4 9 -10 9 -5 0 -10 -22
-10 -50z"/>
<path d="M310 1180 c-8 -14 -8 -26 0 -40 11 -20 44 -27 54 -12 3 5 -4 8 -16 8
-12 -1 -23 5 -25 12 -3 8 6 12 27 12 28 0 30 2 20 20 -6 11 -19 20 -30 20 -11
0 -24 -9 -30 -20z m45 0 c3 -5 -3 -10 -15 -10 -12 0 -18 5 -15 10 3 6 10 10
15 10 5 0 12 -4 15 -10z"/>
<path d="M393 1165 c7 -19 17 -34 22 -34 6 0 15 15 22 34 7 19 8 35 4 35 -5 0
-12 -12 -16 -27 l-8 -28 -10 28 c-16 40 -28 33 -14 -8z"/>
<path d="M463 1160 c0 -25 2 -35 4 -22 2 12 2 32 0 45 -2 12 -4 2 -4 -23z"/>
<path d="M490 1180 c-8 -14 -8 -26 0 -40 11 -20 44 -27 54 -12 3 5 -4 8 -16 8
-12 -1 -23 5 -25 12 -3 8 6 12 27 12 28 0 30 2 20 20 -6 11 -19 20 -30 20 -11
0 -24 -9 -30 -20z m45 0 c3 -5 -3 -10 -15 -10 -12 0 -18 5 -15 10 3 6 10 10
15 10 5 0 12 -4 15 -10z"/>
<path d="M566 1173 c4 -15 10 -35 15 -43 7 -13 8 -13 13 0 2 8 7 22 9 30 3 8
6 3 6 -12 1 -32 17 -37 25 -8 3 11 9 29 12 40 3 11 1 20 -5 20 -6 0 -11 -12
-12 -27 0 -16 -3 -21 -6 -13 -14 44 -15 45 -29 15 -11 -26 -13 -27 -14 -8 0
12 -5 25 -10 28 -7 4 -8 -3 -4 -22z"/>
<path d="M731 1156 l2 -41 6 35 c4 22 12 35 21 35 9 0 18 -13 22 -35 l6 -35
-1 40 c-2 36 -5 40 -29 41 -26 1 -28 -1 -27 -40z"/>
<path d="M813 1165 c7 -19 17 -34 22 -34 6 0 15 15 22 34 7 19 8 35 4 35 -5 0
-12 -12 -16 -27 l-8 -28 -10 28 c-16 40 -28 33 -14 -8z"/>
<path d="M884 1186 c-11 -29 1 -61 23 -64 29 -4 48 30 33 58 -12 23 -48 27
-56 6z m41 -26 c0 -27 -22 -39 -31 -16 -8 22 3 49 19 43 6 -2 12 -14 12 -27z"/>
<path d="M963 1160 c0 -25 2 -35 4 -22 2 12 2 32 0 45 -2 12 -4 2 -4 -23z"/>
<path d="M990 1180 c-19 -36 25 -83 46 -49 4 8 0 9 -15 4 -18 -6 -21 -2 -21
25 0 27 3 31 21 25 15 -5 19 -4 15 4 -11 17 -34 13 -46 -9z"/>
<path d="M1060 1180 c-8 -14 -8 -26 0 -40 11 -20 44 -27 54 -12 3 5 -4 8 -16
8 -12 -1 -23 5 -25 12 -3 8 6 12 27 12 28 0 30 2 20 20 -6 11 -19 20 -30 20
-11 0 -24 -9 -30 -20z m45 0 c3 -5 -3 -10 -15 -10 -12 0 -18 5 -15 10 3 6 10
10 15 10 5 0 12 -4 15 -10z"/>
<path d="M2830 1180 c-8 -14 -8 -26 0 -40 11 -20 44 -27 54 -12 3 5 -4 8 -16
8 -12 -1 -23 5 -25 12 -3 8 6 12 27 12 28 0 30 2 20 20 -6 11 -19 20 -30 20
-11 0 -24 -9 -30 -20z m45 0 c3 -5 -3 -10 -15 -10 -12 0 -18 5 -15 10 3 6 10
10 15 10 5 0 12 -4 15 -10z"/>
<path d="M2911 1157 c2 -42 2 -42 8 -8 9 49 31 52 32 4 l2 -38 6 34 c9 49 29
51 34 4 l4 -38 1 41 2 41 -45 1 -45 1 1 -42z"/>
<path d="M3024 1186 c-11 -29 1 -61 23 -64 29 -4 48 30 33 58 -12 23 -48 27
-56 6z m41 -26 c0 -13 -6 -25 -12 -27 -16 -6 -27 21 -19 43 9 23 31 11 31 -16z"/>
<path d="M3240 1180 c-8 -14 -8 -26 0 -40 11 -20 44 -27 54 -12 3 5 -4 8 -16
8 -12 -1 -23 5 -25 12 -3 8 6 12 27 12 28 0 30 2 20 20 -6 11 -19 20 -30 20
-11 0 -24 -9 -30 -20z m45 0 c3 -5 -3 -10 -15 -10 -12 0 -18 5 -15 10 3 6 10
10 15 10 5 0 12 -4 15 -10z"/>
<path d="M3321 1157 c2 -42 2 -42 8 -8 9 49 31 52 32 4 l2 -38 6 34 c9 49 29
51 34 4 l4 -38 1 41 2 41 -45 1 -45 1 1 -42z"/>
<path d="M3434 1186 c-11 -29 1 -61 23 -64 29 -4 48 30 33 58 -12 23 -48 27
-56 6z m41 -26 c0 -13 -6 -25 -12 -27 -16 -6 -27 21 -19 43 9 23 31 11 31 -16z"/>
<path d="M3854 1186 c-12 -31 0 -61 25 -61 31 0 50 28 35 53 -14 22 -52 28
-60 8z m41 -26 c0 -13 -6 -25 -12 -27 -16 -6 -27 21 -19 43 9 23 31 11 31 -16z"/>
<path d="M4204 1189 c-4 -7 0 -9 14 -5 11 4 23 3 26 -3 3 -5 -5 -12 -19 -15
-16 -4 -25 -13 -25 -26 0 -15 7 -19 33 -18 31 1 32 2 29 40 -4 32 -8 38 -27
38 -13 0 -27 -5 -31 -11z m46 -39 c0 -13 -28 -25 -38 -16 -3 4 0 11 8 16 20
13 30 12 30 0z"/>
<path d="M4360 1160 c0 -22 5 -40 10 -40 6 0 10 15 10 34 0 19 6 37 13 39 6 3
2 6 -10 6 -20 1 -23 -4 -23 -39z"/>
<path d="M4410 1180 c-8 -14 -8 -26 0 -40 11 -20 44 -27 54 -12 3 5 -4 8 -16
8 -12 -1 -23 5 -25 12 -3 8 6 12 26 12 33 0 39 8 19 28 -18 18 -46 14 -58 -8z
m45 0 c3 -5 -3 -10 -15 -10 -12 0 -18 5 -15 10 3 6 10 10 15 10 5 0 12 -4 15
-10z"/>
<path d="M4490 1161 c0 -23 5 -41 10 -41 6 0 10 16 10 36 0 46 22 41 32 -7 6
-34 6 -34 5 6 -2 36 -5 40 -29 43 -27 3 -28 1 -28 -37z"/>
<path d="M223 974 c-7 -3 -13 -21 -13 -40 0 -27 5 -35 24 -40 27 -6 46 1 46
18 0 7 -5 6 -15 -2 -21 -18 -45 -5 -45 25 0 31 24 43 47 24 14 -12 16 -12 11
1 -5 16 -34 23 -55 14z"/>
<path d="M478 970 c-5 -17 3 -80 11 -80 7 0 6 79 -2 86 -3 3 -7 0 -9 -6z"/>
<path d="M620 971 c0 -5 -9 -11 -21 -14 -30 -8 -23 -61 9 -65 20 -3 22 1 22
42 0 25 -2 46 -5 46 -3 0 -5 -4 -5 -9z m0 -46 c0 -26 -14 -33 -25 -15 -9 14 1
40 15 40 5 0 10 -11 10 -25z"/>
<path d="M685 970 c-4 -6 -4 -14 -1 -17 3 -4 6 -1 6 5 0 7 7 12 15 12 23 0 18
-21 -12 -52 l-27 -28 35 1 c31 1 32 2 9 8 l-25 7 23 13 c15 8 22 20 20 34 -3
24 -32 35 -43 17z"/>
<path d="M3370 956 c0 -19 4 -23 20 -19 16 4 20 0 20 -17 0 -17 -4 -21 -20
-17 -11 3 -20 1 -20 -5 0 -5 10 -8 23 -6 30 4 37 47 8 55 -28 7 -27 21 2 26
19 4 18 4 -5 6 -23 1 -28 -3 -28 -23z"/>
<path d="M3444 967 c-3 -9 -4 -28 -2 -44 2 -20 8 -28 23 -28 17 0 20 7 20 40
0 30 -4 41 -18 43 -9 2 -20 -3 -23 -11z m31 -30 c0 -39 -19 -38 -23 2 -3 24 0
32 10 29 7 -3 13 -17 13 -31z"/>
<path d="M5210 840 l0 -130 900 0 900 0 0 130 0 130 -900 0 -900 0 0 -130z
m1790 0 l0 -120 -890 0 -890 0 0 120 0 120 890 0 890 0 0 -120z"/>
<path d="M5254 880 c-12 -12 -6 -90 7 -90 7 0 12 46 8 76 0 4 5 11 13 15 10 7
10 9 -2 9 -9 0 -20 -4 -26 -10z"/>
<path d="M5373 840 c0 -30 2 -43 4 -27 2 15 2 39 0 55 -2 15 -4 2 -4 -28z"/>
<path d="M5294 859 c-4 -7 0 -9 14 -5 11 4 23 3 26 -3 3 -5 -5 -12 -19 -15
-16 -4 -25 -13 -25 -26 0 -15 7 -19 33 -18 31 1 32 2 29 40 -4 32 -8 38 -27
38 -13 0 -27 -5 -31 -11z m46 -39 c0 -13 -28 -25 -38 -16 -3 4 0 11 8 16 20
13 30 12 30 0z"/>
<path d="M5400 851 c0 -11 9 -23 20 -26 11 -3 20 -11 20 -17 0 -6 -9 -8 -20
-5 -11 3 -20 1 -20 -4 0 -15 47 -10 53 5 6 16 -11 36 -30 36 -7 0 -13 5 -13
11 0 6 9 9 20 6 11 -3 18 -1 14 4 -10 17 -44 10 -44 -10z"/>
<path d="M5470 850 c-8 -14 -8 -26 0 -40 11 -20 44 -27 54 -12 3 5 -4 8 -16 8
-12 -1 -23 5 -25 12 -3 8 6 12 26 12 33 0 39 8 19 28 -18 18 -46 14 -58 -8z
m45 0 c3 -5 -3 -10 -15 -10 -12 0 -18 5 -15 10 3 6 10 10 15 10 5 0 12 -4 15
-10z"/>
<path d="M301 923 c2 -35 2 -35 6 -8 3 16 10 33 16 37 8 5 6 8 -5 8 -14 0 -18
-8 -17 -37z"/>
<path d="M347 954 c-4 -4 -7 -18 -7 -31 0 -27 26 -41 43 -24 9 9 8 11 -4 6
-10 -4 -20 -2 -24 4 -3 7 3 11 15 11 15 0 20 5 18 17 -3 19 -29 29 -41 17z
m28 -14 c3 -5 -1 -10 -10 -10 -9 0 -13 5 -10 10 3 6 8 10 10 10 2 0 7 -4 10
-10z"/>
<path d="M416 951 c-3 -5 3 -7 14 -4 11 3 20 1 20 -5 0 -5 -9 -12 -20 -15 -30
-8 -25 -37 6 -37 23 0 25 3 22 32 -3 32 -29 50 -42 29z m34 -41 c0 -5 -7 -10
-15 -10 -8 0 -15 5 -15 10 0 6 7 10 15 10 8 0 15 -4 15 -10z"/>
<path d="M517 954 c-4 -4 -7 -18 -7 -31 0 -27 26 -41 43 -24 9 9 8 11 -4 6
-10 -4 -20 -2 -24 4 -3 7 3 11 15 11 15 0 20 5 18 17 -3 19 -29 29 -41 17z
m28 -14 c3 -5 -1 -10 -10 -10 -9 0 -13 5 -10 10 3 6 8 10 10 10 2 0 7 -4 10
-10z"/>
<path d="M782 924 c7 -28 7 -39 -4 -45 -10 -7 -10 -9 0 -9 12 0 23 20 36 70
l7 25 -15 -25 c-11 -18 -15 -21 -16 -8 0 9 -4 19 -9 23 -6 3 -5 -10 1 -31z"/>
<path d="M837 954 c-4 -4 -7 -18 -7 -31 0 -27 26 -41 43 -24 9 9 8 11 -4 6
-10 -4 -20 -2 -24 4 -3 7 3 11 15 11 15 0 20 5 18 17 -3 19 -29 29 -41 17z
m28 -14 c3 -5 -1 -10 -10 -10 -9 0 -13 5 -10 10 3 6 8 10 10 10 2 0 7 -4 10
-10z"/>
<path d="M906 951 c-3 -5 3 -7 14 -4 11 3 20 1 20 -5 0 -5 -9 -12 -20 -15 -30
-8 -25 -37 6 -37 23 0 25 3 22 32 -3 32 -29 50 -42 29z m34 -41 c0 -5 -7 -10
-15 -10 -8 0 -15 5 -15 10 0 6 7 10 15 10 8 0 15 -4 15 -10z"/>
<path d="M971 923 c2 -35 2 -35 6 -8 3 16 10 33 16 37 8 5 6 8 -5 8 -14 0 -18
-8 -17 -37z"/>
<path d="M1015 950 c-8 -14 3 -30 21 -30 8 0 14 -5 14 -11 0 -6 -9 -9 -20 -6
-11 3 -20 1 -20 -5 0 -14 43 -5 48 10 2 7 -5 16 -17 19 -12 3 -21 10 -21 15 0
5 10 6 21 3 15 -5 19 -4 15 4 -9 14 -33 14 -41 1z"/>
<path d="M1116 951 c-3 -5 3 -7 14 -4 11 3 20 1 20 -5 0 -5 -9 -12 -20 -15
-30 -8 -25 -37 6 -37 23 0 25 3 22 32 -3 32 -29 50 -42 29z m34 -41 c0 -5 -7
-10 -15 -10 -8 0 -15 5 -15 10 0 6 7 10 15 10 8 0 15 -4 15 -10z"/>
<path d="M1187 953 c-4 -3 -7 -17 -7 -31 0 -16 7 -26 23 -30 22 -6 22 -6 -3
-13 l-25 -8 25 2 c22 2 25 7 28 45 3 36 0 42 -16 42 -10 0 -22 -3 -25 -7z m33
-28 c0 -26 -14 -33 -25 -15 -9 14 1 40 15 40 5 0 10 -11 10 -25z"/>
<path d="M1254 946 c-10 -26 0 -51 21 -51 16 0 20 7 20 30 0 33 -30 49 -41 21z
m36 -21 c0 -26 -14 -33 -25 -15 -9 14 1 40 15 40 5 0 10 -11 10 -25z"/>
<path d="M3810 840 c0 -27 5 -50 10 -50 6 0 10 23 10 50 0 28 -4 50 -10 50 -5
0 -10 -22 -10 -50z"/>
<path d="M3942 877 c-14 -17 0 -81 19 -85 12 -2 15 7 13 40 -1 24 -2 46 -3 51
-2 11 -17 8 -29 -6z"/>
<path d="M4322 877 c-14 -17 0 -81 19 -85 12 -2 15 7 13 40 -1 24 -2 46 -3 51
-2 11 -17 8 -29 -6z"/>
<path d="M4382 878 c-7 -7 -12 -24 -12 -38 0 -14 5 -31 12 -38 17 -17 58 -15
65 3 8 22 -4 30 -21 16 -19 -16 -36 -6 -36 19 0 25 17 35 36 19 17 -14 29 -6
21 16 -7 18 -48 20 -65 3z"/>
<path d="M4912 877 c-14 -17 0 -81 19 -85 12 -2 15 7 13 40 -1 24 -2 46 -3 51
-2 11 -17 8 -29 -6z"/>
<path d="M3850 831 c0 -46 17 -56 22 -14 4 39 28 42 28 4 0 -17 5 -31 11 -31
6 0 9 16 7 38 -3 34 -6 37 -35 40 -32 3 -33 2 -33 -37z"/>
<path d="M3994 856 c-17 -44 13 -78 54 -60 14 6 11 9 -13 14 l-30 8 28 1 c23
1 28 5 25 24 -4 27 -55 38 -64 13z m43 -12 c-3 -3 -12 -4 -19 -1 -8 3 -5 6 6
6 11 1 17 -2 13 -5z"/>
<path d="M4080 830 c0 -22 5 -40 10 -40 6 0 10 11 10 25 0 14 7 28 15 31 24 9
17 24 -10 24 -22 0 -25 -4 -25 -40z"/>
<path d="M4140 831 c0 -46 17 -56 22 -14 4 39 28 42 28 4 0 -17 5 -31 11 -31
6 0 9 16 7 38 -3 34 -6 37 -35 40 -32 3 -33 2 -33 -37z"/>
<path d="M4234 856 c-17 -44 13 -78 54 -60 14 6 11 9 -13 14 l-30 8 28 1 c23
1 28 5 25 24 -4 27 -55 38 -64 13z m43 -12 c-3 -3 -12 -4 -19 -1 -8 3 -5 6 6
6 11 1 17 -2 13 -5z"/>
<path d="M4474 856 c-12 -32 0 -61 28 -64 34 -4 54 27 38 58 -12 23 -58 27
-66 6z m46 -26 c0 -11 -7 -20 -15 -20 -8 0 -15 9 -15 20 0 11 7 20 15 20 8 0
15 -9 15 -20z"/>
<path d="M4560 831 c0 -46 17 -56 22 -14 4 39 28 42 28 4 0 -17 5 -31 11 -31
6 0 9 16 7 38 -3 34 -6 37 -35 40 -32 3 -33 2 -33 -37z"/>
<path d="M4650 831 c0 -46 17 -56 22 -14 4 39 28 42 28 4 0 -17 5 -31 11 -31
6 0 9 16 7 38 -3 34 -6 37 -35 40 -32 3 -33 2 -33 -37z"/>
<path d="M4744 856 c-17 -44 13 -78 54 -60 14 6 11 9 -13 14 l-30 8 28 1 c23
1 28 5 25 24 -4 27 -55 38 -64 13z m43 -12 c-3 -3 -12 -4 -19 -1 -8 3 -5 6 6
6 11 1 17 -2 13 -5z"/>
<path d="M4834 856 c-3 -8 -4 -25 -2 -38 4 -29 39 -36 59 -12 13 16 12 17 -13
10 -24 -5 -28 -3 -28 14 0 17 4 19 28 14 24 -7 26 -6 13 9 -17 21 -50 22 -57
3z"/>
<path d="M4960 830 c0 -22 5 -40 10 -40 6 0 10 18 10 40 0 22 -4 40 -10 40 -5
0 -10 -18 -10 -40z"/>
<path d="M5004 856 c-12 -32 0 -61 28 -64 34 -4 54 27 38 58 -12 23 -58 27
-66 6z m46 -26 c0 -11 -7 -20 -15 -20 -8 0 -15 9 -15 20 0 11 7 20 15 20 8 0
15 -9 15 -20z"/>
<path d="M5090 831 c0 -46 17 -56 22 -14 4 39 28 42 28 4 0 -17 5 -31 11 -31
6 0 9 16 7 38 -3 34 -6 37 -35 40 -32 3 -33 2 -33 -37z"/>
<path d="M213 725 c0 -27 2 -38 4 -22 2 15 2 37 0 50 -2 12 -4 0 -4 -28z"/>
<path d="M651 748 c-19 -51 -22 -68 -13 -68 6 0 12 6 15 13 3 10 9 10 26 0 31
-19 31 -17 14 32 -17 50 -29 57 -42 23z m29 -29 c0 -5 -4 -9 -10 -9 -5 0 -10
7 -10 16 0 8 5 12 10 9 6 -3 10 -10 10 -16z"/>
<path d="M1044 760 c-13 -13 -5 -80 10 -80 7 0 10 16 9 41 -1 45 -5 53 -19 39z"/>
<path d="M2013 725 c0 -27 2 -38 4 -22 2 15 2 37 0 50 -2 12 -4 0 -4 -28z"/>
<path d="M2440 725 c0 -45 19 -66 21 -22 l0 22 11 -22 c17 -36 28 -27 28 22 0
45 -19 66 -21 23 l0 -23 -11 23 c-17 35 -28 26 -28 -23z"/>
<path d="M2700 725 c0 -41 2 -45 24 -45 13 0 26 5 28 11 3 8 10 8 26 -2 18
-11 23 -11 34 0 11 12 10 13 -4 8 -10 -3 -20 -2 -23 3 -3 5 6 10 20 12 24 3
25 4 11 23 -13 18 -17 18 -37 6 -17 -10 -24 -10 -27 -2 -2 6 -10 11 -18 11 -8
0 -14 5 -14 10 0 6 -4 10 -10 10 -5 0 -10 -20 -10 -45z m36 -22 c-6 -14 -9
-15 -16 -4 -11 19 -1 46 13 32 5 -5 7 -18 3 -28z m69 27 c3 -5 -1 -10 -10 -10
-9 0 -13 5 -10 10 3 6 8 10 10 10 2 0 7 -4 10 -10z"/>
<path d="M240 715 c0 -44 17 -46 23 -2 l4 32 1 -32 c3 -44 22 -42 22 2 0 31
-3 35 -25 35 -22 0 -25 -4 -25 -35z"/>
<path d="M300 746 c0 -15 24 -66 31 -66 5 0 9 1 9 3 0 1 4 17 9 35 6 20 6 32
0 32 -5 0 -9 -7 -9 -15 0 -8 -4 -15 -10 -15 -5 0 -10 7 -10 15 0 8 -4 15 -10
15 -5 0 -10 -2 -10 -4z"/>
<path d="M370 736 c-27 -33 18 -72 48 -42 13 13 14 20 6 34 -15 23 -38 26 -54
8z m36 -32 c-5 -13 -10 -14 -18 -6 -6 6 -8 18 -4 28 5 13 10 14 18 6 6 -6 8
-18 4 -28z"/>
<path d="M443 715 c0 -22 2 -30 4 -17 2 12 2 30 0 40 -3 9 -5 -1 -4 -23z"/>
<path d="M471 732 c-6 -11 -6 -24 0 -35 11 -18 44 -23 54 -7 4 6 13 5 25 -2
16 -10 22 -10 32 1 11 12 10 13 -4 8 -10 -3 -20 -2 -23 3 -4 6 5 10 20 10 23
0 24 2 15 21 -14 25 -42 21 -55 -8 -11 -26 -34 -38 -48 -24 -14 14 0 44 18 37
8 -3 15 -1 15 4 0 17 -39 11 -49 -8z m104 -2 c3 -5 -1 -10 -10 -10 -9 0 -13 5
-10 10 3 6 8 10 10 10 2 0 7 -4 10 -10z"/>
<path d="M720 715 c0 -19 5 -35 10 -35 6 0 10 14 10 32 0 36 16 28 23 -12 4
-25 4 -25 6 2 2 38 21 46 21 9 0 -17 5 -31 10 -31 6 0 10 16 10 35 0 35 0 35
-45 35 -45 0 -45 0 -45 -35z"/>
<path d="M830 736 c-27 -33 18 -72 48 -42 13 13 14 20 6 34 -15 23 -38 26 -54
8z m36 -32 c-5 -13 -10 -14 -18 -6 -6 6 -8 18 -4 28 5 13 10 14 18 6 6 -6 8
-18 4 -28z"/>
<path d="M900 715 c0 -31 3 -35 25 -35 22 0 25 4 25 35 0 44 -17 46 -23 3 l-4
-33 -1 33 c-3 43 -22 41 -22 -3z"/>
<path d="M970 715 c0 -44 17 -46 23 -2 l4 32 1 -32 c3 -44 22 -42 22 2 0 31
-3 35 -25 35 -22 0 -25 -4 -25 -35z"/>
<path d="M2040 715 c0 -44 17 -46 23 -2 l4 32 1 -32 c3 -44 22 -42 22 2 0 31
-3 35 -25 35 -22 0 -25 -4 -25 -35z"/>
<path d="M2100 746 c0 -15 24 -66 31 -66 5 0 9 1 9 3 0 1 4 17 9 35 6 20 6 32
0 32 -5 0 -9 -7 -9 -15 0 -8 -4 -15 -10 -15 -5 0 -10 7 -10 15 0 8 -4 15 -10
15 -5 0 -10 -2 -10 -4z"/>
<path d="M2170 736 c-27 -33 18 -72 48 -42 13 13 14 20 6 34 -15 23 -38 26
-54 8z m36 -32 c-5 -13 -10 -14 -18 -6 -6 6 -8 18 -4 28 5 13 10 14 18 6 6 -6
8 -18 4 -28z"/>
<path d="M2243 715 c0 -22 2 -30 4 -17 2 12 2 30 0 40 -3 9 -5 -1 -4 -23z"/>
<path d="M2271 732 c-6 -11 -6 -24 0 -35 11 -18 44 -23 54 -7 4 6 13 5 25 -2
16 -10 22 -10 32 1 11 12 10 13 -4 8 -10 -3 -20 -2 -23 3 -4 6 5 10 20 10 23
0 24 2 15 21 -14 25 -42 21 -55 -8 -11 -26 -34 -38 -48 -24 -14 14 0 44 18 37
8 -3 15 -1 15 4 0 17 -39 11 -49 -8z m104 -2 c3 -5 -1 -10 -10 -10 -9 0 -13 5
-10 10 3 6 8 10 10 10 2 0 7 -4 10 -10z"/>
<path d="M2520 715 c0 -31 3 -35 25 -35 22 0 25 4 25 35 0 44 -17 46 -23 3
l-4 -33 -1 33 c-3 43 -22 41 -22 -3z"/>
<path d="M2590 715 c0 -19 5 -35 10 -35 6 0 10 14 10 32 0 36 16 28 23 -12 4
-25 4 -25 6 2 2 38 21 46 21 9 0 -17 5 -31 10 -31 6 0 10 16 10 35 0 35 0 35
-45 35 -45 0 -45 0 -45 -35z"/>
<path d="M2840 715 c0 -19 5 -35 10 -35 6 0 10 14 10 31 0 26 3 31 20 26 11
-3 20 -1 20 4 0 5 -13 9 -30 9 -28 0 -30 -3 -30 -35z"/>
<path d="M229 533 c-8 -9 -9 -14 -2 -10 7 5 13 -1 16 -15 3 -17 5 -14 6 10 1
37 -1 39 -20 15z"/>
<path d="M284 536 c-3 -8 -4 -21 -1 -28 3 -7 6 -3 6 10 1 12 7 22 15 22 8 0
17 -10 19 -22 5 -20 5 -20 4 2 -2 28 -34 40 -43 16z"/>
<path d="M384 536 c-8 -21 2 -46 18 -45 10 0 10 2 1 6 -18 7 -16 43 1 43 8 0
17 -10 19 -22 5 -20 5 -20 4 2 -2 28 -34 40 -43 16z"/>
<path d="M454 536 c-8 -21 2 -46 18 -45 10 0 10 2 1 6 -18 7 -16 43 1 43 8 0
17 -10 19 -22 5 -20 5 -20 4 2 -2 28 -34 40 -43 16z"/>
<path d="M2010 522 c0 -28 2 -30 28 -23 17 5 27 14 27 27 0 13 -8 20 -27 22
-25 3 -28 0 -28 -26z m50 3 c0 -8 -9 -15 -20 -15 -11 0 -20 7 -20 15 0 8 9 15
20 15 11 0 20 -7 20 -15z"/>
<path d="M2095 540 c-9 -14 10 -36 35 -43 28 -7 25 2 -5 13 -14 5 -25 14 -25
20 0 13 37 13 43 0 3 -6 4 -5 3 2 -3 17 -42 23 -51 8z"/>
<path d="M2252 538 c-6 -6 -12 -17 -12 -22 0 -6 5 -3 11 7 11 19 44 23 52 7 3
-6 4 -5 3 2 -3 18 -38 22 -54 6z"/>
<path d="M2330 522 c0 -27 2 -28 33 -23 31 5 31 6 5 9 -16 2 -28 9 -28 17 0 8
12 16 28 18 25 4 25 4 -5 6 -30 1 -33 -2 -33 -27z"/>
<path d="M2468 543 c6 -2 18 -2 25 0 6 3 1 5 -13 5 -14 0 -19 -2 -12 -5z"/>
<path d="M2525 541 c-4 -7 0 -8 10 -4 10 3 21 0 27 -8 8 -12 9 -11 5 1 -5 18
-33 25 -42 11z"/>
<path d="M2616 535 c-3 -8 -1 -15 4 -15 6 0 10 7 10 15 0 8 -2 15 -4 15 -2 0
-6 -7 -10 -15z"/>
<path d="M2667 543 c-3 -5 5 -8 18 -8 13 0 21 3 18 8 -2 4 -10 7 -18 7 -8 0
-16 -3 -18 -7z"/>
<path d="M9930 370 l0 -170 430 0 430 0 0 170 0 170 -430 0 -430 0 0 -170z
m204 44 c9 -3 16 -10 16 -15 0 -5 -8 -4 -19 2 -28 18 -51 4 -51 -31 0 -35 23
-49 51 -31 11 6 19 7 19 1 0 -16 -49 -23 -65 -10 -18 15 -20 61 -3 78 13 13
28 15 52 6z m313 -71 c-2 -16 -4 -3 -4 27 0 30 2 43 4 28 2 -16 2 -40 0 -55z
m122 49 c-12 -5 -11 -59 1 -65 6 -3 5 -4 -2 -3 -13 3 -27 61 -20 83 3 9 7 9
17 0 7 -7 9 -13 4 -15z m-344 -32 c0 -31 -3 -35 -25 -35 -19 0 -26 6 -28 23
-5 36 5 54 30 50 19 -2 23 -9 23 -38z m113 -3 l-1 -42 -4 38 c-5 47 -25 45
-34 -4 l-6 -34 -2 38 c-1 48 -23 45 -32 -4 l-6 -34 -2 40 -1 41 45 1 45 2 -2
-42z m77 3 c0 -28 -4 -36 -22 -38 -12 -2 -24 -11 -26 -20 -3 -9 -5 8 -6 39 -1
55 0 56 27 55 24 -1 27 -5 27 -36z m113 18 c3 -14 -3 -18 -23 -18 -17 0 -25
-5 -22 -12 2 -7 14 -13 26 -12 13 0 18 -3 12 -9 -27 -27 -63 18 -47 59 8 21
50 14 54 -8z m120 0 c3 -14 -3 -18 -23 -18 -17 0 -25 -5 -22 -12 2 -7 14 -13
26 -12 13 0 18 -3 12 -9 -27 -27 -63 18 -47 59 8 21 50 14 54 -8z"/>
<path d="M10184 376 c-8 -22 3 -49 19 -43 6 2 12 14 12 27 0 27 -22 39 -31 16z"/>
<path d="M10374 375 c-8 -21 3 -48 19 -43 19 7 22 58 2 58 -8 0 -18 -7 -21
-15z"/>
<path d="M10480 380 c0 -5 9 -10 20 -10 11 0 20 5 20 10 0 6 -9 10 -20 10 -11
0 -20 -4 -20 -10z"/>
<path d="M10600 380 c0 -5 9 -10 20 -10 11 0 20 5 20 10 0 6 -9 10 -20 10 -11
0 -20 -4 -20 -10z"/>
<path d="M2450 511 c0 -5 9 -7 20 -4 11 3 20 7 20 9 0 2 -9 4 -20 4 -11 0 -20
-4 -20 -9z"/>
<path d="M2188 493 c6 -2 18 -2 25 0 6 3 1 5 -13 5 -14 0 -19 -2 -12 -5z"/>
<path d="M2603 483 c9 -2 23 -2 30 0 6 3 -1 5 -18 5 -16 0 -22 -2 -12 -5z"/>
<path d="M1800 463 c0 -4 14 -22 32 -40 l32 -33 28 27 c15 15 28 33 28 42 0
10 -8 7 -28 -12 l-28 -27 -24 25 c-23 24 -40 32 -40 18z"/>
<path d="M9457 414 c-15 -16 -5 -36 23 -45 17 -6 30 -17 30 -25 0 -17 -31 -18
-49 -1 -11 10 -13 9 -9 -3 3 -9 17 -15 34 -15 22 0 30 5 32 21 2 17 -5 24 -29
33 -26 9 -30 14 -21 23 10 10 17 10 33 -1 18 -10 20 -10 17 1 -5 14 -50 23
-61 12z"/>
<path d="M9546 392 c-3 -6 2 -8 13 -5 10 3 21 0 25 -5 3 -5 -5 -13 -19 -16
-16 -4 -25 -13 -25 -26 0 -16 6 -20 30 -18 29 2 31 5 28 38 -2 27 -8 36 -25
38 -11 2 -24 -1 -27 -6z m44 -42 c0 -13 -28 -25 -38 -16 -3 4 0 11 8 16 20 13
30 12 30 0z"/>
<path d="M9625 363 c19 -45 23 -50 29 -32 3 8 10 26 15 42 6 15 7 27 2 27 -5
0 -12 -12 -16 -27 l-8 -28 -10 28 c-6 15 -15 27 -19 27 -5 0 -1 -17 7 -37z"/>
<path d="M9694 386 c-16 -41 20 -86 47 -59 6 6 1 9 -12 9 -12 -1 -24 5 -26 12
-3 8 6 12 27 12 28 0 30 2 20 20 -12 23 -48 27 -56 6z m46 -6 c0 -5 -9 -10
-21 -10 -11 0 -17 5 -14 10 3 6 13 10 21 10 8 0 14 -4 14 -10z"/>
</g>
</svg>
