<?xml version="1.0" standalone="no"?>
<!DOCTYPE svg PUBLIC "-//W3C//DTD SVG 20010904//EN"
 "http://www.w3.org/TR/2001/REC-SVG-20010904/DTD/svg10.dtd">
<svg version="1.0" xmlns="http://www.w3.org/2000/svg"
 width="611.000000pt" height="345.000000pt" viewBox="0 0 611.000000 345.000000"
 preserveAspectRatio="xMidYMid meet">

<g transform="translate(0.000000,345.000000) scale(0.100000,-0.100000)"
fill="#000000" stroke="none">
<path d="M226 3328 c-20 -29 -21 -134 -1 -168 8 -14 14 -28 15 -32 0 -4 -24
-12 -54 -18 -47 -10 -56 -16 -70 -45 -25 -52 -21 -87 16 -122 90 -83 229 -82
321 2 30 29 34 59 13 110 -16 37 -34 49 -88 59 -42 8 -43 10 -23 46 20 34 19
139 -1 168 -12 18 -25 22 -64 22 -39 0 -52 -4 -64 -22z m114 -8 c47 -47 11
-180 -47 -180 -52 0 -73 33 -73 109 0 60 24 91 70 91 17 0 39 -9 50 -20z
m-102 -265 c31 -63 27 -69 -8 -13 -32 51 -35 58 -22 58 4 0 18 -20 30 -45z
m45 25 c15 0 37 5 48 10 17 10 16 5 -8 -45 -15 -30 -30 -52 -33 -47 -16 18
-61 106 -49 95 7 -7 26 -13 42 -13z"/>
<path d="M5220 3320 c-9 -6 -10 -10 -3 -10 6 0 14 -17 16 -37 3 -35 4 -34 5
10 1 26 1 47 0 47 -2 0 -10 -5 -18 -10z"/>
<path d="M5342 3293 c-1 -23 -8 -44 -14 -46 -10 -4 -10 -6 0 -6 17 -1 24 20
19 61 -3 30 -4 30 -5 -9z"/>
<path d="M5583 3323 c18 -5 23 -28 7 -38 -5 -3 -15 -15 -20 -26 -10 -17 -7
-19 22 -18 24 1 27 3 11 6 -26 5 -30 18 -8 27 8 3 15 17 15 31 0 20 -5 25 -22
24 -17 -1 -19 -2 -5 -6z"/>
<path d="M5629 3309 c-8 -16 -8 -28 0 -45 22 -48 61 -14 47 42 -8 30 -31 31
-47 3z m35 -5 c8 -20 -2 -54 -15 -54 -5 0 -9 16 -9 35 0 37 13 47 24 19z"/>
<path d="M5700 3320 c-9 -6 -10 -10 -3 -10 6 0 14 -17 16 -37 3 -35 4 -34 5
10 1 26 1 47 0 47 -2 0 -10 -5 -18 -10z"/>
<path d="M5751 3316 c-14 -16 -4 -46 15 -46 19 0 18 -17 -1 -23 -12 -4 -12 -5
1 -3 24 2 38 29 30 59 -7 29 -27 35 -45 13z m29 -16 c0 -11 -4 -20 -10 -20 -5
0 -10 9 -10 20 0 11 5 20 10 20 6 0 10 -9 10 -20z"/>
<path d="M5841 3316 c-14 -16 -4 -46 15 -46 19 0 18 -17 -1 -23 -12 -4 -12 -5
1 -3 24 2 38 29 30 59 -7 29 -27 35 -45 13z m29 -16 c0 -11 -4 -20 -10 -20 -5
0 -10 9 -10 20 0 11 5 20 10 20 6 0 10 -9 10 -20z"/>
<path d="M5929 3309 c-8 -16 -8 -28 0 -45 22 -48 61 -14 47 42 -8 30 -31 31
-47 3z m35 -5 c8 -20 -2 -54 -15 -54 -5 0 -9 16 -9 35 0 37 13 47 24 19z"/>
<path d="M5998 3323 c18 -4 22 -9 18 -24 -16 -51 -15 -60 3 -24 26 54 26 55
-11 54 -26 -1 -28 -3 -10 -6z"/>
<path d="M790 3240 c0 -47 3 -60 15 -60 12 0 15 13 15 60 0 47 -3 60 -15 60
-12 0 -15 -13 -15 -60z"/>
<path d="M1030 3239 l0 -60 38 3 c35 3 37 5 37 38 0 32 -3 35 -27 35 -23 -1
-28 4 -28 22 0 13 -4 23 -10 23 -6 0 -10 -27 -10 -61z m50 -19 c0 -11 -4 -20
-9 -20 -14 0 -23 18 -16 30 10 17 25 11 25 -10z"/>
<path d="M1200 3240 c0 -47 3 -60 15 -60 8 0 15 5 15 12 0 9 3 9 12 0 7 -7 18
-12 26 -12 10 0 10 4 -2 22 -14 20 -14 24 1 40 15 17 15 18 -5 18 -11 0 -23
-6 -25 -12 -3 -7 -6 2 -6 20 -1 21 -6 32 -16 32 -12 0 -15 -13 -15 -60z"/>
<path d="M1500 3280 c0 -13 -7 -20 -19 -20 -25 0 -43 -24 -39 -52 3 -20 9 -23
46 -25 l42 -2 0 60 c0 46 -3 59 -15 59 -8 0 -15 -9 -15 -20z m-5 -60 c0 -7 -6
-15 -12 -17 -8 -3 -13 4 -13 17 0 13 5 20 13 18 6 -3 12 -11 12 -18z"/>
<path d="M1540 3285 c0 -8 7 -15 15 -15 8 0 15 7 15 15 0 8 -7 15 -15 15 -8 0
-15 -7 -15 -15z"/>
<path d="M2210 3280 c0 -13 -7 -20 -19 -20 -25 0 -43 -24 -39 -52 3 -20 9 -23
46 -25 l42 -2 0 60 c0 46 -3 59 -15 59 -8 0 -15 -9 -15 -20z m-5 -60 c0 -7 -6
-15 -12 -17 -8 -3 -13 4 -13 17 0 13 5 20 13 18 6 -3 12 -11 12 -18z"/>
<path d="M2570 3240 c0 -47 3 -60 15 -60 12 0 15 13 15 60 0 47 -3 60 -15 60
-12 0 -15 -13 -15 -60z"/>
<path d="M2800 3240 l0 -60 34 0 c39 0 59 19 54 52 -2 18 -9 23 -30 23 -23 -1
-28 4 -28 22 0 14 -6 23 -15 23 -12 0 -15 -13 -15 -60z m60 -20 c0 -11 -4 -20
-9 -20 -14 0 -23 18 -16 30 10 17 25 11 25 -10z"/>
<path d="M5373 3275 c2 -23 7 -31 25 -33 19 -3 22 1 21 30 -2 31 -2 31 -6 5
-5 -33 -24 -31 -35 4 -6 22 -7 21 -5 -6z"/>
<path d="M5441 3268 c1 -30 2 -30 8 -9 9 35 29 37 34 4 4 -27 4 -27 6 5 1 28
-2 32 -24 32 -22 0 -25 -4 -24 -32z"/>
<path d="M5512 3270 c0 -19 2 -27 5 -17 2 9 2 25 0 35 -3 9 -5 1 -5 -18z"/>
<path d="M610 3247 c0 -50 13 -67 52 -67 33 0 48 24 48 74 0 54 -28 48 -32 -6
-2 -30 -8 -43 -18 -43 -10 0 -16 13 -18 43 -2 28 -8 42 -18 42 -10 0 -14 -12
-14 -43z"/>
<path d="M1803 3276 c3 -8 11 -33 17 -55 11 -43 36 -55 46 -23 15 45 17 46 26
14 13 -46 37 -38 54 18 17 56 17 60 0 60 -8 0 -17 -16 -21 -37 l-8 -38 -10 38
c-9 39 -33 50 -43 20 -15 -46 -17 -47 -26 -15 -5 19 -15 32 -24 32 -10 0 -14
-6 -11 -14z"/>
<path d="M1590 3263 c-10 -12 -11 -18 -2 -21 7 -2 12 -17 12 -33 0 -22 5 -29
20 -29 11 0 20 5 20 10 0 6 -4 10 -10 10 -14 0 -12 38 2 42 9 3 8 9 -4 21 -20
20 -19 20 -38 0z"/>
<path d="M730 3220 c0 -29 4 -40 15 -40 10 0 15 10 15 30 0 17 5 30 10 30 6 0
10 5 10 10 0 6 -11 10 -25 10 -22 0 -25 -4 -25 -40z"/>
<path d="M840 3251 c0 -5 10 -12 23 -14 21 -4 21 -4 1 -6 -22 -1 -39 -26 -28
-42 3 -5 21 -9 40 -9 35 0 35 1 32 38 -3 34 -6 37 -35 40 -18 2 -33 -1 -33 -7z
m40 -41 c0 -5 -5 -10 -11 -10 -5 0 -7 5 -4 10 3 6 8 10 11 10 2 0 4 -4 4 -10z"/>
<path d="M932 3223 c3 -36 5 -38 41 -40 37 -2 37 -2 37 37 0 47 -27 57 -32 13
-4 -34 -22 -33 -26 2 -5 40 -24 29 -20 -12z"/>
<path d="M1127 3253 c-13 -13 -7 -30 16 -41 l22 -11 -22 0 c-13 -1 -23 -5 -23
-11 0 -16 46 -12 60 5 14 17 14 17 -15 33 -17 10 -18 11 -2 12 9 0 17 5 17 10
0 11 -43 14 -53 3z"/>
<path d="M1290 3220 c0 -29 4 -40 15 -40 10 0 15 10 15 30 0 20 5 30 15 30 8
0 15 5 15 10 0 6 -13 10 -30 10 -28 0 -30 -2 -30 -40z"/>
<path d="M1362 3248 c-27 -27 -6 -68 35 -68 30 0 30 17 1 23 -20 4 -19 4 5 6
41 2 29 51 -13 51 -9 0 -21 -5 -28 -12z"/>
<path d="M1540 3220 c0 -29 4 -40 15 -40 11 0 15 11 15 40 0 29 -4 40 -15 40
-11 0 -15 -11 -15 -40z"/>
<path d="M1970 3250 c0 -5 10 -10 23 -11 21 -1 21 -1 -3 -8 -16 -4 -25 -14
-25 -26 0 -16 8 -20 38 -22 34 -2 37 0 37 25 0 16 -5 33 -12 40 -15 15 -58 16
-58 2z m40 -40 c0 -5 -5 -10 -11 -10 -5 0 -7 5 -4 10 3 6 8 10 11 10 2 0 4 -4
4 -10z"/>
<path d="M2050 3219 c0 -45 27 -56 32 -14 2 14 8 26 13 26 6 0 11 -12 13 -26
5 -35 32 -33 32 3 0 40 -11 50 -52 50 -37 0 -38 -1 -38 -39z"/>
<path d="M2262 3248 c-27 -27 -6 -68 35 -68 30 0 30 17 1 23 -20 4 -19 4 5 6
41 2 29 51 -13 51 -9 0 -21 -5 -28 -12z"/>
<path d="M2340 3220 c0 -29 4 -40 15 -40 9 0 15 9 15 25 0 14 7 28 15 31 25
10 17 24 -15 24 -28 0 -30 -2 -30 -40z"/>
<path d="M2412 3223 c3 -36 5 -38 41 -40 37 -2 37 -2 37 37 0 29 -4 40 -15 40
-10 0 -15 -10 -15 -30 0 -16 -4 -30 -10 -30 -5 0 -10 14 -10 30 0 21 -5 30
-16 30 -12 0 -14 -9 -12 -37z"/>
<path d="M2510 3220 c0 -22 5 -40 10 -40 6 0 10 9 10 19 0 11 7 26 15 35 21
20 19 26 -10 26 -22 0 -25 -4 -25 -40z"/>
<path d="M2620 3251 c0 -6 10 -11 23 -12 21 -1 21 -1 -3 -8 -16 -4 -25 -14
-25 -26 0 -16 8 -21 38 -23 l38 -3 -3 38 c-3 35 -6 38 -35 41 -19 2 -33 -1
-33 -7z m40 -41 c0 -5 -5 -10 -11 -10 -5 0 -7 5 -4 10 3 6 8 10 11 10 2 0 4
-4 4 -10z"/>
<path d="M2712 3223 c3 -36 5 -38 41 -40 37 -2 37 -2 37 37 0 47 -27 57 -32
13 -4 -34 -22 -33 -26 2 -5 40 -24 29 -20 -12z"/>
<path d="M1700 3220 c0 -5 11 -10 25 -10 14 0 25 5 25 10 0 6 -11 10 -25 10
-14 0 -25 -4 -25 -10z"/>
<path d="M1258 3073 c90 -2 234 -2 320 0 86 1 13 3 -163 3 -176 0 -247 -2
-157 -3z"/>
<path d="M1066 3054 c-23 -23 -20 -30 4 -9 11 10 20 20 20 22 0 7 -9 2 -24
-13z"/>
<path d="M1755 3050 c21 -24 26 -25 19 -6 -3 8 -13 17 -22 21 -13 5 -13 2 3
-15z"/>
<path d="M1043 2975 c0 -27 2 -38 4 -22 2 15 2 37 0 50 -2 12 -4 0 -4 -28z"/>
<path d="M1333 2975 c0 -27 2 -38 4 -22 2 15 2 37 0 50 -2 12 -4 0 -4 -28z"/>
<path d="M1783 2975 c0 -27 2 -38 4 -22 2 15 2 37 0 50 -2 12 -4 0 -4 -28z"/>
<path d="M747 2989 c4 -13 8 -18 11 -10 2 7 -1 18 -6 23 -8 8 -9 4 -5 -13z"/>
<path d="M790 2984 c-6 -14 -10 -31 -10 -37 0 -7 -4 -6 -10 3 -5 8 -10 11 -10
5 0 -5 4 -16 9 -24 6 -9 13 0 24 33 16 48 14 65 -3 20z"/>
<path d="M1108 2998 c-9 -25 5 -68 21 -67 10 0 11 2 4 6 -15 5 -17 40 -4 45 5
2 3 8 -4 15 -10 9 -15 9 -17 1z"/>
<path d="M1260 3000 c0 -5 -11 -10 -25 -10 -26 0 -35 -23 -14 -36 8 -4 7 -9
-2 -15 -11 -7 -10 -9 3 -9 26 0 32 20 12 35 -18 14 -18 14 4 15 17 0 22 -6 22
-25 0 -17 5 -25 18 -24 10 0 12 3 5 6 -15 5 -17 40 -4 45 5 2 3 9 -5 16 -8 7
-14 8 -14 2z"/>
<path d="M1700 3000 c0 -5 -9 -10 -20 -10 -16 0 -20 -6 -19 -32 1 -30 2 -30 8
-9 9 34 31 39 31 7 0 -18 5 -26 18 -25 10 0 12 3 5 6 -15 5 -17 40 -4 45 5 2
3 9 -5 16 -8 7 -14 8 -14 2z"/>
<path d="M1154 2976 c-10 -25 3 -46 28 -45 23 0 23 0 -2 11 l-25 11 23 5 c13
2 21 9 19 15 -6 19 -36 20 -43 3z m33 -2 c-3 -3 -12 -4 -19 -1 -8 3 -5 6 6 6
11 1 17 -2 13 -5z"/>
<path d="M1374 2981 c18 -7 18 -8 3 -14 -24 -9 -21 -37 3 -37 16 0 20 7 20 30
0 25 -4 30 -22 29 -21 0 -21 -1 -4 -8z m16 -31 c0 -5 -4 -10 -10 -10 -5 0 -10
5 -10 10 0 6 5 10 10 10 6 0 10 -4 10 -10z"/>
<path d="M1421 2958 c1 -30 2 -30 8 -9 10 36 31 38 32 4 1 -27 1 -27 8 -4 9
35 29 37 34 4 4 -27 4 -27 6 5 1 32 0 32 -44 32 -44 0 -45 -1 -44 -32z"/>
<path d="M1531 2943 c1 -27 3 -40 6 -30 2 9 13 17 23 17 10 0 20 7 24 15 9 25
-4 45 -30 45 -22 0 -24 -4 -23 -47z m39 17 c0 -11 -4 -20 -9 -20 -14 0 -23 18
-16 30 10 17 25 11 25 -10z"/>
<path d="M1604 2976 c-10 -25 3 -46 28 -45 23 0 23 0 -2 11 l-25 11 23 5 c13
2 21 9 19 15 -6 19 -36 20 -43 3z m33 -2 c-3 -3 -12 -4 -19 -1 -8 3 -5 6 6 6
11 1 17 -2 13 -5z"/>
<path d="M814 2966 c-9 -24 4 -48 23 -44 12 2 18 12 18 28 0 29 -32 41 -41 16z
m36 -16 c0 -11 -7 -20 -15 -20 -8 0 -15 9 -15 20 0 11 7 20 15 20 8 0 15 -9
15 -20z"/>
<path d="M881 2946 c1 -28 2 -29 8 -7 9 34 29 37 34 6 4 -24 4 -24 3 2 -1 22
-6 28 -23 29 -19 1 -23 -4 -22 -30z"/>
<path d="M1056 2906 c3 -8 13 -17 22 -21 13 -5 13 -2 -3 15 -21 24 -26 25 -19
6z"/>
<path d="M1755 2900 c-16 -17 -16 -20 -3 -15 9 4 19 13 22 21 7 19 2 18 -19
-6z"/>
<path d="M1258 2873 c90 -2 234 -2 320 0 86 1 13 3 -163 3 -176 0 -247 -2
-157 -3z"/>
<path d="M1203 2793 c59 -2 154 -2 210 0 56 1 8 3 -108 3 -115 0 -161 -2 -102
-3z"/>
<path d="M1066 2774 c-23 -23 -20 -30 4 -9 11 10 20 20 20 22 0 7 -9 2 -24
-13z"/>
<path d="M1535 2770 c21 -24 26 -25 19 -6 -3 8 -13 17 -22 21 -13 5 -13 2 3
-15z"/>
<path d="M820 2730 c0 -5 5 -10 10 -10 6 0 10 5 10 10 0 6 -4 10 -10 10 -5 0
-10 -4 -10 -10z"/>
<path d="M1043 2700 c0 -25 2 -35 4 -22 2 12 2 32 0 45 -2 12 -4 2 -4 -23z"/>
<path d="M1113 2695 c0 -27 2 -38 4 -22 2 15 2 37 0 50 -2 12 -4 0 -4 -28z"/>
<path d="M1563 2700 c0 -25 2 -35 4 -22 2 12 2 32 0 45 -2 12 -4 2 -4 -23z"/>
<path d="M1480 2720 c0 -5 -9 -10 -20 -10 -16 0 -20 -6 -19 -32 1 -30 2 -30 8
-9 9 34 31 39 31 7 0 -18 5 -26 18 -25 10 0 12 3 5 6 -15 5 -17 40 -4 45 5 2
3 9 -5 16 -8 7 -14 8 -14 2z"/>
<path d="M844 2695 c4 -11 -1 -15 -18 -15 -13 0 -26 -7 -30 -15 -4 -12 -2 -13
14 -2 16 9 24 9 39 0 19 -12 19 -11 9 17 -5 17 -12 30 -15 30 -3 0 -3 -7 1
-15z"/>
<path d="M881 2676 c1 -28 2 -29 8 -7 9 34 29 37 34 6 4 -24 4 -24 3 2 -1 22
-6 28 -23 29 -19 1 -23 -4 -22 -30z"/>
<path d="M1154 2701 c18 -7 18 -8 3 -14 -24 -9 -21 -37 3 -37 16 0 20 7 20 30
0 25 -4 30 -22 29 -21 0 -21 -1 -4 -8z m16 -31 c0 -5 -4 -10 -10 -10 -5 0 -10
5 -10 10 0 6 5 10 10 10 6 0 10 -4 10 -10z"/>
<path d="M1201 2678 c1 -30 2 -30 8 -9 10 36 31 38 32 4 1 -27 1 -27 8 -4 9
35 29 37 34 4 4 -27 4 -27 6 5 1 32 0 32 -44 32 -44 0 -45 -1 -44 -32z"/>
<path d="M1311 2663 c1 -27 3 -40 6 -30 2 9 13 17 23 17 10 0 20 7 24 15 9 25
-4 45 -30 45 -22 0 -24 -4 -23 -47z m39 17 c0 -21 -15 -27 -25 -10 -7 12 2 30
16 30 5 0 9 -9 9 -20z"/>
<path d="M1384 2696 c-10 -25 3 -46 28 -45 23 0 23 0 -2 11 l-25 11 23 5 c13
2 21 9 19 15 -6 19 -36 20 -43 3z m33 -2 c-3 -3 -12 -4 -19 -1 -8 3 -5 6 6 6
11 1 17 -2 13 -5z"/>
<path d="M1056 2636 c3 -8 13 -17 22 -21 13 -5 13 -2 -3 15 -21 24 -26 25 -19
6z"/>
<path d="M1535 2630 c-16 -17 -16 -20 -3 -15 9 4 19 13 22 21 7 19 2 18 -19
-6z"/>
<path d="M1203 2603 c59 -2 154 -2 210 0 56 1 8 3 -108 3 -115 0 -161 -2 -102
-3z"/>
<path d="M285 2375 c0 -26 5 -45 11 -45 7 0 9 10 6 25 -3 19 0 25 13 25 13 0
16 -6 13 -25 -3 -16 -1 -25 7 -25 20 0 5 52 -16 57 -11 3 -19 12 -19 19 0 8
-3 14 -7 14 -5 0 -8 -20 -8 -45z"/>
<path d="M765 2375 c0 -26 5 -45 11 -45 7 0 9 10 6 25 -3 19 0 25 13 25 13 0
16 -6 13 -25 -3 -16 -1 -25 7 -25 20 0 5 52 -16 57 -11 3 -19 12 -19 19 0 8
-3 14 -7 14 -5 0 -8 -20 -8 -45z"/>
<path d="M1526 2406 c4 -10 -2 -16 -18 -18 -17 -2 -23 -9 -23 -28 0 -20 5 -26
30 -28 30 -3 30 -3 27 43 -2 25 -8 45 -13 45 -4 0 -6 -6 -3 -14z m-1 -46 c0
-8 -8 -16 -17 -18 -13 -2 -18 3 -18 18 0 15 5 20 18 18 9 -2 17 -10 17 -18z"/>
<path d="M125 2400 c-9 -15 4 -30 26 -30 11 0 19 -7 19 -16 0 -12 -7 -15 -25
-12 -14 3 -25 1 -25 -4 0 -5 12 -8 27 -6 35 4 45 37 14 45 -12 3 -21 10 -21
15 0 6 9 8 20 5 11 -3 20 -1 20 4 0 12 -47 11 -55 -1z"/>
<path d="M929 2400 c-5 -56 11 -78 43 -62 22 11 22 11 -4 6 -24 -5 -28 -3 -28
15 0 15 7 21 23 22 20 1 20 2 2 6 -11 3 -23 10 -27 17 -5 7 -8 6 -9 -4z"/>
<path d="M1245 2370 c0 -22 5 -40 11 -40 6 0 9 15 8 35 -2 19 1 35 7 35 6 0 7
-5 3 -11 -4 -8 0 -8 15 0 29 16 26 21 -11 21 -32 0 -33 -2 -33 -40z"/>
<path d="M204 2376 c-10 -27 4 -46 33 -45 21 1 23 3 8 6 -34 8 -41 23 -11 23
18 0 26 5 24 13 -7 18 -47 21 -54 3z m39 -3 c-7 -2 -19 -2 -25 0 -7 3 -2 5 12
5 14 0 19 -2 13 -5z"/>
<path d="M368 2383 c6 -2 12 -13 12 -23 0 -10 -6 -21 -12 -23 -7 -3 3 -5 22
-5 19 0 27 2 17 5 -23 6 -18 39 6 37 9 -1 14 2 11 7 -3 5 -20 9 -37 8 -18 0
-26 -3 -19 -6z"/>
<path d="M524 2375 c-9 -23 2 -43 28 -47 l23 -5 -25 -11 -25 -12 25 3 c21 2
26 8 31 45 5 41 5 42 -23 42 -16 0 -31 -7 -34 -15z m41 -16 c0 -7 -8 -15 -17
-17 -18 -3 -25 18 -11 32 10 10 28 1 28 -15z"/>
<path d="M604 2376 c-10 -27 4 -46 33 -45 21 1 23 3 8 6 -34 8 -41 23 -11 23
18 0 26 5 24 13 -7 18 -47 21 -54 3z m39 -3 c-7 -2 -19 -2 -25 0 -7 3 -2 5 12
5 14 0 19 -2 13 -5z"/>
<path d="M684 2376 c-10 -27 4 -46 33 -45 21 1 23 3 8 6 -34 8 -41 23 -11 23
18 0 26 5 24 13 -7 18 -47 21 -54 3z m39 -3 c-7 -2 -19 -2 -25 0 -7 3 -2 5 12
5 14 0 19 -2 13 -5z"/>
<path d="M848 2383 c6 -2 12 -13 12 -23 0 -10 -6 -21 -12 -23 -7 -3 3 -5 22
-5 19 0 27 2 17 5 -23 6 -18 39 6 37 9 -1 14 2 11 7 -3 5 -20 9 -37 8 -18 0
-26 -3 -19 -6z"/>
<path d="M1004 2376 c-10 -27 4 -46 33 -45 21 1 23 3 8 6 -34 8 -41 23 -11 23
18 0 26 5 24 13 -7 18 -47 21 -54 3z m39 -3 c-7 -2 -19 -2 -25 0 -7 3 -2 5 12
5 14 0 19 -2 13 -5z"/>
<path d="M1088 2383 c6 -2 12 -13 12 -23 0 -10 -6 -21 -12 -23 -7 -3 3 -5 22
-5 19 0 27 2 17 5 -23 6 -18 39 6 37 9 -1 14 2 11 7 -3 5 -20 9 -37 8 -18 0
-26 -3 -19 -6z"/>
<path d="M1328 2360 c4 -25 9 -30 31 -30 25 0 27 3 23 30 -3 19 -10 30 -21 30
-13 0 -13 -2 -2 -9 8 -5 11 -16 8 -25 -10 -25 -27 -19 -27 9 0 14 -4 25 -8 25
-5 0 -7 -13 -4 -30z"/>
<path d="M1405 2360 c0 -16 5 -30 11 -30 7 0 9 10 6 25 -3 19 0 25 13 25 13 0
16 -6 13 -25 -4 -16 -1 -25 8 -25 9 0 10 8 5 28 -5 19 -15 28 -32 30 -21 2
-24 -1 -24 -28z"/>
<path d="M1564 2376 c-10 -27 4 -46 33 -45 21 1 23 3 8 6 -34 8 -41 23 -11 23
18 0 26 5 24 13 -7 18 -47 21 -54 3z m39 -3 c-7 -2 -19 -2 -25 0 -7 3 -2 5 12
5 14 0 19 -2 13 -5z"/>
<path d="M1282 2350 c7 -11 16 -20 20 -20 5 0 3 9 -4 20 -7 11 -16 20 -20 20
-5 0 -3 -9 4 -20z"/>
<path d="M1653 2335 c-9 -25 4 -29 17 -6 7 15 7 21 0 21 -6 0 -13 -7 -17 -15z"/>
<path d="M285 2055 c0 -26 5 -45 11 -45 7 0 9 10 6 25 -3 19 0 25 13 25 13 0
16 -6 13 -25 -5 -22 -2 -25 22 -25 24 0 27 3 22 25 -2 15 0 25 7 25 6 0 11
-11 11 -24 0 -23 3 -25 58 -24 31 1 48 3 37 5 -34 8 -41 23 -11 23 18 0 26 4
24 13 -3 6 -15 12 -28 12 -17 0 -26 -7 -31 -25 l-6 -25 -4 25 c-3 21 -10 26
-40 28 -34 3 -36 1 -32 -22 3 -16 1 -26 -6 -26 -6 0 -11 9 -11 21 0 12 -8 23
-20 26 -11 3 -20 12 -20 19 0 8 -3 14 -7 14 -5 0 -8 -20 -8 -45z m122 -27 c-3
-7 -5 -2 -5 12 0 14 2 19 5 13 2 -7 2 -19 0 -25z m76 25 c-7 -2 -19 -2 -25 0
-7 3 -2 5 12 5 14 0 19 -2 13 -5z"/>
<path d="M1245 2055 c0 -26 5 -45 11 -45 7 0 9 10 6 25 -3 19 0 25 13 25 13 0
16 -6 13 -25 -3 -16 -1 -25 7 -25 20 0 5 52 -16 57 -11 3 -19 12 -19 19 0 8
-3 14 -7 14 -5 0 -8 -20 -8 -45z"/>
<path d="M1405 2055 c0 -26 5 -45 11 -45 7 0 9 10 6 25 -3 19 0 25 13 25 13 0
16 -6 13 -25 -3 -16 -1 -25 7 -25 20 0 5 52 -16 57 -11 3 -19 12 -19 19 0 8
-3 14 -7 14 -5 0 -8 -20 -8 -45z"/>
<path d="M2646 2086 c4 -10 -2 -16 -18 -18 -17 -2 -23 -9 -23 -28 0 -20 5 -26
30 -28 30 -3 30 -3 27 43 -2 25 -8 45 -13 45 -4 0 -6 -6 -3 -14z m-1 -46 c0
-8 -8 -16 -17 -18 -13 -2 -18 3 -18 18 0 15 5 20 18 18 9 -2 17 -10 17 -18z"/>
<path d="M3325 2055 c0 -26 5 -45 11 -45 7 0 9 10 6 25 -3 19 0 25 13 25 13 0
16 -6 13 -25 -3 -16 -1 -25 7 -25 20 0 5 52 -16 57 -11 3 -19 12 -19 19 0 8
-3 14 -7 14 -5 0 -8 -20 -8 -45z"/>
<path d="M3890 2080 c0 -14 7 -20 21 -20 14 0 19 -5 17 -17 -3 -12 -12 -17
-28 -15 -18 2 -22 0 -13 -9 17 -17 48 -6 51 19 3 17 -2 25 -17 29 -28 7 -27
21 2 26 19 4 18 4 -5 6 -22 1 -28 -4 -28 -19z"/>
<path d="M3976 2091 c-3 -5 2 -8 12 -7 12 1 17 -7 17 -28 0 -38 -22 -46 -31
-11 -3 14 -8 24 -11 22 -11 -12 11 -57 28 -57 21 0 34 37 24 69 -6 21 -29 28
-39 12z"/>
<path d="M4056 2091 c-3 -5 2 -8 12 -7 12 1 17 -7 17 -28 0 -38 -22 -46 -31
-11 -3 14 -8 24 -11 22 -11 -12 11 -57 28 -57 21 0 34 37 24 69 -6 21 -29 28
-39 12z"/>
<path d="M4777 2080 c-9 -11 -12 -20 -7 -20 14 0 12 -37 -2 -43 -7 -3 3 -5 22
-5 19 0 27 2 18 5 -10 2 -18 13 -18 23 0 10 8 21 18 23 16 4 16 5 0 6 -26 2
-22 19 5 24 19 4 20 4 2 6 -11 0 -28 -8 -38 -19z"/>
<path d="M5126 2086 c4 -10 -2 -16 -18 -18 -17 -2 -23 -9 -23 -28 0 -20 5 -26
30 -28 30 -3 30 -3 27 43 -2 25 -8 45 -13 45 -4 0 -6 -6 -3 -14z m-1 -46 c0
-8 -8 -16 -17 -18 -13 -2 -18 3 -18 18 0 15 5 20 18 18 9 -2 17 -10 17 -18z"/>
<path d="M685 2080 c-9 -15 4 -30 26 -30 11 0 19 -7 19 -16 0 -12 -7 -15 -25
-12 -14 3 -25 1 -25 -4 0 -5 12 -8 27 -6 35 4 45 37 14 45 -12 3 -21 10 -21
15 0 6 9 8 20 5 11 -3 20 -1 20 4 0 12 -47 11 -55 -1z"/>
<path d="M1649 2080 c-5 -56 11 -78 43 -62 22 11 22 11 -4 6 -24 -5 -28 -3
-28 15 0 15 7 21 23 22 20 1 20 2 2 6 -11 3 -23 10 -27 17 -5 7 -8 6 -9 -4z"/>
<path d="M2365 2050 c0 -22 5 -40 11 -40 6 0 9 15 8 35 -2 19 1 35 7 35 6 0 7
-5 3 -11 -4 -8 0 -8 15 0 29 16 26 21 -11 21 -32 0 -33 -2 -33 -40z"/>
<path d="M2769 2080 c-5 -56 11 -78 43 -62 22 11 22 11 -4 6 -24 -5 -28 -3
-28 15 0 15 7 21 23 22 20 1 20 2 2 6 -11 3 -23 10 -27 17 -5 7 -8 6 -9 -4z"/>
<path d="M3165 2050 c0 -24 5 -40 12 -40 6 0 9 9 6 20 -4 14 0 20 12 20 12 0
16 -6 12 -20 -3 -11 0 -20 6 -20 7 0 12 16 12 40 0 25 -5 40 -12 40 -7 0 -10
-7 -7 -15 4 -10 0 -15 -11 -15 -11 0 -15 5 -11 15 3 8 0 15 -7 15 -7 0 -12
-15 -12 -40z"/>
<path d="M4200 2050 c0 -39 1 -40 35 -40 19 0 35 5 35 10 0 6 -11 8 -25 4 -19
-5 -25 -2 -25 11 0 9 5 13 10 10 6 -3 10 1 10 10 0 9 -4 13 -10 10 -5 -3 -10
-1 -10 4 0 15 27 14 33 -1 3 -8 6 -6 6 5 1 12 -7 17 -29 17 -28 0 -30 -2 -30
-40z"/>
<path d="M125 2040 c0 -16 5 -30 11 -30 7 0 9 10 6 25 -3 19 0 25 13 25 13 0
16 -6 13 -25 -4 -16 -1 -25 8 -25 9 0 10 8 5 28 -5 19 -15 28 -32 30 -21 2
-24 -1 -24 -28z"/>
<path d="M204 2056 c-10 -27 4 -46 33 -45 21 1 23 3 8 6 -34 8 -41 23 -11 23
18 0 26 5 24 13 -7 18 -47 21 -54 3z m39 -3 c-7 -2 -19 -2 -25 0 -7 3 -2 5 12
5 14 0 19 -2 13 -5z"/>
<path d="M525 2040 c0 -16 5 -30 11 -30 7 0 9 10 6 25 -3 19 0 25 13 25 13 0
16 -6 13 -25 -4 -16 -1 -25 8 -25 9 0 10 8 5 28 -5 19 -15 28 -32 30 -21 2
-24 -1 -24 -28z"/>
<path d="M778 2063 c18 -7 15 -41 -5 -46 -10 -3 -2 -5 17 -5 19 0 29 2 23 5
-7 2 -13 16 -13 29 0 16 -5 24 -17 23 -11 0 -13 -3 -5 -6z"/>
<path d="M844 2056 c-10 -27 4 -46 33 -45 21 1 23 3 8 6 -34 8 -41 23 -11 23
18 0 26 5 24 13 -7 18 -47 21 -54 3z m39 -3 c-7 -2 -19 -2 -25 0 -7 3 -2 5 12
5 14 0 19 -2 13 -5z"/>
<path d="M1005 2040 c0 -16 5 -30 11 -30 7 0 9 10 6 25 -3 19 0 25 13 25 13 0
16 -6 13 -25 -4 -16 -1 -25 8 -25 9 0 10 8 5 28 -5 19 -15 28 -32 30 -21 2
-24 -1 -24 -28z"/>
<path d="M1084 2056 c-10 -26 4 -46 31 -46 23 0 26 4 23 28 -3 31 -44 45 -54
18z m46 -16 c0 -13 -7 -20 -20 -20 -19 0 -27 20 -13 33 13 14 33 6 33 -13z"/>
<path d="M1164 2055 c-10 -25 4 -45 30 -45 14 0 27 4 31 9 3 6 -7 9 -22 8 -19
-1 -28 3 -28 13 0 9 9 15 23 14 12 0 22 3 22 8 0 14 -50 8 -56 -7z"/>
<path d="M1484 2056 c-10 -27 4 -46 33 -45 21 1 23 3 8 6 -34 8 -41 23 -11 23
18 0 26 5 24 13 -7 18 -47 21 -54 3z m39 -3 c-7 -2 -19 -2 -25 0 -7 3 -2 5 12
5 14 0 19 -2 13 -5z"/>
<path d="M1568 2040 c4 -25 9 -30 31 -30 25 0 27 3 23 30 -3 19 -10 30 -21 30
-13 0 -13 -2 -2 -9 8 -5 11 -16 8 -25 -10 -25 -27 -19 -27 9 0 14 -4 25 -8 25
-5 0 -7 -13 -4 -30z"/>
<path d="M1724 2056 c-10 -27 4 -46 33 -45 21 1 23 3 8 6 -34 8 -41 23 -11 23
18 0 26 5 24 13 -7 18 -47 21 -54 3z m39 -3 c-7 -2 -19 -2 -25 0 -7 3 -2 5 12
5 14 0 19 -2 13 -5z"/>
<path d="M1884 2056 c-10 -27 4 -46 33 -45 21 1 23 3 8 6 -34 8 -41 23 -11 23
18 0 26 5 24 13 -7 18 -47 21 -54 3z m39 -3 c-7 -2 -19 -2 -25 0 -7 3 -2 5 12
5 14 0 19 -2 13 -5z"/>
<path d="M1978 2063 c18 -7 15 -41 -5 -46 -10 -3 -2 -5 17 -5 19 0 29 2 23 5
-7 2 -13 16 -13 29 0 16 -5 24 -17 23 -11 0 -13 -3 -5 -6z"/>
<path d="M2045 2040 c0 -16 5 -30 11 -30 7 0 9 10 6 25 -3 19 0 25 13 25 13 0
16 -6 13 -25 -4 -16 -1 -25 8 -25 9 0 10 8 5 28 -5 19 -15 28 -32 30 -21 2
-24 -1 -24 -28z"/>
<path d="M2124 2056 c-10 -27 4 -46 33 -45 21 1 23 3 8 6 -34 8 -41 23 -11 23
18 0 26 5 24 13 -7 18 -47 21 -54 3z m39 -3 c-7 -2 -19 -2 -25 0 -7 3 -2 5 12
5 14 0 19 -2 13 -5z"/>
<path d="M2205 2040 c0 -16 5 -30 11 -30 7 0 9 10 6 25 -3 19 0 25 13 25 13 0
16 -6 13 -25 -4 -16 -1 -25 8 -25 9 0 10 8 5 28 -5 19 -15 28 -32 30 -21 2
-24 -1 -24 -28z"/>
<path d="M2448 2063 c6 -2 12 -13 12 -23 0 -10 -6 -21 -12 -23 -7 -3 3 -5 22
-5 19 0 27 2 17 5 -23 6 -18 39 6 37 9 -1 14 2 11 7 -3 5 -20 9 -37 8 -18 0
-26 -3 -19 -6z"/>
<path d="M2524 2056 c-10 -27 4 -46 33 -45 21 1 23 3 8 6 -34 8 -41 23 -11 23
18 0 26 5 24 13 -7 18 -47 21 -54 3z m39 -3 c-7 -2 -19 -2 -25 0 -7 3 -2 5 12
5 14 0 19 -2 13 -5z"/>
<path d="M2698 2063 c18 -7 15 -41 -5 -46 -10 -3 -2 -5 17 -5 19 0 29 2 23 5
-7 2 -13 16 -13 29 0 16 -5 24 -17 23 -11 0 -13 -3 -5 -6z"/>
<path d="M2938 2063 c18 -7 15 -41 -5 -46 -10 -3 -2 -5 17 -5 19 0 29 2 23 5
-7 2 -13 16 -13 29 0 16 -5 24 -17 23 -11 0 -13 -3 -5 -6z"/>
<path d="M3005 2040 c0 -16 5 -30 11 -30 7 0 9 10 6 25 -3 19 0 25 13 25 13 0
16 -6 13 -25 -4 -16 -1 -25 8 -25 9 0 10 8 5 28 -5 19 -15 28 -32 30 -21 2
-24 -1 -24 -28z"/>
<path d="M3244 2056 c-10 -26 4 -46 31 -46 23 0 26 4 23 28 -3 31 -44 45 -54
18z m46 -16 c0 -13 -7 -20 -20 -20 -19 0 -27 20 -13 33 13 14 33 6 33 -13z"/>
<path d="M3404 2056 c-10 -27 4 -46 33 -45 21 1 23 3 8 6 -34 8 -41 23 -11 23
18 0 26 5 24 13 -7 18 -47 21 -54 3z m39 -3 c-7 -2 -19 -2 -25 0 -7 3 -2 5 12
5 14 0 19 -2 13 -5z"/>
<path d="M3575 2039 c9 -17 18 -29 19 -27 33 49 36 58 21 58 -8 0 -14 -3 -14
-7 3 -21 -2 -33 -12 -28 -6 4 -8 13 -5 21 3 8 -1 14 -10 14 -13 0 -12 -4 1
-31z"/>
<path d="M3644 2056 c-10 -26 4 -46 31 -46 23 0 26 4 23 28 -3 31 -44 45 -54
18z m46 -16 c0 -13 -7 -20 -20 -20 -19 0 -27 20 -13 33 13 14 33 6 33 -13z"/>
<path d="M3725 2040 c0 -16 5 -30 11 -30 7 0 9 10 6 25 -3 19 0 25 13 25 13 0
16 -6 13 -25 -4 -16 -1 -25 8 -25 9 0 10 8 5 28 -5 19 -15 28 -32 30 -21 2
-24 -1 -24 -28z"/>
<path d="M4288 2040 c4 -25 9 -30 31 -30 25 0 27 3 23 30 -3 19 -10 30 -21 30
-13 0 -13 -2 -2 -9 8 -5 11 -16 8 -25 -10 -25 -27 -19 -27 9 0 14 -4 25 -8 25
-5 0 -7 -13 -4 -30z"/>
<path d="M4368 2063 c6 -2 12 -13 12 -23 0 -10 -6 -21 -12 -23 -7 -3 3 -5 22
-5 19 0 27 2 17 5 -23 6 -18 39 6 37 9 -1 14 2 11 7 -3 5 -20 9 -37 8 -18 0
-26 -3 -19 -6z"/>
<path d="M4444 2056 c-10 -26 4 -46 31 -46 23 0 26 4 23 28 -3 31 -44 45 -54
18z m46 -16 c0 -13 -7 -20 -20 -20 -19 0 -27 20 -13 33 13 14 33 6 33 -13z"/>
<path d="M4624 2062 c19 -8 19 -9 -2 -14 -37 -10 -27 -38 12 -38 32 0 34 1 27
28 -5 19 -15 28 -32 29 -21 2 -21 2 -5 -5z m16 -32 c0 -5 -7 -10 -15 -10 -8 0
-15 5 -15 10 0 6 7 10 15 10 8 0 15 -4 15 -10z"/>
<path d="M4688 2040 c4 -25 9 -30 31 -30 25 0 27 3 23 30 -3 19 -10 30 -21 30
-13 0 -13 -2 -2 -9 8 -5 11 -16 8 -25 -10 -25 -27 -19 -27 9 0 14 -4 25 -8 25
-5 0 -7 -13 -4 -30z"/>
<path d="M4928 2040 c4 -25 9 -30 31 -30 25 0 27 3 23 30 -3 19 -10 30 -21 30
-13 0 -13 -2 -2 -9 8 -5 11 -16 8 -25 -10 -25 -27 -19 -27 9 0 14 -4 25 -8 25
-5 0 -7 -13 -4 -30z"/>
<path d="M5005 2040 c0 -16 5 -30 11 -30 7 0 9 10 6 25 -3 19 0 25 13 25 13 0
16 -6 13 -25 -4 -16 -1 -25 8 -25 9 0 10 8 5 28 -5 19 -15 28 -32 30 -21 2
-24 -1 -24 -28z"/>
<path d="M2402 2030 c7 -11 16 -20 20 -20 5 0 3 9 -4 20 -7 11 -16 20 -20 20
-5 0 -3 -9 4 -20z"/>
<path d="M137 1920 c-9 -11 -12 -20 -7 -20 14 0 12 -37 -2 -43 -7 -3 3 -5 22
-5 19 0 27 2 18 5 -10 2 -18 13 -18 23 0 10 8 21 18 23 16 4 16 5 0 6 -26 2
-22 19 5 24 19 4 20 4 2 6 -11 0 -28 -8 -38 -19z"/>
<path d="M1645 1895 c0 -26 5 -45 11 -45 7 0 9 10 6 25 -3 19 0 25 13 25 13 0
16 -6 13 -25 -3 -16 -1 -25 7 -25 20 0 5 52 -16 57 -11 3 -19 12 -19 19 0 8
-3 14 -7 14 -5 0 -8 -20 -8 -45z"/>
<path d="M1885 1895 c0 -26 5 -45 11 -45 7 0 9 10 6 25 -3 19 0 25 13 25 13 0
16 -6 13 -25 -3 -16 -1 -25 7 -25 20 0 5 52 -16 57 -11 3 -19 12 -19 19 0 8
-3 14 -7 14 -5 0 -8 -20 -8 -45z"/>
<path d="M2525 1895 c0 -26 5 -45 11 -45 7 0 9 10 6 25 -3 19 0 25 13 25 13 0
16 -6 13 -25 -3 -16 -1 -25 7 -25 20 0 5 52 -16 57 -11 3 -19 12 -19 19 0 8
-3 14 -7 14 -5 0 -8 -20 -8 -45z"/>
<path d="M3286 1926 c4 -10 -2 -16 -18 -18 -17 -2 -23 -9 -23 -28 0 -20 5 -26
30 -28 30 -3 30 -3 27 43 -2 25 -8 45 -13 45 -4 0 -6 -6 -3 -14z m-1 -46 c0
-8 -8 -16 -17 -18 -13 -2 -18 3 -18 18 0 15 5 20 18 18 9 -2 17 -10 17 -18z"/>
<path d="M3658 1933 c19 -8 15 -71 -5 -76 -10 -3 -2 -5 17 -5 19 0 29 2 23 5
-8 2 -13 22 -13 44 0 31 -4 39 -17 38 -11 0 -13 -3 -5 -6z"/>
<path d="M3878 1900 c3 -25 0 -40 -7 -40 -6 0 -11 11 -11 25 0 17 -5 25 -17
25 -15 0 -15 -2 -4 -9 8 -5 11 -16 8 -25 -10 -25 -27 -19 -27 9 0 14 -4 25 -8
25 -5 0 -7 -13 -4 -30 4 -29 6 -30 62 -30 65 0 93 18 69 46 -7 8 -21 13 -31
11 -13 -4 -18 0 -18 14 0 10 -3 19 -8 19 -4 0 -6 -18 -4 -40z m58 -11 c9 -15
-11 -33 -30 -26 -9 4 -13 13 -10 22 7 17 30 20 40 4z"/>
<path d="M4326 1926 c4 -10 -2 -16 -18 -18 -17 -2 -23 -9 -23 -28 0 -20 5 -26
30 -28 30 -3 30 -3 27 43 -2 25 -8 45 -13 45 -4 0 -6 -6 -3 -14z m-1 -46 c0
-8 -8 -16 -17 -18 -13 -2 -18 3 -18 18 0 15 5 20 18 18 9 -2 17 -10 17 -18z"/>
<path d="M5235 1895 c0 -42 2 -45 26 -45 36 0 56 24 38 46 -7 8 -21 13 -31 11
-13 -4 -18 0 -18 14 0 10 -3 19 -7 19 -5 0 -8 -20 -8 -45z m61 -6 c9 -15 -11
-33 -30 -26 -9 4 -13 13 -10 22 7 17 30 20 40 4z"/>
<path d="M1085 1920 c-9 -15 4 -30 26 -30 11 0 19 -7 19 -16 0 -12 -7 -15 -25
-12 -14 3 -25 1 -25 -4 0 -5 12 -8 27 -6 35 4 45 37 14 45 -12 3 -21 10 -21
15 0 6 9 8 20 5 11 -3 20 -1 20 4 0 12 -47 11 -55 -1z"/>
<path d="M2689 1920 c-5 -56 11 -78 43 -62 22 11 22 11 -4 6 -24 -5 -28 -3
-28 15 0 15 7 21 23 22 20 1 20 2 2 6 -11 3 -23 10 -27 17 -5 7 -8 6 -9 -4z"/>
<path d="M2997 1903 c9 -55 13 -60 28 -33 19 33 18 50 0 26 -15 -19 -15 -19
-15 1 0 12 6 24 13 26 6 3 2 6 -9 6 -18 1 -20 -4 -17 -26z"/>
<path d="M3048 1923 c14 -6 16 -33 2 -33 -12 0 -13 -27 -1 -34 5 -3 13 12 19
34 9 37 9 40 -12 39 -11 0 -15 -3 -8 -6z"/>
<path d="M4604 1916 c-12 -31 0 -61 25 -61 31 0 50 28 35 53 -14 22 -52 28
-60 8z m50 -11 c8 -21 -3 -45 -20 -45 -8 0 -17 7 -20 15 -8 21 2 45 20 45 7 0
16 -7 20 -15z"/>
<path d="M4769 1920 c-5 -56 11 -78 43 -62 22 11 22 11 -4 6 -24 -5 -28 -3
-28 15 0 15 7 21 23 22 20 1 20 2 2 6 -11 3 -23 10 -27 17 -5 7 -8 6 -9 -4z"/>
<path d="M218 1903 c18 -7 15 -41 -5 -46 -10 -3 -2 -5 17 -5 19 0 29 2 23 5
-7 2 -13 16 -13 29 0 16 -5 24 -17 23 -11 0 -13 -3 -5 -6z"/>
<path d="M285 1880 c0 -16 5 -30 11 -30 7 0 9 10 6 25 -3 19 0 25 13 25 13 0
16 -6 13 -25 -4 -16 -1 -25 8 -25 9 0 10 8 5 28 -5 19 -15 28 -32 30 -21 2
-24 -1 -24 -28z"/>
<path d="M384 1902 c19 -8 19 -9 -2 -14 -37 -10 -27 -38 12 -38 32 0 34 1 27
28 -5 19 -15 28 -32 29 -21 2 -21 2 -5 -5z m16 -32 c0 -5 -7 -10 -15 -10 -8 0
-15 5 -15 10 0 6 7 10 15 10 8 0 15 -4 15 -10z"/>
<path d="M445 1880 c0 -16 5 -30 11 -30 7 0 9 10 6 25 -3 19 0 25 13 25 13 0
16 -6 13 -25 -4 -16 -1 -25 8 -25 9 0 10 8 5 28 -5 19 -15 28 -32 30 -21 2
-24 -1 -24 -28z"/>
<path d="M530 1900 c0 -5 8 -7 18 -3 13 5 11 0 -7 -20 l-24 -27 31 0 c18 0 32
4 32 9 0 5 -10 7 -22 4 l-23 -6 24 27 24 26 -26 0 c-15 0 -27 -4 -27 -10z"/>
<path d="M618 1903 c18 -7 15 -41 -5 -46 -10 -3 -2 -5 17 -5 19 0 29 2 23 5
-7 2 -13 16 -13 29 0 16 -5 24 -17 23 -11 0 -13 -3 -5 -6z"/>
<path d="M684 1896 c-10 -27 4 -46 33 -45 21 1 23 3 8 6 -34 8 -41 23 -11 23
18 0 26 5 24 13 -7 18 -47 21 -54 3z m39 -3 c-7 -2 -19 -2 -25 0 -7 3 -2 5 12
5 14 0 19 -2 13 -5z"/>
<path d="M768 1903 c6 -2 12 -13 12 -23 0 -10 -6 -21 -12 -23 -7 -3 3 -5 22
-5 19 0 27 2 17 5 -23 6 -18 39 6 37 9 -1 14 2 11 7 -3 5 -20 9 -37 8 -18 0
-26 -3 -19 -6z"/>
<path d="M844 1896 c-10 -27 4 -46 33 -45 21 1 23 3 8 6 -34 8 -41 23 -11 23
18 0 26 5 24 13 -7 18 -47 21 -54 3z m39 -3 c-7 -2 -19 -2 -25 0 -7 3 -2 5 12
5 14 0 19 -2 13 -5z"/>
<path d="M925 1880 c0 -16 5 -30 11 -30 7 0 9 10 6 25 -3 19 0 25 13 25 13 0
16 -6 13 -25 -4 -16 -1 -25 8 -25 9 0 10 8 5 28 -5 19 -15 28 -32 30 -21 2
-24 -1 -24 -28z"/>
<path d="M1178 1903 c18 -7 15 -41 -5 -46 -10 -3 -2 -5 17 -5 19 0 29 2 23 5
-7 2 -13 16 -13 29 0 16 -5 24 -17 23 -11 0 -13 -3 -5 -6z"/>
<path d="M1244 1896 c-10 -27 4 -46 33 -45 21 1 23 3 8 6 -34 8 -41 23 -11 23
18 0 26 5 24 13 -7 18 -47 21 -54 3z m39 -3 c-7 -2 -19 -2 -25 0 -7 3 -2 5 12
5 14 0 19 -2 13 -5z"/>
<path d="M1410 1895 c0 -8 9 -15 20 -15 11 0 20 -5 20 -11 0 -7 -10 -9 -25 -7
-14 3 -25 1 -25 -4 0 -5 12 -8 27 -6 22 2 28 9 30 31 1 23 -2 27 -23 27 -15 0
-24 -6 -24 -15z"/>
<path d="M1498 1903 c18 -7 15 -41 -5 -46 -10 -3 -2 -5 17 -5 19 0 29 2 23 5
-7 2 -13 16 -13 29 0 16 -5 24 -17 23 -11 0 -13 -3 -5 -6z"/>
<path d="M1564 1895 c-10 -25 4 -45 30 -45 14 0 27 4 31 9 3 6 -7 9 -22 8 -19
-1 -28 3 -28 13 0 9 9 15 23 14 12 0 22 3 22 8 0 14 -50 8 -56 -7z"/>
<path d="M1818 1903 c18 -7 15 -41 -5 -46 -10 -3 -2 -5 17 -5 19 0 29 2 23 5
-7 2 -13 16 -13 29 0 16 -5 24 -17 23 -11 0 -13 -3 -5 -6z"/>
<path d="M1968 1903 c6 -2 12 -13 12 -23 0 -10 -6 -21 -12 -23 -7 -3 3 -5 22
-5 19 0 27 2 17 5 -23 6 -18 39 6 37 9 -1 14 2 11 7 -3 5 -20 9 -37 8 -18 0
-26 -3 -19 -6z"/>
<path d="M2044 1896 c-10 -27 4 -46 33 -45 21 1 23 3 8 6 -34 8 -41 23 -11 23
18 0 26 5 24 13 -7 18 -47 21 -54 3z m39 -3 c-7 -2 -19 -2 -25 0 -7 3 -2 5 12
5 14 0 19 -2 13 -5z"/>
<path d="M2125 1880 c0 -16 5 -30 11 -30 7 0 9 10 6 25 -3 19 0 25 13 25 13 0
16 -6 13 -25 -4 -16 -1 -25 8 -25 9 0 10 8 5 28 -5 19 -15 28 -32 30 -21 2
-24 -1 -24 -28z"/>
<path d="M2285 1880 c0 -16 5 -30 11 -30 7 0 9 10 6 25 -3 19 0 25 13 25 13 0
16 -6 13 -25 -4 -16 -1 -25 8 -25 9 0 10 8 5 28 -5 19 -15 28 -32 30 -21 2
-24 -1 -24 -28z"/>
<path d="M2384 1902 c19 -8 19 -9 -2 -14 -37 -10 -27 -38 12 -38 32 0 34 1 27
28 -5 19 -15 28 -32 29 -21 2 -21 2 -5 -5z m16 -32 c0 -5 -7 -10 -15 -10 -8 0
-15 5 -15 10 0 6 7 10 15 10 8 0 15 -4 15 -10z"/>
<path d="M2444 1895 c-10 -25 4 -45 30 -45 14 0 27 4 31 9 3 6 -7 9 -22 8 -19
-1 -28 3 -28 13 0 9 9 15 23 14 12 0 22 3 22 8 0 14 -50 8 -56 -7z"/>
<path d="M2610 1895 c0 -8 9 -15 20 -15 11 0 20 -5 20 -11 0 -7 -10 -9 -25 -7
-14 3 -25 1 -25 -4 0 -5 12 -8 27 -6 22 2 28 9 30 31 1 23 -2 27 -23 27 -15 0
-24 -6 -24 -15z"/>
<path d="M2764 1896 c-10 -27 4 -46 33 -45 21 1 23 3 8 6 -34 8 -41 23 -11 23
18 0 26 5 24 13 -7 18 -47 21 -54 3z m39 -3 c-7 -2 -19 -2 -25 0 -7 3 -2 5 12
5 14 0 19 -2 13 -5z"/>
<path d="M2845 1880 c0 -16 5 -30 11 -30 7 0 9 10 6 25 -3 19 0 25 13 25 13 0
16 -6 13 -25 -4 -16 -1 -25 8 -25 9 0 10 8 5 28 -5 19 -15 28 -32 30 -21 2
-24 -1 -24 -28z"/>
<path d="M3104 1902 c19 -8 19 -9 -2 -14 -37 -10 -27 -38 12 -38 32 0 34 1 27
28 -5 19 -15 28 -32 29 -21 2 -21 2 -5 -5z m16 -32 c0 -5 -7 -10 -15 -10 -8 0
-15 5 -15 10 0 6 7 10 15 10 8 0 15 -4 15 -10z"/>
<path d="M3165 1880 c0 -16 5 -30 11 -30 7 0 9 10 6 25 -3 19 0 25 13 25 13 0
16 -6 13 -25 -4 -16 -1 -25 8 -25 9 0 10 8 5 28 -5 19 -15 28 -32 30 -21 2
-24 -1 -24 -28z"/>
<path d="M3324 1896 c-10 -27 4 -46 33 -45 21 1 23 3 8 6 -34 8 -41 23 -11 23
18 0 26 5 24 13 -7 18 -47 21 -54 3z m39 -3 c-7 -2 -19 -2 -25 0 -7 3 -2 5 12
5 14 0 19 -2 13 -5z"/>
<path d="M3408 1903 c6 -2 12 -13 12 -23 0 -10 -6 -21 -12 -23 -7 -3 3 -5 22
-5 19 0 27 2 17 5 -23 6 -18 39 6 37 9 -1 14 2 11 7 -3 5 -20 9 -37 8 -18 0
-26 -3 -19 -6z"/>
<path d="M3488 1880 c4 -25 9 -30 31 -30 25 0 27 3 23 30 -3 19 -10 30 -21 30
-13 0 -13 -2 -2 -9 8 -5 11 -16 8 -25 -10 -25 -27 -19 -27 9 0 14 -4 25 -8 25
-5 0 -7 -13 -4 -30z"/>
<path d="M3568 1903 c6 -2 12 -13 12 -23 0 -10 -6 -21 -12 -23 -7 -3 3 -5 22
-5 19 0 27 2 17 5 -23 6 -18 39 6 37 9 -1 14 2 11 7 -3 5 -20 9 -37 8 -18 0
-26 -3 -19 -6z"/>
<path d="M3744 1902 c19 -8 19 -9 -2 -14 -37 -10 -27 -38 12 -38 32 0 34 1 27
28 -5 19 -15 28 -32 29 -21 2 -21 2 -5 -5z m16 -32 c0 -5 -7 -10 -15 -10 -8 0
-15 5 -15 10 0 6 7 10 15 10 8 0 15 -4 15 -10z"/>
<path d="M4064 1902 c19 -8 19 -9 -2 -14 -37 -10 -27 -38 12 -38 32 0 34 1 27
28 -5 19 -15 28 -32 29 -21 2 -21 2 -5 -5z m16 -32 c0 -5 -7 -10 -15 -10 -8 0
-15 5 -15 10 0 6 7 10 15 10 8 0 15 -4 15 -10z"/>
<path d="M4125 1880 c0 -16 5 -30 11 -30 7 0 9 10 6 25 -3 19 0 25 13 25 13 0
16 -6 13 -25 -4 -16 -1 -25 8 -25 9 0 10 8 5 28 -5 19 -15 28 -32 30 -21 2
-24 -1 -24 -28z"/>
<path d="M4364 1896 c-10 -27 4 -46 33 -45 21 1 23 3 8 6 -34 8 -41 23 -11 23
18 0 26 5 24 13 -7 18 -47 21 -54 3z m39 -3 c-7 -2 -19 -2 -25 0 -7 3 -2 5 12
5 14 0 19 -2 13 -5z"/>
<path d="M4448 1903 c6 -2 12 -13 12 -23 0 -10 -6 -21 -12 -23 -7 -3 3 -5 22
-5 19 0 27 2 17 5 -23 6 -18 39 6 37 9 -1 14 2 11 7 -3 5 -20 9 -37 8 -18 0
-26 -3 -19 -6z"/>
<path d="M4690 1895 c0 -8 9 -15 20 -15 11 0 20 -5 20 -11 0 -7 -10 -9 -25 -7
-14 3 -25 1 -25 -4 0 -5 12 -8 27 -6 22 2 28 9 30 31 1 23 -2 27 -23 27 -15 0
-24 -6 -24 -15z"/>
<path d="M4850 1895 c0 -8 9 -15 20 -15 11 0 20 -5 20 -11 0 -7 -10 -9 -25 -7
-14 3 -25 1 -25 -4 0 -5 12 -8 27 -6 22 2 28 9 30 31 1 23 -2 27 -23 27 -15 0
-24 -6 -24 -15z"/>
<path d="M4924 1896 c-10 -27 4 -46 33 -45 21 1 23 3 8 6 -34 8 -41 23 -11 23
18 0 26 5 24 13 -7 18 -47 21 -54 3z m39 -3 c-7 -2 -19 -2 -25 0 -7 3 -2 5 12
5 14 0 19 -2 13 -5z"/>
<path d="M5004 1896 c-10 -27 4 -46 33 -45 21 1 23 3 8 6 -34 8 -41 23 -11 23
18 0 26 5 24 13 -7 18 -47 21 -54 3z m39 -3 c-7 -2 -19 -2 -25 0 -7 3 -2 5 12
5 14 0 19 -2 13 -5z"/>
<path d="M5330 1895 c0 -8 9 -15 20 -15 11 0 20 -5 20 -11 0 -7 -10 -9 -25 -7
-14 3 -25 1 -25 -4 0 -5 12 -8 27 -6 22 2 28 9 30 31 1 23 -2 27 -23 27 -15 0
-24 -6 -24 -15z"/>
<path d="M5395 1865 c0 -39 3 -45 20 -44 11 0 14 3 8 6 -22 8 -14 23 11 23 28
0 42 26 25 46 -6 8 -23 14 -38 14 -24 0 -26 -3 -26 -45z m61 24 c9 -15 -11
-33 -30 -26 -9 4 -13 13 -10 22 7 17 30 20 40 4z"/>
<path d="M5482 1879 c10 -28 12 -29 26 -15 9 8 12 19 8 23 -4 4 -12 1 -17 -7
-8 -12 -10 -10 -6 8 3 14 0 22 -8 22 -11 0 -12 -6 -3 -31z"/>
<path d="M5524 1880 c-1 -35 11 -31 18 5 3 15 1 25 -6 25 -6 0 -11 -13 -12
-30z"/>
<path d="M5738 1903 c18 -7 15 -41 -5 -46 -10 -3 -2 -5 17 -5 19 0 29 2 23 5
-7 2 -13 16 -13 29 0 16 -5 24 -17 23 -11 0 -13 -3 -5 -6z"/>
<path d="M5805 1880 c0 -16 5 -30 11 -30 7 0 9 10 6 25 -3 19 0 25 13 25 13 0
16 -6 13 -25 -4 -16 -1 -25 8 -25 9 0 10 8 5 28 -5 19 -15 28 -32 30 -21 2
-24 -1 -24 -28z"/>
<path d="M5093 1855 c-9 -25 4 -29 17 -6 7 15 7 21 0 21 -6 0 -13 -7 -17 -15z"/>
<path d="M5580 1860 c0 -5 5 -10 10 -10 6 0 10 5 10 10 0 6 -4 10 -10 10 -5 0
-10 -4 -10 -10z"/>
<path d="M166 1766 c4 -10 -2 -16 -18 -18 -17 -2 -23 -9 -23 -28 0 -20 5 -26
30 -28 30 -3 30 -3 27 43 -2 25 -8 45 -13 45 -4 0 -6 -6 -3 -14z m-1 -46 c0
-8 -8 -16 -17 -18 -13 -2 -18 3 -18 18 0 15 5 20 18 18 9 -2 17 -10 17 -18z"/>
<path d="M1126 1766 c4 -10 -2 -16 -18 -18 -17 -2 -23 -9 -23 -28 0 -20 5 -26
30 -28 30 -3 30 -3 27 43 -2 25 -8 45 -13 45 -4 0 -6 -6 -3 -14z m-1 -46 c0
-8 -8 -16 -17 -18 -13 -2 -18 3 -18 18 0 15 5 20 18 18 9 -2 17 -10 17 -18z"/>
<path d="M1658 1773 c19 -8 15 -71 -5 -76 -10 -3 -2 -5 17 -5 19 0 29 2 23 5
-8 2 -13 22 -13 44 0 31 -4 39 -17 38 -11 0 -13 -3 -5 -6z"/>
<path d="M2006 1766 c4 -10 -2 -16 -18 -18 -17 -2 -23 -9 -23 -28 0 -20 5 -26
30 -28 30 -3 30 -3 27 43 -2 25 -8 45 -13 45 -4 0 -6 -6 -3 -14z m-1 -46 c0
-8 -8 -16 -17 -18 -13 -2 -18 3 -18 18 0 15 5 20 18 18 9 -2 17 -10 17 -18z"/>
<path d="M2566 1766 c4 -10 -2 -16 -18 -18 -17 -2 -23 -9 -23 -28 0 -20 5 -26
30 -28 30 -3 30 -3 27 43 -2 25 -8 45 -13 45 -4 0 -6 -6 -3 -14z m-1 -46 c0
-8 -8 -16 -17 -18 -13 -2 -18 3 -18 18 0 15 5 20 18 18 9 -2 17 -10 17 -18z"/>
<path d="M3725 1735 c0 -25 3 -45 8 -45 4 0 7 8 7 18 1 16 1 16 14 0 7 -10 19
-18 27 -18 8 0 6 6 -7 15 -19 15 -19 15 0 30 19 15 19 15 -1 15 -12 0 -24 -6
-26 -12 -3 -7 -6 -1 -6 15 -2 46 -16 30 -16 -18z"/>
<path d="M4006 1766 c4 -10 -2 -16 -18 -18 -17 -2 -23 -9 -23 -28 0 -20 5 -26
30 -28 30 -3 30 -3 27 43 -2 25 -8 45 -13 45 -4 0 -6 -6 -3 -14z m-1 -46 c0
-8 -8 -16 -17 -18 -13 -2 -18 3 -18 18 0 15 5 20 18 18 9 -2 17 -10 17 -18z"/>
<path d="M4966 1766 c4 -10 -2 -16 -18 -18 -17 -2 -23 -9 -23 -28 0 -20 5 -26
30 -28 30 -3 30 -3 27 43 -2 25 -8 45 -13 45 -4 0 -6 -6 -3 -14z m-1 -46 c0
-8 -8 -16 -17 -18 -13 -2 -18 3 -18 18 0 15 5 20 18 18 9 -2 17 -10 17 -18z"/>
<path d="M5485 1735 c0 -26 5 -45 11 -45 7 0 9 10 6 25 -3 19 0 25 13 25 13 0
16 -6 13 -25 -3 -16 -1 -25 7 -25 20 0 5 52 -16 57 -11 3 -19 12 -19 19 0 8
-3 14 -7 14 -5 0 -8 -20 -8 -45z"/>
<path d="M445 1730 c0 -24 5 -40 12 -40 6 0 9 9 6 20 -4 14 0 20 12 20 12 0
16 -6 12 -20 -3 -11 0 -20 6 -20 7 0 12 16 12 40 0 25 -5 40 -12 40 -7 0 -10
-7 -7 -15 4 -10 0 -15 -11 -15 -11 0 -15 5 -11 15 3 8 0 15 -7 15 -7 0 -12
-15 -12 -40z"/>
<path d="M929 1760 c-5 -56 11 -78 43 -62 22 11 22 11 -4 6 -24 -5 -28 -3 -28
15 0 15 7 21 23 22 20 1 20 2 2 6 -11 3 -23 10 -27 17 -5 7 -8 6 -9 -4z"/>
<path d="M1169 1760 c-5 -56 11 -78 43 -62 22 11 22 11 -4 6 -24 -5 -28 -3
-28 15 0 15 7 21 23 22 20 1 20 2 2 6 -11 3 -23 10 -27 17 -5 7 -8 6 -9 -4z"/>
<path d="M1325 1760 c-9 -15 4 -30 26 -30 11 0 19 -7 19 -16 0 -12 -7 -15 -25
-12 -14 3 -25 1 -25 -4 0 -5 12 -8 27 -6 35 4 45 37 14 45 -12 3 -21 10 -21
15 0 6 9 8 20 5 11 -3 20 -1 20 4 0 12 -47 11 -55 -1z"/>
<path d="M1409 1760 c-5 -56 11 -78 43 -62 22 11 22 11 -4 6 -24 -5 -28 -3
-28 15 0 15 7 21 23 22 20 1 20 2 2 6 -11 3 -23 10 -27 17 -5 7 -8 6 -9 -4z"/>
<path d="M2205 1730 c0 -37 2 -40 27 -40 21 0 29 6 34 25 8 30 -10 55 -40 55
-18 0 -21 -6 -21 -40z m50 0 c0 -16 -6 -26 -17 -28 -14 -3 -18 3 -18 28 0 25
4 31 18 28 11 -2 17 -12 17 -28z"/>
<path d="M2769 1760 c-5 -56 11 -78 43 -62 22 11 22 11 -4 6 -24 -5 -28 -3
-28 15 0 15 7 21 23 22 20 1 20 2 2 6 -11 3 -23 10 -27 17 -5 7 -8 6 -9 -4z"/>
<path d="M3237 1743 c9 -55 13 -60 28 -33 19 33 18 50 0 26 -15 -19 -15 -19
-15 1 0 12 6 24 13 26 6 3 2 6 -9 6 -18 1 -20 -4 -17 -26z"/>
<path d="M3288 1763 c14 -6 16 -33 2 -33 -12 0 -13 -27 -1 -34 5 -3 13 12 19
34 9 37 9 40 -12 39 -11 0 -15 -3 -8 -6z"/>
<path d="M3409 1760 c-5 -56 11 -78 43 -62 22 11 22 11 -4 6 -24 -5 -28 -3
-28 15 0 15 7 21 23 22 20 1 20 2 2 6 -11 3 -23 10 -27 17 -5 7 -8 6 -9 -4z"/>
<path d="M3489 1760 c-5 -56 11 -78 43 -62 22 11 22 11 -4 6 -24 -5 -28 -3
-28 15 0 15 7 21 23 22 20 1 20 2 2 6 -11 3 -23 10 -27 17 -5 7 -8 6 -9 -4z"/>
<path d="M4129 1760 c-5 -56 11 -78 43 -62 22 11 22 11 -4 6 -24 -5 -28 -3
-28 15 0 15 7 21 23 22 20 1 20 2 2 6 -11 3 -23 10 -27 17 -5 7 -8 6 -9 -4z"/>
<path d="M5649 1760 c-5 -56 11 -78 43 -62 22 11 22 11 -4 6 -24 -5 -28 -3
-28 15 0 15 7 21 23 22 20 1 20 2 2 6 -11 3 -23 10 -27 17 -5 7 -8 6 -9 -4z"/>
<path d="M204 1736 c-10 -27 4 -46 33 -45 21 1 23 3 8 6 -34 8 -41 23 -11 23
18 0 26 5 24 13 -7 18 -47 21 -54 3z m39 -3 c-7 -2 -19 -2 -25 0 -7 3 -2 5 12
5 14 0 19 -2 13 -5z"/>
<path d="M288 1743 c6 -2 12 -13 12 -23 0 -10 -6 -21 -12 -23 -7 -3 3 -5 22
-5 19 0 27 2 17 5 -23 6 -18 39 6 37 9 -1 14 2 11 7 -3 5 -20 9 -37 8 -18 0
-26 -3 -19 -6z"/>
<path d="M544 1742 c19 -8 19 -9 -2 -14 -37 -10 -27 -38 12 -38 32 0 34 1 27
28 -5 19 -15 28 -32 29 -21 2 -21 2 -5 -5z m16 -32 c0 -5 -7 -10 -15 -10 -8 0
-15 5 -15 10 0 6 7 10 15 10 8 0 15 -4 15 -10z"/>
<path d="M605 1720 c0 -16 5 -30 11 -30 7 0 9 10 6 25 -3 19 0 25 13 25 13 0
16 -6 13 -25 -4 -16 -1 -25 8 -25 9 0 10 8 5 28 -5 19 -15 28 -32 30 -21 2
-24 -1 -24 -28z"/>
<path d="M690 1735 c0 -8 9 -15 20 -15 11 0 20 -5 20 -11 0 -7 -10 -9 -25 -7
-14 3 -25 1 -25 -4 0 -5 12 -8 27 -6 22 2 28 9 30 31 1 23 -2 27 -23 27 -15 0
-24 -6 -24 -15z"/>
<path d="M764 1736 c-10 -27 4 -46 33 -45 21 1 23 3 8 6 -34 8 -41 23 -11 23
18 0 26 5 24 13 -7 18 -47 21 -54 3z m39 -3 c-7 -2 -19 -2 -25 0 -7 3 -2 5 12
5 14 0 19 -2 13 -5z"/>
<path d="M850 1735 c0 -8 9 -15 20 -15 11 0 20 -5 20 -11 0 -7 -10 -9 -25 -7
-14 3 -25 1 -25 -4 0 -5 12 -8 27 -6 22 2 28 9 30 31 1 23 -2 27 -23 27 -15 0
-24 -6 -24 -15z"/>
<path d="M1024 1742 c19 -8 19 -9 -2 -14 -37 -10 -27 -38 12 -38 32 0 34 1 27
28 -5 19 -15 28 -32 29 -21 2 -21 2 -5 -5z m16 -32 c0 -5 -7 -10 -15 -10 -8 0
-15 5 -15 10 0 6 7 10 15 10 8 0 15 -4 15 -10z"/>
<path d="M1488 1743 c6 -2 12 -13 12 -23 0 -10 -6 -21 -12 -23 -7 -3 3 -5 22
-5 19 0 27 2 17 5 -23 6 -18 39 6 37 9 -1 14 2 11 7 -3 5 -20 9 -37 8 -18 0
-26 -3 -19 -6z"/>
<path d="M1584 1742 c19 -8 19 -9 -2 -14 -37 -10 -27 -38 12 -38 32 0 34 1 27
28 -5 19 -15 28 -32 29 -21 2 -21 2 -5 -5z m16 -32 c0 -5 -7 -10 -15 -10 -8 0
-15 5 -15 10 0 6 7 10 15 10 8 0 15 -4 15 -10z"/>
<path d="M1730 1735 c0 -8 9 -15 20 -15 11 0 20 -5 20 -11 0 -7 -10 -9 -25 -7
-14 3 -25 1 -25 -4 0 -5 12 -8 27 -6 22 2 28 9 30 31 1 23 -2 27 -23 27 -15 0
-24 -6 -24 -15z"/>
<path d="M1808 1720 c4 -25 9 -30 31 -30 25 0 27 3 23 30 -3 19 -10 30 -21 30
-13 0 -13 -2 -2 -9 8 -5 11 -16 8 -25 -10 -25 -27 -19 -27 9 0 14 -4 25 -8 25
-5 0 -7 -13 -4 -30z"/>
<path d="M1885 1720 c0 -16 5 -30 11 -30 7 0 9 10 6 25 -3 19 0 25 13 25 13 0
16 -6 13 -25 -4 -16 -1 -25 8 -25 9 0 10 8 5 28 -5 19 -15 28 -32 30 -21 2
-24 -1 -24 -28z"/>
<path d="M2298 1743 c18 -7 15 -41 -5 -46 -10 -3 -2 -5 17 -5 19 0 29 2 23 5
-7 2 -13 16 -13 29 0 16 -5 24 -17 23 -11 0 -13 -3 -5 -6z"/>
<path d="M2364 1736 c-10 -27 4 -46 33 -45 21 1 23 3 8 6 -34 8 -41 23 -11 23
18 0 26 5 24 13 -7 18 -47 21 -54 3z m39 -3 c-7 -2 -19 -2 -25 0 -7 3 -2 5 12
5 14 0 19 -2 13 -5z"/>
<path d="M2604 1736 c-10 -26 4 -46 31 -46 23 0 26 4 23 28 -3 31 -44 45 -54
18z m46 -16 c0 -13 -7 -20 -20 -20 -19 0 -27 20 -13 33 13 14 33 6 33 -13z"/>
<path d="M2688 1743 c6 -2 12 -13 12 -23 0 -10 -6 -21 -12 -23 -7 -3 3 -5 22
-5 19 0 27 2 17 5 -23 6 -18 39 6 37 9 -1 14 2 11 7 -3 5 -20 9 -37 8 -18 0
-26 -3 -19 -6z"/>
<path d="M2858 1743 c18 -7 15 -41 -5 -46 -10 -3 -2 -5 17 -5 19 0 29 2 23 5
-7 2 -13 16 -13 29 0 16 -5 24 -17 23 -11 0 -13 -3 -5 -6z"/>
<path d="M2924 1735 c-9 -23 2 -43 28 -47 l23 -5 -25 -11 -25 -12 25 3 c21 2
26 8 31 45 5 41 5 42 -23 42 -16 0 -31 -7 -34 -15z m41 -16 c0 -7 -8 -15 -17
-17 -18 -3 -25 18 -11 32 10 10 28 1 28 -15z"/>
<path d="M3004 1736 c-10 -27 4 -46 33 -45 21 1 23 3 8 6 -34 8 -41 23 -11 23
18 0 26 5 24 13 -7 18 -47 21 -54 3z m39 -3 c-7 -2 -19 -2 -25 0 -7 3 -2 5 12
5 14 0 19 -2 13 -5z"/>
<path d="M3085 1720 c0 -16 5 -30 11 -30 7 0 9 10 6 25 -3 19 0 25 13 25 13 0
16 -6 13 -25 -4 -16 -1 -25 8 -25 9 0 10 8 5 28 -5 19 -15 28 -32 30 -21 2
-24 -1 -24 -28z"/>
<path d="M3324 1736 c-10 -27 4 -46 33 -45 21 1 23 3 8 6 -34 8 -41 23 -11 23
18 0 26 5 24 13 -7 18 -47 21 -54 3z m39 -3 c-7 -2 -19 -2 -25 0 -7 3 -2 5 12
5 14 0 19 -2 13 -5z"/>
<path d="M3564 1736 c-10 -27 4 -46 33 -45 21 1 23 3 8 6 -34 8 -41 23 -11 23
18 0 26 5 24 13 -7 18 -47 21 -54 3z m39 -3 c-7 -2 -19 -2 -25 0 -7 3 -2 5 12
5 14 0 19 -2 13 -5z"/>
<path d="M3648 1743 c6 -2 12 -13 12 -23 0 -10 -6 -21 -12 -23 -7 -3 3 -5 22
-5 19 0 27 2 17 5 -23 6 -18 39 6 37 9 -1 14 2 11 7 -3 5 -20 9 -37 8 -18 0
-26 -3 -19 -6z"/>
<path d="M3804 1736 c-10 -26 4 -46 31 -46 23 0 26 4 23 28 -3 31 -44 45 -54
18z m46 -16 c0 -13 -7 -20 -20 -20 -19 0 -27 20 -13 33 13 14 33 6 33 -13z"/>
<path d="M3885 1720 c0 -16 5 -30 11 -30 7 0 9 10 6 25 -3 19 0 25 13 25 13 0
16 -6 13 -25 -4 -16 -1 -25 8 -25 9 0 10 8 5 28 -5 19 -15 28 -32 30 -21 2
-24 -1 -24 -28z"/>
<path d="M4058 1743 c18 -7 15 -41 -5 -46 -10 -3 -2 -5 17 -5 19 0 29 2 23 5
-7 2 -13 16 -13 29 0 16 -5 24 -17 23 -11 0 -13 -3 -5 -6z"/>
<path d="M4218 1743 c18 -7 15 -41 -5 -46 -10 -3 -2 -5 17 -5 19 0 29 2 23 5
-7 2 -13 16 -13 29 0 16 -5 24 -17 23 -11 0 -13 -3 -5 -6z"/>
<path d="M4284 1736 c-10 -26 4 -46 31 -46 23 0 26 4 23 28 -3 31 -44 45 -54
18z m46 -16 c0 -13 -7 -20 -20 -20 -19 0 -27 20 -13 33 13 14 33 6 33 -13z"/>
<path d="M4365 1720 c0 -16 5 -30 11 -30 7 0 9 10 6 25 -3 19 0 25 13 25 13 0
16 -6 13 -25 -4 -16 -1 -25 8 -25 9 0 10 8 5 28 -5 19 -15 28 -32 30 -21 2
-24 -1 -24 -28z"/>
<path d="M4444 1736 c-10 -27 4 -46 33 -45 21 1 23 3 8 6 -34 8 -41 23 -11 23
18 0 26 5 24 13 -7 18 -47 21 -54 3z m39 -3 c-7 -2 -19 -2 -25 0 -7 3 -2 5 12
5 14 0 19 -2 13 -5z"/>
<path d="M4525 1720 c0 -16 5 -30 11 -30 7 0 9 10 6 25 -3 19 0 25 13 25 13 0
16 -6 13 -25 -4 -16 -1 -25 8 -25 9 0 10 8 5 28 -5 19 -15 28 -32 30 -21 2
-24 -1 -24 -28z"/>
<path d="M4698 1743 c18 -7 15 -41 -5 -46 -10 -3 -2 -5 17 -5 19 0 29 2 23 5
-7 2 -13 16 -13 29 0 16 -5 24 -17 23 -11 0 -13 -3 -5 -6z"/>
<path d="M4765 1720 c0 -16 5 -30 11 -30 7 0 9 10 6 25 -3 19 0 25 13 25 13 0
16 -6 13 -25 -4 -16 -1 -25 8 -25 9 0 10 8 5 28 -5 19 -15 28 -32 30 -21 2
-24 -1 -24 -28z"/>
<path d="M5004 1736 c-10 -27 4 -46 33 -45 21 1 23 3 8 6 -34 8 -41 23 -11 23
18 0 26 5 24 13 -7 18 -47 21 -54 3z m39 -3 c-7 -2 -19 -2 -25 0 -7 3 -2 5 12
5 14 0 19 -2 13 -5z"/>
<path d="M5088 1743 c6 -2 12 -13 12 -23 0 -10 -6 -21 -12 -23 -7 -3 3 -5 22
-5 19 0 27 2 17 5 -23 6 -18 39 6 37 9 -1 14 2 11 7 -3 5 -20 9 -37 8 -18 0
-26 -3 -19 -6z"/>
<path d="M5245 1720 c0 -16 5 -30 11 -30 7 0 9 10 6 25 -3 19 0 25 13 25 13 0
16 -6 13 -25 -4 -16 -1 -25 8 -25 9 0 10 8 5 28 -5 19 -15 28 -32 30 -21 2
-24 -1 -24 -28z"/>
<path d="M5344 1742 c19 -8 19 -9 -2 -14 -37 -10 -27 -38 12 -38 32 0 34 1 27
28 -5 19 -15 28 -32 29 -21 2 -21 2 -5 -5z m16 -32 c0 -5 -7 -10 -15 -10 -8 0
-15 5 -15 10 0 6 7 10 15 10 8 0 15 -4 15 -10z"/>
<path d="M5404 1735 c-10 -25 4 -45 30 -45 14 0 27 4 31 9 3 6 -7 9 -22 8 -19
-1 -28 3 -28 13 0 9 9 15 23 14 12 0 22 3 22 8 0 14 -50 8 -56 -7z"/>
<path d="M5570 1735 c0 -8 9 -15 20 -15 11 0 20 -5 20 -11 0 -7 -10 -9 -25 -7
-14 3 -25 1 -25 -4 0 -5 12 -8 27 -6 22 2 28 9 30 31 1 23 -2 27 -23 27 -15 0
-24 -6 -24 -15z"/>
<path d="M5724 1736 c-10 -27 4 -46 33 -45 21 1 23 3 8 6 -34 8 -41 23 -11 23
18 0 26 5 24 13 -7 18 -47 21 -54 3z m39 -3 c-7 -2 -19 -2 -25 0 -7 3 -2 5 12
5 14 0 19 -2 13 -5z"/>
<path d="M5805 1720 c0 -16 5 -30 11 -30 7 0 9 10 6 25 -3 19 0 25 13 25 13 0
16 -6 13 -25 -4 -16 -1 -25 8 -25 9 0 10 8 5 28 -5 19 -15 28 -32 30 -21 2
-24 -1 -24 -28z"/>
<path d="M2060 1700 c0 -5 5 -10 10 -10 6 0 10 5 10 10 0 6 -4 10 -10 10 -5 0
-10 -4 -10 -10z"/>
<path d="M365 1575 c0 -26 5 -45 11 -45 7 0 9 10 6 25 -3 19 0 25 13 25 13 0
16 -6 13 -25 -3 -16 -1 -25 7 -25 20 0 5 52 -16 57 -11 3 -19 12 -19 19 0 8
-3 14 -7 14 -5 0 -8 -20 -8 -45z"/>
<path d="M117 1583 c9 -55 13 -60 28 -33 19 33 18 50 0 26 -15 -19 -15 -19
-15 1 0 12 6 24 13 26 6 3 2 6 -9 6 -18 1 -20 -4 -17 -26z"/>
<path d="M168 1603 c14 -6 16 -33 2 -33 -12 0 -13 -27 -1 -34 5 -3 13 12 19
34 9 37 9 40 -12 39 -11 0 -15 -3 -8 -6z"/>
<path d="M204 1576 c-10 -26 4 -46 31 -46 23 0 26 4 23 28 -3 31 -44 45 -54
18z m46 -16 c0 -13 -7 -20 -20 -20 -19 0 -27 20 -13 33 13 14 33 6 33 -13z"/>
<path d="M284 1575 c-10 -25 4 -45 30 -45 14 0 27 4 31 9 3 6 -7 9 -22 8 -19
-1 -28 3 -28 13 0 9 9 15 23 14 12 0 22 3 22 8 0 14 -50 8 -56 -7z"/>
<path d="M444 1576 c-10 -27 4 -46 33 -45 21 1 23 3 8 6 -34 8 -41 23 -11 23
18 0 26 5 24 13 -7 18 -47 21 -54 3z m39 -3 c-7 -2 -19 -2 -25 0 -7 3 -2 5 12
5 14 0 19 -2 13 -5z"/>
<path d="M326 1446 c4 -10 -2 -16 -18 -18 -17 -2 -23 -9 -23 -28 0 -20 5 -26
30 -28 30 -3 30 -3 27 43 -2 25 -8 45 -13 45 -4 0 -6 -6 -3 -14z m-1 -46 c0
-8 -8 -16 -17 -18 -13 -2 -18 3 -18 18 0 15 5 20 18 18 9 -2 17 -10 17 -18z"/>
<path d="M605 1415 c0 -26 5 -45 11 -45 7 0 9 10 6 25 -3 19 0 25 13 25 13 0
16 -6 13 -25 -3 -16 -1 -25 7 -25 20 0 5 52 -16 57 -11 3 -19 12 -19 19 0 8
-3 14 -7 14 -5 0 -8 -20 -8 -45z"/>
<path d="M845 1415 c0 -26 5 -45 11 -45 7 0 9 10 6 25 -3 19 0 25 13 25 13 0
16 -6 13 -25 -3 -16 -1 -25 7 -25 20 0 5 52 -16 57 -11 3 -19 12 -19 19 0 8
-3 14 -7 14 -5 0 -8 -20 -8 -45z"/>
<path d="M1258 1453 c19 -8 15 -71 -5 -76 -10 -3 -2 -5 17 -5 19 0 29 2 23 5
-8 2 -13 22 -13 44 0 31 -4 39 -17 38 -11 0 -13 -3 -5 -6z"/>
<path d="M1485 1415 c0 -26 5 -45 11 -45 7 0 9 10 6 25 -3 19 0 25 13 25 13 0
16 -6 13 -25 -3 -16 -1 -25 7 -25 20 0 5 52 -16 57 -11 3 -19 12 -19 19 0 8
-3 14 -7 14 -5 0 -8 -20 -8 -45z"/>
<path d="M2138 1453 c19 -8 15 -71 -5 -76 -10 -3 -2 -5 17 -5 19 0 29 2 23 5
-8 2 -13 22 -13 44 0 31 -4 39 -17 38 -11 0 -13 -3 -5 -6z"/>
<path d="M2205 1415 c0 -25 3 -45 8 -45 4 0 7 8 7 18 1 16 1 16 14 0 7 -10 19
-18 27 -18 8 0 6 6 -7 15 -19 15 -19 15 0 30 19 15 19 15 -1 15 -12 0 -24 -6
-26 -12 -3 -7 -6 -1 -6 15 -2 46 -16 30 -16 -18z"/>
<path d="M2617 1430 c-18 -29 -18 -30 2 -30 23 0 28 -15 9 -23 -7 -3 -4 -6 8
-6 16 -1 20 4 18 22 -1 12 -3 32 -3 45 -1 30 -13 28 -34 -8z m19 -17 c-10 -10
-19 5 -10 18 6 11 8 11 12 0 2 -7 1 -15 -2 -18z"/>
<path d="M2685 1450 c-4 -7 2 -9 19 -4 35 8 35 -17 1 -44 -33 -26 -32 -32 5
-32 17 0 30 4 30 9 0 5 -10 7 -22 4 l-23 -6 24 26 c13 15 21 33 18 41 -7 18
-42 21 -52 6z"/>
<path d="M2849 1458 c-8 -16 -3 -48 6 -48 7 0 12 -8 11 -17 0 -10 6 -18 14
-18 9 0 15 10 16 23 1 12 -3 22 -7 22 -5 0 -9 9 -9 20 0 11 -7 20 -15 20 -8 0
-16 -1 -16 -2z m41 -68 c0 -5 -4 -10 -10 -10 -5 0 -10 5 -10 10 0 6 5 10 10
10 6 0 10 -4 10 -10z"/>
<path d="M1089 1440 c-5 -56 11 -78 43 -62 22 11 22 11 -4 6 -24 -5 -28 -3
-28 15 0 15 7 21 23 22 20 1 20 2 2 6 -11 3 -23 10 -27 17 -5 7 -8 6 -9 -4z"/>
<path d="M1169 1440 c-5 -56 11 -78 43 -62 22 11 22 11 -4 6 -24 -5 -28 -3
-28 15 0 15 7 21 23 22 20 1 20 2 2 6 -11 3 -23 10 -27 17 -5 7 -8 6 -9 -4z"/>
<path d="M1725 1410 c0 -37 2 -40 27 -40 30 0 43 14 31 33 -4 6 -8 19 -8 27 0
8 -11 16 -25 18 -23 3 -25 0 -25 -38z m45 20 c0 -5 -7 -10 -15 -10 -8 0 -15 5
-15 10 0 6 7 10 15 10 8 0 15 -4 15 -10z m3 -35 c1 -5 -6 -11 -15 -13 -11 -2
-18 3 -18 13 0 17 30 18 33 0z"/>
<path d="M368 1400 c4 -25 9 -30 31 -30 25 0 27 3 23 30 -3 19 -10 30 -21 30
-13 0 -13 -2 -2 -9 8 -5 11 -16 8 -25 -10 -25 -27 -19 -27 9 0 14 -4 25 -8 25
-5 0 -7 -13 -4 -30z"/>
<path d="M448 1423 c6 -2 12 -13 12 -23 0 -10 -6 -21 -12 -23 -7 -3 3 -5 22
-5 19 0 27 2 17 5 -23 6 -18 39 6 37 9 -1 14 2 11 7 -3 5 -20 9 -37 8 -18 0
-26 -3 -19 -6z"/>
<path d="M524 1415 c-10 -25 4 -45 30 -45 14 0 27 4 31 9 3 6 -7 9 -22 8 -19
-1 -28 3 -28 13 0 9 9 15 23 14 12 0 22 3 22 8 0 14 -50 8 -56 -7z"/>
<path d="M690 1415 c0 -8 9 -15 20 -15 11 0 20 -5 20 -11 0 -7 -10 -9 -25 -7
-14 3 -25 1 -25 -4 0 -5 12 -8 27 -6 22 2 28 9 30 31 1 23 -2 27 -23 27 -15 0
-24 -6 -24 -15z"/>
<path d="M764 1415 c-10 -25 4 -45 30 -45 14 0 27 4 31 9 3 6 -7 9 -22 8 -19
-1 -28 3 -28 13 0 9 9 15 23 14 12 0 22 3 22 8 0 14 -50 8 -56 -7z"/>
<path d="M925 1400 c0 -16 5 -30 11 -30 7 0 9 10 6 25 -3 19 0 25 13 25 13 0
16 -6 13 -25 -4 -16 -1 -25 8 -25 9 0 10 8 5 28 -5 19 -15 28 -32 30 -21 2
-24 -1 -24 -28z"/>
<path d="M1018 1423 c18 -7 15 -41 -5 -46 -10 -3 -2 -5 17 -5 19 0 29 2 23 5
-7 2 -13 16 -13 29 0 16 -5 24 -17 23 -11 0 -13 -3 -5 -6z"/>
<path d="M1338 1423 c18 -7 15 -41 -5 -46 -10 -3 -2 -5 17 -5 19 0 29 2 23 5
-7 2 -13 16 -13 29 0 16 -5 24 -17 23 -11 0 -13 -3 -5 -6z"/>
<path d="M1404 1415 c-10 -25 4 -45 30 -45 14 0 27 4 31 9 3 6 -7 9 -22 8 -19
-1 -28 3 -28 13 0 9 9 15 23 14 12 0 22 3 22 8 0 14 -50 8 -56 -7z"/>
<path d="M1564 1416 c-10 -27 4 -46 33 -45 21 1 23 3 8 6 -34 8 -41 23 -11 23
18 0 26 5 24 13 -7 18 -47 21 -54 3z m39 -3 c-7 -2 -19 -2 -25 0 -7 3 -2 5 12
5 14 0 19 -2 13 -5z"/>
<path d="M1804 1416 c-10 -27 4 -46 33 -45 21 1 23 3 8 6 -34 8 -41 23 -11 23
18 0 26 5 24 13 -7 18 -47 21 -54 3z m39 -3 c-7 -2 -19 -2 -25 0 -7 3 -2 5 12
5 14 0 19 -2 13 -5z"/>
<path d="M1882 1399 c10 -28 12 -29 26 -15 9 8 12 19 8 23 -4 4 -12 1 -17 -7
-8 -12 -10 -10 -6 8 3 14 0 22 -8 22 -11 0 -12 -6 -3 -31z"/>
<path d="M1924 1400 c-1 -35 11 -31 18 5 3 15 1 25 -6 25 -6 0 -11 -13 -12
-30z"/>
<path d="M1964 1416 c-10 -26 4 -46 31 -46 23 0 26 4 23 28 -3 31 -44 45 -54
18z m46 -16 c0 -13 -7 -20 -20 -20 -19 0 -27 20 -13 33 13 14 33 6 33 -13z"/>
<path d="M2044 1416 c-10 -27 4 -46 33 -45 21 1 23 3 8 6 -34 8 -41 23 -11 23
18 0 26 5 24 13 -7 18 -47 21 -54 3z m39 -3 c-7 -2 -19 -2 -25 0 -7 3 -2 5 12
5 14 0 19 -2 13 -5z"/>
<path d="M2288 1400 c4 -25 9 -30 31 -30 25 0 27 3 23 30 -3 19 -10 30 -21 30
-13 0 -13 -2 -2 -9 8 -5 11 -16 8 -25 -10 -25 -27 -19 -27 9 0 14 -4 25 -8 25
-5 0 -7 -13 -4 -30z"/>
<path d="M2365 1400 c0 -16 5 -30 11 -30 7 0 9 10 6 25 -3 19 0 25 13 25 13 0
16 -6 13 -25 -4 -16 -1 -25 8 -25 9 0 10 8 5 28 -5 19 -15 28 -32 30 -21 2
-24 -1 -24 -28z"/>
<path d="M2444 1415 c-9 -23 2 -43 28 -47 l23 -5 -25 -11 -25 -12 25 3 c21 2
26 8 31 45 5 41 5 42 -23 42 -16 0 -31 -7 -34 -15z m41 -16 c0 -7 -8 -15 -17
-17 -18 -3 -25 18 -11 32 10 10 28 1 28 -15z"/>
<path d="M133 1413 c9 -2 25 -2 35 0 9 3 1 5 -18 5 -19 0 -27 -2 -17 -5z"/>
<path d="M326 1286 c4 -10 -2 -16 -18 -18 -17 -2 -23 -9 -23 -28 0 -20 5 -26
30 -28 30 -3 30 -3 27 43 -2 25 -8 45 -13 45 -4 0 -6 -6 -3 -14z m-1 -46 c0
-8 -8 -16 -17 -18 -13 -2 -18 3 -18 18 0 15 5 20 18 18 9 -2 17 -10 17 -18z"/>
<path d="M605 1255 c0 -26 5 -45 11 -45 7 0 9 10 6 25 -3 19 0 25 13 25 13 0
16 -6 13 -25 -3 -16 -1 -25 7 -25 20 0 5 52 -16 57 -11 3 -19 12 -19 19 0 8
-3 14 -7 14 -5 0 -8 -20 -8 -45z"/>
<path d="M845 1255 c0 -26 5 -45 11 -45 7 0 9 10 6 25 -3 19 0 25 13 25 13 0
16 -6 13 -25 -3 -16 -1 -25 7 -25 20 0 5 52 -16 57 -11 3 -19 12 -19 19 0 8
-3 14 -7 14 -5 0 -8 -20 -8 -45z"/>
<path d="M1258 1293 c19 -8 15 -71 -5 -76 -10 -3 -2 -5 17 -5 19 0 29 2 23 5
-8 2 -13 22 -13 44 0 31 -4 39 -17 38 -11 0 -13 -3 -5 -6z"/>
<path d="M1485 1255 c0 -26 5 -45 11 -45 7 0 9 10 6 25 -3 19 0 25 13 25 13 0
16 -6 13 -25 -3 -16 -1 -25 7 -25 20 0 5 52 -16 57 -11 3 -19 12 -19 19 0 8
-3 14 -7 14 -5 0 -8 -20 -8 -45z"/>
<path d="M2610 1289 c0 -5 5 -7 10 -4 6 4 10 -8 10 -29 0 -24 -5 -36 -17 -39
-10 -3 -2 -5 17 -5 19 0 29 2 23 5 -8 2 -13 22 -13 44 0 28 -4 39 -15 39 -8 0
-15 -5 -15 -11z"/>
<path d="M2690 1280 c0 -14 7 -20 21 -20 14 0 19 -5 17 -17 -3 -12 -12 -17
-28 -15 -18 2 -22 0 -13 -9 17 -17 48 -6 51 19 3 17 -2 25 -17 29 -28 7 -27
21 2 26 19 4 18 4 -5 6 -22 1 -28 -4 -28 -19z"/>
<path d="M2861 1286 c-20 -24 -10 -70 17 -74 17 -3 22 2 22 18 0 13 -8 24 -20
27 -26 7 -25 21 3 33 15 6 17 9 6 9 -9 1 -22 -5 -28 -13z m29 -51 c0 -8 -7
-15 -15 -15 -16 0 -20 12 -8 23 11 12 23 8 23 -8z"/>
<path d="M2929 1291 c-1 -6 -1 -22 -1 -36 0 -44 2 -46 24 -43 30 4 37 38 9 45
-12 3 -21 12 -21 19 0 17 12 18 29 2 11 -11 13 -10 9 2 -5 17 -48 27 -49 11z
m41 -56 c0 -8 -6 -15 -14 -15 -17 0 -28 14 -19 24 12 12 33 6 33 -9z"/>
<path d="M3366 1286 c4 -10 -2 -16 -18 -18 -17 -2 -23 -9 -23 -28 0 -20 5 -26
30 -28 30 -3 30 -3 27 43 -2 25 -8 45 -13 45 -4 0 -6 -6 -3 -14z m-1 -46 c0
-8 -8 -16 -17 -18 -13 -2 -18 3 -18 18 0 15 5 20 18 18 9 -2 17 -10 17 -18z"/>
<path d="M3658 1293 c19 -8 15 -71 -5 -76 -10 -3 -2 -5 17 -5 19 0 29 2 23 5
-8 2 -13 22 -13 44 0 31 -4 39 -17 38 -11 0 -13 -3 -5 -6z"/>
<path d="M1089 1280 c-5 -56 11 -78 43 -62 22 11 22 11 -4 6 -24 -5 -28 -3
-28 15 0 15 7 21 23 22 20 1 20 2 2 6 -11 3 -23 10 -27 17 -5 7 -8 6 -9 -4z"/>
<path d="M1169 1280 c-5 -56 11 -78 43 -62 22 11 22 11 -4 6 -24 -5 -28 -3
-28 15 0 15 7 21 23 22 20 1 20 2 2 6 -11 3 -23 10 -27 17 -5 7 -8 6 -9 -4z"/>
<path d="M1721 1273 c0 -11 3 -13 6 -5 2 6 9 12 14 12 14 0 11 -58 -3 -63 -7
-3 1 -5 17 -5 17 0 24 2 18 5 -7 2 -13 19 -13 36 0 24 3 28 10 17 8 -13 10
-12 10 3 0 12 -8 17 -30 17 -22 0 -30 -5 -29 -17z"/>
<path d="M2289 1280 c-5 -56 11 -78 43 -62 22 11 22 11 -4 6 -24 -5 -28 -3
-28 15 0 15 7 21 23 22 20 1 20 2 2 6 -11 3 -23 10 -27 17 -5 7 -8 6 -9 -4z"/>
<path d="M3084 1276 c-3 -8 -4 -25 -2 -38 4 -32 53 -39 61 -9 4 17 1 21 -16
20 -12 0 -16 -3 -9 -6 19 -8 14 -23 -9 -23 -16 0 -20 5 -17 28 2 21 8 27 26
26 12 0 22 3 22 8 0 14 -50 9 -56 -6z"/>
<path d="M3484 1276 c-11 -30 1 -61 25 -64 13 -2 28 1 34 7 7 7 1 10 -19 8
-25 -2 -29 2 -29 23 0 21 4 25 28 23 15 -1 27 2 27 8 0 15 -60 10 -66 -5z"/>
<path d="M368 1240 c4 -25 9 -30 31 -30 25 0 27 3 23 30 -3 19 -10 30 -21 30
-13 0 -13 -2 -2 -9 8 -5 11 -16 8 -25 -10 -25 -27 -19 -27 9 0 14 -4 25 -8 25
-5 0 -7 -13 -4 -30z"/>
<path d="M448 1263 c6 -2 12 -13 12 -23 0 -10 -6 -21 -12 -23 -7 -3 3 -5 22
-5 19 0 27 2 17 5 -23 6 -18 39 6 37 9 -1 14 2 11 7 -3 5 -20 9 -37 8 -18 0
-26 -3 -19 -6z"/>
<path d="M524 1255 c-10 -25 4 -45 30 -45 14 0 27 4 31 9 3 6 -7 9 -22 8 -19
-1 -28 3 -28 13 0 9 9 15 23 14 12 0 22 3 22 8 0 14 -50 8 -56 -7z"/>
<path d="M690 1255 c0 -8 9 -15 20 -15 11 0 20 -5 20 -11 0 -7 -10 -9 -25 -7
-14 3 -25 1 -25 -4 0 -5 12 -8 27 -6 22 2 28 9 30 31 1 23 -2 27 -23 27 -15 0
-24 -6 -24 -15z"/>
<path d="M764 1255 c-10 -25 4 -45 30 -45 14 0 27 4 31 9 3 6 -7 9 -22 8 -19
-1 -28 3 -28 13 0 9 9 15 23 14 12 0 22 3 22 8 0 14 -50 8 -56 -7z"/>
<path d="M925 1240 c0 -16 5 -30 11 -30 7 0 9 10 6 25 -3 19 0 25 13 25 13 0
16 -6 13 -25 -4 -16 -1 -25 8 -25 9 0 10 8 5 28 -5 19 -15 28 -32 30 -21 2
-24 -1 -24 -28z"/>
<path d="M1018 1263 c18 -7 15 -41 -5 -46 -10 -3 -2 -5 17 -5 19 0 29 2 23 5
-7 2 -13 16 -13 29 0 16 -5 24 -17 23 -11 0 -13 -3 -5 -6z"/>
<path d="M1338 1263 c18 -7 15 -41 -5 -46 -10 -3 -2 -5 17 -5 19 0 29 2 23 5
-7 2 -13 16 -13 29 0 16 -5 24 -17 23 -11 0 -13 -3 -5 -6z"/>
<path d="M1404 1255 c-10 -25 4 -45 30 -45 14 0 27 4 31 9 3 6 -7 9 -22 8 -19
-1 -28 3 -28 13 0 9 9 15 23 14 12 0 22 3 22 8 0 14 -50 8 -56 -7z"/>
<path d="M1564 1256 c-10 -27 4 -46 33 -45 21 1 23 3 8 6 -34 8 -41 23 -11 23
18 0 26 5 24 13 -7 18 -47 21 -54 3z m39 -3 c-7 -2 -19 -2 -25 0 -7 3 -2 5 12
5 14 0 19 -2 13 -5z"/>
<path d="M1804 1256 c-10 -27 4 -46 33 -45 21 1 23 3 8 6 -34 8 -41 23 -11 23
18 0 26 5 24 13 -7 18 -47 21 -54 3z m39 -3 c-7 -2 -19 -2 -25 0 -7 3 -2 5 12
5 14 0 19 -2 13 -5z"/>
<path d="M1875 1240 c0 -16 5 -30 11 -30 7 0 9 10 6 25 -2 15 0 25 7 25 6 0
11 -11 11 -25 0 -20 5 -25 26 -25 19 0 25 -4 20 -15 -4 -11 1 -15 17 -14 12 0
16 3 10 6 -22 8 -14 23 11 23 28 0 42 26 25 46 -6 8 -24 14 -39 14 -24 0 -27
-3 -24 -27 4 -27 3 -27 -4 -3 -6 19 -15 26 -42 28 -33 3 -35 1 -35 -28z m52
-12 c-3 -7 -5 -2 -5 12 0 14 2 19 5 13 2 -7 2 -19 0 -25z m89 21 c9 -15 -11
-33 -30 -26 -9 4 -13 13 -10 22 7 17 30 20 40 4z"/>
<path d="M2044 1256 c-10 -27 4 -46 33 -45 21 1 23 3 8 6 -34 8 -41 23 -11 23
18 0 26 5 24 13 -7 18 -47 21 -54 3z m39 -3 c-7 -2 -19 -2 -25 0 -7 3 -2 5 12
5 14 0 19 -2 13 -5z"/>
<path d="M2128 1263 c6 -2 12 -13 12 -23 0 -10 -6 -21 -12 -23 -7 -3 3 -5 22
-5 19 0 27 2 17 5 -23 6 -18 39 6 37 9 -1 14 2 11 7 -3 5 -20 9 -37 8 -18 0
-26 -3 -19 -6z"/>
<path d="M2224 1262 c19 -8 19 -9 -2 -14 -37 -10 -27 -38 12 -38 32 0 34 1 27
28 -5 19 -15 28 -32 29 -21 2 -21 2 -5 -5z m16 -32 c0 -5 -7 -10 -15 -10 -8 0
-15 5 -15 10 0 6 7 10 15 10 8 0 15 -4 15 -10z"/>
<path d="M2368 1240 c4 -25 9 -30 31 -30 25 0 27 3 23 30 -3 19 -10 30 -21 30
-13 0 -13 -2 -2 -9 8 -5 11 -16 8 -25 -10 -25 -27 -19 -27 9 0 14 -4 25 -8 25
-5 0 -7 -13 -4 -30z"/>
<path d="M2448 1263 c6 -2 12 -13 12 -23 0 -10 -6 -21 -12 -23 -7 -3 3 -5 22
-5 19 0 27 2 17 5 -23 6 -18 39 6 37 9 -1 14 2 11 7 -3 5 -20 9 -37 8 -18 0
-26 -3 -19 -6z"/>
<path d="M3168 1263 c6 -2 12 -13 12 -23 0 -10 -6 -21 -12 -23 -7 -3 3 -5 22
-5 19 0 27 2 17 5 -23 6 -18 39 6 37 9 -1 14 2 11 7 -3 5 -20 9 -37 8 -18 0
-26 -3 -19 -6z"/>
<path d="M3264 1262 c19 -8 19 -9 -2 -14 -37 -10 -27 -38 12 -38 32 0 34 1 27
28 -5 19 -15 28 -32 29 -21 2 -21 2 -5 -5z m16 -32 c0 -5 -7 -10 -15 -10 -8 0
-15 5 -15 10 0 6 7 10 15 10 8 0 15 -4 15 -10z"/>
<path d="M3564 1256 c-10 -27 4 -46 33 -45 21 1 23 3 8 6 -34 8 -41 23 -11 23
18 0 26 5 24 13 -7 18 -47 21 -54 3z m39 -3 c-7 -2 -19 -2 -25 0 -7 3 -2 5 12
5 14 0 19 -2 13 -5z"/>
<path d="M3730 1255 c0 -8 9 -15 20 -15 11 0 20 -5 20 -11 0 -7 -10 -9 -25 -7
-14 3 -25 1 -25 -4 0 -5 12 -8 27 -6 22 2 28 9 30 31 1 23 -2 27 -23 27 -15 0
-24 -6 -24 -15z"/>
<path d="M3818 1263 c18 -7 15 -41 -5 -46 -10 -3 -2 -5 17 -5 19 0 29 2 23 5
-7 2 -13 16 -13 29 0 16 -5 24 -17 23 -11 0 -13 -3 -5 -6z"/>
<path d="M3888 1240 c4 -25 9 -30 31 -30 25 0 27 3 23 30 -3 19 -10 30 -21 30
-13 0 -13 -2 -2 -9 8 -5 11 -16 8 -25 -10 -25 -27 -19 -27 9 0 14 -4 25 -8 25
-5 0 -7 -13 -4 -30z"/>
<path d="M3970 1255 c0 -8 9 -15 20 -15 11 0 20 -5 20 -11 0 -7 -10 -9 -25 -7
-14 3 -25 1 -25 -4 0 -5 12 -8 27 -6 22 2 28 9 30 31 1 23 -2 27 -23 27 -15 0
-24 -6 -24 -15z"/>
<path d="M133 1253 c9 -2 25 -2 35 0 9 3 1 5 -18 5 -19 0 -27 -2 -17 -5z"/>
<path d="M2780 1220 c0 -5 5 -10 10 -10 6 0 10 5 10 10 0 6 -4 10 -10 10 -5 0
-10 -4 -10 -10z"/>
<path d="M115 1095 c0 -42 2 -45 26 -45 36 0 56 24 38 46 -7 8 -21 13 -31 11
-13 -4 -18 0 -18 14 0 10 -3 19 -7 19 -5 0 -8 -20 -8 -45z m61 -6 c9 -15 -11
-33 -30 -26 -9 4 -13 13 -10 22 7 17 30 20 40 4z"/>
<path d="M925 1095 c0 -26 5 -45 11 -45 7 0 9 10 6 25 -3 19 0 25 13 25 13 0
16 -6 13 -25 -3 -16 -1 -25 7 -25 20 0 5 52 -16 57 -11 3 -19 12 -19 19 0 8
-3 14 -7 14 -5 0 -8 -20 -8 -45z"/>
<path d="M1097 1120 c-9 -11 -12 -20 -7 -20 14 0 12 -37 -2 -43 -7 -3 3 -5 22
-5 19 0 27 2 18 5 -10 2 -18 13 -18 23 0 10 8 21 18 23 16 4 16 5 0 6 -26 2
-22 19 5 24 19 4 20 4 2 6 -11 0 -28 -8 -38 -19z"/>
<path d="M2166 1126 c4 -10 -2 -16 -18 -18 -17 -2 -23 -9 -23 -28 0 -20 5 -26
30 -28 30 -3 30 -3 27 43 -2 25 -8 45 -13 45 -4 0 -6 -6 -3 -14z m-1 -46 c0
-8 -8 -16 -17 -18 -13 -2 -18 3 -18 18 0 15 5 20 18 18 9 -2 17 -10 17 -18z"/>
<path d="M2538 1133 c19 -8 15 -71 -5 -76 -10 -3 -2 -5 17 -5 19 0 29 2 23 5
-8 2 -13 22 -13 44 0 31 -4 39 -17 38 -11 0 -13 -3 -5 -6z"/>
<path d="M2758 1100 c3 -25 0 -40 -7 -40 -6 0 -11 11 -11 25 0 17 -5 25 -17
25 -15 0 -15 -2 -4 -9 8 -5 11 -16 8 -25 -10 -25 -27 -19 -27 9 0 14 -4 25 -8
25 -5 0 -7 -13 -4 -30 4 -29 6 -30 62 -30 65 0 93 18 69 46 -7 8 -21 13 -31
11 -13 -4 -18 0 -18 14 0 10 -3 19 -8 19 -4 0 -6 -18 -4 -40z m58 -11 c9 -15
-11 -33 -30 -26 -9 4 -13 13 -10 22 7 17 30 20 40 4z"/>
<path d="M369 1120 c-5 -56 11 -78 43 -62 22 11 22 11 -4 6 -24 -5 -28 -3 -28
15 0 15 7 21 23 22 20 1 20 2 2 6 -11 3 -23 10 -27 17 -5 7 -8 6 -9 -4z"/>
<path d="M1877 1103 c9 -55 13 -60 28 -33 19 33 18 50 0 26 -15 -19 -15 -19
-15 1 0 12 6 24 13 26 6 3 2 6 -9 6 -18 1 -20 -4 -17 -26z"/>
<path d="M1928 1123 c14 -6 16 -33 2 -33 -12 0 -13 -27 -1 -34 5 -3 13 12 19
34 9 37 9 40 -12 39 -11 0 -15 -3 -8 -6z"/>
<path d="M218 1103 c18 -7 15 -41 -5 -46 -10 -3 -2 -5 17 -5 19 0 29 2 23 5
-7 2 -13 16 -13 29 0 16 -5 24 -17 23 -11 0 -13 -3 -5 -6z"/>
<path d="M284 1096 c-10 -27 4 -46 33 -45 21 1 23 3 8 6 -34 8 -41 23 -11 23
18 0 26 5 24 13 -7 18 -47 21 -54 3z m39 -3 c-7 -2 -19 -2 -25 0 -7 3 -2 5 12
5 14 0 19 -2 13 -5z"/>
<path d="M444 1096 c-10 -27 4 -46 33 -45 21 1 23 3 8 6 -34 8 -41 23 -11 23
18 0 26 5 24 13 -7 18 -47 21 -54 3z m39 -3 c-7 -2 -19 -2 -25 0 -7 3 -2 5 12
5 14 0 19 -2 13 -5z"/>
<path d="M525 1080 c0 -16 5 -30 11 -30 7 0 9 10 6 25 -3 19 0 25 13 25 13 0
16 -6 13 -25 -4 -16 -1 -25 8 -25 9 0 10 8 5 28 -5 19 -15 28 -32 30 -21 2
-24 -1 -24 -28z"/>
<path d="M690 1095 c0 -8 9 -15 20 -15 11 0 20 -5 20 -11 0 -7 -10 -9 -25 -7
-14 3 -25 1 -25 -4 0 -5 12 -8 27 -6 22 2 28 9 30 31 1 23 -2 27 -23 27 -15 0
-24 -6 -24 -15z"/>
<path d="M778 1103 c18 -7 15 -41 -5 -46 -10 -3 -2 -5 17 -5 19 0 29 2 23 5
-7 2 -13 16 -13 29 0 16 -5 24 -17 23 -11 0 -13 -3 -5 -6z"/>
<path d="M844 1095 c-10 -25 4 -45 30 -45 14 0 27 4 31 9 3 6 -7 9 -22 8 -19
-1 -28 3 -28 13 0 9 9 15 23 14 12 0 22 3 22 8 0 14 -50 8 -56 -7z"/>
<path d="M1168 1080 c4 -25 9 -30 31 -30 25 0 27 3 23 30 -3 19 -10 30 -21 30
-13 0 -13 -2 -2 -9 8 -5 11 -16 8 -25 -10 -25 -27 -19 -27 9 0 14 -4 25 -8 25
-5 0 -7 -13 -4 -30z"/>
<path d="M1248 1103 c6 -2 12 -13 12 -23 0 -10 -6 -21 -12 -23 -7 -3 3 -5 22
-5 19 0 27 2 17 5 -23 6 -18 39 6 37 9 -1 14 2 11 7 -3 5 -20 9 -37 8 -18 0
-26 -3 -19 -6z"/>
<path d="M1404 1096 c-10 -27 4 -46 33 -45 21 1 23 3 8 6 -34 8 -41 23 -11 23
18 0 26 5 24 13 -7 18 -47 21 -54 3z m39 -3 c-7 -2 -19 -2 -25 0 -7 3 -2 5 12
5 14 0 19 -2 13 -5z"/>
<path d="M1498 1103 c18 -7 15 -41 -5 -46 -10 -3 -2 -5 17 -5 19 0 29 2 23 5
-7 2 -13 16 -13 29 0 16 -5 24 -17 23 -11 0 -13 -3 -5 -6z"/>
<path d="M1565 1080 c0 -16 5 -30 11 -30 7 0 9 10 6 25 -3 19 0 25 13 25 13 0
16 -6 13 -25 -4 -16 -1 -25 8 -25 9 0 10 8 5 28 -5 19 -15 28 -32 30 -21 2
-24 -1 -24 -28z"/>
<path d="M1644 1096 c-10 -27 4 -46 33 -45 21 1 23 3 8 6 -34 8 -41 23 -11 23
18 0 26 5 24 13 -7 18 -47 21 -54 3z m39 -3 c-7 -2 -19 -2 -25 0 -7 3 -2 5 12
5 14 0 19 -2 13 -5z"/>
<path d="M1725 1080 c0 -16 5 -30 11 -30 7 0 9 10 6 25 -3 19 0 25 13 25 13 0
16 -6 13 -25 -4 -16 -1 -25 8 -25 9 0 10 8 5 28 -5 19 -15 28 -32 30 -21 2
-24 -1 -24 -28z"/>
<path d="M1984 1102 c19 -8 19 -9 -2 -14 -37 -10 -27 -38 12 -38 32 0 34 1 27
28 -5 19 -15 28 -32 29 -21 2 -21 2 -5 -5z m16 -32 c0 -5 -7 -10 -15 -10 -8 0
-15 5 -15 10 0 6 7 10 15 10 8 0 15 -4 15 -10z"/>
<path d="M2045 1080 c0 -16 5 -30 11 -30 7 0 9 10 6 25 -3 19 0 25 13 25 13 0
16 -6 13 -25 -4 -16 -1 -25 8 -25 9 0 10 8 5 28 -5 19 -15 28 -32 30 -21 2
-24 -1 -24 -28z"/>
<path d="M2204 1096 c-10 -27 4 -46 33 -45 21 1 23 3 8 6 -34 8 -41 23 -11 23
18 0 26 5 24 13 -7 18 -47 21 -54 3z m39 -3 c-7 -2 -19 -2 -25 0 -7 3 -2 5 12
5 14 0 19 -2 13 -5z"/>
<path d="M2288 1103 c6 -2 12 -13 12 -23 0 -10 -6 -21 -12 -23 -7 -3 3 -5 22
-5 19 0 27 2 17 5 -23 6 -18 39 6 37 9 -1 14 2 11 7 -3 5 -20 9 -37 8 -18 0
-26 -3 -19 -6z"/>
<path d="M2368 1080 c4 -25 9 -30 31 -30 25 0 27 3 23 30 -3 19 -10 30 -21 30
-13 0 -13 -2 -2 -9 8 -5 11 -16 8 -25 -10 -25 -27 -19 -27 9 0 14 -4 25 -8 25
-5 0 -7 -13 -4 -30z"/>
<path d="M2448 1103 c6 -2 12 -13 12 -23 0 -10 -6 -21 -12 -23 -7 -3 3 -5 22
-5 19 0 27 2 17 5 -23 6 -18 39 6 37 9 -1 14 2 11 7 -3 5 -20 9 -37 8 -18 0
-26 -3 -19 -6z"/>
<path d="M2624 1102 c19 -8 19 -9 -2 -14 -37 -10 -27 -38 12 -38 32 0 34 1 27
28 -5 19 -15 28 -32 29 -21 2 -21 2 -5 -5z m16 -32 c0 -5 -7 -10 -15 -10 -8 0
-15 5 -15 10 0 6 7 10 15 10 8 0 15 -4 15 -10z"/>
<path d="M2944 1102 c19 -8 19 -9 -2 -14 -37 -10 -27 -38 12 -38 32 0 34 1 27
28 -5 19 -15 28 -32 29 -21 2 -21 2 -5 -5z m16 -32 c0 -5 -7 -10 -15 -10 -8 0
-15 5 -15 10 0 6 7 10 15 10 8 0 15 -4 15 -10z"/>
<path d="M3005 1080 c0 -16 5 -30 11 -30 7 0 9 10 6 25 -3 19 0 25 13 25 13 0
16 -6 13 -25 -4 -16 -1 -25 8 -25 9 0 10 8 5 28 -5 19 -15 28 -32 30 -21 2
-24 -1 -24 -28z"/>
<path d="M3100 1060 c0 -5 5 -10 10 -10 6 0 10 5 10 10 0 6 -4 10 -10 10 -5 0
-10 -4 -10 -10z"/>
<path d="M525 935 c0 -25 3 -45 8 -45 4 0 7 8 7 18 1 16 1 16 14 0 7 -10 19
-18 27 -18 8 0 6 6 -7 15 -19 15 -19 15 0 30 19 15 19 15 -1 15 -12 0 -24 -6
-26 -12 -3 -7 -6 -1 -6 15 -2 46 -16 30 -16 -18z"/>
<path d="M1977 960 c-9 -11 -12 -20 -7 -20 14 0 12 -37 -2 -43 -7 -3 3 -5 22
-5 19 0 27 2 18 5 -10 2 -18 13 -18 23 0 10 8 21 18 23 16 4 16 5 0 6 -26 2
-22 19 5 24 19 4 20 4 2 6 -11 0 -28 -8 -38 -19z"/>
<path d="M2915 935 c0 -42 2 -45 26 -45 36 0 56 24 38 46 -7 8 -21 13 -31 11
-13 -4 -18 0 -18 14 0 10 -3 19 -7 19 -5 0 -8 -20 -8 -45z m61 -6 c9 -15 -11
-33 -30 -26 -9 4 -13 13 -10 22 7 17 30 20 40 4z"/>
<path d="M4218 973 c19 -8 15 -71 -5 -76 -10 -3 -2 -5 17 -5 19 0 29 2 23 5
-8 2 -13 22 -13 44 0 31 -4 39 -17 38 -11 0 -13 -3 -5 -6z"/>
<path d="M4486 966 c4 -10 -2 -16 -18 -18 -17 -2 -23 -9 -23 -28 0 -20 5 -26
30 -28 30 -3 30 -3 27 43 -2 25 -8 45 -13 45 -4 0 -6 -6 -3 -14z m-1 -46 c0
-8 -8 -16 -17 -18 -13 -2 -18 3 -18 18 0 15 5 20 18 18 9 -2 17 -10 17 -18z"/>
<path d="M4938 973 c19 -8 15 -71 -5 -76 -10 -3 -2 -5 17 -5 19 0 29 2 23 5
-8 2 -13 22 -13 44 0 31 -4 39 -17 38 -11 0 -13 -3 -5 -6z"/>
<path d="M5097 960 c-9 -11 -12 -20 -7 -20 14 0 12 -37 -2 -43 -7 -3 3 -5 22
-5 19 0 27 2 18 5 -10 2 -18 13 -18 23 0 10 8 21 18 23 16 4 16 5 0 6 -26 2
-22 19 5 24 19 4 20 4 2 6 -11 0 -28 -8 -38 -19z"/>
<path d="M5565 935 c0 -26 5 -45 11 -45 7 0 9 10 6 25 -3 19 0 25 13 25 13 0
16 -6 13 -25 -3 -16 -1 -25 7 -25 20 0 5 52 -16 57 -11 3 -19 12 -19 19 0 8
-3 14 -7 14 -5 0 -8 -20 -8 -45z"/>
<path d="M5737 960 c-9 -11 -12 -20 -7 -20 14 0 12 -37 -2 -43 -7 -3 3 -5 22
-5 19 0 27 2 18 5 -10 2 -18 13 -18 23 0 10 8 21 18 23 16 4 16 5 0 6 -26 2
-22 19 5 24 19 4 20 4 2 6 -11 0 -28 -8 -38 -19z"/>
<path d="M125 930 c0 -22 5 -40 11 -40 6 0 9 15 8 35 -2 19 1 35 7 35 6 0 7
-5 3 -11 -4 -8 0 -8 15 0 29 16 26 21 -11 21 -32 0 -33 -2 -33 -40z"/>
<path d="M369 960 c-5 -56 11 -78 43 -62 22 11 22 11 -4 6 -24 -5 -28 -3 -28
15 0 15 7 21 23 22 20 1 20 2 2 6 -11 3 -23 10 -27 17 -5 7 -8 6 -9 -4z"/>
<path d="M609 960 c-5 -56 11 -78 43 -62 22 11 22 11 -4 6 -24 -5 -28 -3 -28
15 0 15 7 21 23 22 20 1 20 2 2 6 -11 3 -23 10 -27 17 -5 7 -8 6 -9 -4z"/>
<path d="M1165 960 c-9 -15 4 -30 26 -30 11 0 19 -7 19 -16 0 -12 -7 -15 -25
-12 -14 3 -25 1 -25 -4 0 -5 12 -8 27 -6 35 4 45 37 14 45 -12 3 -21 10 -21
15 0 6 9 8 20 5 11 -3 20 -1 20 4 0 12 -47 11 -55 -1z"/>
<path d="M2757 943 c9 -55 13 -60 28 -33 19 33 18 50 0 26 -15 -19 -15 -19
-15 1 0 12 6 24 13 26 6 3 2 6 -9 6 -18 1 -20 -4 -17 -26z"/>
<path d="M2808 963 c14 -6 16 -33 2 -33 -12 0 -13 -27 -1 -34 5 -3 13 12 19
34 9 37 9 40 -12 39 -11 0 -15 -3 -8 -6z"/>
<path d="M3169 960 c-5 -56 11 -78 43 -62 22 11 22 11 -4 6 -24 -5 -28 -3 -28
15 0 15 7 21 23 22 20 1 20 2 2 6 -11 3 -23 10 -27 17 -5 7 -8 6 -9 -4z"/>
<path d="M3800 930 c0 -39 1 -40 35 -40 19 0 35 5 35 10 0 6 -11 8 -25 4 -19
-5 -25 -2 -25 11 0 9 5 13 10 10 6 -3 10 1 10 10 0 9 -4 13 -10 10 -5 -3 -10
-1 -10 4 0 15 27 14 33 -1 3 -8 6 -6 6 5 1 12 -7 17 -29 17 -28 0 -30 -2 -30
-40z"/>
<path d="M3955 930 c0 -22 5 -40 10 -40 6 0 10 16 10 37 0 20 -4 38 -10 40 -6
2 -10 -15 -10 -37z"/>
<path d="M4008 963 c-5 -29 -1 -73 7 -73 6 0 10 18 10 40 0 22 -3 40 -7 40 -5
0 -9 -3 -10 -7z"/>
<path d="M4769 960 c-5 -56 11 -78 43 -62 22 11 22 11 -4 6 -24 -5 -28 -3 -28
15 0 15 7 21 23 22 20 1 20 2 2 6 -11 3 -23 10 -27 17 -5 7 -8 6 -9 -4z"/>
<path d="M204 936 c-10 -26 4 -46 31 -46 23 0 26 4 23 28 -3 31 -44 45 -54 18z
m46 -16 c0 -13 -7 -20 -20 -20 -19 0 -27 20 -13 33 13 14 33 6 33 -13z"/>
<path d="M285 920 c0 -16 5 -30 11 -30 7 0 9 10 6 25 -3 19 0 25 13 25 13 0
16 -6 13 -25 -4 -16 -1 -25 8 -25 9 0 10 8 5 28 -5 19 -15 28 -32 30 -21 2
-24 -1 -24 -28z"/>
<path d="M464 942 c19 -8 19 -9 -2 -14 -37 -10 -27 -38 12 -38 32 0 34 1 27
28 -5 19 -15 28 -32 29 -21 2 -21 2 -5 -5z m16 -32 c0 -5 -7 -10 -15 -10 -8 0
-15 5 -15 10 0 6 7 10 15 10 8 0 15 -4 15 -10z"/>
<path d="M698 943 c18 -7 15 -41 -5 -46 -10 -3 -2 -5 17 -5 19 0 29 2 23 5 -7
2 -13 16 -13 29 0 16 -5 24 -17 23 -11 0 -13 -3 -5 -6z"/>
<path d="M764 936 c-10 -27 4 -46 33 -45 21 1 23 3 8 6 -34 8 -41 23 -11 23
18 0 26 5 24 13 -7 18 -47 21 -54 3z m39 -3 c-7 -2 -19 -2 -25 0 -7 3 -2 5 12
5 14 0 19 -2 13 -5z"/>
<path d="M848 943 c6 -2 12 -13 12 -23 0 -10 -6 -21 -12 -23 -7 -3 3 -5 22 -5
19 0 27 2 17 5 -23 6 -18 39 6 37 9 -1 14 2 11 7 -3 5 -20 9 -37 8 -18 0 -26
-3 -19 -6z"/>
<path d="M924 936 c-10 -27 4 -46 33 -45 21 1 23 3 8 6 -34 8 -41 23 -11 23
18 0 26 5 24 13 -7 18 -47 21 -54 3z m39 -3 c-7 -2 -19 -2 -25 0 -7 3 -2 5 12
5 14 0 19 -2 13 -5z"/>
<path d="M1005 920 c0 -16 5 -30 11 -30 7 0 9 10 6 25 -3 19 0 25 13 25 13 0
16 -6 13 -25 -4 -16 -1 -25 8 -25 9 0 10 8 5 28 -5 19 -15 28 -32 30 -21 2
-24 -1 -24 -28z"/>
<path d="M1258 943 c18 -7 15 -41 -5 -46 -10 -3 -2 -5 17 -5 19 0 29 2 23 5
-7 2 -13 16 -13 29 0 16 -5 24 -17 23 -11 0 -13 -3 -5 -6z"/>
<path d="M1324 936 c-10 -27 4 -46 33 -45 21 1 23 3 8 6 -34 8 -41 23 -11 23
18 0 26 5 24 13 -7 18 -47 21 -54 3z m39 -3 c-7 -2 -19 -2 -25 0 -7 3 -2 5 12
5 14 0 19 -2 13 -5z"/>
<path d="M1488 920 c4 -25 9 -30 31 -30 25 0 27 3 23 30 -3 19 -10 30 -21 30
-13 0 -13 -2 -2 -9 8 -5 11 -16 8 -25 -10 -25 -27 -19 -27 9 0 14 -4 25 -8 25
-5 0 -7 -13 -4 -30z"/>
<path d="M1565 920 c0 -16 5 -30 11 -30 7 0 9 10 6 25 -3 19 0 25 13 25 13 0
16 -6 13 -25 -4 -16 -1 -25 8 -25 9 0 10 8 5 28 -5 19 -15 28 -32 30 -21 2
-24 -1 -24 -28z"/>
<path d="M1650 935 c0 -8 9 -15 20 -15 11 0 20 -5 20 -11 0 -7 -10 -9 -25 -7
-14 3 -25 1 -25 -4 0 -5 12 -8 27 -6 22 2 28 9 30 31 1 23 -2 27 -23 27 -15 0
-24 -6 -24 -15z"/>
<path d="M1824 942 c19 -8 19 -9 -2 -14 -37 -10 -27 -38 12 -38 32 0 34 1 27
28 -5 19 -15 28 -32 29 -21 2 -21 2 -5 -5z m16 -32 c0 -5 -7 -10 -15 -10 -8 0
-15 5 -15 10 0 6 7 10 15 10 8 0 15 -4 15 -10z"/>
<path d="M1888 920 c4 -25 9 -30 31 -30 25 0 27 3 23 30 -3 19 -10 30 -21 30
-13 0 -13 -2 -2 -9 8 -5 11 -16 8 -25 -10 -25 -27 -19 -27 9 0 14 -4 25 -8 25
-5 0 -7 -13 -4 -30z"/>
<path d="M2128 920 c4 -25 9 -30 31 -30 25 0 27 3 23 30 -3 19 -10 30 -21 30
-13 0 -13 -2 -2 -9 8 -5 11 -16 8 -25 -10 -25 -27 -19 -27 9 0 14 -4 25 -8 25
-5 0 -7 -13 -4 -30z"/>
<path d="M2205 920 c0 -16 5 -30 11 -30 7 0 9 10 6 25 -3 19 0 25 13 25 13 0
16 -6 13 -25 -4 -16 -1 -25 8 -25 9 0 10 8 5 28 -5 19 -15 28 -32 30 -21 2
-24 -1 -24 -28z"/>
<path d="M2290 935 c0 -8 9 -15 20 -15 11 0 20 -5 20 -11 0 -7 -10 -9 -25 -7
-14 3 -25 1 -25 -4 0 -5 12 -8 27 -6 22 2 28 9 30 31 1 23 -2 27 -23 27 -15 0
-24 -6 -24 -15z"/>
<path d="M2364 936 c-10 -27 4 -46 33 -45 21 1 23 3 8 6 -34 8 -41 23 -11 23
18 0 26 5 24 13 -7 18 -47 21 -54 3z m39 -3 c-7 -2 -19 -2 -25 0 -7 3 -2 5 12
5 14 0 19 -2 13 -5z"/>
<path d="M2448 943 c6 -2 12 -13 12 -23 0 -10 -6 -21 -12 -23 -7 -3 3 -5 22
-5 19 0 27 2 17 5 -23 6 -18 39 6 37 9 -1 14 2 11 7 -3 5 -20 9 -37 8 -18 0
-26 -3 -19 -6z"/>
<path d="M2524 936 c-10 -27 4 -46 33 -45 21 1 23 3 8 6 -34 8 -41 23 -11 23
18 0 26 5 24 13 -7 18 -47 21 -54 3z m39 -3 c-7 -2 -19 -2 -25 0 -7 3 -2 5 12
5 14 0 19 -2 13 -5z"/>
<path d="M2608 943 c6 -2 12 -13 12 -23 0 -10 -6 -21 -12 -23 -7 -3 3 -5 22
-5 19 0 27 2 17 5 -23 6 -18 39 6 37 9 -1 14 2 11 7 -3 5 -20 9 -37 8 -18 0
-26 -3 -19 -6z"/>
<path d="M2844 936 c-10 -27 4 -46 33 -45 21 1 23 3 8 6 -34 8 -41 23 -11 23
18 0 26 5 24 13 -7 18 -47 21 -54 3z m39 -3 c-7 -2 -19 -2 -25 0 -7 3 -2 5 12
5 14 0 19 -2 13 -5z"/>
<path d="M3010 935 c0 -8 9 -15 20 -15 11 0 20 -5 20 -11 0 -7 -10 -9 -25 -7
-14 3 -25 1 -25 -4 0 -5 12 -8 27 -6 22 2 28 9 30 31 1 23 -2 27 -23 27 -15 0
-24 -6 -24 -15z"/>
<path d="M3098 943 c18 -7 15 -41 -5 -46 -10 -3 -2 -5 17 -5 19 0 29 2 23 5
-7 2 -13 16 -13 29 0 16 -5 24 -17 23 -11 0 -13 -3 -5 -6z"/>
<path d="M3244 936 c-10 -27 4 -46 33 -45 21 1 23 3 8 6 -34 8 -41 23 -11 23
18 0 26 5 24 13 -7 18 -47 21 -54 3z m39 -3 c-7 -2 -19 -2 -25 0 -7 3 -2 5 12
5 14 0 19 -2 13 -5z"/>
<path d="M3475 905 c0 -39 3 -45 20 -44 11 0 14 3 8 6 -22 8 -14 23 11 23 28
0 42 26 25 46 -6 8 -23 14 -38 14 -24 0 -26 -3 -26 -45z m61 24 c9 -15 -11
-33 -30 -26 -9 4 -13 13 -10 22 7 17 30 20 40 4z"/>
<path d="M3564 936 c-10 -27 4 -46 33 -45 21 1 23 3 8 6 -34 8 -41 23 -11 23
18 0 26 5 24 13 -7 18 -47 21 -54 3z m39 -3 c-7 -2 -19 -2 -25 0 -7 3 -2 5 12
5 14 0 19 -2 13 -5z"/>
<path d="M3648 943 c6 -2 12 -13 12 -23 0 -10 -6 -21 -12 -23 -7 -3 3 -5 22
-5 19 0 27 2 17 5 -23 6 -18 39 6 37 9 -1 14 2 11 7 -3 5 -20 9 -37 8 -18 0
-26 -3 -19 -6z"/>
<path d="M4064 942 c19 -8 19 -9 -2 -14 -37 -10 -27 -38 12 -38 32 0 34 1 27
28 -5 19 -15 28 -32 29 -21 2 -21 2 -5 -5z m16 -32 c0 -5 -7 -10 -15 -10 -8 0
-15 5 -15 10 0 6 7 10 15 10 8 0 15 -4 15 -10z"/>
<path d="M4138 943 c18 -7 15 -41 -5 -46 -10 -3 -2 -5 17 -5 19 0 29 2 23 5
-7 2 -13 16 -13 29 0 16 -5 24 -17 23 -11 0 -13 -3 -5 -6z"/>
<path d="M4364 936 c-10 -26 4 -46 31 -46 23 0 26 4 23 28 -3 31 -44 45 -54
18z m46 -16 c0 -13 -7 -20 -20 -20 -19 0 -27 20 -13 33 13 14 33 6 33 -13z"/>
<path d="M4524 936 c-10 -27 4 -46 33 -45 21 1 23 3 8 6 -34 8 -41 23 -11 23
18 0 26 5 24 13 -7 18 -47 21 -54 3z m39 -3 c-7 -2 -19 -2 -25 0 -7 3 -2 5 12
5 14 0 19 -2 13 -5z"/>
<path d="M4608 943 c6 -2 12 -13 12 -23 0 -10 -6 -21 -12 -23 -7 -3 3 -5 22
-5 19 0 27 2 17 5 -23 6 -18 39 6 37 9 -1 14 2 11 7 -3 5 -20 9 -37 8 -18 0
-26 -3 -19 -6z"/>
<path d="M4844 936 c-10 -27 4 -46 33 -45 21 1 23 3 8 6 -34 8 -41 23 -11 23
18 0 26 5 24 13 -7 18 -47 21 -54 3z m39 -3 c-7 -2 -19 -2 -25 0 -7 3 -2 5 12
5 14 0 19 -2 13 -5z"/>
<path d="M5004 936 c-10 -27 4 -46 33 -45 21 1 23 3 8 6 -34 8 -41 23 -11 23
18 0 26 5 24 13 -7 18 -47 21 -54 3z m39 -3 c-7 -2 -19 -2 -25 0 -7 3 -2 5 12
5 14 0 19 -2 13 -5z"/>
<path d="M5164 936 c-10 -26 4 -46 31 -46 23 0 26 4 23 28 -3 31 -44 45 -54
18z m46 -16 c0 -13 -7 -20 -20 -20 -19 0 -27 20 -13 33 13 14 33 6 33 -13z"/>
<path d="M5245 920 c0 -16 5 -30 11 -30 7 0 9 10 6 25 -3 19 0 25 13 25 13 0
16 -6 13 -25 -4 -16 -1 -25 8 -25 9 0 10 8 5 28 -5 19 -15 28 -32 30 -21 2
-24 -1 -24 -28z"/>
<path d="M5338 943 c18 -7 15 -41 -5 -46 -10 -3 -2 -5 17 -5 19 0 29 2 23 5
-7 2 -13 16 -13 29 0 16 -5 24 -17 23 -11 0 -13 -3 -5 -6z"/>
<path d="M5410 935 c0 -8 9 -15 20 -15 11 0 20 -5 20 -11 0 -7 -10 -9 -25 -7
-14 3 -25 1 -25 -4 0 -5 12 -8 27 -6 22 2 28 9 30 31 1 23 -2 27 -23 27 -15 0
-24 -6 -24 -15z"/>
<path d="M5484 935 c-10 -25 4 -45 30 -45 14 0 27 4 31 9 3 6 -7 9 -22 8 -19
-1 -28 3 -28 13 0 9 9 15 23 14 12 0 22 3 22 8 0 14 -50 8 -56 -7z"/>
<path d="M5808 920 c4 -25 9 -30 31 -30 25 0 27 3 23 30 -3 19 -10 30 -21 30
-13 0 -13 -2 -2 -9 8 -5 11 -16 8 -25 -10 -25 -27 -19 -27 9 0 14 -4 25 -8 25
-5 0 -7 -13 -4 -30z"/>
<path d="M5888 943 c6 -2 12 -13 12 -23 0 -10 -6 -21 -12 -23 -7 -3 3 -5 22
-5 19 0 27 2 17 5 -23 6 -18 39 6 37 9 -1 14 2 11 7 -3 5 -20 9 -37 8 -18 0
-26 -3 -19 -6z"/>
<path d="M3893 933 c9 -2 25 -2 35 0 9 3 1 5 -18 5 -19 0 -27 -2 -17 -5z"/>
<path d="M162 910 c7 -11 16 -20 20 -20 5 0 3 9 -4 20 -7 11 -16 20 -20 20 -5
0 -3 -9 4 -20z"/>
<path d="M3980 920 c0 -5 5 -10 10 -10 6 0 10 5 10 10 0 6 -4 10 -10 10 -5 0
-10 -4 -10 -10z"/>
<path d="M3333 895 c-9 -25 4 -29 17 -6 7 15 7 21 0 21 -6 0 -13 -7 -17 -15z"/>
<path d="M937 800 c-9 -11 -12 -20 -7 -20 14 0 12 -37 -2 -43 -7 -3 3 -5 22
-5 19 0 27 2 18 5 -10 2 -18 13 -18 23 0 10 8 21 18 23 16 4 16 5 0 6 -26 2
-22 19 5 24 19 4 20 4 2 6 -11 0 -28 -8 -38 -19z"/>
<path d="M369 800 c-5 -56 11 -78 43 -62 22 11 22 11 -4 6 -24 -5 -28 -3 -28
15 0 15 7 21 23 22 20 1 20 2 2 6 -11 3 -23 10 -27 17 -5 7 -8 6 -9 -4z"/>
<path d="M773 803 c11 -3 17 -14 17 -33 0 -19 -6 -30 -17 -33 -10 -3 -2 -5 17
-5 19 0 29 2 23 5 -7 2 -13 17 -13 33 0 16 6 31 13 33 6 3 -4 5 -23 5 -19 0
-27 -2 -17 -5z"/>
<path d="M1329 800 c-5 -56 11 -78 43 -62 22 11 22 11 -4 6 -24 -5 -28 -3 -28
15 0 15 7 21 23 22 20 1 20 2 2 6 -11 3 -23 10 -27 17 -5 7 -8 6 -9 -4z"/>
<path d="M122 759 c10 -28 12 -29 26 -15 9 8 12 19 8 23 -4 4 -12 1 -17 -7 -8
-12 -10 -10 -6 8 3 14 0 22 -8 22 -11 0 -12 -6 -3 -31z"/>
<path d="M164 760 c-1 -35 11 -31 18 5 3 15 1 25 -6 25 -6 0 -11 -13 -12 -30z"/>
<path d="M204 776 c-10 -27 4 -46 33 -45 21 1 23 3 8 6 -34 8 -41 23 -11 23
18 0 26 5 24 13 -7 18 -47 21 -54 3z m39 -3 c-7 -2 -19 -2 -25 0 -7 3 -2 5 12
5 14 0 19 -2 13 -5z"/>
<path d="M298 783 c18 -7 15 -41 -5 -46 -10 -3 -2 -5 17 -5 19 0 29 2 23 5 -7
2 -13 16 -13 29 0 16 -5 24 -17 23 -11 0 -13 -3 -5 -6z"/>
<path d="M444 776 c-10 -27 4 -46 33 -45 21 1 23 3 8 6 -34 8 -41 23 -11 23
18 0 26 5 24 13 -7 18 -47 21 -54 3z m39 -3 c-7 -2 -19 -2 -25 0 -7 3 -2 5 12
5 14 0 19 -2 13 -5z"/>
<path d="M528 783 c6 -2 12 -13 12 -23 0 -10 -6 -21 -12 -23 -7 -3 3 -5 22 -5
19 0 27 2 17 5 -23 6 -18 39 6 37 9 -1 14 2 11 7 -3 5 -20 9 -37 8 -18 0 -26
-3 -19 -6z"/>
<path d="M604 776 c-10 -27 4 -46 33 -45 21 1 23 3 8 6 -34 8 -41 23 -11 23
18 0 26 5 24 13 -7 18 -47 21 -54 3z m39 -3 c-7 -2 -19 -2 -25 0 -7 3 -2 5 12
5 14 0 19 -2 13 -5z"/>
<path d="M845 760 c0 -16 5 -30 11 -30 7 0 9 10 6 25 -3 19 0 25 13 25 13 0
16 -6 13 -25 -4 -16 -1 -25 8 -25 9 0 10 8 5 28 -5 19 -15 28 -32 30 -21 2
-24 -1 -24 -28z"/>
<path d="M1004 776 c-10 -26 4 -46 31 -46 23 0 26 4 23 28 -3 31 -44 45 -54
18z m46 -16 c0 -13 -7 -20 -20 -20 -19 0 -27 20 -13 33 13 14 33 6 33 -13z"/>
<path d="M1088 783 c6 -2 12 -13 12 -23 0 -10 -6 -21 -12 -23 -7 -3 3 -5 22
-5 19 0 27 2 17 5 -26 7 -17 38 12 39 19 1 22 -3 18 -22 -2 -15 1 -24 8 -24 8
0 10 9 7 25 -2 15 0 25 7 25 6 0 11 -11 11 -25 0 -24 3 -25 59 -25 l59 0 -7
28 c-5 19 -15 28 -32 29 -22 2 -22 2 -4 -6 18 -8 18 -10 2 -10 -10 -1 -21 -9
-24 -18 -6 -15 -8 -14 -13 7 -6 24 -10 25 -80 27 -41 0 -69 -1 -62 -4z m119
-35 c-3 -7 -5 -2 -5 12 0 14 2 19 5 13 2 -7 2 -19 0 -25z m73 2 c0 -5 -7 -10
-15 -10 -8 0 -15 5 -15 10 0 6 7 10 15 10 8 0 15 -4 15 -10z"/>
<path d="M1418 783 c18 -7 15 -41 -5 -46 -10 -3 -2 -5 17 -5 19 0 29 2 23 5
-7 2 -13 16 -13 29 0 16 -5 24 -17 23 -11 0 -13 -3 -5 -6z"/>
<path d="M1484 776 c-10 -26 4 -46 31 -46 23 0 26 4 23 28 -3 31 -44 45 -54
18z m46 -16 c0 -13 -7 -20 -20 -20 -19 0 -27 20 -13 33 13 14 33 6 33 -13z"/>
<path d="M1565 760 c0 -16 5 -30 11 -30 7 0 9 10 6 25 -3 19 0 25 13 25 13 0
16 -6 13 -25 -4 -16 -1 -25 8 -25 9 0 10 8 5 28 -5 19 -15 28 -32 30 -21 2
-24 -1 -24 -28z"/>
<path d="M1644 776 c-10 -27 4 -46 33 -45 21 1 23 3 8 6 -34 8 -41 23 -11 23
18 0 26 5 24 13 -7 18 -47 21 -54 3z m39 -3 c-7 -2 -19 -2 -25 0 -7 3 -2 5 12
5 14 0 19 -2 13 -5z"/>
<path d="M1725 760 c0 -16 5 -30 11 -30 7 0 9 10 6 25 -3 19 0 25 13 25 13 0
16 -6 13 -25 -4 -16 -1 -25 8 -25 9 0 10 8 5 28 -5 19 -15 28 -32 30 -21 2
-24 -1 -24 -28z"/>
<path d="M1820 740 c0 -5 5 -10 10 -10 6 0 10 5 10 10 0 6 -4 10 -10 10 -5 0
-10 -4 -10 -10z"/>
<path d="M457 480 c-9 -11 -12 -20 -7 -20 14 0 12 -37 -2 -43 -7 -3 3 -5 22
-5 19 0 27 2 18 5 -10 2 -18 13 -18 23 0 10 8 21 18 23 16 4 16 5 0 6 -26 2
-22 19 5 24 19 4 20 4 2 6 -11 0 -28 -8 -38 -19z"/>
<path d="M886 486 c4 -10 -2 -16 -18 -18 -17 -2 -23 -9 -23 -28 0 -20 5 -26
30 -28 30 -3 30 -3 27 43 -2 25 -8 45 -13 45 -4 0 -6 -6 -3 -14z m-1 -46 c0
-8 -8 -16 -17 -18 -13 -2 -18 3 -18 18 0 15 5 20 18 18 9 -2 17 -10 17 -18z"/>
<path d="M938 493 c19 -8 15 -71 -5 -76 -10 -3 -2 -5 17 -5 19 0 29 2 23 5 -8
2 -13 22 -13 44 0 31 -4 39 -17 38 -11 0 -13 -3 -5 -6z"/>
<path d="M1165 455 c0 -26 5 -45 11 -45 7 0 9 10 6 25 -3 19 0 25 13 25 13 0
16 -6 13 -25 -3 -16 -1 -25 7 -25 20 0 5 52 -16 57 -11 3 -19 12 -19 19 0 8
-3 14 -7 14 -5 0 -8 -20 -8 -45z"/>
<path d="M1728 456 c-2 -26 0 -46 4 -46 5 0 8 18 8 40 0 23 5 40 11 40 6 0 9
-7 6 -15 -4 -8 -2 -17 3 -20 6 -4 10 -13 10 -21 0 -8 -4 -12 -10 -9 -5 3 -10
1 -10 -5 0 -7 6 -10 13 -8 14 5 23 48 9 48 -5 0 -9 8 -8 17 0 10 -6 19 -15 21
-13 2 -18 -7 -21 -42z"/>
<path d="M115 450 c0 -22 5 -40 10 -40 6 0 10 16 10 37 0 20 -4 38 -10 40 -6
2 -10 -15 -10 -37z"/>
<path d="M168 483 c-5 -29 -1 -73 7 -73 6 0 10 18 10 40 0 22 -3 40 -7 40 -5
0 -9 -3 -10 -7z"/>
<path d="M289 480 c-5 -56 11 -78 43 -62 22 11 22 11 -4 6 -24 -5 -28 -3 -28
15 0 15 7 21 23 22 20 1 20 2 2 6 -11 3 -23 10 -27 17 -5 7 -8 6 -9 -4z"/>
<path d="M1484 476 c-3 -8 -4 -25 -2 -38 4 -32 53 -39 61 -9 4 17 1 21 -16 20
-12 0 -16 -3 -9 -6 19 -8 14 -23 -9 -23 -16 0 -20 5 -17 28 2 21 8 27 26 26
12 0 22 3 22 8 0 14 -50 9 -56 -6z"/>
<path d="M218 463 c18 -7 15 -41 -5 -46 -10 -3 -2 -5 17 -5 19 0 29 2 23 5 -7
2 -13 16 -13 29 0 16 -5 24 -17 23 -11 0 -13 -3 -5 -6z"/>
<path d="M528 463 c6 -2 12 -13 12 -23 0 -10 -6 -21 -12 -23 -7 -3 3 -5 22 -5
19 0 27 2 17 5 -23 6 -18 39 6 37 9 -1 14 2 11 7 -3 5 -20 9 -37 8 -18 0 -26
-3 -19 -6z"/>
<path d="M604 456 c-10 -27 4 -46 33 -45 21 1 23 3 8 6 -34 8 -41 23 -11 23
18 0 26 5 24 13 -7 18 -47 21 -54 3z m39 -3 c-7 -2 -19 -2 -25 0 -7 3 -2 5 12
5 14 0 19 -2 13 -5z"/>
<path d="M688 440 c4 -25 9 -30 31 -30 25 0 27 3 23 30 -3 19 -10 30 -21 30
-13 0 -13 -2 -2 -9 8 -5 11 -16 8 -25 -10 -25 -27 -19 -27 9 0 14 -4 25 -8 25
-5 0 -7 -13 -4 -30z"/>
<path d="M765 440 c0 -16 5 -30 11 -30 7 0 9 10 6 25 -3 19 0 25 13 25 13 0
16 -6 13 -25 -4 -16 -1 -25 8 -25 9 0 10 8 5 28 -5 19 -15 28 -32 30 -21 2
-24 -1 -24 -28z"/>
<path d="M1018 463 c18 -7 15 -41 -5 -46 -10 -3 -2 -5 17 -5 19 0 29 2 23 5
-7 2 -13 16 -13 29 0 16 -5 24 -17 23 -11 0 -13 -3 -5 -6z"/>
<path d="M1084 455 c-10 -25 4 -45 30 -45 14 0 27 4 31 9 3 6 -7 9 -22 8 -19
-1 -28 3 -28 13 0 9 9 15 23 14 12 0 22 3 22 8 0 14 -50 8 -56 -7z"/>
<path d="M1244 456 c-10 -27 4 -46 33 -45 21 1 23 3 8 6 -34 8 -41 23 -11 23
18 0 26 5 24 13 -7 18 -47 21 -54 3z m39 -3 c-7 -2 -19 -2 -25 0 -7 3 -2 5 12
5 14 0 19 -2 13 -5z"/>
<path d="M1325 440 c0 -16 5 -30 11 -30 7 0 9 10 6 25 -3 19 0 25 13 25 13 0
16 -6 13 -25 -4 -16 -1 -25 8 -25 9 0 10 8 5 28 -5 19 -15 28 -32 30 -21 2
-24 -1 -24 -28z"/>
<path d="M1568 463 c6 -2 12 -13 12 -23 0 -10 -6 -21 -12 -23 -7 -3 3 -5 22
-5 19 0 27 2 17 5 -23 6 -18 39 6 37 9 -1 14 2 11 7 -3 5 -20 9 -37 8 -18 0
-26 -3 -19 -6z"/>
<path d="M1648 440 c4 -25 9 -30 31 -30 25 0 27 3 23 30 -3 19 -10 30 -21 30
-13 0 -13 -2 -2 -9 8 -5 11 -16 8 -25 -10 -25 -27 -19 -27 9 0 14 -4 25 -8 25
-5 0 -7 -13 -4 -30z"/>
<path d="M1804 456 c-10 -27 4 -46 33 -45 21 1 23 3 8 6 -34 8 -41 23 -11 23
18 0 26 5 24 13 -7 18 -47 21 -54 3z m39 -3 c-7 -2 -19 -2 -25 0 -7 3 -2 5 12
5 14 0 19 -2 13 -5z"/>
<path d="M1885 440 c0 -16 5 -30 11 -30 7 0 9 10 6 25 -3 19 0 25 13 25 13 0
16 -6 13 -25 -4 -16 -1 -25 8 -25 9 0 10 8 5 28 -5 19 -15 28 -32 30 -21 2
-24 -1 -24 -28z"/>
<path d="M140 440 c0 -5 5 -10 10 -10 6 0 10 5 10 10 0 6 -4 10 -10 10 -5 0
-10 -4 -10 -10z"/>
<path d="M205 135 c0 -26 5 -45 11 -45 7 0 9 10 6 25 -3 19 0 25 13 25 13 0
16 -6 13 -25 -3 -16 -1 -25 7 -25 20 0 5 52 -16 57 -11 3 -19 12 -19 19 0 8
-3 14 -7 14 -5 0 -8 -20 -8 -45z"/>
<path d="M133 163 c11 -3 17 -14 17 -33 0 -19 -6 -30 -17 -33 -10 -3 -2 -5 17
-5 19 0 29 2 23 5 -7 2 -13 17 -13 33 0 16 6 31 13 33 6 3 -4 5 -23 5 -19 0
-27 -2 -17 -5z"/>
<path d="M445 160 c-9 -15 4 -30 26 -30 11 0 19 -7 19 -16 0 -12 -7 -15 -25
-12 -14 3 -25 1 -25 -4 0 -5 12 -8 27 -6 35 4 45 37 14 45 -12 3 -21 10 -21
15 0 6 9 8 20 5 11 -3 20 -1 20 4 0 12 -47 11 -55 -1z"/>
<path d="M1081 153 c0 -11 3 -13 6 -5 2 6 9 12 14 12 14 0 11 -58 -3 -63 -7
-3 1 -5 17 -5 17 0 24 2 18 5 -7 2 -13 19 -13 36 0 24 3 28 10 17 8 -13 10
-12 10 3 0 12 -8 17 -30 17 -22 0 -30 -5 -29 -17z"/>
<path d="M288 143 c6 -2 12 -13 12 -23 0 -10 -6 -21 -12 -23 -7 -3 3 -5 22 -5
19 0 27 2 17 5 -23 6 -18 39 6 37 9 -1 14 2 11 7 -3 5 -20 9 -37 8 -18 0 -26
-3 -19 -6z"/>
<path d="M524 136 c-10 -27 4 -46 33 -45 21 1 23 3 8 6 -34 8 -41 23 -11 23
18 0 26 5 24 13 -7 18 -47 21 -54 3z m39 -3 c-7 -2 -19 -2 -25 0 -7 3 -2 5 12
5 14 0 19 -2 13 -5z"/>
<path d="M608 143 c6 -2 12 -13 12 -23 0 -10 -6 -21 -12 -23 -7 -3 3 -5 22 -5
19 0 27 2 17 5 -23 6 -18 39 6 37 9 -1 14 2 11 7 -3 5 -20 9 -37 8 -18 0 -26
-3 -19 -6z"/>
<path d="M695 119 c9 -17 18 -29 19 -27 33 49 36 58 21 58 -8 0 -14 -3 -14 -7
3 -21 -2 -33 -12 -28 -6 4 -8 13 -5 21 3 8 -1 14 -10 14 -13 0 -12 -4 1 -31z"/>
<path d="M778 143 c18 -7 15 -41 -5 -46 -10 -3 -2 -5 17 -5 19 0 29 2 23 5 -7
2 -13 16 -13 29 0 16 -5 24 -17 23 -11 0 -13 -3 -5 -6z"/>
<path d="M844 135 c-10 -25 4 -45 30 -45 14 0 27 4 31 9 3 6 -7 9 -22 8 -19
-1 -28 3 -28 13 0 9 9 15 23 14 12 0 22 3 22 8 0 14 -50 8 -56 -7z"/>
<path d="M924 136 c-10 -27 4 -46 33 -45 21 1 23 3 8 6 -34 8 -41 23 -11 23
18 0 26 5 24 13 -7 18 -47 21 -54 3z m39 -3 c-7 -2 -19 -2 -25 0 -7 3 -2 5 12
5 14 0 19 -2 13 -5z"/>
<path d="M1164 136 c-10 -27 4 -46 33 -45 21 1 23 3 8 6 -34 8 -41 23 -11 23
18 0 26 5 24 13 -7 18 -47 21 -54 3z m39 -3 c-7 -2 -19 -2 -25 0 -7 3 -2 5 12
5 14 0 19 -2 13 -5z"/>
<path d="M1264 142 c19 -8 19 -9 -2 -14 -12 -4 -22 -13 -22 -22 0 -12 11 -16
49 -16 46 0 48 1 43 25 -2 15 0 25 7 25 6 0 11 -11 11 -25 0 -20 5 -25 24 -25
22 0 23 3 17 28 -6 22 -14 28 -43 30 -33 3 -35 1 -31 -22 3 -15 1 -26 -5 -26
-6 0 -12 10 -14 23 -2 15 -11 23 -28 24 -21 2 -22 1 -6 -5z m103 -34 c-3 -7
-5 -2 -5 12 0 14 2 19 5 13 2 -7 2 -19 0 -25z m-87 2 c0 -5 -7 -10 -15 -10 -8
0 -15 5 -15 10 0 6 7 10 15 10 8 0 15 -4 15 -10z"/>
</g>
</svg>
